<svg xmlns="http://www.w3.org/2000/svg" viewBox="0 0 156.42 158.11"><defs><style>.cls-1{fill:#232323;}</style></defs><g id="Layer_2" data-name="Layer 2"><g id="OBJECTS"><path class="cls-1" d="M156.42,71.25v-.19l-22-11.82-8-4.32L119.06,51l-8-4.32L90.89,35.84l.2-11.64C91,15.16,84.81.36,77.5,0h-.35C69.7.12,63.85,15.46,64,24.64l.46,10.8L0,72.81A12.92,12.92,0,0,0,12.9,85.52a13.07,13.07,0,0,0,3-.35l10.75-2.53q3.93-.93,7.89-1.66v4.77a2,2,0,0,0,2,2h2.45a2,2,0,0,0,2-2V79.92h0q2.79-.42,5.58-.73h0v4.59a2,2,0,0,0,2,2h2.44a2,2,0,0,0,2-2V78.58q6.66-.49,13.36-.48l.86,20.23.28,6.76.85,20L49.13,146.73a2.68,2.68,0,0,0,2.58,4.4l21.65-4.67c.37,1,.73,2,1.09,3,1.23,3.35,2.38,6.26,3.14,8.15h0l.19.47A32.32,32.32,0,0,0,83.12,149l.23-.6.86-2.27L107.34,151a2.69,2.69,0,0,0,2.57-4.41L89.36,123.49l.34-19,.11-6.76.09-5L90,86l.08-5,0-2h.15q6-.27,11.95-.13h0v3.56a3.21,3.21,0,0,0,6.41,0V79.17c1.87.11,3.74.26,5.6.43h0v4.79a3.2,3.2,0,1,0,6.4,0v-4c3.21.42,6.42.94,9.61,1.55l10.36,2,.22,0,.27.06.59.09h0l.6.07h0l.21,0h.07l.32,0h1.27a11.4,11.4,0,0,0,1.31-.14q.59-.1,1.14-.24c.27-.07.54-.16.8-.25l.3-.09c.29-.1.57-.22.85-.34l.2-.09c.29-.13.58-.27.86-.43l.14-.07c.29-.17.58-.35.85-.53l.06,0a13,13,0,0,0,2.47-2.16h0A12.78,12.78,0,0,0,156.42,71.25ZM118.72,58.4a2.31,2.31,0,0,1-1.52,4.27c-8.77-1.24-20.06-2-26.79.58l.38-21.81ZM72.29,6.76l9.94-.16A13.05,13.05,0,0,1,84.53,11l-14.4.24A12.12,12.12,0,0,1,72.29,6.76ZM38.75,62.81a2.31,2.31,0,0,1-1.54-4.26L64.72,41.8l.9,21.35C58.88,60.65,47.51,61.54,38.75,62.81Zm24,80.72A1.86,1.86,0,0,1,61,140.48l7.9-9.09c.15.75.33,1.55.53,2.36a1.6,1.6,0,0,1,0,.21c.19.74.39,1.5.6,2.27s.37,1.28.57,1.93c0,.18.1.36.16.55.29.95.59,1.92.91,2.88l.11.4Zm34-3.11a1.86,1.86,0,0,1-1.7,3.06L85.69,142v0a.17.17,0,0,1,0-.05.24.24,0,0,0,0-.08l.07-.18c0-.07,0-.15.09-.25L86,141l.18-.52c0-.09.07-.19.1-.29a79,79,0,0,0,2.56-9Z"/></g></g></svg>