<svg xmlns="http://www.w3.org/2000/svg" viewBox="0 0 180.02 105.24"><defs><style>.cls-1{fill:#232323;}</style></defs><g id="Layer_2" data-name="Layer 2"><g id="Objects"><path class="cls-1" d="M0,63.66a4.8,4.8,0,0,0,.69,1.07,2,2,0,0,0,.5.48c.2.12.19-.12.39.11C.64,63.92.44,63.66.33,63.5s-.16-.1-.22-.09S0,63.69,0,63.66Z"/><path class="cls-1" d="M15,69.38l.43,1a39.94,39.94,0,0,0-1.47-4c-.83-1.94-1.78-3.78-1.78-3.78s.81,1.63,1.52,3.34S15,69.38,15,69.38Z"/><path class="cls-1" d="M20.07,70.18c-.59-1.12-1.51-2.67-2.58-4.5s-2.31-3.92-3.76-6c-3-4.13-6.46-8.61-9.83-11.38l2.21-1.07v.31a4.82,4.82,0,0,0,0,.58,4,4,0,0,0,.09.59,5.25,5.25,0,0,0,.33.49l.47.58c.34.65.5.91.74,1.34l.67,1.17c-.36-.87-.73-1.76-1.1-2.67A5.65,5.65,0,0,1,6.88,49a3.25,3.25,0,0,1-.23-.54,3.41,3.41,0,0,1-.2-1.16L3.69,48.59c3.7,2.86,6.82,7.1,9.65,11C16,63.42,18.11,67.4,20.07,70.18Z"/><path class="cls-1" d="M15.54,46.92c.28.83-.48-.49-.56-.62s.6.86,3.43,6.53L18,51.73C17.45,50.7,16.76,49.29,15.54,46.92Z"/><path class="cls-1" d="M18,51.73c2.44,5-1.38-3.39,0,0Z"/><path class="cls-1" d="M14.77,53.31l-2.13-2.84c-1.06-1.39-2.16-2.68-2.16-2.68l2.27,3.35c.8,1.21,1.33,2.06.62,1.13,1.06,1.47,1.82,2.53,2.33,3.2s.77,1,.81.94A22,22,0,0,0,14.77,53.31Z"/><path class="cls-1" d="M19.05,58.66l-2.16-3A19.5,19.5,0,0,0,19.05,58.66Z"/><path class="cls-1" d="M12.21,49.33s1.17,1.5,2.33,3.1l2.35,3.21a8.32,8.32,0,0,0-2.14-3C15.28,53.1,14.25,51.87,12.21,49.33Z"/><path class="cls-1" d="M9.64,45.93c-.65-.8-1.39-1.62-2-2.25l3.75-3c1.15,2.17,1.72,3.35-.28.17L7.84,43.44c.19.16.52.43.88.77-.32-.33-.65-.61-.85-.8l3.18-2.57c2.91,4.89,4.16,7.19,4.22,7a10.84,10.84,0,0,0-.89-2c-.63-1.23-1.57-3-2.9-5.28L7.53,43.78C8.14,44.34,8.88,45.08,9.64,45.93Z"/><path class="cls-1" d="M23.55,71l0,.07-1.28.74a41.13,41.13,0,0,1-3-4.51l-1.34-1.93c-.65-1-1.31-2-1.31-2,.63.93,1.83,3.07,3,5a18.89,18.89,0,0,0,2.6,3.45l1.78.25-.46-1C23.56,71,23.55,71,23.55,71Z"/><path class="cls-1" d="M31.37,59.6c-.31-.36.61,2.43.63,3l1.1,2.49,1,2.52C33.31,64.93,31.33,60,31.37,59.6Z"/><path class="cls-1" d="M32,62.61s-.83-1.85-1.71-3.67-1.81-3.61-1.81-3.61C31.5,61.87,32,63.11,32,62.61Z"/><path class="cls-1" d="M20.42,59.27l-1.21-1.64c-.72-1-1.68-2.29-2.69-3.61l-2.7-3.57-1.23-1.57s.59.73,1.46,1.88l3.2,4.3,4.58,6.29Z"/><path class="cls-1" d="M17.24,32.73a10.26,10.26,0,0,0,1,1.42l.21.25.12.15c.06.09.16.19.22.3l.26.41.2.28.39.6-.4-.62-.2-.31-.27-.43-.2-.27-.1-.12-.18-.21-.32-.45a10.39,10.39,0,0,1-1.06-1.94L11.52,35c.51.47,1,.92,1.54,1.41-.5-.49-1-1-1.52-1.43l5.29-3.19A9.7,9.7,0,0,0,17.24,32.73Z"/><path class="cls-1" d="M23.05,49.23c-2.18-2.53,2.27,4,.07,1.24.81,1.1,1.6,2.16,2.38,3.18l2.22,2.89c1.42,1.86,2.75,3.61,4,5.28C29.18,58.18,26.5,54.4,23.05,49.23Z"/><path class="cls-1" d="M35.72,67.53c-1.21-1.84-2.54-3.71-4-5.71Z"/><path class="cls-1" d="M22.19,43.15a40.84,40.84,0,0,0-2.7-5.72l1.17,3Z"/><path class="cls-1" d="M20.7,40.5l0-.1-2.1-3.77c-.13-.25-.26-.48-.39-.7L18,35.61a2.38,2.38,0,0,0-.25-.41l-.3-.45-.19-.3c.09.15.21.35.39.61.4.57.51.88.82,1.4Z"/><path class="cls-1" d="M22.58,43.85l-.39-.7A2.2,2.2,0,0,0,22.58,43.85Z"/><path class="cls-1" d="M32.3,76.88l.18.15,5.21,4.45L35.62,75.1c-.75-2.31-2-5.67-2.76-7.3s-.85-1.6.52,2.9c.66,1.54.63,1.06.74,1s.39.21,1.49,3.43L32.48,77Z"/><path class="cls-1" d="M24,47.51l.63,1.17c.38.7.85,1.69,1.32,2.64l1.82,3.85c0-.19-.48-1.66.63.41,0,0-1.05-2-2.14-4.07-.54-1-1.09-2-1.52-2.77Z"/><polygon class="cls-1" points="21.87 43.95 24.02 47.51 22.51 44.75 21.87 43.95"/><path class="cls-1" d="M28.18,55.36c2.23,2.85,4.46,6.12,6.87,9.89-2.48-4.1-5.22-8.24-8-12C26.57,52.74,25.19,51.2,28.18,55.36Z"/><path class="cls-1" d="M17.71,40.94l.51.61C18,41.14,17.71,40.82,17.71,40.94Z"/><path class="cls-1" d="M30.59,42.46c.09.23.18.43.28.67l.15.11Z"/><path class="cls-1" d="M26.67,52.5a77.62,77.62,0,0,0-4.73-6.29c1.62,2.15,3.32,4.48,5.14,7C27.3,53.4,27.37,53.43,26.67,52.5Z"/><path class="cls-1" d="M43.92,69.26c.4,1,.82,2,1.31,3.25l-4.75,2.41-1.29-2.44c.32.65.78,1.57,1.22,2.48l4.89-2.48A29.85,29.85,0,0,0,43.92,69.26Z"/><path class="cls-1" d="M18.87,42.57l-.34-.42C19.17,43.14,19.12,43,18.87,42.57Z"/><path class="cls-1" d="M18.87,42.57l3.07,3.64c-1.33-1.75-2.59-3.33-3.72-4.66C18.47,41.91,18.71,42.29,18.87,42.57Z"/><path class="cls-1" d="M21.35,32.21A36.34,36.34,0,0,1,25,37.44,84.62,84.62,0,0,1,30.84,48c2,3.54,2.63,4,2.51,2.73a35.29,35.29,0,0,0-2.48-7.63C30.58,43,30.52,43,26,35.91c.66,1.31,3,5.36,4.47,8.46s2.3,5.07.52,2c-2.7-4.88-3.91-6.81-4.61-8.2S25.33,36,24,33.64c1,2.08-1-.82-3.08-4l-1.49-2.37c-.46-.76-1-1.47-1.34-2-.75-1.06-.92-1.82-1-1.16a6.07,6.07,0,0,0,.65,1.43l.82,1.32.89,1.55c1.22,2.1,2.51,4.15,2.51,4.15C22,32.78,20.08,29.82,21.35,32.21Z"/><path class="cls-1" d="M38,57.53l1.49,3.12C37.93,57,36.9,54.41,34.85,49.59c-2.78-5.08-3.54-6.05-3.83-6.35l1.26,2.38C33,47,34,49,34.93,50.87c1.88,3.84,3.64,7.71,3.64,7.71Z"/><path class="cls-1" d="M39.67,72.78c.36.44.83,1.1,1.33,1.84l3.68-1.86c-1.6-2.88-3.52-6.73-2.23-2.94q.91,2,1.5,3.27L41.7,74.23c-3-5-2.46-3.59-5.25-7.87,8.4,13.81-2.54-3.88,3.2,6.28-1.65-2.7-3.16-5.13-4.6-7.39,1.5,2.48,2.89,4.91,4.14,7.23L39,72.15l0-.07h0c-.3-.62-.39-.84,0-.15l.18.29a3.28,3.28,0,0,1,.5.55c2.24,4.1.28.69-.5-.55,0,0-.13-.14-.16-.14l0,.06,1.6,2.69,4.45-2.26L39.51,60.65c1.21,2.79,2.72,6.18,5.38,12l-4.08,2.06C40.58,74.35,40.14,73.58,39.67,72.78Z"/><path class="cls-1" d="M29.42,62.85c-.16-.48-.13-.47-.11-.52C28.84,61.38,28.65,61,29.42,62.85Z"/><path class="cls-1" d="M26.92,56.61a42.66,42.66,0,0,1,2.64,5.44c1.18,3.15-.19.06-.25.28,1,2.09,3.33,7.47.8.58l-.5-1C27.19,55.73,23.73,48,24.3,49,24.85,50.86,25.38,52.48,26.92,56.61Z"/><path class="cls-1" d="M19.87,41.69S22,44.32,24,47l4.06,5.44-3.74-5.83,0,.42C19.85,40.8,20.57,42.35,19.87,41.69Z"/><path class="cls-1" d="M30,41l1.3,1.37s-1.11-1.68-2.26-3.3l-2.3-3.23,1.64,2.56Z"/><path class="cls-1" d="M21.1,25.82l.65.38-.37-.61c-.3-.5-.65-1-.91-1.41a6.72,6.72,0,0,1-.47-.81.13.13,0,0,0,0-.05h0s0,0-.07,0l-.26,0,.21,0c.15,0,.07,0,.09,0s0,0,0,.05a2.38,2.38,0,0,0,.23.68c.16.34.39.76.59,1.12Z"/><path class="cls-1" d="M83.31,30.16,81.47,26.6C82.32,28.29,82.88,29.37,83.31,30.16Z"/><path class="cls-1" d="M95.33,56.27l.45.58C95.18,55.66,94.9,55.19,95.33,56.27Z"/><path class="cls-1" d="M56.11,31.86c-2.51-5.3-5.37-11.21-5.39-10.38l.54,1.77C53.39,26.73,54.9,29.49,56.11,31.86Z"/><path class="cls-1" d="M89.6,64.34l-.74-1.54-2.34-3.18Z"/><path class="cls-1" d="M93.19,67l3.54,6.81C96,72.28,94.84,70.08,93.19,67Z"/><path class="cls-1" d="M101.34,49.1l-2.08-4.16C101.87,51.7,100.92,48.65,101.34,49.1Z"/><path class="cls-1" d="M49.76,60.18l5.93,11C53,65.75,50.87,61.37,49.76,60.18Z"/><path class="cls-1" d="M92.4,38.41c-1.13-2.18-1.66-3.08-1.72-3C91.85,37.67,92.53,38.92,92.4,38.41Z"/><path class="cls-1" d="M62.73,83.92l-1.29-2.4c-1.91-3.24-3.62-6.48-5.75-10.38,1,2,2,4.1,3.19,6.28A61.92,61.92,0,0,0,62.73,83.92Z"/><path class="cls-1" d="M140.06,73.54l-.47-1.21C139.49,72.24,139.72,72.77,140.06,73.54Z"/><path class="cls-1" d="M147.48,54.79a4.9,4.9,0,0,0-1-.68l2.63-2.46c.5,1.14,1.29,2.94,2.07,4.65-.39-.9-1-2.27-2.05-4.65l-2.66,2.47A4.31,4.31,0,0,1,147.48,54.79Z"/><path class="cls-1" d="M53.08,79.42c-2.47-3.16-.45-.46,0,0Z"/><path class="cls-1" d="M44.42,63a4.92,4.92,0,0,0,1,1.17A6.84,6.84,0,0,1,44.42,63Z"/><path class="cls-1" d="M51.42,50.56l-.15-.29C51.7,51.3,51.63,51.12,51.42,50.56Z"/><path class="cls-1" d="M49.81,74.5c.74,1.22,1.63,2.65,2.76,4.17C52.09,78,51.19,76.71,49.81,74.5Z"/><path class="cls-1" d="M50.07,75.26c-.7-1.11-1.25-2-1.77-2.82C48,72.08,48.15,72.46,50.07,75.26Z"/><path class="cls-1" d="M59.82,77.85a11.49,11.49,0,0,1,.42,2.24l.66,7.23-5.23-5.1a30.48,30.48,0,0,1-3.1-3.55c.46.64.66.91.51.75a31,31,0,0,0,2.58,2.81L61,87.33l-.72-7.25A12.08,12.08,0,0,0,59.82,77.85Z"/><path class="cls-1" d="M97.64,16.5l.43.68C100.39,20.19,99.41,18.83,97.64,16.5Z"/><path class="cls-1" d="M78.34,65.89l-.21-.38.24.51Z"/><path class="cls-1" d="M84.62,77.83A113.36,113.36,0,0,1,78.37,66l.89,4.54Z"/><path class="cls-1" d="M104.05,53.55l-4-8.6c5.86,9.8,9.31,17.47,5.82,9.19-.93-.32-5.07-8.48-9.52-16.62-2.22-4.06-4.57-8.07-6.55-11.07s-3.53-5-4-5l-3.27-5.32c1,1.48,1.21,1.66,2.2,3.13a70.34,70.34,0,0,0-6-8.7L74.48,13.2C76.15,15.26,78,17.59,81.33,25c2.25,5,3.74,8.47,2,5.2l5.56,10.75c1.48,3.19.9,2.51-.57-.65,0,0,2,4.13,3.92,8.3S95.87,57,95.87,57l-.09-.11c1.19,2.33,3.64,7.77,4.78,10.45,1.46,4.46-1-2.15-.7-1l3.87,9.47c1.11,4-2.13-3.82-4.57-10.42a47.3,47.3,0,0,0,3.22,9.88c.68,1.61,1.49,3.58,2.6,6.33a105.12,105.12,0,0,1,3.85,11.09s-.75-2.21-1.61-4.42-1.78-4.43-1.78-4.43c.71,2.82,1.73,5.8,2.71,9.2l6.3-2.28c-1.51-3.91-3.32-8.43-5.37-13.93.82,2.51,7.28,20.7,2.73,10.56-1.11-2.93-2.63-6.77-5.25-12.19.41-.24-2-5.61-5.16-12.27l.8.18a69.46,69.46,0,0,0-3.53-6.38c-.77-1.21-1.39-2-2.62-4-2.09-4-3.36-6.33-4.12-8A37.7,37.7,0,0,1,90.48,41c-7.33-12.18,4.46,8.77-4.44-5.49-2.48-4.16-4.8-7.77-7.17-11.31-1.11-1.72-2.27-3.63-3.58-5.53-.66-1-1.36-1.94-2.15-2.93a20.06,20.06,0,0,0-2.84-3l-3.24,2.56,3.34,6.11c3.52,7.42-1-1.1.17,1.61l3.73,6.26c.79,1.6.39,1.16.19.93,2.9,5.4.82.16,5.21,8.74.89,1,2.82,5.57,5.17,11.22s5,12.42,7.77,17.72c1,2.76-.93-1.15-.8-.23,2.93,6.17,4.46,9.4,5.75,12.1s2.48,4.9,4.16,8.89l2.68-1.25c-.15-.11-1.15-1.6-2.38-3.47l-2.67-5.06-2.65-5.09c3.73,7.57-2-1.52-7.13-9.48,1.29,2.7,2.39,5,3.13,6.56l-3.88-6.44-3.94-6.4c-.84-1.61.14-.43,1.61,1.56C86,58.76,85.42,58,85,57.32c-2.58-4.72-.82-2.54,1.47.6.83,1.64,1.63,3.28,2.4,4.88,2.2,3,4.29,5.84,4.23,5-.55-.81-1.53-2.42-2.6-4.2.58.79,1,1.28.8.86s-1.1-1.77-2.48-3.82L87.68,57.3,87,56.72s-2.42-4.31-5-8.54-5.34-8.37-5.34-8.37c-4.12-5.29-8.22-10-12.8-15.44-2.3-2.71-4.71-5.58-7.28-8.81-1.28-1.63-2.62-3.32-4-5.1-.17-.24-.35-.42-.49-.65s-.21-.51-.34-.78a9.38,9.38,0,0,0-.95-1.54,8.25,8.25,0,0,0-2.85-2.41l-.47-.24.28.44c.59.94,1.25,2,1.92,3.09-3.32-4.48-1.35-.58-2-.51-.28-.61-.6-1.25-1-1.95L44.37,1.58,48.52,4a10.45,10.45,0,0,1,4.15,4.57c.12.23.26.57.31.68s.17.26.28.43l1,1.26,2.06,2.64c2.82,3.64,6,7.57,9.1,11.74-3.6-4.86-2.56-4-1.55-2.82,0,0-3.25-4-6.43-8.06l-2.34-3L54,10.05l-.5-.64a1.15,1.15,0,0,1-.24-.35L53,8.45c-.12-.23-.23-.45-.35-.65a11,11,0,0,0-.65-1A8,8,0,0,0,51.3,6c.2,0,.09-.26-.31-.75A8.22,8.22,0,0,0,48.8,3.46L42.77,0l3.36,6.21c.88,1.6,2.17,3.76,3.49,6-.68-2,1.55,1.19,4.54,5.67S60.63,28.38,62.76,32c0,.31-.35.06-1.28-1.38S59,26.54,56.4,22.17a107.63,107.63,0,0,0,6.6,11,63,63,0,0,1,6.11,11.17,33.8,33.8,0,0,0-2.27-4.26c1.46,2.53,3.69,7,5.27,10.57s2.51,6.09,1.71,4.61L72.8,53c2.35,5.29,5.36,12.6,8.08,20,.68,1.86,1.35,3.72,2,5.56s1.33,3.68,2,5.4c1.32,3.47,2.46,6.66,3.19,9.41l2.54-.9c-2.41-4.69-4.13-7.84-4.68-8.4a10.1,10.1,0,0,1,2.46,2.36s-3.84-6.4-7.76-12.74c-2-3.17-3.95-6.32-5.46-8.67l-2.54-3.9c1.86,2-1.25-7.76,5.5,4.33a158.81,158.81,0,0,0-8.21-15.22c1.26,2.42,2.36,6.43.52,3.22-2.13-4.63-3-6.21-3.93-8s-2.1-3.89-5.18-9.37c2,3.53-1.3.29-4.82-5.06.7.74.64-1.07,2,.82,0,0-2.43-3.19-4.93-6.31s-5-6.21-5-6.21c2.47,3.12,1.2,0-.64-3.07.53,1-3.25-4.35-6.69-8.93L37.71,9.28a35.1,35.1,0,0,0,3.4,6.46s-.87-1.49-1.65-3.08c-.4-.8-.76-1.62-1-2.25S38,9.33,38,9.33a30.7,30.7,0,0,0,2.89,5.57c1,1.51,1.86,2.78,2.69,3.9,1.69,2.25,3,3.94,4.26,5.77a109.89,109.89,0,0,1,9.35,15.06c-1.24-1.79-3.71-4,.31,4,.59.86,1.56,2.23,2.76,4.05s2.59,4.11,4.15,6.72c3.15,5.18,6.85,11.81,10.39,18.78l1.07,2.84a68,68,0,0,1,3.62,7.25l-2.18,1.43a25.1,25.1,0,0,1-2.94-3.26,36,36,0,0,0,3.08,3.12l1.86-1.22c-1.81-3.76-5.67-9-8.87-14.93s-6.75-12-9.18-16.57c2.57,6.22.43,1.87,4.66,11,1.21,3.37-2.71-4.78-4-7.46L66.8,66.1c1.2,2.67,2.4,5.35,3.31,7.36s1.64,3.38,1.64,3.38c0-.33.66.61,1.55,2.12a48.67,48.67,0,0,1,2.83,5.61l3.74-2.45c-2.79-2.51-4.71-6.07-4.77-5.54a26.63,26.63,0,0,0,4.54,5.78l-3.2,2.09a75.7,75.7,0,0,0-3.83-7.64c-.71-1.29-1.42-2.61-2.1-4L68.57,68.9c.06-.43,1.07,1,2.66,3.78l3,5a52.16,52.16,0,0,1,3.3,6.4l1.38-.9a23,23,0,0,1-4.07-5c-1.22-1.93-2.32-4-3.49-6.16-.93-1.9-.28-1.36.6-.4s2,2.41,2,2.2c-.31-.44-1-1.54-1.81-2.92s-1.82-3-2.8-4.72c-1.94-3.34-3.82-6.64-4.13-7.34l3.79,6c-2.16-4.1-4.22-7.29-6.4-10.68s-4.48-7-7.29-11.84c-2.06-3.27-5.8-10-6.53-10.33,3,5.59,1.72,7.94-1.12,4.86-.36-.57-3.1-4.78-6.15-9.25S35.13,18.3,34,16.44c-3.35-5.4,6.88,6.69,4,2.09a37.75,37.75,0,0,1-3.52-3.83c-2.14-3,.93.38-2.93-4.67L28.5,11.54a15.36,15.36,0,0,0,.59,1.68c.3.32.93,1.57,1.72,2.92s1.62,2.83,2.24,4c1.25,2.26,1.53,2.84-1.51-3.28,4.32,7.39,4.37,8,9.43,16.7-.62-1.49.85.26,3,3.34s4.81,7.56,6.85,11.34c-.38-.37.29,1.45.62,2.33,3.28,6.57,5.74,12,8,17.13a114.12,114.12,0,0,1,5.85,16L66,83.4c-1.13-1.83-2.34-4-3.6-6.33-.56-1.41-4.15-8.47-2.29-5.65-1.24-2-2.47-3.81-5-8.19-2.18-4.39-.75-2,.82.72s3.27,5.65,1.76,2.21c-.63-.39-7-11.12-10.95-17.11.31,1.11,2.45,4.67,4.94,8.76S57,66.5,58.85,69.61C58.12,70,51.36,59.45,42,45.15c-3.67-5.7-4.4-7-4.3-7.12s.94.89.25-.06c-4.36-6.84-7.7-10.74-9.94-14.1l1.84-1.19c2.55,3.46,4.14,5.86,6,8.92s4.06,6.76,7.34,13.27c3.46,7.76-.76.82-.23,2.67-2.67-4.86-4.72-8.59-6.47-12s-3.22-6.41-5.21-9.63c0,0,1.16,2,2.24,4.07s2.13,4.11,2.13,4.11c-1.56-2.51-4.36-7.45-6.66-10.87l-.14.09L30,25.24l-1.11-1.92.07-.05c1.4,2.19,3.39,5.6,5.63,9.79s5.05,9,7.75,14.12c1.34,2.57,2.66,5.21,3.83,7.93l3.57,8C51,65.72,52,68.28,53.15,70.69a59,59,0,0,1,3.21,6.61,11.2,11.2,0,0,1,.94,3l.42-.2c-2.18-1.93-3.79-4-2.64-2.25a28.26,28.26,0,0,0,2.36,2.53l.28.26,0-.37A10.12,10.12,0,0,0,57,77.54c-.42-1.39-.36-1.4,0-.76a10.78,10.78,0,0,1,1.13,3.46l.2,1.54-1.21-1.07c-1-.9-1.89-1.83-2.2-2.13s-.13.06,1.21,1.58a39.6,39.6,0,0,1-4.3-5.08c-1.34-1.84-2.64-3.77-4-5.81-2.69-4.07-5.45-8.6-8.43-13.65l-.65-2.2a105.07,105.07,0,0,0,5.6,9.47c-1.39-2-3.54-6-5.85-9.94A81.44,81.44,0,0,0,32,43l4.09,7.19c-4.88-6.89-10.58-15.58-17.43-22.91a35.07,35.07,0,0,0,2.34,3A30.72,30.72,0,0,1,24.25,35c-1.54-2.76,2.44,2.37,5.72,7.57s6.41,10,4,5.4c3.48,6.83,6.66,11.25,11.28,20.17,0-.38-1.56-3.21,3,4.32.27.31.84,1.06,1.2,1.54l.31.52-.24-.43c.23.31.26.33-.1-.16a44.68,44.68,0,0,1-2.14-4c.82,1,2.06,2.86,3.55,5a40.52,40.52,0,0,0,5.48,6.58l3.29,3-.4-4.4a11.61,11.61,0,0,0-.73-3,22.85,22.85,0,0,0-1-2.35c-.71-1.41-1.39-2.53-1.87-3.33-2.36-4.56,1.22,1.77.08-.8l-.56-.92c-.34-.54-.7-1.21-1.11-2L52.4,64.61c.13-.83-5-12.94.28-1.86L48.15,52.67A151.45,151.45,0,0,0,38.42,34c-1.21-2.26-2.89-5.11-4.05-6.89s-1.66-2.5-.32-.59c-.94-1.55-1.93-3.1-3-4.61l-4.28,2.77c2.27,3.55,4.77,6.63,7,9.85v.19c4.71,7,9.42,14.38,14.15,22.11,2.35,3.87,4.67,7.84,6.92,11.94s4.33,8.34,6.58,12.8c.66,1.12,1.36,2.24,2.12,3.41L68,83a135.78,135.78,0,0,0-6.31-16.6l-.42-1.88c-1.58-3.36-3.88-8.45-6.07-13A106.18,106.18,0,0,0,50,41.65a104.47,104.47,0,0,0-7-13.73l-5.24-9q-1.32-2.34-2.64-4.65a19.32,19.32,0,0,1-1.86-4L27.62,13c2.9,3.76,5.54,7.19,7.51,9.88l.7.09c5.33,7.13,10.57,13.85,16.73,22.93V45.1a156.19,156.19,0,0,1,9.12,15.1c1.62,3,3.33,6.16,5.09,9.39l2.67,4.88c.88,1.63,1.77,3.33,2.8,5a20.52,20.52,0,0,1-1.71-2.76c-.7-1.28-1.42-2.69-2-3.89,1,2.08,2,4.22,3.28,6.42a27.6,27.6,0,0,0,4.76,6.35l4.14-2.72A82.64,82.64,0,0,0,76,73.31c-.4-.75-.79-1.5-1.16-2.24l-1.13-2.31c-.76-1.54-1.5-3.08-2.24-4.6-3-6.1-5.76-12-8-17.65-1.93-3.64-3.24-6.31-4.49-8.92l.5.9L58.63,37c-.78-1.64-1.6-3.33-2.52-5.13.74,1.56,1.45,3,2.09,4.33-1.5-2.79-3.88-7-6.35-11l-.59-2-.57-.93c-1.07-2-1.68-2.86-1.8-2.81s.19.89.66,2c-1.3-2.06-2.63-3.81-3.63-5.13a30.9,30.9,0,0,0-2.06-3.82,33.18,33.18,0,0,1-2.47-4.69l-3.28,1.8a42.67,42.67,0,0,1,4.07,6c1.1,1.14,4.62,5.83,8,10.5s6.67,9.33,7.7,10.14c0,.2.69,1.38-.68-.73,2.75,4.41,5.4,8.87,8,12.77l.58,2.21s1.6,2.34,3.14,4.73S72,60.15,72,60.15c2.89,6.28,4,8.92.42,3.06,4.13,7.16,5.64,10.17,7.06,12.87s2.66,5.14,6,11.35L84.83,87c.94,1.94,2.2,4.35,3.42,6.68l2.36-.83c-1-3.49-2.22-6.66-2.62-8.37-.39-1.36-1-3.2-1.71-5.42s-1.6-4.89-2.65-7.83c-2.09-5.88-4.85-12.94-8.21-20.35S68.16,35.71,64.05,28.29c-2-3.71-4.16-7.33-6.28-10.78s-4.2-6.69-6-9.77c1,2.54-.58,0-2.41-3.4L47,6.72a6.58,6.58,0,0,1,1.91,1.77,7.19,7.19,0,0,1,.66,1.14,6.39,6.39,0,0,1,.26.6l.18.47a1.47,1.47,0,0,0,.27.49l.92,1.24c.26.34.5.65.72.9a3.19,3.19,0,0,0,.94.89c.78,1.52,3.06,4.86.08,1.23C62,27.21,66.1,33.38,72.56,41.2c.75,1.53-2.15-2.32-1.41-1a45.26,45.26,0,0,1,3.59,5c.7,1.32-1.38-1.64-2.83-3.46,4.32,6.09,6.66,9.46,8.2,11.32s2.21,2.21,2.84,2.46a126.73,126.73,0,0,0,8.71,14.55c1.09,2.45,3,6.44-1.67-1.66,1.64,2.87,7.29,13.33,11.7,20.65l3.06-1.43a59.05,59.05,0,0,0-2.57-6,10.43,10.43,0,0,0-1.33-2.37c-.49-1.57-2.91-6.78-3.53-8C95,65.85,93.69,62.89,92.43,60s-2.51-5.85-5-11.12l1.26,3C86.06,48,84.47,43.09,80.26,34.7l.18.21c-3.87-8.42-5.27-11.08-6.27-13S72.54,19,70,13.82l-1.88,1.49a26.13,26.13,0,0,1,4,5.28l-.23-1.2a10.51,10.51,0,0,1,2.42,3.1c.54.87,1.12,1.89,1.78,3l2.17,3.62c3.07,5.14,6.67,11.46,10,16.63l-2-3.94a76.23,76.23,0,0,1,5.9,11.27c1.88,4.29,3.53,8.67,4.9,11.72.55,1.35-1.11-2-2.08-3.81,3.57,8,3.83,8.49,4.1,8.38s.35-.76,3,5.22c.65,2.35-2-2.53,1.41,5.61.67,1.87,3,6.82,5.63,12.77l4.63-1.68c-1.32-3.83-3-7.83-4.6-11.66s-2.86-7.59-3.85-10.75c.68,2.6,1.36,5.17-1-.5-1.68-4.38-3.68-10.42-6-16.27a105.66,105.66,0,0,0-7.1-15.07,6,6,0,0,1-.55-1.62c-1.63-3.15-4.22-8.23-6.62-13.06-1.21-2.42-2.43-4.78-3.57-6.74a40.79,40.79,0,0,0-2.9-4.43l-2,1.26.13.18c.52,1.64,2.41,4.8,4.92,8.5s5.48,8.06,8.13,12.45c5.3,8.74,9.7,17.11,9,17.37l1.58,3c.95,1.82,2.19,4.27,3.41,6.73,2.44,4.91,4.76,9.9,4.76,9.9l-.39-.46c2.93,6.39,4.88,10.72,6.55,14s2.78,5.38,3.79,7.58c.23.66.33,1.07.37,1.23l2.54-1.15c-.21-.5-.07-.34.13-.07L117.71,93c-.11-.21-.26-.53-.32-.61.08.24.16.48.21.65l3-1.37a28,28,0,0,1-2.23-5.88c-.52-1.87-1-3.65-1.41-5.24-.89-3.17-1.68-5.75-2.5-8.21-1.65-4.94-3.35-9.48-6.68-17.36l-.17-1.85c-1-2.13-3.31-9.2-6.79-18a152.13,152.13,0,0,0-6.29-13.94C94,20,93.29,18.86,92.64,17.69l-1-1.74-.47-.82-.47-.83c-.62-1.14-1.27-2.33-2-3.49a15.6,15.6,0,0,0-2.78-3.37,7.08,7.08,0,0,1,1.91,1.82,14,14,0,0,0-1.53-1.71A7,7,0,0,0,83.89,6l-5.37-2,3,4.85c3,4.83,6.52,9.7,9.67,14.65s6,10.12,8.67,14.85C105.19,47.93,109.45,56,112,59c0,0,1.83,3.26,3.56,6.57s3.4,6.65,3.4,6.65c-8.18-17.52,2,2.25-1.18-5.06,3.48,6.81,7.43,18.24,3.72,9.66l-.5-1.38c-1.13-1.37,1.28,4.12,3.51,10.07s4.22,12.35,3.82,12.2c.54,1.72,1,3.45,1.48,5.15l2.74-1.53a14.9,14.9,0,0,1-2.63-5.24c-.34-1-.64-2-1-3.11s-.71-2.19-1.06-3.19c-1.45-4.12-2.81-8.27-4.17-12.4-2.71-8.28-5.38-16.55-8.53-24.61S108.65,36.89,105,29.23c-1.84-3.83-3.75-7.62-5.71-11.33-.91-1.77-1.84-3.74-2.92-5.62a33.21,33.21,0,0,0-1.79-2.82A12.77,12.77,0,0,0,92,6.72L88.89,9.48c.49.84,1,1.65,1.48,2.45-.37-.89-.72-1.79-1.06-2.7l2.41-2.12.56.63.47.63-.55-.55-.62-.53L89.51,9.12c1.9,3.29,4.06,6.36,6.18,9.4,1.72,2.75,2.06,3.95-3-3.4a88.75,88.75,0,0,0,5.29,7.56c1.86,2.5,3.42,4.63,3.56,4.69,4.38,7.47,3.27,6.16,1.5,3.5s-4.41-6.52-3-4.27l1.91,3,1.88,3.07L103,31.27A128.45,128.45,0,0,1,112,45.77c3.07,6,1.23,3.28,2.46,5.64,0,0,.06.21.34.76s.77,1.46,1.54,2.86l7.27,13.91-2.42-5.83c3.5,6,6.86,13.08,4.06,6.36,1,2.32,3,6.41,5.47,11.38s5.54,10.84,8.11,16.88l3-1.17c-2.53-7-4.83-14.21-6.72-20s-3.39-10.24-3.89-11.91a285.53,285.53,0,0,0-12.84-28.76c.65,1.34,1,2.49.65,2.15s-1.44-2.19-3.93-6.71c1.19,1.06.08-1.42-2.05-5.2-1.06-1.87-2.32-4.09-3.61-6.38-.67-1.16-1.37-2.33-2.13-3.47a22.27,22.27,0,0,0-2.57-3.32L101.88,15c1.13,2.46,2.28,4.49,3.07,6-.91-1.69-.34-.94,1,.89s3.44,4.66,5.35,7.4c3.85,5.53,7.23,10.77,4.49,5.62,4.5,7.28-.12.7,3,6.36,2.62,4,5.21,8.32,7.77,12.86s5.07,9.37,7.69,14.27l8,15.06c2.76,5,5.2,10.44,9,15.49l3.7-1.74a34.44,34.44,0,0,0-1.38-4.35c-.15-.16.1.82.09,1.19s-.18.08-1.36-2.44l-.72-2-1.65-4.29-2.28-6.28c-2.07-4.53-2.76-3.79-5.86-12.39.38,1.24.95,3.09-.44,0l-1.63-3.9L138,59l-3.5-7.74-1.77-3.88-.89-1.94-.44-1c-.17-.35-.35-.71-.52-1-.68-1.28-1.33-2.5-1.9-3.73a18.9,18.9,0,0,1-.72-1.81,5,5,0,0,1-.32-1.52l-2.66,1.34a23.63,23.63,0,0,1,5.59,6.52l2.51,3.93,2.56,3.9,10.21,15.62c6.69,10.45,12.57,21.47,18.64,32.41l2.87,5.18.11-6a4.73,4.73,0,0,0-.92-2.81l.18.32c-.62-1.52-1.18-3.07-1.65-4.65L165,91c-.11-.43-.25-.85-.38-1.27l-.78-2.43c-1-3.24-2.11-6.47-3.26-9.68-2.27-6.46-5.14-12.68-7.78-18.81,2.6,6.29.6,2.21-1.58-2.47,1.33,3.08-.42.11-.36.81-.74-1.75-1.46-3.51-2.14-5.27l-2,1.85A8.58,8.58,0,0,1,149,55.94l2.32,3c1.52,2,2.94,4.06,4.33,6.16,1.36,1.34,4.57,6,7.59,10.49,1.5,2.25,3,4.49,4.24,6.22a21.49,21.49,0,0,0,2.75,3.33s-1-1.33-2-2.69l-1.95-2.73c2.83,3.47,1.38.66-.49-3s-4.31-8-3.54-7.73c-1.82-2.22-3.7-5-5.88-8.16-1.08-1.56-2.25-3.19-3.53-4.84-.64-.8-1.19-1.6-1.91-2.51A9.76,9.76,0,0,0,148.08,51l-3.64-2L146,53a164,164,0,0,0,8.63,18.22c1.25,3.34-1.52-2.65-.95-.82,2,3.56,4,8.07,6.81,16.84l-.43-.95c.74,2.2,1.47,4.25,2,6.2A58.66,58.66,0,0,0,164,98l.06.16.12.16a1.52,1.52,0,0,1,.31.93l3-.8-11.4-20.85c-1.94-3.49-4-7.12-6.44-11.08s-5.16-8.18-8.24-13l.78,2.06c-3.36-5.28-4-6.47-5.46-9-4.51-5.63,9.56,14.77,5.33,9.71-.92-1.85-2.86-5.06-5.29-8.91-.61-1-1.24-2-1.88-3s-1.32-2.12-2.06-3.22a23.54,23.54,0,0,0-5.68-6.28L124.52,33l0,3.3a8,8,0,0,0,.44,2.54,20.36,20.36,0,0,0,.8,2.05c.57,1.29,1.21,2.48,1.8,3.61.15.27.29.55.43.82s.23.47.37.78l.76,1.66c.49,1.09,1,2.14,1.4,3.13a72.69,72.69,0,0,1,3.37,8.46c4,8.74-.66-2.8,3.33,6l.75,2.46,1.32,2.07c2.47,5.81,3.41,8.87,3.28,9.19-.59-1.41-1.81-4-2.49-5.45,1.49,3.83,3.79,9.07,5.94,13.75,1.11,2.35,2.15,4.43,2.86,6.12A26.27,26.27,0,0,1,150.15,97s-.13-.51-.38-1.28-.61-1.79-1-2.83c-.83-2.06-1.79-4.17-1.79-4.17a49.66,49.66,0,0,1,3.79,9.5l3.91-1.83c-3.4-4.5-6-10.14-9.11-15.64s-6-11-9-16.53-5.93-10.94-9-16.14-6.2-10.16-9.32-14.74l.86,1.75c-4.22-6.29-6.59-9.62-8.51-12.38a73.81,73.81,0,0,1-5.59-9.22l-2.6,1.94a21.14,21.14,0,0,1,2.59,3.35c1,1.44,2,3.17,3.18,5.19l-.43-.64,1.89,2.93c.66,1,1.35,2.1,2,3.24,1.39,2.27,2.82,4.76,4.16,7.32-1.38-2.29-.29,0,.66,2.08s1.75,4,0,1c2.47,4.58,3.87,7.51,4.82,9.45s1.39,2.9,1.78,3.66.71,1.29,1.29,2.44,1.44,2.87,2.82,6l.73,3.13a123.68,123.68,0,0,1,5.57,14.72c-3-8.19,1.56,6.63-1.85-2.53,2.44,8.61,4.72,15.37,6.86,20.95L142,96.37c-1.86-4.12-3.67-7.52-5.25-10.62s-2.94-5.92-4.06-8.79c-2.85-4.3-.71,0,1.75,4.83s5.12,10.19,3.76,7.64c.9,2.25-.18.4-1.92-2.75s-4.17-7.6-5.76-10.72c-3.31-6.32-4.5-11.34-12.89-27.21.83,1.58,1,1.65,1.78,3.23-2.87-6.08-6.48-11.45-10.26-18.82-2.84-3.7-5.51-9.24-6.91-9.94,0,0,2.26,3.46,4.41,7s4.22,7.1,4.22,7.1c-2.4-4-4.93-7.8-7.9-12.17C101.46,23,99.83,20.59,98,18.06s-3.81-5.34-5.7-8.63c.72.94,3.41,4.58,5.34,7.07-1.92-3.06-4-5.68-5.76-8.75L89.94,9.47a7.51,7.51,0,0,1,1.53,1.76c-.26-.08-.87-.78-1.78-1.44l2.53-2.24c1.44,2.3,4.1,6.17,7.09,10.37s5.87,8.89,8.15,12.23a98,98,0,0,0-5.7-9.09c-2-2.92-3.38-4.74-1.57-2.92A57.47,57.47,0,0,1,92.48,7.4l-3,2.62a11.16,11.16,0,0,1,2,2.41c.66,1,1.3,2.12,1.94,3.28l2,3.67c.74,1.31,1.47,2.5,2.24,3.78l-.79-.48c1,1.65,3,5.07,4.49,8.24L99.69,28.2,98,25.51c4.91,8.46,7.79,17.11,11.6,25.64-3.77-9-4.2-10-3.87-9.85s1.23,1.69-.32-2.16c2.64,5.45,4.14,9,5.15,11.73s1.52,4.45,2,6.31c1,3.72,2.12,7.73,6.51,20.62-1.21-3.49-4.14-13.18-2.08-7.81,1.57,4.92,3.54,11.5,4.33,14.6,6,17.14-.47-2.79,2.34,4.42.33,1.39.74,2.66,1.08,3.69s.68,2.09,1.09,3.17.86,2.22,1.47,3.49a15.75,15.75,0,0,0,2.82,4.27L133,102l-.43-1.4.45-.18a90.58,90.58,0,0,0-3-9.5,13.86,13.86,0,0,0-1.29-2.69c-.65-1-1-1.74-4.41-10.42,0,0,.92,1.75,1.82,3.51l1.76,3.56-.58-1.41c-.35-.85-.81-2-1.3-3.09-1-2.25-2-4.46-2-4.46l1.3,1.63c-2.26-4.81-3.8-7.92-5.29-11s-2.94-6.2-5.27-10.83c.79,2.31-1.35-.82-5.76-8.83-2.79-5.58,2.14,2.81-4.3-8.44a50.54,50.54,0,0,1,6,10.16c.42.43,1.65,2.4,2.07,2.85-2.88-6.1-8.12-14.83-10.53-18.87.9,1.57,2,3.45,2.46,4.45,0,0-2.49-4-5.07-7.94l-3.58-5.4-1.69-2.44c-1.5-2.58-.06-.71,1.34,1.2-2.13-3.22-3.86-5.26-7-9.82,1.14,1,1.26.4,5.89,6.9-3.11-4.43-6.33-8.63-9.12-13l-3.14,3.85a2.19,2.19,0,0,1,.67.42c.11.17.43.53.82,1.17A24.2,24.2,0,0,1,85,14.17c.76,1.55,1.32,2.9.72,1.9.51,1.06,1.29,2.44,1.92,3.51s1.35,2.36,2,3.61c1.39,2.51,2.82,5.24,4.22,8.1a174,174,0,0,1,7.62,18.19c.31.6.86,1.85,1.9,4.44,2.14,5.77,3.93,11.24,5.74,17,.89,2.89,1.81,5.85,2.76,8.95.47,1.55,1,3.13,1.44,4.76s1,3.42,1.76,5.26A26,26,0,0,0,116.66,94l5.27-2.37c-.39-1.53-.84-3-1.32-4.48-2.44-5.35-1.48-2.61-.93-.79.28.92.44,1.62,0,1s-1.38-2.66-3.43-6.92c-5.77-12.19-1.53-4.84-3.32-9.23l-6.23-11.78c-2.48-4.74-5.29-10.07-7.91-15.71C100.87,47.24,102.25,50.14,104.05,53.55Zm7.85,34.08,1.62,3.51-4.41,1.59c-.79-2.24-1.74-4.63-2-5.85a21.69,21.69,0,0,1,2.31,5.76l3.82-1.38ZM79.56,46.08a60.05,60.05,0,0,1,4.6,7.45C82.79,51.35,81.24,48.86,79.56,46.08Zm-35.5-1-.16-.25C41.13,39.34,42.12,41.28,44.06,45.08Zm5.36,11.6c.58,1.13.61,1,.45.5-.49-.75-1.63-3.35-3-6.32A48,48,0,0,0,49.42,56.68Zm65.81-4.12-1-2.23C116.91,55.18,116.07,53.86,115.23,52.56Z"/><path class="cls-1" d="M92.74,66.63a3.11,3.11,0,0,1,.35,1.15C93.69,68.68,93.79,68.65,92.74,66.63Z"/><path class="cls-1" d="M101.72,49.88l-.15-.4a2.32,2.32,0,0,0-.23-.38Z"/><path class="cls-1" d="M35.15,14.38c1.52,2.11,2.33,3.33,2.85,4.15C38.18,18.58,37.54,17.57,35.15,14.38Z"/><path class="cls-1" d="M31.92,46.6l4.47,6.76c-2.1-3.24-2.82-4.53-3.8-6.23C32.59,47.34,33.28,48.73,31.92,46.6Z"/><path class="cls-1" d="M36.9,60.6c.55,1,1.05,2.28,1.58,3.32l.07-.38C36.46,58.94,34.79,55.82,36.9,60.6Z"/><path class="cls-1" d="M29.2,39.46c0-.74-2.9-5-6.54-9.19l.63.76c-.75-.46-.12.42,1.12,2S27.46,37,29.2,39.46Z"/><path class="cls-1" d="M21.81,29.29c-1.14-1.3-2.36-2.56-3.55-3.74C17.63,25.27,19.76,27,21.81,29.29Z"/><path class="cls-1" d="M56.36,71c1.21,2.45,1.28,1.26,1.87,2.77.47.67.14-.09-.52-1.29s-1.7-2.82-2.35-4a12.47,12.47,0,0,0-1.25-2.13,7.85,7.85,0,0,0,.49,1.23c.18.39.4.88.65,1.38S55.91,70.21,56.36,71Z"/><path class="cls-1" d="M27.69,34.93l.39,1c.19.49.37,1,.37,1l2.12,2.41L29.15,37.1C28.43,36,27.69,34.93,27.69,34.93Z"/><path class="cls-1" d="M51.43,73l-2.38-3.87-2.33-3.91a10.13,10.13,0,0,1-1.41-2C48.18,68.06,51.41,73.29,51.43,73Z"/><path class="cls-1" d="M45.31,63.25c-1.51-2.49-3-4.86-3.87-6.2C42.27,58.39,44,61.28,45.31,63.25Z"/><polygon class="cls-1" points="34.68 45.19 36.04 47.51 39.46 52.94 34.68 45.19"/><path class="cls-1" d="M42,43.7l2.67,4.18,2.63,4.2c.67.77-.63-1.6-2.62-4.71C43.37,45.41,41.37,42.33,42,43.7Z"/><path class="cls-1" d="M31.2,28.6c-1.26-2.34-1.27-2.54-1.94-3.9l-.69.1s.69.92,1.34,1.88Z"/><path class="cls-1" d="M42.75,42c.69.74,8,12,1.36,1.31C43.45,42.52,38,34.19,42.75,42Z"/><polygon class="cls-1" points="43.02 27.65 41.51 25.63 40.91 26.53 43.02 27.65"/><path class="cls-1" d="M47.13,26.61c2.84,5.1,3.28,5.64,3.69,6s.75.69,3.13,5.4c.75,1.14-.21-.78-1.19-2.69s-2-3.8-1.21-2.63C47.86,26.72,46.05,23.48,47.13,26.61Z"/><path class="cls-1" d="M51.55,32.73l1.88,3.08C52.39,34.05,51.88,33.23,51.55,32.73Z"/><path class="cls-1" d="M163.11,77l2,3.21c1,1.61,2.09,3.22,2.09,3.22l-1.28-2.13-1.23-2.14Z"/><path class="cls-1" d="M172.33,88.51s.16.46.35.91.37.91.37.91l1.29,1.07L180,96.16l-2.08-6.77a3.55,3.55,0,0,0-.78-1.36,5.85,5.85,0,0,0-.62-.59.75.75,0,0,1-.4-.6.79.79,0,0,0,.22.65c.1.12.29.31.53.61a3.81,3.81,0,0,1,.72,1.38l1.73,6.64-4.76-5A22,22,0,0,1,172.33,88.51Z"/><path class="cls-1" d="M104.82,67.73l-.38-.46c.34,1.14,1.06,2.77,2.46,6Z"/><polygon class="cls-1" points="78.64 21.85 79.38 23.43 78.49 20.25 78.64 21.85"/><path class="cls-1" d="M116.52,76.89c-1.43-3.22-3.27-6.93-4.75-10.15C115.12,73.67,116.23,78.06,116.52,76.89Z"/></g></g></svg>