<svg xmlns="http://www.w3.org/2000/svg" viewBox="0 0 291.24 64.18"><defs><style>.cls-1{fill:#e9e7e7;}</style></defs><g id="Layer_2" data-name="Layer 2"><g id="Objects"><path class="cls-1" d="M52,0c1.65-.07,1,.39,1.28.45C52,.41,51.66.32,51.69.2S52.07,0,52,0Z"/><polygon class="cls-1" points="22.77 7.36 23.35 7.34 18.91 8.46 22.77 7.36"/><path class="cls-1" d="M10.73,10.36a13.3,13.3,0,0,1-3.2,1.13,13.26,13.26,0,0,1-4.44.35l.74,2.26a11.62,11.62,0,0,1,3-1.38c1.13-.38,2.26-.71,3.3-1.08l.79-.41L13.33,11c-.8.26-1.53.52-2.46.8l-2.56.7c-.83.23-1.65.49-2.41.78a7.6,7.6,0,0,0-1.92,1l-.87-2.65C5.88,11.89,8.7,11,10.73,10.36Z"/><path class="cls-1" d="M25.74,5.79c-.91.44,3.36-.32-3.58.68l.64-.18Z"/><path class="cls-1" d="M22.8,6.29c-3,.51,1.95-.57,0,0Z"/><path class="cls-1" d="M36.84,4.37l-4,.29c.82-.28,4.36-.79,3-.73C40,3.52,39.13,3.79,36.84,4.37Z"/><path class="cls-1" d="M40.69,4.39l-2.08.16A6,6,0,0,1,40.69,4.39Z"/><path class="cls-1" d="M34.2,4.92l4.41-.37a2.56,2.56,0,0,1-2,.19C37,4.9,36.08,4.81,34.2,4.92Z"/><path class="cls-1" d="M31.73,5.37c-2.22.48-5.1,1-1.06.66-3.82.5-5.47.64-5.21.47A36.19,36.19,0,0,1,31.73,5.37Z"/><path class="cls-1" d="M12.37,10.71l-1.45.48-1.43.49-1.27.2L7,12C8.19,11.94,12.46,10.41,12.37,10.71Z"/><path class="cls-1" d="M61.78,1.28c.26.13-1.32.51-1.6.73l-3,.09C58.71,1.86,61.6,1.52,61.78,1.28Z"/><path class="cls-1" d="M60.18,2l4.46-.09C60.67,2.25,59.94,2.21,60.18,2Z"/><path class="cls-1" d="M41.5,5.09l-7.31.41,4.36-.31,4.35-.27Z"/><polygon class="cls-1" points="78.82 0.25 76.27 0 80.81 0.37 78.82 0.25"/><path class="cls-1" d="M79.45,8.51c2,0-2.53,1-.48.77l-1.13.17-1,.12-2,.24c-1.33.14-2.58.24-3.76.34,1.24-.16,2.52-.37,3.9-.64.7-.13,1.41-.28,2.17-.46Z"/><path class="cls-1" d="M67.13,10.52c1.24-.15,2.54-.25,4-.37C69.76,10.32,68.45,10.45,67.13,10.52Z"/><path class="cls-1" d="M72.22,1.35a12.48,12.48,0,0,1,3.49-.6L74,1.26Z"/><path class="cls-1" d="M73.91,1.27H74l3.79-.2Z"/><path class="cls-1" d="M71.78,1.38l.44,0A.74.74,0,0,1,71.78,1.38Z"/><path class="cls-1" d="M53,3.38c2.63,0,8.07-.26,2.86.58C54,3.86,57,3.35,53,3.38Z"/><path class="cls-1" d="M69.63,2l-4.71.42c.09-.12.92-.35-.38-.37Z"/><polygon class="cls-1" points="71.95 2.04 69.63 2.04 71.38 1.9 71.95 2.04"/><path class="cls-1" d="M75,8.7c-2,.18-4.24.56-6.72,1,2.64-.56,5.38-1.1,8-1.57C76.67,8.18,77.87,8.21,75,8.7Z"/><path class="cls-1" d="M86.06,5.25a3.54,3.54,0,0,1-1,.82C85.54,5.79,86.14,5.07,86.06,5.25Z"/><path class="cls-1" d="M43.86,13.92l.38-.14.1.06Z"/><path class="cls-1" d="M76.71,8c.84-.2,1.73-.32,2.43-.42l1.94-.22c-1.55.3-3.27.52-4.8.8C76.1,8.08,76.06,8.05,76.71,8Z"/><path class="cls-1" d="M60.28,11.55c1-.27,2.19-.56,3.41-.85A21,21,0,0,1,60.28,11.55Z"/><path class="cls-1" d="M84.15,6.68a3.78,3.78,0,0,0,.41-.16C83.7,7,83.82,6.88,84.15,6.68Z"/><path class="cls-1" d="M84.15,6.68a13.24,13.24,0,0,1-3.07.63c.65-.13,1.28-.26,1.92-.43a8.41,8.41,0,0,0,2.09-.81C84.68,6.37,84.36,6.55,84.15,6.68Z"/><path class="cls-1" d="M36,12.35c.42.33,5.74-.11,10.21-1.22,4.52-.4,1.81,1.34-2,2.65-.17-.15-.19-.3-4.83.17,1.57-.46,10.12-2.06,6.18-1.82-6.12.73-5,.9-7.9,1.56,2.44-.87-7.86.48-6.65-.44l5.38-.57C36.5,12.56,34.54,12.68,36,12.35Z"/><path class="cls-1" d="M53,12.3l1.9-.29c-2.14.45-3.66.91-6.45,1.68-3.18.29-3.86.25-4.1.15L49,13.1l4.65-.86Z"/><path class="cls-1" d="M63.37,10.49c-1.55-.16-6.12.47-3.43-.48,5.55-1,4-.34,7.29-.75-9,1.49,2.62-.23-3.8,1.17,1.77-.24,3.36-.5,4.86-.75-1.61.34-3.15.68-4.6,1l.2-.06h0c.37-.12.49-.17.06-.06l-.18,0a1.28,1.28,0,0,0-.44-.09c-2.57.56-.39.19.44.09,0,0,.1,0,.12,0l0,0-9,1.37C56.78,11.61,59.15,11.2,63.37,10.49Z"/><path class="cls-1" d="M60.81,4.45c.28-.06.26-.09.28-.12C61.68,4.33,61.91,4.35,60.81,4.45Z"/><path class="cls-1" d="M64.52,3.89A18.31,18.31,0,0,0,61.15,4c-1.84.29,0,.21-.06.36-1.3,0-4.54.09-.51-.48h.65c3.63-.46,8.3-1.29,7.65-1.31A21,21,0,0,1,64.52,3.89Z"/><path class="cls-1" d="M83.69,5.43a9.55,9.55,0,0,1-1.27.4,25.61,25.61,0,0,1-2.65.54L76,6.93l3.71-1-.15.26c2.14-.46,3-.71,3.41-.76S83.36,5.47,83.69,5.43Z"/><polygon class="cls-1" points="43.04 14.26 44.11 14.56 39.68 14.59 43.04 14.26"/><polygon class="cls-1" points="33.31 15.7 33.73 16.03 31.13 16.19 33.31 15.7"/><path class="cls-1" d="M100.86,24.15l-2.22.22C99.69,24.25,100.36,24.19,100.86,24.15Z"/><path class="cls-1" d="M116.88,21.87l.41.16C116.54,22,116.23,22,116.88,21.87Z"/><path class="cls-1" d="M19.23,21.45c3.17-.77,6.71-1.76,6.37-1.27l-.94.54A50.2,50.2,0,0,0,19.23,21.45Z"/><path class="cls-1" d="M38.12,25.46l.93-.22,2.21.18Z"/><path class="cls-1" d="M35.65,23.92l-2.12.38-2.13.42C32.35,24.49,33.72,24.21,35.65,23.92Z"/><path class="cls-1" d="M87.49,35.14l2.63,0C86.11,35.8,87.84,35.31,87.49,35.14Z"/><path class="cls-1" d="M68.53,6.7c2.8-.17,5-.22,7-.22C72.16,6.69,69.42,7.06,68.53,6.7Z"/><path class="cls-1" d="M107.76,27.79c-1.36.12-1.94.11-1.92,0C107.24,27.67,108,27.64,107.76,27.79Z"/><path class="cls-1" d="M83.66,6.64l-1.5.05c-2.07-.13-4.14-.21-6.64-.21A39.23,39.23,0,0,1,83.66,6.64Z"/><path class="cls-1" d="M173.28,45.42l.73.08C174.06,45.57,173.75,45.51,173.28,45.42Z"/><path class="cls-1" d="M265.34,58.37c-.88-.24-2.33-.59-3.7-.92C262.31,57.58,263.43,57.85,265.34,58.37Z"/><path class="cls-1" d="M7.44,13.53c-2.12.43-.34,0,0,0Z"/><path class="cls-1" d="M4,18.83c-.45,0-.8,0-.86-.09A2,2,0,0,0,4,18.83Z"/><path class="cls-1" d="M87.13,13.42l-.17,0C87.54,13.23,87.44,13.27,87.13,13.42Z"/><path class="cls-1" d="M4.29,14.47c.79-.26,1.7-.53,2.69-.78C6.55,13.83,5.74,14,4.29,14.47Z"/><path class="cls-1" d="M4.67,14.16c-.73.21-1.31.39-1.87.57C2.51,14.76,2.74,14.59,4.67,14.16Z"/><path class="cls-1" d="M10.34,13c-1.17.22-2.28.45-3.36.71.41-.11.57-.17.46-.16Z"/><path class="cls-1" d="M111.53,35.17l.44-.07C114.08,35.16,113.16,35.18,111.53,35.17Z"/><path class="cls-1" d="M73.65,20.66h-.24l.31,0Z"/><path class="cls-1" d="M81.12,20.48a28.67,28.67,0,0,0-7.4.14l2.37-1.42Z"/><path class="cls-1" d="M68.83,29.1c-3.36.92-6.67,1.56-9.61,2.06l-.55.09a2.69,2.69,0,0,1-.44.06l-1,.1c-.71.08-1.41.15-2.08.26a16,16,0,0,0-3.84.94c-1.35.82-1.18,1.07-1,1.1s.14.1,0,.34-.21.23-.46.58c-.11.17-.25.37-.39.61a5.19,5.19,0,0,0-.36,1.13l-.44,2.25,2.24.15c.71,0,1.85.21,3.56.27,2.84.06,4.08,0,4.52,0s0,.23-.48.4c-1.07.32-2.74.67.67.47,0,0,1.21-.3,2.36-.64l2.29-.71c8.06-.81,14-2.14,20.78-3.3a19.91,19.91,0,0,1,2.69-.21c7.17-1.42,15.22-1.68,20.6-2.61-1.29,0,3-.85,3.67-1.1l4.92-.37,4.92-.3c-4.35.26-4.2-.15-5-.45,3.07-.31,4.54-.23,6.63-.37-1.29,0-2.59,0-1-.38l5.19-.12c2.59,0,5.17,0,5.17,0-.6.1-1.78.21-2.77.29,1.29-.08,3.33-.16,5.5-.23s4.46-.16,6.34-.38c-.34-.14-1.62-.25-1.94-.4a18.68,18.68,0,0,1-6.48,0c7.13-.28,1.77-.2,5.19-.62,5-.11,7.21.32,5.86.72,1.93-.13,3.44-.28,4.77-.42l-.53-4.54c-2.71.43-4.81.7-8.73,1.05l1.19.37-5.34.69,4.41,0c-10.12,2-2-.58-13.26,1.47l0,.48c-4.37.45-5.92-.18-9.26.79-4.27.2,7.18-1.52-2.8-.46-1.73.45-5.51,1.06-8.38,1.52-3.23.19,2.37-.88,4.43-1-7.58.78-9.89,1.56-12,2.23a35.39,35.39,0,0,1-3.63,1c-.76.18-1.66.33-2.85.5a31.45,31.45,0,0,0-4.49.9c1.23-.51,1.57-.65,1.57-.77s-.33-.13-.45-.2,0-.19.86-.45a46.84,46.84,0,0,1,5.14-.95A25.46,25.46,0,0,0,86.37,33l1.17,4.88a55.75,55.75,0,0,1,7.82-.43l-3.6-.4c2-.13,4.2,0,5.27,0l-.47-.44c6.8.41,12.52-1.2,16.59-.35-2.84-.69,5-.25,7.67-.71-5.56-.33-15.88,1-16.67.21,2.57-.4,4.9-.16,7.38-.55-1.75,0-4.3-.06-5-.17,8.51-1,13.41-.34,18.59-.36l-4.56.12-4.57.16c.78.75,4.11-.1,6.7.4,4.54-.64,8.13-.15,11.83-.5-1,0-1,0-2,0,9.93-.21,12.71-1.47,16.67-1.53s11.27.33,8.6.65c3.18.21-13.24-.22-7.54.8,5.68-1.2,11.69.4,24.08-.16-5.42-.54,3.2-.6-1.64-1a66.06,66.06,0,0,1,8.8.68l1.77-.38a42.86,42.86,0,0,1,5.19.79c.46.09,1,.16,2.15.28s2.82.3,5.45.8l-.94-2.78a.92.92,0,0,1-.25-.17.9.9,0,0,0,.25.17l.94,2.75c-1-.23-.64-.27.05-.27l-1-2.48a.78.78,0,0,1-.18-.11l-.11-.1s0,0,0,0-.05.08-.1.14a2.68,2.68,0,0,1-.6.38c-.43.2-.57.33.19.19a9.91,9.91,0,0,1-2.09.42l-2.35.21c-1.48.19-2.84.3-4,.34h.43l-10.47,1.17c-1.13.12-2.24.23-3.72.31a56.83,56.83,0,0,1-6,0l1.05-.22c-3.63-.16-7.52-.46-11.58-.79l-6.2-.48c-1.12-.09-2.22-.08-3.15-.14a7.1,7.1,0,0,1-2.32-.45l-1.51,4c7.44,2.21,15,4,21.83,5.59L161.63,43l-2.55-.47c1.55.27,9.63,2.47,14.2,2.93-.89-.2-2.43-.59-3.27-.72.17-.23,2-.24,5.47.33l1.27.62,1.45,0c5.3.92-1.65.27,3.65,1.18,3.27-.49,22.84,3.54,27.54,3.31,3.47,1.35-10-1.48-6.19-.14,1.63.14,2.38.1,5.82.59l-1.26.28c8,1.14,13.54,1.91,18.83,2.8S236.93,55.46,244,57l-.54-.22c5.05.92,7.72,1.62,9.87,2.54,1.09,0-2.49-.92-.5-.66,8.51,3.22,17.82,3.27,22.91,5.48-.23-.56,2.58-.28,4.87-.17s4,0,1.74-.85l1.77.44,1.76.38c-.53-.4-3.3-.91-6.2-1.69a44.64,44.64,0,0,1-6.92-2.16L261.16,58c.42-.15-1.37-.94.48-.58-2.82-.68-5.27-1.29-1.5-.75-13.81-2.44-27.68-5.46-41.63-7.94s-27.83-4.58-41.41-6.6c-1.81-.38-.73-.42,0-.43-5.08-.31-4.69-1.2-7.38-1.81l-3.71-.3-3.7-.34c-2.87-.9-.53-.66-.7-.88-6.2-1.45-12.31-2.87-18.1-4.47l-1.32,3.55a15.85,15.85,0,0,0,6,.78c1.66.06,3.45.18,5.12.28,3.4.23,6.67.49,9.8.73,3.68-.22-.85-.69,4-.74-3.29.41.22.64,4.08.56s7.91-.41,5.86.07c2.29-.64,6.61-1.1,10.06-1.69.86-.15,1.67-.29,2.38-.44l1.71-.39c.94-.23,1.33-.49.75-.76a19.66,19.66,0,0,0,3.23-.6,14.48,14.48,0,0,0,1.37-.53c.42-.15-.23.76-1.19,1.14a3.92,3.92,0,0,0,2.17-1.72l.88-1.61-1.83-.25c-5.93-.84-10.82-.73-15.72-1.12-.91.08-3.25.13-6.32.06s-7-.15-10.92-.19c-7.88-.08-16,.06-19,.6,4-.69-.31-.35-4.2-.58l3.5-.62-8.77.2a9.07,9.07,0,0,0-2.28.07c-1.49.08.36.32-3.41.59a67.52,67.52,0,0,1-9.56-.15l.9-.14-4,.17c-3,.17,10.55,0,.86.82a31,31,0,0,0-8.47,0c4.95-.34,4.35.1,2.54.38l-6.93.48L107,32,87.3,33.35l.91,3.78A18.2,18.2,0,0,1,92.68,36l2.58-.43,2.54-.45c3.4-.58,6.83-1.08,10.3-1.53,6.92-.93,14-1.66,21.14-2.78-.37-.57,14.85-2.43,12.81-3.05l-.79.22c-5.16.74,1.37-1,5.59-1.5-4.34.94,8-.22-2.64,1.49l4.56-.42-.33-2.84c-1.23.05-2.46.06-3.69.05a19.83,19.83,0,0,0-5.62-.57c-2.52,0-5.6.18-8.89.49-6.6.61-14.13,1.76-20.46,2.29A3.33,3.33,0,0,1,111,27,156.83,156.83,0,0,0,94,29.4c-5.14,1-9.2,1.78-10.51,1.83l-.91.64c-4.81.36-7.49.57-10.39.94-1.45.19-2.93.41-4.8.74s-4,.78-6.8,1.25c.15.06,1.46,0-.29.37l-3.59-.06a45.3,45.3,0,0,1-5.33-.39l.76,2.11c.15,0,.17,0,.32.13a1.11,1.11,0,0,1,.34.22l.14.13h0a.35.35,0,0,0,.1-.08l.23-.14a9.24,9.24,0,0,1,1.57-.63l-.31-.07s.64-.2,1.69-.43c.53-.12,1.16-.23,1.85-.35.37-.06.65-.09,1.19-.2l1.11-.24c3-.64,6-1.21,6-1.21-.2-.74,5-1.53,10.65-2.24s11.81-1.36,13.52-2.46c2.44.09,11.33-1.09,15.3-1.46,0-.07.26-.17.91-.34a26.3,26.3,0,0,0,4.18-.31c1.56-.2,3.28-.55,4.9-.8a46.81,46.81,0,0,0,9.8-2.09c1.81-.65,2.33-1,2.28-.76a5.53,5.53,0,0,1-1.52,1.22,18.53,18.53,0,0,0,1.86-1.13l4.39-3-5.07-1a78.93,78.93,0,0,0-11.82-1.22c-3.76-.13-6.81-.2-7.9-.07-4.94.16-1.83.62-3.18,1-7.35.06,1.2-1.46-8.66-.5,1.15,0,3.28,0,2.46.12-3.78.25-10.42,2.36-14.17,2.28l2.46-.44c-6.91,0-16.07,2.61-17.27,1.74l.59-.55c-5.85,1-7.09,1.14-8.36,1.24a77.58,77.58,0,0,0-8.45,1.31l.16.06c-5.17.61-7.9,1.56-10.52,1.09l1.76-.31c-6.42.72-6.93.74-13.53,1.42a44.92,44.92,0,0,0-4.8.36c-.1-.22-1.77-.19-4-.34l.48,3.26a51.36,51.36,0,0,1,7.54-1.85c2.58-.46,4.89-.73,5.86-.86-5.15.5-2.75-.05-1.32-.48a32.84,32.84,0,0,0,9.42-.79c.7.73,1.64,1.49,10,.7-1.3,0-3.34.14-2.52-.1a17.73,17.73,0,0,1,3.45-.28c.82-.24-1.88-.1-1-.47C60,26.12,64,25,72.22,24.45c-2.62,0-.4-.36.5-.73.74.87,11.15-1.94,8.16-.45L95.9,21l4-.59,3.93-.55a38.28,38.28,0,0,0,7.76-1.74L110.81,15c-3.64.42-7,.56-9.86.71s-5.07.31-6.43.53c-1.68.39-6.19.07-9,.22l.4.37c-7.89-.25-6.12.08-15.4,0,3.85.19,2.27.52-1.54,1.18l-6.4-.3-1.17.71a68.25,68.25,0,0,0-8.39.7c1.4-.12.64,0,.56.12-1.46-.73-12.74.45-14.53.24-2.74,1.11-7.59.59-9.57,1.6-.94,0-2.15,0-3.46.1,1.32-.51,1.77-1-.76-.5l-.6,0-1.05.61c-2.6.2-5.25.47-7,.69.79-.14,1.68-.35,2.62-.57l-3.11.64-.93.12c.16,0,.35,0,.56-.05a38.24,38.24,0,0,1-5.47.74C7.45,23.53,4.4,24,1.22,24.34l.13,4.17a53,53,0,0,0,11.05,0A83.05,83.05,0,0,0,22.89,27a19.68,19.68,0,0,1-4.2.48c8.39-.94,16.59-2.78,21.91-3.24l-.3.5c6.14-.73,10.91-1.45,15.78-2.33l.36.45c3.53-.72,9.16-1.54,14.44-2.48s10.2-2.06,12.26-3.07A34.25,34.25,0,0,0,89,16l2-.53a.37.37,0,0,1,.14,0h.32a9.1,9.1,0,0,0,1.47-.17A7.11,7.11,0,0,0,95.82,14a7.38,7.38,0,0,0,1.86-2.15l1.95-3.33-3.87-.77-.36-.07-1.14.19c-5.5-.7-8.86-.91-12.1-1.15-10.93.6-21-.26-30.61.36l-.08.12s-2.43.06-4.87.2-4.87.31-4.87.31c2.59.09-1.94-.06-4.84.44a76.28,76.28,0,0,0-11.6,2l-6.06,1.18c6.78-1.05-.37.64-.66,1.16l-3.92.43c-1.51.53,2.55-.17-.27.51-1.3.16-3.82.55-6.41,1s-5.19,1-6.5,1.31a12,12,0,0,1,2.45-1.1c.35-.07.32-.07.1,0l.27-.1L4,14.58c-.35.05-.91.14-1.16.15-1.46.48-2.33.87-2.8,1l1.37,5.11c1.26-.14.33.12.22.28,5.54-1.45,8.63-1.61,12.65-3.12-2.74.95.38.38,3.74-.14s7.08-1.1,5.38-.39c4-1.33,2.79-.47,5.31-1.46C23,17.14,17.13,17.3,12.5,17.82L17,16.64c-3.07-.34-10.09,2.08-12.87,2.19a26.63,26.63,0,0,0,6-1.18L9,18.47a64.7,64.7,0,0,1-7.8,1.18L.48,16.91A37.74,37.74,0,0,1,9.15,15c-4.29,1,5.32-.65,2.25.39L8,16c-1.51.54,1.81,0,3.76-.14,5.35-1.28,12.94-2.9,19.74-4s12.76-1.72,14.7-2.12c-2.22.33-6.33.65-8.3.74l2.54-.45L43,9.65c-4.17.42-7.38,1.37-13.5,2.18,1-.56-3.55-.33,1-1.64A44.44,44.44,0,0,1,41.54,8.92c2.77,0,5.83,0,13-.38,1.32.08-3-.54,4.59-.59,9.58.15,16.54,1.22,16.51,2-4-.32-12-.78-13.24-.13,4,.17,10.9.37,11.25.77,4.15-.68-7.54-.26-2.11-.81a42.26,42.26,0,0,1,5.32.41c-1.87-.31,2.52-.47,3.36-.61a109,109,0,0,1,15,1l-.14-.29a3.89,3.89,0,0,1-3.23,2.1c-.36,0-.74,0-1.14,0l-1.15.3-2.42.62c-.48.22-1.47.69-1.15.8-4.7,1-11.59,1.25-9.93.47-5.47,1.06-5.71,1.43-10.43,2.11,7.36-2-1.44.38-2.36-.16-4.81.77-1.62.62-3.8,1.17a12.29,12.29,0,0,1-2.92,0c-2.86,1,6,.32,2.59,1.53-2.33.79-12.52,3.29-13.27,3.44-2.39-.2-2.09-2.64,1.2-4-.42-.33-4.46,1.17-6.55,1.53-6,1.58-9.39.88-14.44,1.8L30,22a72,72,0,0,1-9.56.95c-.17.25,4,.67,1.73,1.22A89.63,89.63,0,0,1,9.8,25c-3.26-.06-5.2-.58-4.92-.91,0,0,.83,0,2.1,0s3-.07,4.74-.19l7.07-.48c.21-.3-2.28-.15-4.8,0s-4.94.22-4.69-.14a41.3,41.3,0,0,1-7.5.24L2,29.24l4.91-.81a45.15,45.15,0,0,1-5,.46l-.15-5c.16.05.18.09,0,.13l.14,4.7s.12-.07.29-.12c5.53-.8,2.84-.53,6.5-1.32l-7,.18-.07-2.17a48.19,48.19,0,0,0,8.64,1.17c2.83.16,5.3.27,6.82.42l-3.36.2-3.39.19-1.68.49a27.51,27.51,0,0,1-7.19-.67l-.05-1.42a95.66,95.66,0,0,1,12.23.78c5-.8,3.07-1.75,1.85-1.83,9.84-1.31,9.92.45,19.83-.8l-3.7.66c2.35-.16,10.85-1.28,10-1,1.93-.51,3.67-1.43,1.45-1.42l8.92.28c-1.3,0-.54-1-1.11-1.16,3.54-.36,6.13.56,3.91.91,6.85-1.31,5.16-.78,10.71-2.06,2-.09-.11,1-1.59,1.26a90.77,90.77,0,0,0,9.52-.71c-7.66.16-2.24-2-3.75-2.61l8.34.83,8.31.93a4.87,4.87,0,0,1-1.83-1.09c.65.34,4.86.33,10.11.25s11.62-.1,16.59-.73l-.75-3.18a24.06,24.06,0,0,1-2.65.8l.64-.15.63-.17c.88-.12-.42.48-2.47.93a43.33,43.33,0,0,1-6.47.85,12.19,12.19,0,0,0,2.7-.23C96.74,18.55,94.7,17,88.56,18.5c5.63-.81,6.79-.65,6.55-.27-4.66.38-15.36,2-13.23.7-2.95.54-5.64.69-5.33,1.17l-11.49.55c.86,0,1.62.23-1.72.64,6.42-.79,12.71-.45,16-1.47.24.6-2.14,1.19,1,1.37-12.4,1-19.29.6-27.18.68L42.29,23.41l-.49-.23L40,24.09a14.89,14.89,0,0,0-2.53,0c-.24.09.11.15.66.2-1.15.08-2.21.13-2.76.11-.39.42,1.59.64,3.69.82l3-.71c2.17.14,3.76.35.81.88H41.26c1.4.12,2.26.26,1.27.46l-8.37.55c.94-.21,2.33-.57,4-1-5.25,0-11.37.48-6.72-.74,0,0-1.6.32-3.19.74s-3.15.92-3.15.92c-1.76.28-3,.62-3.32.62l.44,3a40,40,0,0,0,5.18.26c1.65,0,3.68-.12,7.15-.25.47-.29-1.95-.28-.35-.61a50.13,50.13,0,0,0,10.77-1.19c3.37-.67,6.07-1.3,6.83-1,5.35-.56,2.3.3,5.72,0-.18,0-.51-.17.47-.31l4.08,0c1.59-.4-3.74.14.75-.68,7.77-.62,12.31-.81,18.77-1.59,9.22-.56-3.87,1.3,3.9.63,1.12-.48,2.09-1.07,7-1.39,2.58.17,2.25.5,6.63.52l-.3-.63c4-.12,7.29-.06,7.31-.54a44.26,44.26,0,0,0,7.4-.1c3.05.09,1.93.44-.11.81s-5.14.8-5.88.93c6.24-.65,10.19-.6,13.5-1.14,0,0-1.26-.12-2.56-.18s-2.6-.07-2.6-.07c6.57-.57,8.87.39,10.64.88l-.84-4.82c-1,.47-1.71.9-3.49,1.89A16.39,16.39,0,0,0,126,20.05l.64,3.68c-1.63-.5-2.55-.79-1.27-.79.47.1.92.24,1.37.36l-.5-2.89a11.46,11.46,0,0,1-3.44,1.17c-.27.16.45,0,.94-.12s.79-.18-.3.27a28.83,28.83,0,0,1-6.1.3l.08,0-1.61.14c-1,.08-2.34.26-3.59.43l-5.09.7c1.93-.31,2.43-.15.49.17l-6.71.65c2.06-.14,0,.36-3,.91-8.57,1.46-7.08-.41-13.66,1.22,1-.15,1.14-.1,2.12-.26l-3.4.79c-.46-.61-5.55.1-10.63,1s-10.14,1.87-10.65,1.29c-4.78,1.61-.27.33,6.14-.24l-2.57.7-2.56.72C64.79,29.85,66.54,29.4,68.83,29.1Zm50.32-5.92a37.33,37.33,0,0,1-5.54-.08C116.16,22.86,117.48,22.59,119.15,23.18ZM44.7,24a24.09,24.09,0,0,1,4.82-.58C47.74,23.67,46.13,23.85,44.7,24ZM30.21,9.6h-.16C32.38,9.13,33.57,8.87,30.21,9.6Zm-3.65.71a27,27,0,0,1-3.86.61c-.28.12-.32.2.39.13A13.73,13.73,0,0,0,26.56,10.31Zm105.7,20.75,1.37-.17C134.5,31,135.37,31.11,132.26,31.06Z"/><path class="cls-1" d="M36,24.09a1.17,1.17,0,0,0-.62.33C34.75,24.41,34.73,24.31,36,24.09Z"/><path class="cls-1" d="M87,35.13l.23,0a.68.68,0,0,1,.25,0Z"/><path class="cls-1" d="M59.25,17.1a25.72,25.72,0,0,0-2.71.73C56.44,17.73,57.08,17.52,59.25,17.1Z"/><path class="cls-1" d="M15.63,18.83l-4.44.64c2.15-.35,2.89-.59,4-.84C15.07,18.75,14.26,19.06,15.63,18.83Z"/><path class="cls-1" d="M53.86,9.81c.66-.06,1.38-.24,2-.3l-.14.25C53,10.25,51,10.41,53.86,9.81Z"/><path class="cls-1" d="M19.49,16.6c.29-.45,3.11-.74,6.25-1.15l-.55.09C26.2,16,22.84,16.28,19.49,16.6Z"/><path class="cls-1" d="M26.47,15.35c1-.13,2-.27,2.89-.43C29.76,15.09,28.2,15.15,26.47,15.35Z"/><path class="cls-1" d="M14.24,12.54c-1.45.4-1-.33-1.8,0C10.65,12.38,22.36,11.15,14.24,12.54Z"/><polygon class="cls-1" points="21.81 14.89 20.77 15.56 18.95 15.43 21.81 14.89"/><path class="cls-1" d="M4.66,16.61A30.83,30.83,0,0,0,.93,18l.14.51,1.11-.18c-.07.09.58.06,1.37,0l-2.46.36-.22-.82A13.78,13.78,0,0,1,4.66,16.61Z"/><path class="cls-1" d="M3.55,18.29c1.61-.25,3.13-.49,4-.56C6.72,17.87,4.85,18.16,3.55,18.29Z"/><polygon class="cls-1" points="14.96 15.81 13.51 16.17 10 16.82 14.96 15.81"/><path class="cls-1" d="M58.42,8.75l5.53,0c.56.17-.94.28-3,.26C59.63,9,57.58,8.94,58.42,8.75Z"/><path class="cls-1" d="M41.89,11.23a13.26,13.26,0,0,0,2.38-.63l.22.6Z"/><path class="cls-1" d="M57.88,10.29c.55.14,8,.3,1,.42C58.34,10.55,52.84,10.61,57.88,10.29Z"/><polygon class="cls-1" points="51.15 20.26 52.53 20.02 52.51 21.06 51.15 20.26"/><path class="cls-1" d="M24.83,26c-6.43,1-1.61-.45-7.41.59-1.55-.05,4.74-.86,3.16-.86C24.51,25.5,26.55,25.12,24.83,26Z"/><path class="cls-1" d="M20.58,25.73c-.63,0-1.3.07-2,.09C19.7,25.74,20.24,25.72,20.58,25.73Z"/><path class="cls-1" d="M280.43,61.59l2,.38,2,.32-1.31-.1-1.32-.13Z"/><path class="cls-1" d="M287.93,63.82l1-.56,1.15.36,1.17.32C290.36,63.92,288.63,63.75,287.93,63.82Z"/><path class="cls-1" d="M102,24.73l-.33-.15a17.38,17.38,0,0,1,3.58-.3Z"/><polygon class="cls-1" points="95.53 24.3 96.49 24.14 94.76 24.99 95.53 24.3"/><path class="cls-1" d="M52.45,40.58c-.58,0-1.2-.11-1.82-.19l-3.89-.49.69-3.77A5.18,5.18,0,0,1,48.31,34a5.41,5.41,0,0,1,.59-.7l.53-.47a8.77,8.77,0,0,1,1.81-1.07A23.09,23.09,0,0,1,54,30.84a13,13,0,0,0-3.25,1.23,9,9,0,0,0-.83.54,7.39,7.39,0,0,0-.87.76,4,4,0,0,0-.45.55,5.31,5.31,0,0,0-.4.61,5.79,5.79,0,0,0-.54,1.63L47,40l3.63.2C52.13,40.23,52.79,40.21,52.45,40.58Z"/></g></g></svg>