<svg xmlns="http://www.w3.org/2000/svg" viewBox="0 0 379.06 165.11"><defs><style>.cls-1{fill:#e9e7e7;}</style></defs><g id="Layer_2" data-name="Layer 2"><g id="Objects"><path class="cls-1" d="M298.27,160.17l.16.08-3.13,3.61c-2.89-3.45-2.18-2-2.69-2.46,1.13,1.31,1.9,2.16,2.4,2.67l3.58-4.14C295.89,158.77,298.4,160.32,298.27,160.17Z"/><polygon class="cls-1" points="224.47 135.9 225.82 136.16 214.86 133.06 224.47 135.9"/><path class="cls-1" d="M252.63,141.21a149.53,149.53,0,0,0-16.59-4.4c-3.53-.79-7.25-1.58-10.87-2.33s-7.12-1.47-10.25-2.22l-2-.6-2.86-.32-1.43-.15-.71-.08-1-.14,0,0,0,0,12.36,2.53c4.14.81,8.36,1.68,12.43,2.57C239.81,137.85,247.35,139.71,252.63,141.21Z"/><path class="cls-1" d="M289.2,153.09c-2.21-.92,8,2.08-8.55-2.57l1.54.51C283.68,151.46,285.73,152,289.2,153.09Z"/><path class="cls-1" d="M282.19,151c-7.28-2.06,4.7,1.6,0,0Z"/><path class="cls-1" d="M315.37,161.54l-4.71-1.62c-1.17-.39-2.33-.77-3.2-1l-1.47-.45,5.38,2.07c1.91.76,3.22,1.29,1.65.77,2.4.86,4.11,1.47,5.22,1.84a7.47,7.47,0,0,0,1.65.47A44.73,44.73,0,0,0,315.37,161.54Z"/><path class="cls-1" d="M324.59,164.31l-2.53-.81-2.49-.84A30.25,30.25,0,0,0,324.59,164.31Z"/><path class="cls-1" d="M309.19,159.06s2.56.85,5.15,1.77l5.23,1.83a15.86,15.86,0,0,0-4.8-1.7C315.69,161.09,313.57,160.47,309.19,159.06Z"/><path class="cls-1" d="M303.39,157c-5.27-1.88-12.15-4.09-2.54-1.35-9.1-2.83-13.05-3.76-12.4-3.46S294.33,154.1,303.39,157Z"/><path class="cls-1" d="M256.32,141.42l-7.19-2.11L242.81,138C246,138.59,256.73,141.74,256.32,141.42Z"/><path class="cls-1" d="M292,146.67c-.63-.06,3.07,1.51,3.72,1.94l7,2.29C299.17,149.54,292.38,147.05,292,146.67Z"/><path class="cls-1" d="M295.69,148.61l-10.53-3.42C294.49,148.5,296.23,149,295.69,148.61Z"/><path class="cls-1" d="M326.53,164.11s-1.12-.32-2.77-.83-3.84-1.22-6-2l-5.92-2-2.67-.87,3.18,1.06,7.07,2.43c2.58.89,5.21,1.72,7.2,2.29s3.34.89,3.34.89l-1.72-.49Z"/><polygon class="cls-1" points="252.05 132.63 258.08 134.38 247.37 131.18 252.05 132.63"/><path class="cls-1" d="M225.55,123.39c4.47,1.27-5.86-2.6-1.18-1.13-7.2-2.49-13.42-4.43-19-6.16C211.27,118.05,217.52,120.3,225.55,123.39Z"/><path class="cls-1" d="M195.94,113.17l9.41,2.93C202.2,115.07,199.1,114.09,195.94,113.17Z"/><path class="cls-1" d="M267.37,138.87a79.63,79.63,0,0,0-8.1-3.31l4,1.86Z"/><path class="cls-1" d="M263.4,137.48l-.14-.06-8.88-3.15Z"/><path class="cls-1" d="M268.41,139.23l-1-.36A3.89,3.89,0,0,0,268.41,139.23Z"/><path class="cls-1" d="M312.47,155.21c-6.21-1.9-19.09-6.12-6.8-1.45C310.16,155,303.13,152.34,312.47,155.21Z"/><path class="cls-1" d="M273.36,141.54l11.08,4c-.19-.19-2.14-1,.93-.1Z"/><polygon class="cls-1" points="267.88 139.76 273.36 141.54 269.25 140.06 267.88 139.76"/><path class="cls-1" d="M214.88,120.24c-4.86-1.52-10.11-3.35-16.06-5.4,6.34,2.3,12.9,4.67,19.14,6.87C218.87,121.89,221.69,122.63,214.88,120.24Z"/><path class="cls-1" d="M238.44,128.67l-1.07-.36C238,128.58,238.54,128.78,238.44,128.67Z"/><path class="cls-1" d="M139.87,95.81l.94.35h.24Z"/><path class="cls-1" d="M219,122.16c4.75,1.77,7.63,2.68,10.39,3.5-3.59-1.21-7.37-2.52-11.43-4C217.54,121.63,217.46,121.64,219,122.16Z"/><path class="cls-1" d="M179.53,107.77l8.25,3C185.38,109.85,180.45,108,179.53,107.77Z"/><path class="cls-1" d="M235.79,127.64l.72.23C235,127.23,235.16,127.34,235.79,127.64Z"/><path class="cls-1" d="M235.79,127.64c-2.47-.81-4.43-1.38-6.4-2,2.91,1,5.62,1.89,8,2.65C236.79,128.08,236.21,127.83,235.79,127.64Z"/><path class="cls-1" d="M121.25,93.7c.92-.17,13.86,2.68,24.75,6.41,10.86,3,4.15-.49-5.19-4-.19,0-.29.1-1.76-.23s-4.29-1-9.93-2.38c1.94.6,8.16,2.42,12.65,3.88s7.32,2.46,2.57,1.25c-7.41-2.05-10.45-2.9-12.52-3.54S128.64,94.06,125,93c3,1-1.74,0-6.86-1.11s-10.6-2.35-9.06-1.55L115.65,92l6.53,1.55C122.41,93.7,117.65,92.67,121.25,93.7Z"/><path class="cls-1" d="M162.05,102.63l4.58,1.41c-5.19-1.74-8.88-3.09-15.7-5.48-7.7-2.1-9.33-2.38-9.88-2.41,0,0,5.67,1.63,11.31,3.37s11.26,3.55,11.26,3.55Z"/><path class="cls-1" d="M187.05,110.84c-3.66-.81-14.62-4.28-8.07-1.59,13.32,4.48,9.43,2.82,17.42,5.38-21.48-7.3,6.24,1.89-9.2-3.69,4.24,1.38,8,2.67,11.62,3.9l-11-4,.49.2.1,0h0c.91.37,1.2.51.17.12l-.45-.15a6.3,6.3,0,0,1-1-.17c-6.2-2.21-1-.45,1,.17a1.67,1.67,0,0,0,.28,0l-.08,0-10.81-3.54L166.63,104Z"/><path class="cls-1" d="M294,150.66c-.66-.27-.62-.29-.66-.34C291.92,149.88,291.39,149.73,294,150.66Z"/><path class="cls-1" d="M285.24,147.31c1.58.49,2.92.78,8,2.6,4.36,1.67-.08.19.11.41,3.09,1,10.77,3.45,1.26-.11l-1.53-.48c-8.58-3.17-19.51-7.58-18-7.11C277.47,143.88,279.61,144.93,285.24,147.31Z"/><path class="cls-1" d="M235.51,129l-17.89-6.07,9,3.56-.4-.38C236.31,129.71,234.2,128.68,235.51,129Z"/><path class="cls-1" d="M137.83,95l2.52.24L135,94.08,129.65,93l4.09,1Z"/><polygon class="cls-1" points="114.11 88.83 115.05 88.66 108.81 87.23 114.11 88.83"/><path class="cls-1" d="M66.35,45.84l5.35,1.35Z"/><path class="cls-1" d="M27.75,35l-1-.07C28.55,35.35,29.27,35.45,27.75,35Z"/><path class="cls-1" d="M70.8,58.29c-4-1-8.12-1.91-11-2.7s-4.7-1.35-4.32-1l1.09.52,1.11.5C62.91,56.78,67.17,57.45,70.8,58.29Z"/><path class="cls-1" d="M326.81,132.24l2.17,1a48.3,48.3,0,0,0,5.3,1.3A59.77,59.77,0,0,1,326.81,132.24Z"/><path class="cls-1" d="M320.87,131.67l-1.52-.7c-.9-.42-2.09-1-3.3-1.49-2.42-1.06-4.88-2-4.88-2C313.38,128.37,316.49,129.65,320.87,131.67Z"/><path class="cls-1" d="M278.3,99l6.31,1.14C274.88,97.7,279.11,99,278.3,99Z"/><path class="cls-1" d="M319.7,150.74l16.63,5.14-10.49-3.5A41.75,41.75,0,0,0,319.7,150.74Z"/><path class="cls-1" d="M50.15,46c3.29.92,4.72,1.21,4.64,1.09C51.39,46.22,49.47,45.7,50.15,46Z"/><path class="cls-1" d="M355.5,161.59c-1.06-.4-2.17-.74-3.36-1.12-4.91-1.36-9.84-2.79-15.81-4.59,2.95,1,6.13,2,9.4,3,1.63.49,3.28,1,4.94,1.44Z"/><path class="cls-1" d="M299.22,93.6l-1.64-.77A7.17,7.17,0,0,0,299.22,93.6Z"/><path class="cls-1" d="M80.75,15.63c2.21.58,5.79,1.61,9.17,2.58C88.28,17.7,85.52,16.9,80.75,15.63Z"/><path class="cls-1" d="M172.94,110.73c-5-1.28-.81-.16,0,0Z"/><path class="cls-1" d="M148.86,102.5a8.26,8.26,0,0,0,2,.34A12.63,12.63,0,0,1,148.86,102.5Z"/><path class="cls-1" d="M318.68,144.65l-.42-.17C319.67,145.13,319.43,145,318.68,144.65Z"/><path class="cls-1" d="M165.41,108.55c1.88.56,4.05,1.17,6.41,1.82Z"/><path class="cls-1" d="M166.39,109,162,107.82C161.36,107.72,161.91,107.92,166.39,109Z"/><path class="cls-1" d="M180,112.52c-2.88-.74-5.56-1.44-8.13-2.15,1,.29,1.39.42,1.12.36Z"/><path class="cls-1" d="M41.82,19l-1.07-.31C35.66,17.64,37.89,18.15,41.82,19Z"/><path class="cls-1" d="M161.92,87.85l-.58-.14.74.22Z"/><path class="cls-1" d="M180,92.36a174.67,174.67,0,0,1-17.9-4.43l5.7,2.84Z"/><path class="cls-1" d="M159.3,68.45l-12.67-3.33c15.44,2.86,26.6,5.79,14.69,2.39-1,.45-13.4-2.35-25.76-5.18S110.87,56.59,109.88,57l-8.31-2.32c2.39.6,2.79.62,5.15,1.21a110.88,110.88,0,0,0-14.78-3.44,152.34,152.34,0,0,1-18.31-4.18c-7.25-2.06-12.25-3.69-7.28-2.47l-8.1-2.1L52.7,42.25l-2.52-.7c-4.67-1.46-3.46-1.33,1.18.11l-3.84-1.15c-2.3-.7-5.39-1.63-8.53-2.49-1.57-.43-3.15-.83-4.64-1.19s-2.91-.64-4-.9c-2.24-.53-3.75-1-3.75-1h.19c-1.37-.3-3.41-.82-6-1.54l-6.65-1.81,4.58,4.83a3,3,0,0,0,.95.72c.2.1.35.16.5.22l.77.24c.48.13.92.23,1.36.32.89.19,1.76.34,2.6.47,1.69.27,3.28.49,4.49.62.07,0,0,0,0,0h0l.06,0c1.7.48,2.22.65,1.95.61l-.78-.16-1.19-.27-.09,0,0,0h0c-1.08-.13-2-.27-1.4-.1l1.4.19h0l0,0,.08,0,12,2.71c2.45.77,1.56.71-1,.19-1.29-.26-3-.64-4.92-1.08l-3-.71-3.1-.75-.07,0s0,0,0,0c-1-.13-2-.32-3-.5,1.08.31,2.11.58,3,.78,0,0,0,0,0,0l.06,0c.13.06.51.18.77.26l.82.27,1.54.46c1,.29,1.92.53,2.84.76,1.85.45,3.68.84,6,1.34s5.12,1.12,8.9,2.06,8.5,2.3,14.66,4.28l-6.43-1.74L52,46c8.13,3,18.17,5.55,32.47,10.59-1.68-.67-8.82-3.23-13.71-5s-7.54-2.9-.14-.89C74.77,52,80.21,53.74,88.2,56c0,.49,7.7,2.85,17.38,6l-.83.4c10.5,3.25,9.77,2.66,16,4.39,11.67,3.82,14,5.06,16.61,6.35,18.7,6-12.72-4.88,9.47,2,15.51,5.16,26.51,8.33,45.24,13.8,10.85,3.64-2-.21,1.86,1.19l9.79,2.54c2.36.75,1.56.67,1.15.62,8.19,2.37.84-.42,13.67,3.45,3.63.39,26,9.3,42,13.66,3.85,1.44-2-.23-.86.4,21.8,6.56,18.67,5.68,36.6,11l7.49,2.76c3.73,1.39,7.41,2.87,7.41,2.87-10.83-4.37,3.43-.22,15.64,4.8-3.78-1.79-6.93-3.46-9.13-4.46l3.05,1.24c1.82.75,4.24,1.77,6.67,2.7a63.33,63.33,0,0,0,6.74,2.23c1.86.46,3.13.71,3.13.71,2.42.62.35.48-3-.12,1.37.32,2.69.56,3.72.74,7.23,1.73,3.43,1.38-1.86.58a52.9,52.9,0,0,1-7.16-2.62c-5-1.51-9.57-3.15-8.72-2.34,1.28.47,3.71,1.47,6.43,2.54-1.3-.42-2.14-.67-1.58-.37a46.64,46.64,0,0,0,6.1,2.08s1.12.58,2.27,1.08,2.31,1,2.31,1l1.2,0,4.18,1c1.24.27,2.67.6,4.17,1s3.14.87,4.76,1.34l13.11,3.89c2.11.49,4.2,1,6.29,1.4,1,.22,2.16.41,3,.63s1.85.61,3.14,1a5.09,5.09,0,0,0,.66.12c.2,0,.5,0,.58,0H377s0,0,0-.09.05-.12,0,0l1.69-2.57c-3.65-2.1-7.4-2.61-11-3.57s-7.63-1.83-11.79-2.73l-13.36-2.87c-4.77-1.07-9.92-2.29-15.53-3.64,7.55,1.35,1.76-.45,2.28-1,4,1.34,9.86,2.77,16.61,4.26s14.52,3.07,22.3,5.46a60.78,60.78,0,0,1-5.93-1.91c-.29-.17.7,0,1.75.22l-4.39-1.07c-2.63-.63-6.13-1.41-9.62-2.17l-9.57-2.11-4.36-1c.72-.35-5.82-1.86-13-3.88,5.3,2.37-20.81-4.53-32.16-7.05-.64-.51,2.13-.17,15.89,3.36-15.06-4.56-19.86-3.76-34.66-8.13,3.37.83,5.17,1.34,6.53,1.5-7.91-1.67-27.08-6.72-22.51-5.88l3.36.84c-11.15-2.88-28.16-7.08-42.79-10.72s-26.88-6.68-28.62-6.7a17.47,17.47,0,0,1,4.5-.06L172.38,92.2l-20.15-4c3.64.23-9.41-5.15,9.11-.53-5.27-1.54-11.8-3.44-23-6.29,3.59,1.12,8.77,3.54,3.83,2.24-13.36-4.59-9.31-3-25.8-8.48,5.36,1.71-.89,1.12-9.41-1.42,1.37.23-.45-1.32,2.69-.52L98.93,70.66c-5.36-1.27-10.7-2.7-10.7-2.7,5.32,1.47,1.16-.64-3.48-2.44,2.14.92-18.24-5.81-23.87-7.43l8.86,3-5.8-1.84-4.85-1.44a58.71,58.71,0,0,1-7.3-2.71l-1,2.53A77.92,77.92,0,0,0,63,60c2.2.31,4.61.62,7.44,1.11s6.08,1.17,10,2.12c-1.48-.23-3.33-.3-3.29.07s2,1.13,8,2.75A379.93,379.93,0,0,1,131.33,76.2l3.94,1.58,8.07,2.38,8.07,2.41-25.13-6.12L97.13,69.51c8.89,2.85,2.4,1.08,15.82,5,4.66,1.71-7.43-1.72-11.36-2.84l15.57,4.71c7.76,2.38,15.51,4.87,15.51,4.87-.61-.55,5.37,1.14,11.35,2.91s12,3.61,11.48,3.15c0,0-8.45-2.62-16.92-5.13s-17-4.91-17-4.91c-1.22-1.08,20,4,41.91,11.56,5.5,2.14-4.5-.24-4.1.13,2.91.7,20.88,6.61,22.84,7.5l-9.37-2.85c12.08,4.42,20.1,6,34.52,11.73,5,1.8,14.8,6.08,15.79,6-8-3.6-8.91-6.45-3.25-5.09,1.75.67,26.27,9.94,31.92,12.31,8.12,3.47-12.9-3-6,0,.35-.07,5,1.31,6.94,1.91,5.24,2-2.33-.29,9.11,3.83,2.13,0,23.13,8.92,5.57,1.48,11.2,4.09,11.78,4.7,24.84,9.82-4-2,12.22,3.18,23.42,7.36-.71-.09,1.71,1.11,2.89,1.69l22.73,9.15c3.39,1.34,6.55,2.91,9.81,4.38,1.62.74,3.31,1.45,5,2.12.82.38,1.67.77,2.55,1.11a11.71,11.71,0,0,0,1.38.44,3.85,3.85,0,0,0,.78.12,1.29,1.29,0,0,0,.94-.27l.37-.32-.5-.31a27.65,27.65,0,0,0-6.34-2.76l-7.13-2.11c-2-.76-12.43-4.09-7.89-3-3.16-.82-6.09-1.45-12.81-3.44-6.46-2.15-2.68-1.13,1.46.06s8.66,2.49,3.79.67c-.47.09-4.82-1.14-10.32-2.54l-16.9-4.44c2.82,1.47,22.2,6.34,31.82,9.05-.08.42-4.34-.4-11.45-2.12s-17.08-4.12-28.54-7.16c-4.54-1.23-7.29-2-8.93-2.52a8.14,8.14,0,0,1-2.17-.79c-.06-.17,1.76.16.17-.21-34.1-9.87-29.31-7.27-57.52-15.57-11.16-3.53-.29-1.2-2.71-2.25,14.88,3.76,22.66,6.61,32.67,9.53l-12.26-3.84c4.74,1.16,14.62,3.94,20,5.68-4.65-1.59-19-6-35.55-10.47s-35.31-9.21-48.5-12.84c-4.73-1-12.87-2.95-9.08-1.74l8.38,2.09c7.62,2.42-15.86-3.47-5.31-.53-11.28-2.63-24-5.39-39.66-10.26L134.08,98a138.51,138.51,0,0,0,14.66,4.44c-3.31-.77-9.32-2.69-15.37-4.69a154.1,154.1,0,0,0-15.84-4.68l10.86,3.79c-9.52-2.64-20.91-5.75-32.6-8.57l1.32-4.21a37.6,37.6,0,0,0,5.81,2.06l-3.59-1.39c-.72-.29-1.25-.47-2.12-.9l-1.46,4.69c1.2.33,3.06.85,6.59,2.06-4.17-1.57,4.68.74,12.88,3.25s15.77,4.85,9,2.27c9.88,3.93,17.48,5.78,30.68,10.06-.37-.32-4.65-1.64,7.09,1.61.54.09,1.81.34,2.61.51l.79.22-.64-.19c.52.1.56.11-.24-.07-2.79-.83-5-1.55-5.93-1.91,5.92,1.14,24.63,6,31,7.36,7,1.89-3-.51.81.68l9.51,2.06c.86.68,18.39,5.5,1.92,1.54l14.77,3.83c8.64,2.52,20.55,5.81,27.9,7.73,6.89,2.06,17.59,4.61,11.48,3.17l23.12,6.49.19.17c11.46,3.24,23.14,6.36,35.28,9.71s24.64,7.14,37.56,11.35a31.28,31.28,0,0,1,8.08,3l.92-2.36c-.1-.08-.09-.09-.16-.23a1.41,1.41,0,0,1-.16-.57,2.67,2.67,0,0,1-.08-.84c0-.51,0-.32,0-.36a2.64,2.64,0,0,1-.56-.13,18.17,18.17,0,0,1-1.76-.68l-1-.44-.67-.28-.53-.21c-.71-.27-1.43-.56-2.17-.88-3-1.25-6.28-2.89-10.26-4.58l-2.3-1.33c-9.62-3.65-28.65-11.76-32.89-13-5-2.47-16.54-7.12-29-12-6.24-2.41-12.71-4.84-18.71-7s-11.5-4-15.75-5.56l-.8.26c-11.73-4.12-23-7.91-37.66-12.79l.77.75c-12.68-4-32.17-11.68-52.19-18.22,1.4.28,6.46,2,10,3.31-11.78-4.5-24.45-8.43-36.9-12L110,69.08c-6-1.72-11.73-3.44-17.19-5.14-5.52-1.35-9.5-2.43-13.37-3.47l1.38.31-2.27-.55c-2.45-.65-4.94-1.31-7.72-1.94L77.29,60c-2.14-.49-4.84-1.08-7.84-1.62s-6.17-1-9.27-1.64l-1.28-.53-1.25-.55-1.4-.34c-2.91-.87-4-1.28-4.11-1.16a6.92,6.92,0,0,0,2.4,1.3c-1.09-.29-2.12-.61-2.83-.83L50.29,58a38.36,38.36,0,0,0,5.38,2.19,28.73,28.73,0,0,0,4.74,1.92c1.88.6,4,1.22,6.12,1.88a110.4,110.4,0,0,1,12.12,4.15c2.15.44,9.93,2.91,17.69,5.1s15.42,4.22,17.17,4.28c.19.17,2,.76-1.35-.21,6.93,2.13,13.87,4.19,20.18,5.72l2.82,1.44,15.41,3.41c9.18,2.9,13,4.15,3.68,2.11,22.36,5.31,18.08,4.62,37.13,8.92l-1,.15c6.77,1.77,17.68,4.07,21.69,5.46,7.48,2.42,26.24,7.07,47.95,12.55S306.41,128.75,325.8,134c-7.33-3.06,18,5.08,19.72,4.51,2.22.82,7.62,2.28,1.27,1,6.75,1.52,12.3,2.9,17.18,4.31l7,2.07a22.78,22.78,0,0,1,5.5,2.26l2.6-4a4.93,4.93,0,0,0-2.15-.71l-.31,0-.19,0-.45-.14-.58-.2-1.33-.47c-.49-.16-1-.31-1.55-.44l-1.35-.29-5.46-1.17c-2.19-.87,4.28.72,2.31,0-1.58-.34-6.28-1.44-8.3-2.19s2.94.6,6.06,1.31c-10-2.73-15.66-4.14-19-4.65s-4.33-.21-5.14,0c-2.58-.63-4.8-1.15-6.77-1.72s-3.67-1.16-5.35-1.79c-3.33-1.23-6.34-2.43-10-3.71-1.67-.86-4-1.91-4.27-2.15s1.38.24,7.42,2.83c-1.66-.74-5.14-2.31-9.44-4s-9.44-3.44-14.36-5.11c-9.84-3.34-18.95-6.27-19.39-6.08-2.14-.88-9.73-3.25-11.59-3.78-15.65-5.13-17-5.63-32.44-10.48l4.25,1.46c-6.28-1.19-12.85-3.91-25.3-7.74l.38,0C186.38,83.5,202.37,89.4,174.41,80l1.41,1c-2.88.18-24.76-8.4-41.15-13.23l5.82,2.14c-9-2.47-24.5-9.32-33.37-12.39-1.92-.73,3.11.87,5.84,1.69-23.2-8.23-3.19-.4-20.65-5.92-3.14-1.36,4.38.48-7.37-3.33-2.9-1-11.51-3.51-21.47-6.11S42.2,38.59,34.1,36.2c3.56,1.16,7.08,2.31-1.19.45l-3.1-.77c-.11.51-.22,1-.33,1.57,0-.15.07-.31.11-.47l-.11.48H29.4c0-.06,0,.13,0-.13l0-1,0-.45h-.15l-.26,0-.52-.09-1.09-.2c-.73-.14-1.48-.29-2.24-.46s-1.52-.34-2.26-.55c-.38-.1-.74-.2-1.08-.32L21.43,34l-.06,0h0s0-.05,0,.06a3.27,3.27,0,0,1-.8,1.13L19.86,37c2.82.94,5.78,2,8.85,2.8.77.21,1.54.41,2.31.59l2.19.54c1.45.37,2.89.76,4.3,1.16,5.64,1.61,10.92,3.28,15.05,4.18a12.39,12.39,0,0,1,2.23.85c4.81,1.29,12.62,3.38,20,5.22S89,55.77,92,56.29c4.29,2,19.33,5.47,33.23,8.49s26.67,5.7,26.44,6.45l14.84,3.42c7.4,1.75,14.8,3.6,14.8,3.6l-.8,0c18.87,4.87,25.6,6.35,32.31,7.73,4.34,1.27,1.13.56.75.54,27.5,7.68,30.25,8.43,53.54,13.77l2.31,1.12c3.12.65,12.83,3.44,25.19,6.51l19.92,5,10.43,2.69c3.56.88,6.85,1.57,9.34,3.11l2.15-3a8.16,8.16,0,0,0-1.56-.82,5.12,5.12,0,0,1,1.62.73l-2.27,3.21c-.23-.1-.68-.36-1.37-.66a14.16,14.16,0,0,1,1.33.71l2.35-3.31a12.35,12.35,0,0,0-3.47-1.48l-1.4-.41-.59-.2-.72-.27-5.83-2.22c-3.94-1.5-8-3-12.13-4.41-8.29-2.72-16.56-5.06-24.24-7.28s-14.64-4.3-20.46-6a125.38,125.38,0,0,0-13.23-3.4l-9.94-3-9.92-3.15c25.48,8.82-4-.52,6.39,3.34-10.09-3.28-25.72-9.65-13.42-5.33l1.9.77c2.39.34-5.48-2.51-13.82-5.62s-17.15-6.4-16.7-6.58l-37.08-14-36.6-13.65C101.05,33.53,77,25,53,18.41l5.37,2.27L50,18.34c-4.19-1.15-8.38-2.22-8.38-2.22-4.38-1.26-5.81-2.11,6.16,1A118.85,118.85,0,0,0,35.31,14c-4.32-.89-7.9-1.46-8.09-1.42-23.41-5.64,9.3,1.23,2.12-.42L19.56,10l2.18.58L13.17,9.06c-1.37-.26-2.85-.54-4.82-1A55.68,55.68,0,0,0,.69,6.91L0,10a24,24,0,0,0,2.57,1.09C5,12,6.38,12.33,7.28,12.64a9.15,9.15,0,0,1,1.48.57,6.41,6.41,0,0,0,1.83.79,5.49,5.49,0,0,0,1.09.43c.82.3,2.17.77,4.29,1.47,0,0,5.18,1.83,10.42,3.51,2.62.84,5.24,1.66,7.22,2.25l3.27.95-4.13-1.5-4.12-1.57L40.8,23c2.57.7,2.78.67-2-1,14,5.08,78.1,22.87,86.73,25.69,13.1,3.33,25.93,7,41.82,11.67-3.93-1.26-6.14-2.58,7.55,1.45-2.66-.06,3.58,1.89,11.85,4.37s18.48,5.8,23.88,8c-4.85-1.84,4.86,1.14,13.89,3.82s17.41,5,9.75,2.29c11.41,3.5.57.71,9.19,3.57,13.14,3.57,27.57,7.43,42.77,11.37l23.31,6,6,1.51c2,.52,4.06,1,6,1.46s3.94,1,5.82,1.6c.46.15,1,.32,1.37.47s.86.35,1.36.56a14.49,14.49,0,0,0,3.67,1.14l5.8.8-4-4.24a10.52,10.52,0,0,0-2.27-1.77c-.72-.44-1.42-.8-2.11-1.14-.3-.06.92.68,1.31,1s-.16.1-3.63-1.38l-.71-.39c-.47-.25-1.14-.59-2-1-1.64-.78-3.86-1.72-6.1-2.52-1.13-.41-2.26-.79-3.32-1.13l-2.83-.88c-1.56-.51-2.6-.93-2.6-.93-3.16-1-4.69-1.39-6.87-2.1a85.17,85.17,0,0,1-10.69-4.73c1.6.86,4,2.15-.34.32-2-.89-4-1.76-6.06-2.55s-4.13-1.48-6.21-2.16c-4.14-1.35-8.31-2.55-12.43-3.82s-8.14-2.66-12.17-4.25c-1-.38-2-.81-3.09-1.23l-3.15-1.09q-3.13-1-6.3-2l-3.13-.92-3.08-1.11-6.17-2.21L219.27,61c-8.29-3-16.6-6-25-8.86s-16.8-5.52-25.18-8.25l-12.58-4.08c-4.19-1.37-8.38-2.72-12.55-4.18C127.3,29.94,110.6,24.31,93.92,19c9,3.05,3,1.24-4-.76,4.49,1.4-.2.39.63.89,0,0-7-2.21-14-4.31s-14.07-4-14.07-4c-5.35-.59-30.27-7.52-33.34-7.65l8.94,2.14c-12-2.26,16.32,5.85,14.44,6.37C59.26,12.77,68,15.29,77.7,18.26s20.47,6.35,31.4,9.13c4.71,1.67-4.14-1-1.65,0,5.57,1.3,12.19,3.28,24.32,7.48l-1.41-.36,42.1,14c6.39,2.14,12.9,4.27,20.13,6.86s15.28,5.56,24.79,9.09L214.7,63c8.17,3,9.89,3.8,13.71,5.3,4.84,1.36-.95-.73-6.84-2.87s-11.81-4.34-7.41-3.16c2.65,1.22,7.57,3.14,13.64,5.38l9.77,3.57,2.59.94,2.67.79c1.75.53,3.52,1.08,5.26,1.66l2.61.88,1.3.45c.41.15.8.27,1.2.45,1.67.69,3.41,1.37,5.06,2s3.3,1.22,4.87,1.76,3.12,1,4.53,1.48a124.24,124.24,0,0,1,11.8,4c6.28,2,5.37,1.64,4.51,1.18-.44-.22-.88-.44-.43-.34a37.93,37.93,0,0,1,4.83,1.68l1.57.8,1.56.82,3.23,1c4,1.81,7,3.25,9.1,4.24a20.1,20.1,0,0,1,3.31,1.75c-2.07-.78-5.81-2.26-7.92-3.17a100.63,100.63,0,0,0,9.36,3.93c1.78.62,3.65,1.2,5.53,1.66,1.73.43,3.44.89,5.06,1.38s3.18,1,4.59,1.56c.71.28,1.38.55,2,.84l.92.42,1,.45a16.16,16.16,0,0,1,4.14,2.31l-.21-.19c-.16-.13-.46-.34-.88-.61-.87-.54-2.19-1.18-3.73-1.94a51.42,51.42,0,0,0-5.6-2.41,50.14,50.14,0,0,1,5.77,2.34c1.05.5,2,.93,2.91,1.41a9.17,9.17,0,0,1,2,1.32l1.86-3.64a10.09,10.09,0,0,1-2.28-.76c-.49-.2-1-.43-1.6-.65s-1.09-.38-1.63-.56c-2.15-.68-4.31-1.22-6.43-1.72s-4.18-1-6.3-1.51l-6.38-1.57-25.7-6.39c-8.54-2.15-17-4.31-25.17-6.49s-16.07-4.37-23.54-6.47l2.51,1c-25.86-7.34-20.53-6.61-48.89-15l1,.24c-5.73-1.42-13.35-3.5-21.12-5.76,7.23,1.81-13.38-4.39-3.9-2-28.16-7.65-14-3.66-32.68-8.18L127.68,45c-6.38-1.49-7-1.47-21.15-5.46,11.7,3-8.93-3.16,4.19.18C81.16,30.39,66.37,27.84,53,22.74c-13.9-2.92,25.61,8,17.91,6,6.33,2.17-11.45-2.49-20.77-5.29-4.75-1.38-8.71-2.86-14.48-4.86l-25-8.86,2.51.83c.63.2,1.26.4,2.42.81l-3.48-1.29c-1.21-.45-2.54-.83-3.74-1.15A36.55,36.55,0,0,1,1.61,6.81l-.84,3.8a39.5,39.5,0,0,1,6.53,1c2.28.55,4.8,1.15,7.36,1.84,6.35.81,14.44,3.31,16.33,3L8.77,11.51C21.4,14.25,33.4,15.62,53.82,21.73c-1.63-.28-7.77-1.74-12-2.69,6,1.77,11.59,2.9,17.74,4.91-1,.14-7.62-1.74-15.75-3.83S26.1,15.81,19.27,14.59c3.25.91,9.63,2.19,14.31,3.24s7.72,1.82,4.29,1.41c9.86,1.31,23.55,6.28,39.76,10.58L76.45,30c2.56.73,7.86,2.21,12.51,3.79l-8.59-2.19c13.09,3.7,24.76,8.88,37.16,13.06-12.91-4.66-14.32-5.25-13.85-5.3s2.82.54-2.6-1.55c16,5.32,20.52,7.36,25.46,9.54s10.35,4.62,28.19,11.06c-4.83-1.72-18-6.93-10.41-4.37,6.77,2.58,15.64,6.06,19.72,7.86,23.57,8.73-3.47-1.83,6.65,1.65,7.83,3.56,11.64,4.13,22,7.83l-.07.49C206,77,207.89,77.4,209.42,77.71s2.69.51,14.79,5.07L213.74,79.7l12.73,4.41-2.79-.41c14,4.51,18.24,6.08,31.86,10.67-3.08-1.37,2-.22,14.13,3.49,4.1,1.4,2.93,1.15,2.86,1.21s.22.13,1.57.55,3.77,1.12,8.1,2.32a90.59,90.59,0,0,1-15.74-4.41c-.8-.08-3.9-.89-4.73-1,4.42,1.56,10,3.31,15.33,4.83s10.29,2.8,13.41,3.67c-2.4-.69-5.28-1.51-6.74-2l12.59,3.14c3.14.78,6.27,1.59,8.61,2.21l3.89,1.06c3.79,1.39.73.54-2.36-.22,5,1.43,8.43,2.34,15.69,5a23.86,23.86,0,0,1-2.87-.46c-1.45-.34-3.94-1.15-9.06-2.71,0,0,1.45.43,3.62,1.13s5.07,1.7,8,2.74l8.08,2.92c1.4.46,2.22.64,2.75.82s.71.25.71.25a2.06,2.06,0,0,1,.37.29l3.08-4.36a20.1,20.1,0,0,0-3.24-1.83,35.31,35.31,0,0,0-3.58-1.36c-2.1-.68-3.3-1-1.93-.78-3.21-.86-7-1.91-11-2.84s-8.25-1.88-12.62-2.82c-8.77-1.89-18-3.86-26.75-6.29-.93-.16-2.77-.55-6.52-1.47-16.49-4.39-31-8.84-50.69-13.56l-11-3.66c-15.39-3.9,14.88,4.84-10.73-1.63-18.17-4.46-6.65-2.35-13-4.17l-18-3.81c-7.18-1.58-15.31-3.39-23.61-5.6C149.8,66.2,154.11,67.29,159.3,68.45Zm-89-17.89c-3.65-1-11-2.77-13.56-3.76C61,47.39,64.14,48.57,70.29,50.56Zm284.1,90.14c-1.38-.3-3.11-.76-5.08-1.32s-4.16-1.22-6.53-1.8C346.22,138.25,350.09,139.39,354.39,140.7ZM228.05,124.58l.4.08C236.56,127.05,233.68,126.19,228.05,124.58Zm-16.92-4.66c-1.71-.38-1.61-.28-.9,0,1.21.19,5,1.16,9.35,2.34A75.28,75.28,0,0,0,211.13,119.92ZM12.49,14.48l-1.6-.63-1-.41-.47-.17,1.18.37,1.06.36,1.57.53c.81.28,1.17.41,1.24.45A16.51,16.51,0,0,1,12.49,14.48Z"/><path class="cls-1" d="M321.66,131.79a5.9,5.9,0,0,1-1.4-.89C318.85,130.38,318.78,130.45,321.66,131.79Z"/><path class="cls-1" d="M277.14,98.8l.57.16a4,4,0,0,0,.59.06Z"/><path class="cls-1" d="M252.44,121.1c-3.41-1.26-5.29-2-6.53-2.54C245.68,118.61,247.21,119.24,252.44,121.1Z"/><path class="cls-1" d="M121,96.23l10.81,3.2c-5.23-1.58-7.06-2.27-9.67-3.15C122.37,96.46,124.38,97.26,121,96.23Z"/><path class="cls-1" d="M164.52,105.84c1.58.45,3.32,1.07,4.89,1.51L169,107C162.35,104.83,157.62,103.56,164.52,105.84Z"/><path class="cls-1" d="M111.44,91.65c-.76-.63-7.56-2.54-15.17-4.32l1.34.34C95.28,87.68,103.39,89.45,111.44,91.65Z"/><path class="cls-1" d="M98,85.64a67.11,67.11,0,0,0,6.8,2.08c.47,0-.25-.2-1.59-.53A45.41,45.41,0,0,1,98,85.64Z"/><path class="cls-1" d="M189.53,114.66c-3.6-1-2.37-.07-4.39-.76C181,113.38,209.38,119.45,189.53,114.66Z"/><path class="cls-1" d="M105.6,88.58l2.62,1.26,4.33.84-3.47-1.06Z"/><path class="cls-1" d="M165.36,106.29l-12.14-3.41a18.08,18.08,0,0,1-3.29-.72C157.41,104.25,165.62,106.51,165.36,106.29Z"/><path class="cls-1" d="M149.93,102.16c-3.89-1.09-7.6-2.12-9.78-2.69C142.25,100.1,146.79,101.35,149.93,102.16Z"/><polygon class="cls-1" points="122.17 93.33 125.71 94.53 134.22 97.18 122.17 93.33"/><path class="cls-1" d="M295.94,142l13.26,3.61c1.39.22-2.19-.91-7.13-2.24C298.87,142.59,294,141.27,295.94,142Z"/><path class="cls-1" d="M256.27,129.13c3.55,1.15,3.77,1.33,5.74,2.08l.54-.49Z"/><path class="cls-1" d="M294.84,140.1c1.35.21,19.33,5,2.53.24C296,140.13,282.69,136.51,294.84,140.1Z"/><polygon class="cls-1" points="232.81 112.45 236.12 113.59 235.95 112.45 232.81 112.45"/><path class="cls-1" d="M57.87,61.12c4.09,1,6.32,1.32,7.66,1.54a10.88,10.88,0,0,0,2.14.19,9,9,0,0,1,1.84.16c1.11.18,3,.57,6.54,1.45,1.86.31-1-.44-3.9-1.11s-5.76-1.23-3.84-1C58.71,61,53.4,59.31,57.87,61.12Z"/><path class="cls-1" d="M68.31,62.36c1.54.25,3.13.51,4.85.82C70.41,62.65,69.12,62.47,68.31,62.36Z"/><polygon class="cls-1" points="43.66 5.52 33.6 2.75 40.05 4.74 43.66 5.52"/><path class="cls-1" d="M24,1.32s-.6-.31-1.22-.6L21.55.15C21,.1,20.4.06,19.83,0L18,0l-.72.09-.52,0A6.77,6.77,0,0,1,15.63,0a6.17,6.17,0,0,0,1,.2,5.44,5.44,0,0,0,.58,0c.23,0,.29,0,.79,0l1,.09.85.1c.56.08,1.12.16,1.65.26A21.81,21.81,0,0,1,24,1.32Z"/><path class="cls-1" d="M97.69,60.58l.8.1c-1.5-.67-3.83-1.45-8.5-3Z"/><polygon class="cls-1" points="79.18 48.64 76.83 48 81.11 49.75 79.18 48.64"/><path class="cls-1" d="M195,75.94c-4.72-1.24-10.29-2.52-15-3.74C190.25,74.68,196.09,77,195,75.94Z"/></g></g></svg>