<svg xmlns="http://www.w3.org/2000/svg" viewBox="0 0 25.52 102.75"><defs><style>.cls-1{isolation:isolate;}.cls-2{opacity:0.9;mix-blend-mode:screen;}</style></defs><g class="cls-1"><g id="Layer_2" data-name="Layer 2"><g id="OBJECTS"><path class="cls-2" d="M7.32,99.14c.91,1,1.25,2.45,2.22,3.34s1.36-.9,1.55-1.62.58-2.13,1.38-2.41c.23-.08.53,0,.77,0s.29-.15.41-.14.29.14.44.18a.77.77,0,0,0,1-.51c.38.15.54.66.87.9s.34.11.62.16a3,3,0,0,1,.58.16l.48.13a.87.87,0,0,0,.59-.12c.37,0,.63.31,1,.26s.43-.29.7.33a5.25,5.25,0,0,0,.72,1.34c.13.16.53.61.81.56s.24-.86.28-1.13a1,1,0,0,1,.45-.78,1.76,1.76,0,0,0,.61-.66,5.94,5.94,0,0,1,.73-1.24c.25-.31.58-.54.82-.85s.46-.75.69-1.11a4.16,4.16,0,0,0,.46-.92V.29A1.33,1.33,0,0,0,24.63,0c-.59.07-.91.73-1.1,1.18a12.85,12.85,0,0,1-.9,2.2c-.47.73-.84.73-1.6.53a5.61,5.61,0,0,0-1.11-.38c-.2-.13-.36-.09-.5.14a1.19,1.19,0,0,1-.62.89,1.4,1.4,0,0,1-1-.76c-.1-.37-.31-.51-.62-.4a.75.75,0,0,1-.47.35.5.5,0,0,1-.55,0c-.84-.13-.65,1-1.39,1.07-.46.07-.75-.53-1.19-.59a2.6,2.6,0,0,1-.63,0,3.87,3.87,0,0,1-.64-.81,1.56,1.56,0,0,0-.82-.72c-.4-.15-.73-.11-1-.52S10.26,1.37,9.9,1L9,.19A.86.86,0,0,0,7.78.31c-.29.27-.27.62-.65.83a1.46,1.46,0,0,1-.83.1A4.87,4.87,0,0,0,5.73,1c-.31,0-.62.91-.8,1.15-.36.48-.75,1.42-1.37.75-.52.24-1,.58-1.42,0a1.11,1.11,0,0,0-.47.44.64.64,0,0,1-.68,0,2.27,2.27,0,0,0-.82-.13L0,3.28V99.57a12.86,12.86,0,0,1,1.05-1,2.05,2.05,0,0,1,1.5-.69c.33,0,1.09.16,1.39,0s.21-.53.31-.73c.44.09.8.64,1.19.88A7.08,7.08,0,0,1,7.32,99.14Z"/></g></g></g></svg>