<svg xmlns="http://www.w3.org/2000/svg" viewBox="0 0 351.23 77.13"><defs><style>.cls-1{fill:#232323;}</style></defs><g id="Layer_2" data-name="Layer 2"><g id="Objects"><path class="cls-1" d="M350.25,18.41c-1-.23-1.36-.37-1.63-.41s-.32,0-.37.06a.48.48,0,0,0,0,.15l0,.07v0s0,.05,0,0a2,2,0,0,1,0-.23l0,.29h.11l.26.06.62.16a8.79,8.79,0,0,0,1.14.21c.67.07,1,0,.91-.06a3,3,0,0,0-.58-.2C350.41,18.43,350.21,18.38,350.25,18.41Z"/><polygon class="cls-1" points="306.46 10.45 307.32 10.34 300.25 10.3 306.46 10.45"/><path class="cls-1" d="M261.8,7.73c4.18,1,16.19.84,24.12,1.56l1.31.24,3.61-.36C281.18,8.69,268.6,8.33,261.8,7.73Z"/><path class="cls-1" d="M238.11,4.78c1.45.37-5.16-.06,5.54.42l-1-.13Z"/><path class="cls-1" d="M242.65,5.07c4.7.26-3.06-.42,0,0Z"/><path class="cls-1" d="M220.94,3.79l6.21.21c-1.28-.26-6.79-.7-4.73-.67C216.06,3,217.35,3.26,220.94,3.79Z"/><path class="cls-1" d="M215,3.88l3.22.13A13.78,13.78,0,0,0,215,3.88Z"/><path class="cls-1" d="M225.07,4.29,218.25,4a6,6,0,0,0,3.13.15C220.81,4.33,222.17,4.22,225.07,4.29Z"/><path class="cls-1" d="M228.91,4.68c3.46.42,7.94.77,1.71.62,5.92.34,8.46.31,8,.17S234.83,5.06,228.91,4.68Z"/><path class="cls-1" d="M259.48,8.33l4.63.48h4C266.13,8.81,259.2,8.09,259.48,8.33Z"/><path class="cls-1" d="M182.27,1.09c-.4.14,2.08.48,2.53.7l4.61,0C187.05,1.6,182.57,1.33,182.27,1.09Z"/><path class="cls-1" d="M184.8,1.79l-6.89,0C184.06,2,185.19,2,184.8,1.79Z"/><polygon class="cls-1" points="213.87 4.59 225.15 4.87 211.71 4.45 213.87 4.59"/><polygon class="cls-1" points="155.97 0.76 159.87 0.4 152.93 0.94 155.97 0.76"/><path class="cls-1" d="M138.57.85c2.88-.29-3.95-.48-.9-.67-4.73.07-8.77.32-12.4.56C129.13.6,133.25.63,138.57.85Z"/><path class="cls-1" d="M119.17,1.07c1.93-.07,3.93-.2,6.1-.33C123.22.81,121.21.91,119.17,1.07Z"/><path class="cls-1" d="M166.18,1.54a31.28,31.28,0,0,0-5.4-.42l2.7.42Z"/><path class="cls-1" d="M163.57,1.56l-.09,0h-5.84Z"/><path class="cls-1" d="M166.86,1.54h-.68A1.42,1.42,0,0,0,166.86,1.54Z"/><path class="cls-1" d="M195.93,3c-4.05,0-12.46-.13-4.35.62C194.49,3.53,189.84,3.07,195.93,3Z"/><path class="cls-1" d="M170.22,2.11l3.65.11,3.66.14c-.15-.12-1.46-.32.55-.38l-3.93,0Z"/><path class="cls-1" d="M166.64,2.22l1.78-.07,1.8,0L167.51,2Z"/><path class="cls-1" d="M131.67,1.45c-3.15.19-6.59.22-10.49.25,4.18.08,8.49.12,12.59.11C134.34,1.67,136.14,1.43,131.67,1.45Z"/><path class="cls-1" d="M147.17,1.54l-.7,0C146.9,1.6,147.25,1.61,147.17,1.54Z"/><path class="cls-1" d="M82.92,2.06l.61.08.14-.08Z"/><path class="cls-1" d="M134.47,1.88a62.25,62.25,0,0,0,6.79-.16c-2.34.05-4.83.08-7.49.09C133.51,1.87,133.46,1.91,134.47,1.88Z"/><path class="cls-1" d="M108.48,1.3c1.64.08,3.49.15,5.44.22A46.46,46.46,0,0,0,108.48,1.3Z"/><path class="cls-1" d="M145.42,1.45l.47,0C144.86,1.34,145,1.38,145.42,1.45Z"/><path class="cls-1" d="M145.42,1.45c-1.62.06-2.89.17-4.16.27,1.91,0,3.68-.09,5.21-.15C146.09,1.54,145.7,1.49,145.42,1.45Z"/><path class="cls-1" d="M71.33,4.83c.56-.39,8.79-.74,15.9-.4,7-.38,2.4-1.62-3.7-2.29-.22.17-.21.34-7.4.6,2.51.23,16,.39,9.89.8-9.53.28-7.81-.08-12.44-.29,2,.25-1.06.43-4.32.62s-6.77.37-5.74.75l8.37-.18C72,4.55,69,4.72,71.33,4.83Z"/><path class="cls-1" d="M97.23,2l3-.09c-3.38,0-5.8-.14-10.24-.39-4.92.25-5.94.39-6.28.53l14.57-.12Z"/><path class="cls-1" d="M113.49,1.78c-2.31.42-9.42.66-5.06,1.09,8.7,0,6.09-.37,11.29-.57-14,.14,4-.24-6.12-.47,2.76-.08,5.24-.11,7.58-.13l-7.26-.18.32,0h.05c.61.05.81.09.13.06h-.3a2.4,2.4,0,0,1-.63.16c-4.07-.08-.64-.11.63-.16,0,0,.16-.05.17-.07h-.05l-7,.14-7,.23C103.16,2,106.88,1.81,113.49,1.78Z"/><path class="cls-1" d="M184.05,4.24c-.44,0-.42-.08-.45-.11C182.69,4.15,182.34,4.17,184.05,4.24Z"/><path class="cls-1" d="M178.27,3.78a39.51,39.51,0,0,1,5.21,0c2.87.25,0,.21.12.36,2,0,7,0,.75-.49l-1,0c-5.65-.38-12.92-1.05-11.93-1.08A51.91,51.91,0,0,0,178.27,3.78Z"/><path class="cls-1" d="M145.49,2.78,133.78,3l6,.37-.31-.23C146.1,3.23,144.66,3,145.49,2.78Z"/><polygon class="cls-1" points="81.58 1.86 83.12 1.39 76.38 2.07 81.58 1.86"/><polygon class="cls-1" points="66.41 1.89 66.98 1.5 62.97 1.7 66.41 1.89"/><path class="cls-1" d="M166.46,32.07l3.43.32C168.27,32.22,167.23,32.13,166.46,32.07Z"/><path class="cls-1" d="M141.74,28.93l-.63.12C142.26,29.08,142.74,29.06,141.74,28.93Z"/><path class="cls-1" d="M303.39,43.54c4.77,1.57,10.11,3.42,9.62,2.85l-1.4-.78C308.18,44.87,305.58,44.18,303.39,43.54Z"/><path class="cls-1" d="M131.18,25.44l1.45.23,3.4-.19Z"/><path class="cls-1" d="M127.54,27,121,26.33C122.44,26.52,124.56,26.74,127.54,27Z"/><path class="cls-1" d="M233.52,55l-4,.16C235.75,55.57,233,55.16,233.52,55Z"/><path class="cls-1" d="M89,10.09c4.29.52,7.71.88,10.71,1.16C94.54,10.55,90.39,9.84,89,10.09Z"/><path class="cls-1" d="M156.17,35.42c2.09.18,3,.21,3,.1C157,35.33,155.74,35.26,156.17,35.42Z"/><path class="cls-1" d="M112.12,12.35l-2.26-.3c-3.15-.22-6.32-.44-10.16-.8A111.17,111.17,0,0,0,112.12,12.35Z"/><path class="cls-1" d="M62.41,60.12l-1.1,0C61.21,60.23,61.7,60.19,62.41,60.12Z"/><path class="cls-1" d="M84.48,66.79,90.33,66C89.27,66.12,87.51,66.35,84.48,66.79Z"/><path class="cls-1" d="M5.25.06c3.24,0,.51,0,0,0Z"/><path class="cls-1" d="M20.93,2.08a3.42,3.42,0,0,0-1.29.17A4.66,4.66,0,0,1,20.93,2.08Z"/><path class="cls-1" d="M144.34,12.83l.28,0C143.67,12.68,143.83,12.71,144.34,12.83Z"/><path class="cls-1" d="M10.12.31C8.9.24,7.5.18,6,.13Z"/><path class="cls-1" d="M9.46.1l2.83.09C12.7.13,12.34.07,9.46.1Z"/><path class="cls-1" d="M.73.06C2.59.05,4.32.08,6,.13c-.64,0-.9-.06-.73-.07Z"/><path class="cls-1" d="M56.58,44.88l.69.08C60.53,45,59.1,44.9,56.58,44.88Z"/><path class="cls-1" d="M301.47,48l.37,0-.48-.07Z"/><path class="cls-1" d="M289.9,46.86A79.45,79.45,0,0,1,301.36,48l-3.65-1.71Z"/><path class="cls-1" d="M225.33,42.35l-7.85-2.07c9.71,1.47,16.57,3,9.24,1-.35.28-2.44,0-5.41-.5s-6.86-1.36-10.74-2.16c-7.76-1.62-15.59-3-16.27-2.46L189,34.9c1.52.27,1.78.24,3.28.51a36.52,36.52,0,0,0-9.44-1.31,83.35,83.35,0,0,1-11.74-1c-4.64-.69-7.86-1.3-4.67-1.06l-10.4-1c-3-.41-2.25-.55.75-.14L141,29.07l.12,0-10-.38c-4-.6,2,.07,1-.21l-8.81-.57c-3.53-.71,3.77-.31,9.83.36-8-2.18-7.32-.4-24.9-3l8.3.67c-5.26-1.31-11.75-1.69-21.06-3.13,2.19.48,18.61,3.12,9,2.48-2.67-.37-6.2-.78-11.36-1,0-.49-5-.88-11.3-1.5l.5-.59c-6.8-.51-6.3-.13-10.32-.25-7.55-.83-9.09-1.5-10.84-2.08-12.18-1.23,8.35,1.54-6.09.37a157.1,157.1,0,0,0-20.55-.9l0,4.38,8.91-.25c7.07.28-1.24.38,1.3.59l6.27-.45c1.53,0,1,.19.78.26,5.28-.11.44-.65,8.75-.64,1.12-.33,5.38,0,10.63.49a161.3,161.3,0,0,0,16.65.89c2.53.31-1.24.33-.48.61,14.13.21,12.11.24,23.72.17l9.83,1c-7.21-.9,2.07-.94,10.21-.89-2.56-.39-4.74-.73-6.21-.92l13,.49c1.56.21.24.34-1.9.47h2.38c4.61.56,2.19.76-1.15.89l-4.63-.7c-3.22.18-6.23.43-5.59.84.84,0,2.46,0,4.25.09-.84,0-1.38.12-1,.2a35.48,35.48,0,0,0,3.91,0l2.89.9.74-.23,8.43.82,8.42.87c6.06.13,11.74.17,18.31.42s14,.69,23.58,1.7c-4.8,0-1.12.73-1.45,1.31-5.14-1.28-14.83-1.45-24.73-2.51,5.17.57,4,.75,2.68.73l8.86.6,8.86.69c-.45.46,3.71.8,8.29,1.59-3.36-1.44,13.23,1,20.44,1.7.4.4-1.37.48-10.1-.76,9.54,2,12.63.52,22,2.51a26.88,26.88,0,0,0-4.15-.47c5,.41,17.18,2.43,14.27,2.3l-2.13-.3c14.14,2.2,43.13,6.44,45.37,5.87a8.07,8.07,0,0,1-2.89.79s6.44.24,12.87.36,12.85.11,12.85.11c-2.32.47,6.11,3.19-5.78,2.24a143.87,143.87,0,0,0,14.8,1.53c-2.32-.31-5.69-1.6-2.52-1.36,8.64,1.6,6,1,16.71,2.49-3.47-.42.48-1.27,6-.81-.87.1.38,1.16-1.64,1.13,1.5,0,3,0,4.52,0a27.34,27.34,0,0,1,4.28.16l.4-2.39c-1.55,0-3.11-.13-4.67-.26,3.38.32.72-.81-2.16-1.69.66.24-2.19-.3-5.67-1.14s-7.59-1.88-9.4-2.23l5.61,1.6c-3.74-.95-6.63-1.54-9-1.92s-4.27-.64-6.16-.88a107.61,107.61,0,0,1-15-2.87c1.86.22,4.8-.27-2.74-2.31a260,260,0,0,1-29.37-3.86l-2.46-.91-10.24-1.94c6.52.51,24.68,2.93,34.52,4.67-5.56-1.65-1.47-.78-9.92-2.8-2.91-1,4.71.65,7.2,1.26L275.08,31l-9.83-2.43c.74.82-15.26-2.78-14.63-2l10.81,2,10.78,2.17c.71.87-12.78-1.16-26.77-4.21-3.52-1,2.91-.61,2.67-.89-1.87-.19-13.44-2.3-14.71-2.67l6,.8c-7.81-1.79-13-1.58-22.36-3.73-3.26-.57-9.66-2.35-10.28-2,5.24,1.54,5.92,4.05,2.29,4.09l-9.42-1.77c-4.59-.85-9.51-1.74-11.36-2.17-5.33-1.27,8.29-.39,3.76-1.49a29.47,29.47,0,0,1-4.49-.08c-3.43-.58,1.5-.39-6-1.22-1.33.51-15.24-1.86-3.61.14-7.36-.67-7.78-1-16.4-2,2.69.75-7.9.61-15.27,0,.45-.13-1.17-.53-2-.72-15-1.64-23.09-2.73-37.14-4-1.28-.28-8-1.08-5.14-1.12-2-.06-3.91,0-8.25-.33-8.34-1.29,9.68.72,3.34-.52-.58.34-11.26-.4-17.46-.62C81.54,7,94,7.47,100.16,7.77c0,.85-10.88.77-25.6.07-11.69-.63-5-.91-7.06-.93-22-1.68-18.8.09-37-1.57-7.2-.9-.27-1.09-1.85-1.56,9.54.3,14.6,1.2,21,1.61L41.8,4.61c3,0,9.4.3,12.86.7-3-.44-12.29-1.14-22.93-1.74S9.06,2.57.57,2.36L0,2.39v.73C3,3,7.52,2.82,5.2,2.6L0,2.65v.22H.18c1.61.15,1.09.26-.18.35V2.3C2.39,2.1,7.72,2,3.14,1.86a253,253,0,0,1,25.47,0l1.88.68A66.36,66.36,0,0,0,21,2.07c4.25-.16,15.53,1.34,20.19.71L34.11,2.1c7.24-.07,16.21-.33,25.15,0-4.06-.71-2.07,0-8.41-.87,5.51,1.09-23-.84-14.12.4C30.2.63,25.4.92,16.83,0c.26.22,3,.45-4.54.19-.34,0-1.15.11-1.66.15l-.51,0,.41,0c-.32,0-.35,0,.16,0a36.65,36.65,0,0,1,3.85.38C11.89,1,5.15,1,0,1.09V4.42c2.2,0,4.1-.08,5.3-.13,4.46.15-1.87.2.56.45l6.05-.24c.59.44,11.83,1.1,1.32,1L18,5.7l4.73.19c5.55.48,13.2,1,17.94,1.13,4.45.37,11.3.25,7.39.33l14.87.76.13.13c14.65,1.06,30.2,1.47,46.85,3.81,4.93.33,10,.67,18.24,1.61l1.57.54c6.33.49,18.91,2.35,21.67,2.25,6.68,1.75,30.58,3.65,41.6,5.3l.48-.45c7.6,1,14.91,1.88,24.33,3.18l-.51-.53c8.18.9,20.73,3.87,33.41,6.62a53.16,53.16,0,0,1-6.36-1.34c14.94,4.15,32.1,6.5,45.6,10.64,3.44.7,5.9,1.37,8.26,2.08l-.85-.19,1.4.36,4.69,1.42c-1.41-.47-2.76-.89-3.94-1.23,2.64.65,6.65,1.59,10.6,2.43l1.56.87.91.2c3.83,1.09,3.16.51,1.18-.33,2,.4,3.84.72,5.28.93,3,1.42,10.28,2.2,14.45,4,1.3.08,5.8,1,10.61,1.42l.61-3.63a25.59,25.59,0,0,0-4.2-.45l-3.59-.09a20.14,20.14,0,0,0-4.42.17c-.13-.13-1.31-.27.86-.11-4.47-.44-8.94-.87-13-.95L318.49,46l-4.9,0-4.91-.09c-5.87-1-8.28-1.54-2.37-1.33-7.12-.44-10-.78-12.6-1s-5-.53-11-1.06l.64-.3c-4.3-.61-11.24-1.1-13.78-1.82-9.5-2.14-47.51-7.37-72.23-11,4.67,1.72-11.48-1.9-12.57-1.08-1.41-.44-4.86-.95-.81-.76-12.71-1.08-19-2.33-27.88-2.3-1.43-.39,2.75-.18,1.47-.45a41.83,41.83,0,0,1-5.37-.35c-1.28-.27,1.88-.08,3.91,0-13-1-14.37-.18-15.37.54a73.47,73.47,0,0,0-14.63-.75c-2.27-.4-6.08-.91,2-.51-4.54-.35-27.72-2-28.22-1.34-1.41-.24-6.34-.38-7.54-.37-10.19-.55-11.06-.71-21.1-1.08L74,21c-4,.6-8.34-.17-16.43-.25l.24-.08c-8.63-.42-11-.37-12.86-.34s-3.39.09-10.33-.13v2.6l3.08.16-1-.5c.85-.49,4.89-.27,10,.26S58,24.08,63.31,24.43l-3.77-.65c5.79.2,15.94,3,21.71,3.75,1.25.21-2-.06-3.78-.18,15.08,2.15,2-.42,13.33.58,2,.55-2.77.59,4.81,1.43,3.75.65,22.15,1.15,32.43,2.85-2.25-.49-4.49-1,.77-.64,4,.39,9.44,1.09,14.72,2a113.65,113.65,0,0,0,14.17,1.6,4.38,4.38,0,0,1,1.42.38l12.73,1.29,6.53.62c1.9.18,3.46.31,4.39.34,2.69,1.21,12.12,2.57,20.83,4.15s16.7,3.08,16.48,3.8c0,0,4.67,1,9.34,1.88l9.33,1.77-.52.06c11.88,2.39,16,3.18,20.29,3.76,2.65.76.67.42.43.44a28.53,28.53,0,0,1,7,2.58l.43-3.29a9.56,9.56,0,0,1-3-.19c-.56-.09-1.15-.2-1.76-.25L260,52.35c-2-.15-3.85-.27-5.72-.36-3.73-.19-7.64-.3-13.78-.47L239,50.91c-4,0-25.53-2.63-42.95-3a7.15,7.15,0,0,1,1.92-.12c-9.79-.27-21.49-1.19-31.66-1.72s-18.76-.73-22.38,0L131,46c16.68.78-2.51.7,4.34,1.25-6.57-.13-17-1.24-8.88-1l1.26.14c3-.79-20.72-1.25-20.24-1.9-13.07-.61-26-1.45-38.77-2.21-6.41-.34-12.8-.54-19.16-.48-3.18,0-6.37.14-9.5.3s-6.2.31-9.21.24L31,46.5a6.63,6.63,0,0,1,1.79.18c.38.07.79.16,1.25.23s.9.11,1.3.15c1.66.17,3.28.25,4.87.32s3.16.13,4.69.24l4.72.31-3.5-1,5.37.36,5.37.32c2.81.32,3.75.78-3.91.32a70.62,70.62,0,0,0,13.1.16c15,.94-5.9.61-1.3.82l6.25.21L69.64,49c5.08-.1,5.54-.38,14.75,0,5.83.32,3,.54,5.27.64a2.4,2.4,0,0,0,.72.07c.54,0,1.42,0,2.8,0l13.51.46-5.38-.75c6-.11,12.7.49,6.49-.41,4.56.66,17.14,1.32,29.29,2.06S161,52.48,163.76,52.8l12.84,0c2.2,0,4.45.09,6.77.23l.88.06.95,0,1.8,0c.59,0,1.18.06,1.75.13a6,6,0,0,1,1.47.33,11.37,11.37,0,0,1-1.49-.64c0-.07.1-.13.48-.14a3.66,3.66,0,0,1,.73.07,2.25,2.25,0,0,1,.87.3l.26-1.11a14.78,14.78,0,0,1-4,.47c.79-.36.19-.53-1.28-.64a24.81,24.81,0,0,0-2.89-.07l-3.68.15c-5.31.18-12,.32-15.62.08,3.24.13-3.11.51-8.93,1.09s-11.16,1.1-6.13,1.15c-7.36.47-.49-.45-6.08-.35-8.69.87-18.35.83-28.56.65s-21-.28-31.87.08c-.34.19,3.32.36-1.35.74l-5.76-.27L69.14,55c-4.29.31-4,1.09-11.86,1.23,1.12,0,2.79.1-.08.44a128.14,128.14,0,0,1-15,.64l-.11,3.25c3.73.14,7.08-.6,10.36-.59s6.82,0,10.25,0c6.87.19,13.81.45,20.71.81s13.83.9,20.71,1.68l5.19.61,5.18.55a39.14,39.14,0,0,1,9.77,2.13v-3a13.91,13.91,0,0,1-3.5.47l-4,.31c-2.65.2-5.28.4-8,.57-5.36.32-10.69.77-16,1.21,5.88-.36,2,.13-2.46.69,2.9-.27,0,.44.58.61l-9,.8c-4.53.4-9.06.92-9.06.92-1.59.57-6.4,1.33-11,2.16-2.31.4-4.57.82-6.37,1.2-.89.19-1.68.36-2.33.55a6.18,6.18,0,0,0-1.28.5l.88-.24c.53-.14,1.3-.31,2-.45l2.81-.58c-3.69,1.07-1,1,2.53.8s7.81-.43,7.34.14c4.14-1.11,9.74-1.66,16-2.16a195.41,195.41,0,0,0,20.14-2.5c3.08-.11-2.59.57-.93.63,3.48-.79,7.71-1.18,15.71-1.74l-.89.18,2.13-.2,1-.1,1-.07a14.78,14.78,0,0,0,3.92-.67l4.07-1.48-4-1.52a49.42,49.42,0,0,0-12.12-2.5c-1.87-.21-3.67-.4-5.44-.65l-5.49-.71C95,58,87,57.26,76,56.65l1.84.56c-5.4-.32-6.51-.5-9-.72-3.12.24.68.39,4.53.57s7.79.41,5,.67a141.19,141.19,0,0,0-16.08-1.1c-3.52-.1-7.19-.12-10.7,0-3.68.14-6.83.7-9.3.51l-.12,3.7c3.32.17,5.8.16,6.93.34,4.22-.29,3.58-.42,3-.49s-1.24-.15,2.91-.53l2.23.08,2-.58c5.38-.46,8.07-.12,8.31.1-1.33,0-3.68.25-5.07.39,6.89-.15,19.76-.93,22.15-.86l-8,0c11.28-.51,23.82-.6,36.28-.58,6.23,0,12.47,0,18.53-.17s11.94-.66,17.38-1.27l-1.68-.09c8.33-.89,11.64-1.12,15.18-1.26s7.23-.16,16.43-.67l-.66.09L181,55c1-.1,2.15-.24,3.2-.3a39.22,39.22,0,0,0,7.42-.64l2.7-.64-2.15-1.7a3.36,3.36,0,0,0-.43-.31l.45.29-.56,2.39h0c-1.14.33-.86.35,0,.2l3.13-.51-2.48-2.24a5.44,5.44,0,0,0-2.47-1.14c-.8-.19-1.56-.28-2.11-.36-1.07-.13-1.39-.28.93-.23-9.19-.22-11.43-.18-12.91-.07s-2.19.31-8.15.54l-2.72-.5a116.85,116.85,0,0,1-13.58-.2c7.52.14-5.8-.92,2.62-.83-19.13-2-28.54-.89-37.3-2.47-4.44.31-.28.63,4.36.9s9.76.5,7.29.47c4.11.57-7.32.36-13.34,0S104.51,46,89.09,45.55c1.53.05,1.64,0,3.17,0-5.76-.43-11.32,0-18.38-.68-4,.47-9.18-.42-10.36.32l7.07.21,7.08.18c-8-.09-15.59.56-28.76-.69,1-.09,5-.06,7.67,0-3.84-.44-7.43-.27-11.41-.77.6-.36,4.88-.11,10.1.15s11.37.56,15.68.43c-4.13-.48-16.26-.18-11.9-.83a59.08,59.08,0,0,1-11.23-.2c-2.12-.18-4.51-.38-6.91-.43l-3.65-.1-1.84-.07-.86,0-.93-.09.39-.17.36-.18L33,42.4a9.09,9.09,0,0,0-2.35,0l.18,4.15,5.05-.21c-1.66.25-3.34.47-5.06.63l-.21-5a8,8,0,0,1,.84-.11,8.14,8.14,0,0,0-.85.08L30.78,47c4.29-.16,8.31-.37,12.21-.42s7.75,0,11.68-.09c-8.41,0-9.34.06-9.08-.17s1.73-.5-1.83-.52a98.68,98.68,0,0,1,11-.3,53.14,53.14,0,0,1,5.68.51A184.31,184.31,0,0,0,79,47.5c-3.19-.12-11.86-.93-6.91-.89,4.44.34,10.34.86,13.06,1.26,15.55.74-2.36-.62,4.27-.55,5.26.86,7.65.18,14.47.34l0,.48c17.71,1.17,4.75-.75,20.69.34l-6.78.37,8.33.19-1.74.47c9.07,0,11.89.19,20.76.64-2-.42,1.18-.83,9-.63,5.35.43-3,.37,8.11.61a41.94,41.94,0,0,1-10.11,0c-.5.15-2.48.23-3,.37,5.78.5,14.48.46,18.5.61-1.55-.08-3.4-.16-4.34-.26l8-.05h8.06c2.53.3.51.35-1.48.41,3.26.09,5.52,0,10.32.18-1.26.32-1,.73-7.77.6l15.34.35c1,.23,7.84.93,5.84,1,8.48.73,20.89.56,32.14,1.66a40.77,40.77,0,0,1,4.16.1l13.77,1.31c2.3.21,4.65.42,7.08.61l1.84.13.46,0,.37,0,.88.12c.63.09,1.34.19,2.13.24a9.19,9.19,0,0,0,2.84-.22l7-1.76-6.34-3.26A23.34,23.34,0,0,0,264,50.64s-1.8-.77-3.56-1.38L257,48.1c-4.8-1.07-2.52-.29-1,.31s2.24,1-5.88-.72c-11.48-2.2-4.15-1.49-8.12-2.51-5.79-.79-15.74-1.86-26-4.75C219.43,41,222.11,41.74,225.33,42.35Zm-120.51-17c2.36.14,7.07.3,8.75.76C110.84,26.36,108.8,25.88,104.82,25.32ZM149,27.61a60,60,0,0,1-7.48-.65C143.69,27.07,146.19,27.28,149,27.61ZM30,6h.25C35.47,6.42,33.61,6.24,30,6ZM19.13,5.26c-1.09,0-1,.09-.56.18a53.36,53.36,0,0,1,6,.15A28.9,28.9,0,0,0,19.13,5.26ZM90.88,49.49l-2.12-.19C93.56,49.3,92.21,49.38,90.88,49.49Z"/><path class="cls-1" d="M128,26.83a2.32,2.32,0,0,1-1-.32C126.11,26.53,126.08,26.63,128,26.83Z"/><path class="cls-1" d="M234.26,55l-.36,0a1.06,1.06,0,0,0-.38.06Z"/><path class="cls-1" d="M187.8,15.89c2.23.35,3.46.6,4.28.79C192.21,16.58,191.21,16.35,187.8,15.89Z"/><path class="cls-1" d="M38.7.73l-7-.12C35.09.7,36.29.85,38,1,37.84.87,36.52.66,38.7.73Z"/><path class="cls-1" d="M99.25,4.28c1-.07,2.17,0,3.17-.11L102.14,4C97.79,4,94.75,4.26,99.25,4.28Z"/><path class="cls-1" d="M45.11,2.57c.54.42,4.93.45,9.81.51l-.86,0C55.51,2.53,50.31,2.57,45.11,2.57Z"/><path class="cls-1" d="M56.05,3.09l4.52.09C61.15,3,58.74,3.1,56.05,3.09Z"/><path class="cls-1" d="M5.35,5.18c-2.31-.13-1.46.51-2.76.33C0,6,18,5.11,5.35,5.18Z"/><polygon class="cls-1" points="49.02 4.04 47.29 3.48 44.53 3.79 49.02 4.04"/><path class="cls-1" d="M10.39,2.48l7.82.3a7.65,7.65,0,0,1,2.1-.11C15.49,2.51,10.21,2.32,10.39,2.48Z"/><path class="cls-1" d="M20.31,2.67c2.51.07,4.9.14,6.3.1C25.25,2.73,22.33,2.66,20.31,2.67Z"/><polygon class="cls-1" points="38.33 3.81 36.02 3.62 30.5 3.39 38.33 3.81"/><path class="cls-1" d="M73.57,7l8.52.5c.88-.1-1.43-.39-4.6-.56C75.44,6.89,72.28,6.72,73.57,7Z"/><path class="cls-1" d="M47.91,3.8a26.9,26.9,0,0,1,3.73.64l.3-.6Z"/><path class="cls-1" d="M72.76,5.4c.86-.11,12.4.44,1.6-.34C73.48,5.17,64.94,4.7,72.76,5.4Z"/><polygon class="cls-1" points="200.69 19.29 198.53 19.01 198.71 20.06 200.69 19.29"/><path class="cls-1" d="M312.16,40.33c-9.75-2.62-2.48.06-11.27-2.43-2.36-.34,7.19,2,4.78,1.66C311.65,40.77,314.72,41.63,312.16,40.33Z"/><path class="cls-1" d="M305.67,39.56l-3.06-.6C304.34,39.32,305.16,39.47,305.67,39.56Z"/><polygon class="cls-1" points="60.72 69.81 54.26 70.77 58.46 70.34 60.72 69.81"/><path class="cls-1" d="M48.55,73.15,47.78,73c-.38-.08-.74-.19-.74-.19a11.78,11.78,0,0,1-2.24.59l.64,3.75A4.79,4.79,0,0,0,47,76a5,5,0,0,1-1.58,1l-.59-3.44A29.34,29.34,0,0,0,48.55,73.15Z"/><path class="cls-1" d="M87,22.18l-.51.11a45.09,45.09,0,0,0,5.53.77Z"/><polygon class="cls-1" points="174.69 32.47 173.18 32.27 175.92 33.21 174.69 32.47"/><path class="cls-1" d="M247.82,45.52c-3-.65-6.52-1.22-9.5-1.82C244.83,44.85,248.48,46.41,247.82,45.52Z"/></g></g></svg>