<svg xmlns="http://www.w3.org/2000/svg" viewBox="0 0 119.12 347.55"><defs><style>.cls-1{fill:#232323;}</style></defs><g id="Layer_2" data-name="Layer 2"><g id="Objects"><path class="cls-1" d="M119,1c0,1,.1,1.41.07,1.68S119,3,119,3.05a.45.45,0,0,1-.16,0h-.06l.24,0-.29,0h0V3c0-.09,0-.18,0-.27l0-.64a10.66,10.66,0,0,1,0-1.16c.07-.67.2-.95.24-.88a2.18,2.18,0,0,1,.09.61C119.06.86,119.07,1.06,119,1Z"/><polygon class="cls-1" points="118 45.51 118.29 44.7 116.89 51.63 118 45.51"/><path class="cls-1" d="M111.65,89.8c-.1-4.28,2.45-16,3.34-23.94l0-1.32,1.08-3.47C114.62,70.63,112.43,83,111.65,89.8Z"/><path class="cls-1" d="M109.75,113.6c-.06-1.49-1,5.07.72-5.51,0,.54-.06.69-.08,1C110.26,110.05,110.07,111.36,109.75,113.6Z"/><path class="cls-1" d="M110.39,109.09c.7-4.65-.21,3.08,0,0Z"/><path class="cls-1" d="M107.26,130.61l1-6.12c0,1.31-.68,6.79-.3,4.77C107.05,135.56,107.06,134.24,107.26,130.61Z"/><path class="cls-1" d="M106,136.38l.52-3.17A13.65,13.65,0,0,1,106,136.38Z"/><path class="cls-1" d="M107.61,126.47l-1.11,6.74a6,6,0,0,1,.49-3.1C106.71,130.64,107.08,129.33,107.61,126.47Z"/><path class="cls-1" d="M108,122.63c.29-3.47.84-7.93-.27-1.8.87-5.87,1.41-8.35,1.46-7.9S108.82,116.75,108,122.63Z"/><path class="cls-1" d="M110.59,92l.46-4.64.82-3.95C111.46,85.35,110.77,92.27,110.59,92Z"/><path class="cls-1" d="M102.09,169c-.21.36,0-2.14-.17-2.63l.9-4.51C102.56,164.25,101.93,168.69,102.09,169Z"/><path class="cls-1" d="M101.92,166.41l-1.41,6.75C101.54,167.09,101.81,166,101.92,166.41Z"/><polygon class="cls-1" points="105.05 137.38 107.06 126.28 104.75 139.53 105.05 137.38"/><polygon class="cls-1" points="97.11 194.86 98.25 191.12 96.32 197.81 97.11 194.86"/><path class="cls-1" d="M93.51,211.88c.87-2.76-.33,4,.47,1-1,4.61-2.08,8.51-3,12C91.85,221.18,92.65,217.14,93.51,211.88Z"/><path class="cls-1" d="M89.37,230.84c.47-1.88,1-3.81,1.57-5.91C90.45,226.93,90,228.88,89.37,230.84Z"/><path class="cls-1" d="M98.4,184.7a29.5,29.5,0,0,1-.67,5.38l.13-2.73C98,186.54,98.21,185.63,98.4,184.7Z"/><path class="cls-1" d="M97.87,187.26v.09c-.59,2.87-1,4.87-1.17,5.72C96.84,192.33,97.2,190.59,97.87,187.26Z"/><path class="cls-1" d="M98.54,184l-.14.66A1.7,1.7,0,0,1,98.54,184Z"/><path class="cls-1" d="M103,155.26c-.82,4-2.39,12.24-1.49,4.14C102.18,156.58,101.69,161.22,103,155.26Z"/><path class="cls-1" d="M98.67,180.64s.31-1.8.63-3.61l.6-3.6c.08.16,0,1.49.48-.47l-.84,3.84C99.11,178.72,98.67,180.64,98.67,180.64Z"/><path class="cls-1" d="M97.84,184.12l.42-1.74c.21-.87.41-1.74.41-1.74l-.48,2.66Z"/><path class="cls-1" d="M91.53,218.52c-.82,3-1.54,6.42-2.36,10.22.76-4.1,1.6-8.33,2.43-12.34C91.85,215.86,92.46,214.15,91.53,218.52Z"/><path class="cls-1" d="M94.57,203.32l-.16.68C94.46,203.57,94.52,203.23,94.57,203.32Z"/><path class="cls-1" d="M81.09,266.15c0-.21,0-.4,0-.62l.1-.12Z"/><path class="cls-1" d="M91.67,215.7a62.66,62.66,0,0,1,1.53-6.62c-.52,2.28-1,4.71-1.6,7.32C91.49,216.64,91.44,216.68,91.67,215.7Z"/><path class="cls-1" d="M87,241.26c.25-1.62.55-3.45.88-5.37A45.88,45.88,0,0,1,87,241.26Z"/><path class="cls-1" d="M94.31,205.06c0-.15.07-.29.11-.46C94.3,205.63,94.28,205.49,94.31,205.06Z"/><path class="cls-1" d="M94.31,205.06c-.39,1.57-.75,2.79-1.11,4,.43-1.87.83-3.59,1.21-5.08C94.36,204.39,94.32,204.78,94.31,205.06Z"/><path class="cls-1" d="M76,276.93c.49-.46,2.5-8.45,3.6-15.49,1.78-6.77,2.07-2,1.5,4.09-.21.18-.38.14-2.08,7.13.28-2.51,2.83-15.71,1.2-9.85-2.19,9.27-1.49,7.66-2.22,12.24.15-2-.64.95-1.48,4.11s-1.73,6.55-1.89,5.47l1.87-8.16C76.46,276.29,75.68,279.23,76,276.93Z"/><path class="cls-1" d="M84,252.14l.69-2.88c-.67,3.31-1,5.7-1.69,10.11-1.24,4.77-1.58,5.74-1.79,6l3.06-14.25Z"/><path class="cls-1" d="M87.54,236.26c-.88,2.18-2.55,9.1-2.09,4.73,1.8-8.51,1.59-5.89,2.83-10.94-3,13.73,1.06-3.89-.77,6.09.63-2.68,1.16-5.11,1.66-7.4-.45,2.49-.88,4.89-1.29,7.15l0-.32v-.06h0c.07-.6.08-.81,0-.13,0,0,0,.21-.06.28a2.27,2.27,0,0,0-.29.59c-.74,4,0,.65.29-.59,0,0,.07-.14.09-.15v0l-1.56,6.86-1.64,6.83C85.29,246.34,86.17,242.73,87.54,236.26Z"/><path class="cls-1" d="M99.37,166.66c0,.44,0,.42,0,.46C99.19,168,99.1,168.34,99.37,166.66Z"/><path class="cls-1" d="M98.65,172.41a38.15,38.15,0,0,0,1.06-5.1c.34-2.86-.2,0-.32-.19.44-2,1.43-6.87.63-.63l-.22,1c-.77,5.61-1.58,12.87-1.35,11.91A52.92,52.92,0,0,1,98.65,172.41Z"/><path class="cls-1" d="M93,204.72l-2.6,11.42.85-5.92.16.35C92.7,204,92.68,205.49,93,204.72Z"/><polygon class="cls-1" points="81.02 267.5 81.79 266.08 79.77 272.55 81.02 267.5"/><polygon class="cls-1" points="77.92 282.35 78.42 281.87 77.42 285.75 77.92 282.35"/><path class="cls-1" d="M68.56,178.26l.38-3.42C68.78,176.46,68.66,177.5,68.56,178.26Z"/><path class="cls-1" d="M66.65,203.12l-.24.59C66.6,202.57,66.72,202.1,66.65,203.12Z"/><path class="cls-1" d="M85,41.85c-.58-5-1.32-10.6-.85-10l.48,1.53C84.64,36.88,84.79,39.57,85,41.85Z"/><path class="cls-1" d="M67.93,214.16c0-.48,0-1,.07-1.47.32-1.18.62-2.3.88-3.29C68.6,210.83,68.27,212.46,67.93,214.16Z"/><path class="cls-1" d="M65.66,217.41,65,224C65.12,222.5,65.33,220.38,65.66,217.41Z"/><path class="cls-1" d="M59.66,108l-1,3.92C59.53,105.66,59.38,108.43,59.66,108Z"/><path class="cls-1" d="M74.45,258.58c.36-4.31.69-7.72,1-10.72C75.12,253.05,75,257.26,74.45,258.58Z"/><path class="cls-1" d="M63.21,187.67c.24-2.09.4-3,.49-2.91C63.46,186.91,63.28,188.13,63.21,187.67Z"/><path class="cls-1" d="M76.9,235.47c-.05.76-.1,1.5-.15,2.28-.42,3.13-.85,6.27-1.27,10.11A110.54,110.54,0,0,1,76.9,235.47Z"/><path class="cls-1" d="M20.09,274.51c-.09.34-.19.76-.26,1.07C19.74,275.67,19.88,275.2,20.09,274.51Z"/><path class="cls-1" d="M18,251.55c.46-1.34,1.22-3.52,1.93-5.57C19.63,247,19.05,248.68,18,251.55Z"/><path class="cls-1" d="M67.37,342.62c.65-3.17.15-.49,0,0Z"/><path class="cls-1" d="M68.56,326.85a3.49,3.49,0,0,1-.43,1.23A4.8,4.8,0,0,0,68.56,326.85Z"/><path class="cls-1" d="M82.94,203.82l0-.28C83,204.5,83,204.34,82.94,203.82Z"/><path class="cls-1" d="M68.1,337.8c-.17,1.21-.39,2.59-.65,4.09C67.55,341.23,67.75,340,68.1,337.8Z"/><path class="cls-1" d="M68.18,338.48l.48-2.78C68.81,335.31,68.79,335.67,68.18,338.48Z"/><path class="cls-1" d="M66.46,347c.38-1.81.7-3.51,1-5.15-.1.63-.13.9-.08.73C67.18,343.55,66.91,344.87,66.46,347Z"/><path class="cls-1" d="M33.84,283.29c0-.21,0-.45.06-.68C34.56,279.42,34.32,280.83,33.84,283.29Z"/><path class="cls-1" d="M80.18,42.81l0-.36,0,.48Z"/><path class="cls-1" d="M79,54.38a82.26,82.26,0,0,0,1.21-11.45l.94,3.92Z"/><path class="cls-1" d="M70.37,128.12c-.76-10.67.21-20.64.6-26.46-.2-4.1-1,3.22-.81-8.46,0-8.3.17-7.42.47-5.9s.58,4,.51-.91c0,0-.23-1.8-.45-3.59S70.05,79,70.05,79a22.31,22.31,0,0,0-.76-4.38L67.38,67.8l-3.13,6.49A8.88,8.88,0,0,0,63.46,77c-.11.79-.15,1.5-.19,2.14l-.06.88,0,.38-.06.45q-.12.93-.24,1.83c-.31,2.42-.58,4.76-.83,7.06-.5,4.6-1,9.06-1.5,13.75-.35,2.37-.59,3.53-.74,4.1-1.19,11.24-3.87,23.36-4.86,31.81.43-1.95-.26,4.87-.24,5.91l-2.76,15.1c1.24-6.68,1.59-6.32,2.16-7.49-.76,4.74-1.34,6.93-1.9,10.14.45-1.94.91-3.91.69-1.37l-1.62,7.89-1.68,7.88c.09-.94.38-2.77.62-4.3-.66,4-2.46,12.48-3.14,18.24.25-.48.73-2.41,1-2.87a42.07,42.07,0,0,1,2-9.91c-2,10.93-.38,2.75-1,8.07-1.4,7.74-2.45,10.83-2.44,8.73C45.22,204.22,44.86,207,43,215.9l.81-1.61-1.49,8.2,1.73-6.56c-2.15,15.83-1.42,2.75-3.85,20.32l.47.12c-1.22,6.72-2.37,8.92-2.59,14.24-1.27,6.51,1-11.3-1.4,4.08-.16,2.74-.84,8.63-1.4,13-1,4.86,0-3.8.52-7-1.8,11.59-2,15.17-2.28,18.5a53.62,53.62,0,0,1-.65,5.67,95.86,95.86,0,0,1-2.51,10.72c.69-3.49.1-2.11-.14-1.89s-.07-.71,1.66-8.93c-.92,3.81-1.61,7.61-2.45,11.41s-1.85,7.71-2.87,11.88l4.91,1.23c.09-.26.17-.54.24-.81q-.12.4-.27.81l-4.85-1.23c.5-1.64,1.06-3.25,1.64-4.82-.41,1.64-.85,3.4-1.22,4.9l4,1a9.54,9.54,0,0,0,.47-2.31c0-.55.08-1,.1-1.42l-.24.32-.24.34.09-.93c0-.28.08-.52.13-.85.11-.61.21-1.22.31-1.82.22-1.22.43-2.42.64-3.59.43-2.36.71-4.74,1-6.86a58.61,58.61,0,0,1,2.07-11c-1.51,4.13,1.23-7.69,1.59-11.82-1,4.18-2,10.27-2.75,15.44s-1.41,9.41-1.88,9.92c.31-4,1.2-7.48,1.55-11.34-.53,2.66-1.29,6.52-1.59,7.52,1.43-13.16,3.6-20.44,5.12-28.31,0,0-.62,3.48-1.25,7l-1.21,7c1-1,1.13-6.26,2.4-10.08.74-7.05,2.3-12.4,3-18.14-.27,1.51-.36,1.6-.62,3.11,2.72-15.18,2.17-19.68,3.12-25.73s3-17.22,2.69-13.07c.47-2.43-.33,2.64-1,7.24s-1.19,8.73,0,4.45c.21-8.91,3.2-17.9,5.11-37-1.61,8.27,0-5-1.34,2.4a113.77,113.77,0,0,1,2.54-13.34l.06-2.76c1.43-5.79,1.78-6.45,2.17-7.88s.9-3.61,2.54-12.66c-.42,2.29-.5,1.94-.41.87,0-.56.09-1.31.07-2.14a5.44,5.44,0,0,0-.62-2.65L53,146.13l-1.14,3c-.33.87-.37,1.14.18.09h0l2.45-.06.2.49c-.07-.16-.14-.33-.22-.48l-1.23-2.44-1.18,2.5a40.27,40.27,0,0,0-2.12,7.15c-.27,1-.63,2.08-.94,3.07l-.88,2.79.22-.63c-2.36,8.91-3.1,12.54-4,16s-1.74,6.63-4.29,14.61l.25-1.66c-1.7,5.2-3.36,10.87-4.75,16.77s-2.67,12-3.91,18.1c-2.5,12.21-5.12,24.48-7.89,35.42L25.4,253c-.42,2.36-3.77,14.8-5.31,21.52.41-1.33,1.11-3.58,1.4-4.88.17.27,0,3-1.57,8.16l-1,1.88-.37,2.19c-1.21,4-1.14,3.39-1.11,2.75s.06-1.28-1.07,2.8c-.05,1.14-.57,3.57-1.07,6.86l3.65.62c.31-2.45,1.49-5.42,2.38-9,.79-3.42,1.51-7,2.13-10.48a144.87,144.87,0,0,0,2.17-16c.82-2.74.25,1.16-.35,5S24.07,272,24.94,269c.29-2.52.33-3.65,1.12-9l.18,1.92c1.61-10.84,2.46-18.83,3.07-26.27.14-1.86.27-3.69.41-5.52s.29-3.59.46-5.46a49.62,49.62,0,0,0,0-12.38L29.51,208l-2.27,3.69a14.78,14.78,0,0,0-1.44,3.71q-.14.45-.27.93c-.1.31-.19.62-.29.93-.21.67-.42,1.35-.63,2.05l.36-.84c-2.17,7.72-3.41,11.79-4.88,15-.27,1.64,1.53-3.77.8-.77a198.07,198.07,0,0,0-6.51,19.21C12.62,258,11,263.34,9,267.17c.65-.35-.45,3.82-1.34,7.22s-1.52,6,.27,2.63l-1.14,2.64c-.27.65-.6,1.36-.84,1.85l-.42.83a6.34,6.34,0,0,0,.76-1.16c.32-.6.65-1.34,1-2.17.73-1.68,1.59-3.82,2.46-6,1.74-4.36,3.46-8.92,4.34-10.36,0,0,1.42-4.32,2.73-8.68s2.61-8.69,2.61-8.69c0,.62,1.33-2.09.47.7,1.45-4.25,2.71-8,1.18-2.27,1.5-5.11,3-10.24,4.41-15.42.7-2.58,1.43-5.11,2.16-7.67l1.13-3.9A14.17,14.17,0,0,1,30,213.38l-3-.6a38.74,38.74,0,0,1,.11,10L26.6,228l-.44,5.21c-.63,6.9-1.51,13.77-2.54,20.62s-2.18,13.68-3.39,20.44q-.91,5.07-2,10.06c-.65,3.2-2.05,6.34-2.67,10l3.21.55A129.75,129.75,0,0,1,22.4,280.3c.9-2.74.63-1.09.44,0,1.73-7.71,2.43-7.23,3.59-11.37,0,0,.48-2.84.95-5.69s.91-5.7.91-5.7c1.31-4.5.74-.88,1-1.17,2.55-10.6,4.61-21.16,6.52-31.2s3.79-19.51,6.4-27.84c1.22-5.46-1.06,1.09.88-6-1,4.94.63-.19,2.36-5.78s3.4-11.72,2.88-8.52c.5-3.61,2-10.11,3.23-15.28.32-1.29.62-2.5.89-3.57a27.17,27.17,0,0,0,.52-2.85c.19-1.46.14-2.08-.38-1.38a14.85,14.85,0,0,1,1.28-3.84l-1.14,0a2.12,2.12,0,0,1,.12.92,4,4,0,0,1-.09.72c-.08.37-.16.49-.23.44a11,11,0,0,1-.32-1.59,6.1,6.1,0,0,1,0,1.51c0,.57-.13,1.16-.23,1.74s-.21,1.19-.32,1.77c0,.29-.11.64-.15.95l-.12.86c-.33,2.31-.73,4.52-1.14,6.68l-2.55,12.59c-.26,2.8-2,14.42-3.73,26.46s-3.62,24.5-3.9,29.1c.37-6.26-.39.43-1.71,6.27l.35-5.42-2.27,13.33c-.27,1.35-.43,2.22-.52,2.75a2.39,2.39,0,0,0-.08.72c-.36,2.26.42-.48-.43,5.29-1.53,9.09-1.9,9.49-3,14.44l.14-1.4-1,6.17c-.73,4.55,3.17-16,1.06-1.11a70.49,70.49,0,0,0-2.49,12.86c1.1-7.6,1.36-6.58,1.11-3.76,0,0-.39,2.66-.77,5.32s-.73,5.33-.73,5.33l-.23-3.62c-.22,1.56-.43,3.12-.65,4.69s-.46,3.06-.71,4.63-.5,3.19-.67,4.84c0,.41-.09.81-.11,1.31s0,.88,0,1.27a6.55,6.55,0,0,1-.19,1.79l4,1c.54-3,1.31-5.93,2.1-9s1.54-6.14,2.21-9.24c1.34-6.22,2.43-12.53,3.4-18.87,1.84-12.7,3.62-25.49,5.66-38.42-.73.34,3.6-23,2.23-20.2l-.12,1.26c-1.38,7.95-.37-2.43.82-8.9-.83,6.83,3-12,.35,4.5l2.59-12.65c1.47-3.38,3-11.82,4.54-21.9s3-21.71,4.7-31.36a7.33,7.33,0,0,1-.49,1.86c3.12-17.15,4.92-38.71,5.7-42.68l-.3-1.6c1.08-6,1.76-9.9,2.33-13.6.28-1.84.53-3.65.79-5.67.07-.5.13-1,.2-1.56s.08-1.2.11-1.77a9.2,9.2,0,0,1,.42-3L65,76a28.66,28.66,0,0,1,1.12,7.34c.07-.23.13-2.24.34.51-.29,4.31-.35,8.52-.41,20.63l.16-.49-.15,9.49C66,118.22,66,123,66,123c.76-.08.64,8.06.4,16.9s-.78,18.36-.14,21.24c-.16.92-.34,2.47-.55,4.37s-.46,4.18-.71,6.52c-.48,4.68-1,9.66-1.31,12.73a4.24,4.24,0,0,1,.09,1.47,114.32,114.32,0,0,0-1.3,14.19c-.2,5.36-.61,10.81-1,14.82-.73,5.22-.76,2.93-.78.62-.41,10.42-3.64,28.54-3.75,32.34-.71,7.6.29,2.89.42,5-1.29,11.27-1.18-2-2.12,13.17.25-1.75.63-5,.59-3.73-.47,5.8.26,16.31-.71,22l.13-3.83c-.73,5.24-1.16,11.48-1.68,16.61s-1.1,9.12-1.76,9.86l-.3-1.06c-.18,1.24-.35,2.34-.46,3l2.55.52c1.19-6.84,1.54-8.28,2-10.14s.93-4.13,2.26-12.66l-.12.21c1.55-7.94,1.67-12.35,3.06-16.14l-.34,2.76c1.66-9.9,1.68-10.79,3.21-20.88.25-1.17,1.11-6,1.16-7.46.72-.36,3.81-23.39,4.38-27.9-1.24,8-1,4.16-.9,1.85A73.54,73.54,0,0,0,70.46,205c.91-.83,2-2,3.64-14.94-.37,2-.83,5.12-.83,3.81a43,43,0,0,1,.74-5.32c0-1.31-.64,2.83-.74,1.35,1.81-8.65,1.87-15.1,3.38-27.77-.64,4-.44.52-.59-1,1-.91.74-17.45,1.49-12.53,1.41-25,4-63.23,3.78-73-.18-2.63.74-9.53,1-13.86l-.43.56c.71-6,.94-8.38,1.19-11s.51-5.49,1.51-12.55c-1,5.83-1,3.36-.82-2.6l.9-4.82,1-4.81-.39-2c.74-4,1.22-8.42,1.69-12.89-.29,2.16-.19,1-.28.82a21.1,21.1,0,0,0,1.06-4.3c.19-1.07.4-2.27.63-3.53A25,25,0,0,0,88.77.5L85.09.37c-.58,4.78-.57,9.38-.75,10.67.89,4.44.18,11.77,1,15-.09,1.44-.14,3.31-.16,5.35-.42-2.11-.85-2.88-.56,1.09,0,.34,0,.6,0,.93l.53,1.71c0,4,.14,8.16.25,10.87-.1-1.23-.25-2.63-.41-4.1.15,1.73.3,3.32.44,4.87,0,.55,0,1.08.06,1.44,0-.25,0-.54,0-.87a84.17,84.17,0,0,1,.37,8.52c1.33,14,.17,31.33,1.21,46.81a53.8,53.8,0,0,1,0-6.51c.13,13,.51,25.87-.26,34.06l-.42-.6c-.63,9.49-1.26,16.81-1.8,24.46l-.53.39c-.61,11.12-3.58,34.91-3.21,41.82-.65,2.67-1.37,15.37-2.17,21.67l.22,1.64c-.74,8.24-1.44,13.3-2.11,18.2-1.08,16.77-3.81,32.09-5.73,46.65l.1.15-2.26,14.72c.87-3.82-.63,2.87-1.17,7.31-.84,4.66-1.86,12.26-2.51,17.79,0,0-.39,2.34-.77,4.67l-.8,4.66c2.06-10.31.44.83.76,1.5l-1.46,5.87c-.25,2.44,1.08-3.75.33.65-.29,1.17-.72,3-1.2,5.16l3.26.67c1.15-5,2.49-11.62,3.28-14.17a34.59,34.59,0,0,1-.4,3.85c-.13.5-.11.47,0,.16,0,.15,0,.26-.06.41,0-.19.05-.27.08-.5.14-.5.36-1.28.48-1.6,1.28-7.47,1-4.7,1.11-4.4.83-8.59,2.08-13.23,2.37-19.84-.57,8.93,3.29-19.36,3.24-13.75.4-6.39.72-4.29.85-8.41-1.43,8.83-3.51,17.56-5,24.64l.77-7.08c-1.56,4.44-2.37,15.79-3.39,19.91A66.13,66.13,0,0,0,70,317.39l.28,2c-1.48,10.05-3.41,17.93-5.12,24.95.75-4.53-.4.68-1.07,3l-.9-.19c.34-1.22.56-1.71.38-.1l0,.18.22,0,1.09-5.08c.25-2.32-.78,2-1.56,5l.72.15.14-.55c1.51-8.36,3.56-20.21,5.11-30.76S72,296.21,72.2,293.17c-.31,3.46-1.3,9.76-1.9,12.74l.83-7.92c-.9,6.4-1,11.54-2.68,20.95-.14-1.65-1.72,5.1-1.15-2.14,2-18.13,3.14-14.7,5.93-36.53.39-2-1.23,4.48.51-7.1C76,258.61,78.14,248,79,248.11c-1,6.13-3,18.39-2.63,20.36,1-6.12,2.48-16.73,2.93-17.23.06-6.46-1.61,11.6-1.19,3.16.53-4.32,1-6.14,1.34-8.14-.63,2.84,0-3.94-.06-5.25,1.58-14,2.14-22.13,3.57-37.19,0-.81-.09-2.49-.3-2.07.91-7.34,2.92-17.74,3.11-14.95.81-8.63.51-9.12,1.34-16.46-.38,11.79.1-2.31.88-3.51.7-7.52-.12-2.66,0-6.13a30.72,30.72,0,0,1,.82-4.42c-.15-4.66-2,8.86-2.21,3.38,0-1.89.08-6.89.17-11.56s.15-9,.16-9.58c.78-3.55,3.1-2.38,3.55,3.07.44-.55,0-7.17.09-10.49-.21-9.61,1-14.64.85-22.65L91,114.54c-.1-1.32.16-13.08.35-14.94-.22-.3-1.13,6.08-1.41,2.43-.16-14.32.57-27.94,1.29-27.07l-.06,11c-.08,5.5-.17,11-.17,11,.61.76.31-15.63,1-14.74l-.4-10.12c-.22-5-.45-10.11-.45-10.11.08,2.56.19,10.37-.23,7.31-.27-8.69-.25-4.5-.74-10.29-.28,10-1.58,28.27-2.4,34.76l.18-10.42-.4-2.6a260.22,260.22,0,0,1,2.15-29.54c-.48-7.8-1.55-5-1.71-3.15a106.84,106.84,0,0,1,.22-15.3c.15-1.9.3-3.81.38-6.21s.12-5.33-.07-9.19l.44,5.83c0-1.85-.18-6.1-.29-9.66s-.07-6.48,0-5.78c-.28-3-.84-5.83-1.21-2.46.19-1.56.41-3.1.68-4.63L85.71.57A27.27,27.27,0,0,1,85,4.8c-.34,1.46-.64,2.94-1,4.41.37-2,1.15-.54,1.43-1.37-.66,5.47-2.29,9.16-2,5.68-.66,10.77-.76,8.08-.93,16.86-.41,3.16-1-.4-.83-2.73a144.24,144.24,0,0,0-1.49,14.8c1.48-11.83,2.43-3,3.36-5.22,0,0-1.31,6.29-2.48,12.62s-2.25,12.67-2.25,12.67a8.22,8.22,0,0,1,1.36-2.67c-1,2.09-2.71,31.33-3.41,45.62l.13-2.15c.47-2.87,0,9.44-.62,14.45a27.71,27.71,0,0,0,.38-4.16c0,9.59-2,12.3-2,22.07.55-8.81,1-10.52,1.29-10.05-.75,7.2-1.72,23.94-2.46,20.36-.15,4.64-.66,8.79-.11,8.43,0,0-.56,4.41-1.11,8.82l-1.2,8.81c.24-1.31.65-2.41.17,2.76,1-9.91,2.75-19.43,2.53-24.72.64-.21.65,3.56,1.57-1.16-.93,9.58-2,17-3.09,23.44s-2.18,12-3.29,18l-.84,8.42-.9,8.43-.38.67.3,3a37.4,37.4,0,0,0-.77,3.84c0,.39.18-.13.4-.94-.29,1.76-.58,3.36-.77,4.18.28.71,1.13-2.19,2-5.31.09-1.52.17-3.09.25-4.67.8-3.24,1.49-5.58,1.1-1l-.47,2.33c.56-2.07.94-3.33.84-1.77l-2.14,12.8c.11-1.48.22-3.69.35-6.27-1.59,8-3.51,17.07-2.93,9.82l-1,9.83c-2.42,11.35-2,9.38-4.63,23.26.13.8.91-2.88.7-.35a161.89,161.89,0,0,0-2.49,16.5c-.61,5.23-1.12,9.47-1.66,10.51-1.67,8.13-1.23,3.28-2.4,8.43.12-.23.37-.69.1.82l-1.71,6c-.31,2.52,1.47-5.59.31,1.39-.75,3.2-1.42,6.05-2,8.67l4.3.87a158.82,158.82,0,0,0,3.27-20.31c1.76-14.37.33,6.29,1.59-5.89-.22-1.83-.56-3.47.15-11,.69-4,1-3.4,1.83-10.16l-.68.37c.67-6.28,1.3-11.28.82-11.37.8-5.11,1.11-8.65,1.28-11.34,1.31-9.49.58,7.12.6,9.37.48-9.41,1.41-15.84,1.19-21.25l-1,8.26c1-17.75,2.61-16.68,2.09-25-.57,6.06-1.65,13.3-1.63,9.69l1.22-8.74c-.07-1-.63,5-.42,1,.42-2.48,1.27-7.57,1.65-9.82l0,.11L67.71,188c-.21,3-.51,3.74-.3.7l1.15-10.39c-.41,3.18-.35-.1-.09-4.78a82.24,82.24,0,0,1,1.42-11.69,37,37,0,0,0,.62-9.52c0,1.53-.12,1.77-.17,3.32l-.12-5.4c.7-.55.89-8.51.87-16.44,0-4,0-7.92,0-11s.26-5.12.6-5.4c-.47-7.58-.4-.56-.91,9.24l-.45-8.1C70.33,121.81,70.48,124.58,70.37,128.12ZM63.75,231.28c.11,1.74-.68,6.38-1,8.72C63,236,62.93,233.9,63.75,231.28Zm4.78-27.51a60.8,60.8,0,0,1,.87-7.46C69.17,199.08,68.86,201.58,68.53,203.77ZM66.65,317l-.06.25C67,313.59,67.24,311.74,66.65,317Zm-.8,5.65a53.23,53.23,0,0,1-1.06,5.89c0,.46,0,.55.29-.52A28.7,28.7,0,0,0,65.85,322.6ZM36,250.89l.24-2.11C36.62,247.49,37,246.19,36,250.89Z"/><path class="cls-1" d="M65.93,217a2.32,2.32,0,0,0,.12,1C65.84,218.9,65.74,218.91,65.93,217Z"/><path class="cls-1" d="M59.84,107.24l0,.37a1.17,1.17,0,0,1-.14.35Z"/><path class="cls-1" d="M88.72,160.63c.1-2.25.11-3.51.08-4.35C88.93,156.17,89,157.2,88.72,160.63Z"/><path class="cls-1" d="M73.46,309.72l-1.29,6.88c.59-3.33.69-4.54.9-6.24C73.15,310.53,73.09,311.88,73.46,309.72Z"/><path class="cls-1" d="M82.21,249.7c.28-1,.48-2.11.76-3.08l.15.32C82.16,251.18,81.33,254.11,82.21,249.7Z"/><path class="cls-1" d="M73,303.08c-.3-.61.56-4.92,1.48-9.72l-.15.85C75.1,292.89,74,298,73,303.08Z"/><path class="cls-1" d="M74.66,292.25c.27-1.48.56-3,.83-4.44C75.82,287.29,75.19,289.62,74.66,292.25Z"/><path class="cls-1" d="M62.37,341.49c-.33,2.29-.79,1.32-.88,2.63C60.53,346.57,65,329.12,62.37,341.49Z"/><polygon class="cls-1" points="72.31 298.94 72.51 300.76 71.65 303.4 72.31 298.94"/><path class="cls-1" d="M66,337.1l1.28-7.72a7.39,7.39,0,0,0,.54-2C67,332.1,66.15,337.31,66,337.1Z"/><path class="cls-1" d="M67.86,327.34c.43-2.47.85-4.82,1.17-6.19C68.79,322.49,68.27,325.37,67.86,327.34Z"/><polygon class="cls-1" points="70.37 309.46 70.09 311.76 69.2 317.21 70.37 309.46"/><path class="cls-1" d="M74.38,274.31l1.23-8.45c.28-.84.1,1.48-.38,4.63C74.85,272.5,74.38,275.63,74.38,274.31Z"/><path class="cls-1" d="M72.32,300.09a27.83,27.83,0,0,0,.13-3.79l.65-.17Z"/><path class="cls-1" d="M75.77,275.42c.28-.82,2.07-12.23.65-1.5C76.14,274.76,74.87,283.22,75.77,275.42Z"/><polygon class="cls-1" points="87.99 147.32 87.83 149.49 86.84 149.11 87.99 147.32"/><path class="cls-1" d="M89.88,33.9c.61,10.07-.55,2.42.12,11.52-.15,2.38-.56-7.44-.66-5C89.35,34.31,89.13,31.13,89.88,33.9Z"/><path class="cls-1" d="M89.34,40.42c0,1,0,2,0,3.11C89.3,41.76,89.31,40.93,89.34,40.42Z"/><polygon class="cls-1" points="10.26 274.21 8.01 280.35 9.28 276.31 10.26 274.21"/><path class="cls-1" d="M4.53,285.46v.79c0,.38,0,.76,0,.76a13.3,13.3,0,0,0-1,2.07L0,287.69a4.64,4.64,0,0,1,1.46-1.25,4.55,4.55,0,0,0-1.32,1.34l3.24,1.27A30.08,30.08,0,0,1,4.53,285.46Z"/><path class="cls-1" d="M62.2,258.11l-.2.48a42.12,42.12,0,0,1,.36-5.58Z"/><polygon class="cls-1" points="69.83 170.13 69.73 171.65 69.36 168.77 69.83 170.13"/><path class="cls-1" d="M71.81,95.87c0,3-.12,6.63-.13,9.67C71.87,98.93,71.07,95,71.81,95.87Z"/></g></g></svg>