<svg xmlns="http://www.w3.org/2000/svg" viewBox="0 0 378.56 81.09"><defs><style>.cls-1{fill:#232323;}</style></defs><g id="Layer_2" data-name="Layer 2"><g id="Objects"><path class="cls-1" d="M316.84,41.17c2,.37,1.44-.55,1.76-.66-1.77-.18-2.14.07-2.15.3S316.86,41.29,316.84,41.17Z"/><path class="cls-1" d="M285,37.23l.61-.24-2.35,0-2.42-.08,2.11.19Z"/><path class="cls-1" d="M255.15,31.76c2.59,1.86,10.87,1.54,16.11,3l.82.49,2.61-.68C268.18,33.52,259.64,32.88,255.15,31.76Z"/><path class="cls-1" d="M239.73,26.17c.89.71-3.51-.07,3.67.77-.35-.12-.45-.17-.65-.25C242.11,26.6,241.22,26.46,239.73,26.17Z"/><path class="cls-1" d="M242.75,26.69c3.14.46-2-.78,0,0Z"/><path class="cls-1" d="M228.18,24.68l4.23.17c-.82-.46-4.5-1.12-3.09-1.14C225,23.31,225.84,23.77,228.18,24.68Z"/><path class="cls-1" d="M224.08,25.1l2.18.12A3.31,3.31,0,0,0,224.08,25.1Z"/><path class="cls-1" d="M230.9,25.5l-4.64-.28c.57.33.56.79,2.12.17C227.94,25.75,228.91,25.49,230.9,25.5Z"/><path class="cls-1" d="M233.45,26.13c2.28.68,5.25,1.36,1,1.18C242.4,28.39,241.41,27.21,233.45,26.13Z"/><path class="cls-1" d="M253.39,33l3,.92,2.76,0C257.81,33.86,253.27,32.5,253.39,33Z"/><path class="cls-1" d="M202.3,20.17c-.3.27,1.3,1,1.56,1.42l3.13.07C205.43,21.23,202.45,20.64,202.3,20.17Z"/><path class="cls-1" d="M203.86,21.59l-4.69-.09C203.29,22.09,204.07,22,203.86,21.59Z"/><polygon class="cls-1" points="223.09 26.55 230.8 26.65 221.64 26.34 223.09 26.55"/><polygon class="cls-1" points="184.68 17.98 187.35 17.59 182.62 18.09 184.68 17.98"/><path class="cls-1" d="M173.08,16.62c2-.32-2.51-1.32-.43-1.41a54.12,54.12,0,0,0-8.43,0A38.89,38.89,0,0,1,173.08,16.62Z"/><path class="cls-1" d="M160,15.29c1.32,0,2.69,0,4.18-.12A30.82,30.82,0,0,0,160,15.29Z"/><path class="cls-1" d="M191.3,20.38a7.83,7.83,0,0,0-3.51-1.28l1.7,1.06Z"/><path class="cls-1" d="M189.55,20.19l-.06,0-3.88-.51Z"/><path class="cls-1" d="M191.76,20.44l-.46-.06A.39.39,0,0,0,191.76,20.44Z"/><path class="cls-1" d="M211.16,24c-2.78.09-8.48-.17-3.13,1.3C210.05,25,207,24.14,211.16,24Z"/><path class="cls-1" d="M193.9,21.77l4.88.8c-.07-.23-.91-.67.46-.73Z"/><polygon class="cls-1" points="191.46 21.76 193.9 21.77 192.08 21.48 191.46 21.76"/><path class="cls-1" d="M168.31,17.17a49.35,49.35,0,0,1-7.08-.45c2.77.52,5.65,1,8.39,1.35C170,17.86,171.31,17.54,168.31,17.17Z"/><path class="cls-1" d="M178.64,18.76h-.48C178.44,18.86,178.67,18.91,178.64,18.76Z"/><path class="cls-1" d="M135.37,13.75l.4.2a1.71,1.71,0,0,1,.11-.14Z"/><path class="cls-1" d="M170.07,18.29a14,14,0,0,0,4.58.29c-1.58-.12-3.24-.28-5-.51C169.43,18.17,169.39,18.24,170.07,18.29Z"/><path class="cls-1" d="M152.8,14.78c1.08.32,2.31.62,3.6.92C155.36,15.3,153.22,14.61,152.8,14.78Z"/><path class="cls-1" d="M177.49,18.42h.32C177.14,18.15,177.22,18.25,177.49,18.42Z"/><path class="cls-1" d="M177.49,18.42c-1.09,0-2,.09-2.84.16,1.28.1,2.47.16,3.51.17A4.18,4.18,0,0,1,177.49,18.42Z"/><path class="cls-1" d="M127.07,18.56c.43-.75,6.05-1.07,10.75.26,4.76-.12,2-3-2-4.87-.18.34-.21.62-5.14.69,1.7.53,10.73,2,6.55,2.31-6.47-.19-5.25-.74-8.35-1.43,1.28.6-.78.81-3,1s-4.62.46-4,1.25l2.84,0,2.84,0C127.59,18,125.52,18.23,127.07,18.56Z"/><path class="cls-1" d="M145.06,15l2,.13a48.3,48.3,0,0,1-6.83-1.83c-3.39.05-4.11.28-4.37.53l5,.54,4.93.59Z"/><path class="cls-1" d="M156.05,16.18c-1.67.66-6.5.44-3.68,1.73,5.85.66,4.18-.21,7.72-.13-9.45-1,2.77-.14-4-1.49,1.87.09,3.54.26,5.12.43-1.68-.33-3.31-.66-4.83-1l.21.08h0a0,0,0,0,0,0,0c.4.16.52.24.07.12a1.48,1.48,0,0,1-.2,0,1.09,1.09,0,0,1-.46.27c-2.72-.51-.41-.28.46-.27,0,0,.12-.07.13-.11l0,0-9.53-.67C149.07,15.46,151.59,15.73,156.05,16.18Z"/><path class="cls-1" d="M202.76,26.45c-.28-.11-.26-.17-.27-.24C201.86,26.24,201.62,26.28,202.76,26.45Z"/><path class="cls-1" d="M199,25.43a10,10,0,0,1,3.53.08c1.9.51-.06.41,0,.7,1.37-.05,4.77,0,.62-1l-.68,0c-3.75-.8-8.51-2.47-7.83-2.5A14.35,14.35,0,0,0,199,25.43Z"/><path class="cls-1" d="M177.2,21.07l-7.89-.6,3.89,1.26-.14-.47C177.49,22,176.6,21.34,177.2,21.07Z"/><polygon class="cls-1" points="134.5 13.24 135.64 12.43 130.92 13.31 134.5 13.24"/><polygon class="cls-1" points="124.27 12.49 124.72 11.73 122.01 11.96 124.27 12.49"/><path class="cls-1" d="M303.73,63.46l-2.33-.15C302.5,63.42,303.21,63.46,303.73,63.46Z"/><path class="cls-1" d="M320.2,66.34l.48-.31C319.88,66.11,319.54,66.21,320.2,66.34Z"/><path class="cls-1" d="M128.11,16.21c3.19,1.18,6.67,2.9,6.43,2l-.89-1A31.47,31.47,0,0,1,128.11,16.21Z"/><path class="cls-1" d="M297.51,47.94l-.89-.5-2.42.26Z"/><path class="cls-1" d="M300.71,45l4.19,1.62A44.75,44.75,0,0,0,300.71,45Z"/><path class="cls-1" d="M213,51.34l-2.74.6C214.41,52.38,212.64,51.74,213,51.34Z"/><path class="cls-1" d="M19.7,2l-2-.45c-.67-.14-1.35-.27-2-.38C14.51,1,13.37.81,12.32.72c1.8.37,3.44.84,4.76,1.16S19.19,2.3,19.7,2Z"/><path class="cls-1" d="M311.76,55.45c-1.43-.08-2.07,0-2.06.19C311.18,55.74,312,55.71,311.76,55.45Z"/><path class="cls-1" d="M4,.15c.48.12,1,.21,1.46.32,2.07,0,4.2,0,6.87.25A24.78,24.78,0,0,0,4,.15Z"/><path class="cls-1" d="M166.5,47.86c.23.08.51.15.72.23C167.32,48,167,47.92,166.5,47.86Z"/><path class="cls-1" d="M260.21,73.18l-3.73-.92C257.13,72.49,258.24,72.74,260.21,73.18Z"/><path class="cls-1" d="M83.16,8.06c2.18.12.35-.07,0,0Z"/><path class="cls-1" d="M93.43,12.36c-.48.06-.84.15-.91.34A1.52,1.52,0,0,1,93.43,12.36Z"/><path class="cls-1" d="M19.35,5.24h.19C18.9,5.06,19,5.1,19.35,5.24Z"/><path class="cls-1" d="M86.4,8.72c-.81-.17-1.74-.34-2.76-.49C84.08,8.34,84.92,8.49,86.4,8.72Z"/><path class="cls-1" d="M86,8.28l1.89.24C88.18,8.4,87.94,8.29,86,8.28Z"/><path class="cls-1" d="M80.12,7.85c1.25.09,2.4.23,3.52.38-.43-.09-.6-.16-.48-.17Z"/><path class="cls-1" d="M59.28,41.8c-.14,0-.31,0-.46-.08C56.64,42.13,57.6,42.05,59.28,41.8Z"/><path class="cls-1" d="M185.46,17h-.26l.32.1Z"/><path class="cls-1" d="M193.29,18a17.26,17.26,0,0,1-7.77-.94l2,3Z"/><path class="cls-1" d="M263.94,57.24l5.3,1.65c-6.75.2-11.42-1-6.51.9,1.21-2.55,21.14,3.16,22.33.61l3.48,1.14c-1-.19-1.21-.06-2.22-.25,6.75,2.41,5.49-1.1,14.38.74,3.09.72,5.21,1.46,3,1.43l7,.48c2,.4,1.43.78-.56.39l5.28.8,5.29.84-.09.06c1.58-.14,5.11-.16,6.83-.13,2.62.88-1.4,0-.77.5l6,.43c2.27,1.13-2.72.91-6.74.06,5,3.67,4.95.26,16.55,3.92l-5.63-.65c3.3,2.16,7.81,2.4,13.94,4.35-.65-.36-3.77-1.47-5.83-2.46s-3.14-1.83.12-1.62a27.12,27.12,0,0,0,7.66,1c-.13,1,3.22,1.28,7.38,2l-.51,1.2c4.53.47,4.3-.22,7.05-.27,5,1.11,5.8,2.32,6.81,3.37l1.1.25,3.95-12.26c-2.94-1.25-1.28-.07-.36.82l-3.41,10.57c-.62-.41-1-.78.16-.73l2.95-9.16c-.53-.12-1.47-.46-2.94-1-6.54-3.07-11.48-3.83-19.44-5.43-4.41-1.81,1-.5-.5-1.35l-4.32-.27c-1-.33-.57-.53-.36-.63-3.51-.69-.66,1.14-6.11-.22-1.86.9-10.37-5.49-17.57-6-1.55-.84,1-.51.66-1.14-4.77-.86-6.82-1.21-8.67-1.48s-3.51-.39-7.48-.65l-6.27-2.44c4.52,2.13-1.84,1.71-7.39,1.28,1.57.87,2.91,1.63,3.83,2.06l-8.65-1.46c-1-.46,0-.67,1.51-.84-.61-.05-1.18-.08-1.63-.1-2.93-1.21-1.17-1.54,1.18-1.69l2.87,1.53c2.28-.22,4.46-.57,4.2-1.4a19.09,19.09,0,0,1-2.87-.36c.6-.07,1-.17.78-.35a8.44,8.44,0,0,0-2.68-.19l-1.59-1.86-.6.43L283,40.06c-8.31-.6-15.72-.27-28.48-2.86,3.38-.23,1.07-1.49,1.53-2.65,3.14,2.13,9.91,1.9,16.4,3.8-3.39-1-2.5-1.38-1.58-1.36l-11.95-1.76c.49-.92-2.31-1.36-5.26-2.53,1.84,2.49-9-.78-13.91-1.34-.14-.72,1.16-1.11,6.92.44-6-3-8.81.29-14.79-2.47,1.42.33,2.15.61,2.79.41-3.44-.22-11.42-2.63-9.38-2.74l1.42.33c-9.34-2.54-28.7-6.83-30.49-5.45A6.52,6.52,0,0,1,198.51,20l-9.07.91c-4.53.47-9,1-9,1,1.79-1.12-3.28-5.71,4.79-4.9a43.37,43.37,0,0,0-9.88-1.91c1.51.5,3.45,2.82,1.32,2.54-5.5-2.71-3.87-1.64-10.79-4.31,2.27.73-.72,2.51-4.38,1.79.63-.23.08-2.28,1.47-2.28l-9.53.65c2.35,0,.72-1.81-1.23-2.78.88.59-7.92-1.34-10.4-1.5l3.8,1.13a26.34,26.34,0,0,0-10.49-.2,31,31,0,0,1-10.49.15c1.3-.3,3.47-2.45-1.8-3.38-2.59.84-11.28,4.32-20.42,4.58l-1.7-.77L93.63,11a149.11,149.11,0,0,1,23.9-5c-3.88-.91-1-.89-6.92-1.37-2-.79,3.3-.65,5-.52l-6.86-.8-6.87-.72c.52,1.36-10.58.69-10.11,1.86l7.48-.26c3.74-.11,7.5-.16,7.5-.16.48,1.37-8.88,3.13-18.52,2.42-2.43-.66,2-2.3,1.79-2.75-1.29.38-9.24.43-10.11.07l4.14-.53c-5.37-.76-8.88,1.38-15.28-.18-2.23-.18-6.58-2-7-1.23,3.57,1.68,4.07,6.46,1.6,7.5-.78-.13-11.65-2-14.17-2.83-3.62-1.36,5.64-2.63,2.56-3.8-.15.37-2.2.73-3,.84-2.34-.41,1-1.1-4.1-1.14-.92,1.3-10.45-.38-2.47,1.07-5,.26-5.33-.39-11.18-.41,1.85.9-5.29,2.95-10.31,3.18.31-.34-.8-.82-1.34-1-3.84-.13-7-.32-10-.52L5,4.43c-1.5-.1-3,.11-4.31-.1L.51,5.87c2,.3,4.12.51,6.49.67.86.38,5.4,1.08,3.42,1.54A19.59,19.59,0,0,1,16,7.81c2.74.92,1.07.76-.66.64s-3.7-.14-1.65.73c.1-.19.62-.31,1.41-.38s1.81-.06,3,0c2.43.05,5.31.09,7.41,0-.59-.67-3-.92-5.79-1.06-1.39-.06-2.91-.13-4.27-.13s-2.69.05-3.73.1c0-.83,1.9-1.61,5.07-2a104.86,104.86,0,0,1,12.44-.57c4,.16,4.86.58,4.86.87s-.82.52-.11.48a50.76,50.76,0,0,0,13.52.71c2.89-.24,5.44-.34,11.4.89,4.69,1.53,0,2.16,1,3-6.45-.21-9.72-1.82-14-2.38L51.1,10a35.31,35.31,0,0,1-8.65-.9c2,.75,8.16,1.79,15.32,2.59S73,13,78.71,14c2.06-.19,5.6-.26,4-.83L79.06,13c-3.25-1.14,6.91-.62,2.37-1.41,4.91-.2,10.45-.7,17.24.37l1.17,1.35c-.11-.39-4.4-1.14-6.36-.92,1.45-.14,4,.45,6.66,1s5.29,1,6.94.38l-4.7-1.37c5-.1,11.11-.67,17.06.35-2.6-1.5-1.4,0-5.51-1.89,1.75,1.08-2.09.63-5.67.22s-6.92-.76-4,.48a20,20,0,0,0-6.11-1.78A40,40,0,0,1,91,8.2c.14.42,2,.94-3.1.32a7.31,7.31,0,0,1-1.15.26l-.34-.06.28.07c-.23.05-.25.06.1,0a9.66,9.66,0,0,1,2.54.83c-2.61.71-10.71,0-13.49.26-3-.45,1.31-.36-.31-.93l-4.15.38c-.33-.93-7.91-2.16-.74-2.09l-6.41-.58c-.95-.2-1.95-.4-3-.56s-2.08-.33-3.12-.48a51.08,51.08,0,0,0-5.71-.51c-2.91-.57-7.63-.06-4.94-.38l-10-.89-.06-.24c-1.22-.18-2.53-.35-3.84-.47S31,3,29.64,2.88c-2.6-.13-5.2-.2-7.79-.35-1.29-.08-2.58-.18-3.87-.33l-4.21-.47A77.9,77.9,0,0,1,5.45.47C4.08.46,2.71.45,1.18.34L0,9.86a28.22,28.22,0,0,0,4.34-.1h.78l1,.05,2.27.13,1.07.8c4.28-.17,12.7,1.07,14.67.32,2.33,1.11,7.6,1.28,13.11,1.26,2.75,0,5.57,0,8.15,0s5.07.11,6.94.29l.33-1c5.19.29,10.18.21,16.64.08L69,10.77c5.59-.49,14.25,1.23,23,1.62-.61.31-2.82.1-4.38-.19,10.32,2.53,22.1-.16,31.34,2.34a18.33,18.33,0,0,1,5.65.67,4.09,4.09,0,0,0-.59,0l1,.13,3.16.89a21.86,21.86,0,0,0-2.65-.83c1.79.21,4.52.46,7.2.65l1,1.12.62.07c2.58.76,2.19-.12.9-1a33.28,33.28,0,0,0,3.64,0c1.89,1.87,7.12.61,9.77,2.72,1.94-.52,13.54,1.67,15.26.27,0,.23.82.48-.62.23a39.57,39.57,0,0,0,8.63,1.49l1,1.44,6.79-.35c3.79,1.53,5.32,2.29,1.24,2.42,9.69.53,7.72,1.07,16,1.44l-.56.69c2.86.61,7.66.63,9.23,1.67,6,2.91,31.49,7.78,47.57,13.08-2.63-3.06,7.34,2.92,8.41,1.32.82.77,3,1.65.27,1.45,8.46,1.56,12.3,4,18.42,3.94.82.78-2,.34-1.21.87a9.76,9.76,0,0,1,3.55.73c.77.53-1.33.15-2.71,0,8.53,2,9.8.6,10.81-.79,4.13,1.81,6.3,2.25,9.68,2,1.37.88,3.74,2-1.59.9,2.95.83,18,5.26,18.56,4.17a19.46,19.46,0,0,0,4.88,1.31c6.55,2,7.09,2.31,13.56,4.2l-1.72-.76c3-.67,5.45,1.37,10.71,2.84l-.19.1c11.61,4.79,5.34,1.15,16.77,5.89L361,68.37c1.46-1.42,8.15,2.82,14,5.49l1.47-4.58a21.56,21.56,0,0,0-2.79-.45l2.43,1.06c-4-.12-10.18-5-14.06-5.91-.81-.34,1.4,0,2.61.06-10-3.08-1.55,1-9.21-.09-1.3-.9,2.11-1.4-3-2.38-1.25-.48-5-.51-9.25-.81S334,60,330.69,58.68c1.43.79,2.85,1.59-.72,1.33-5.38-.81-14.18-4.62-19.36-3.8-.66-.26-.9-.43-.91-.57-4.2-.26-13.49-1.48-16.11-1-3.27-3.89-25.84-2.58-25.25-5.58l-6.34-1-6.4-.93.39-.26c-8.16-1.43-11.15-1-14.11-.67-1.86-.45-.45-.56-.27-.7-11.87-2.07-13.08-2-23.22-1.61l-.93-1.1c-1.37.14-5.66-.75-11.12-1.56a105.8,105.8,0,0,0-18-1.35,2.21,2.21,0,0,1,1.32-.35c-6.64.13-14.49-1-21.27-1.92-1.7-.22-3.32-.42-4.85-.57s-3-.26-4.33-.28c-2.65,0-4.75.27-6,1.1l-8.79.41c11.28.87-1.76,1.48,2.85,2.32-4.44,0-11.41-1.63-6-1.57l.84.22c2.08-1.8-14-1.29-13.64-2.54-11.2-.37-22.19-.5-32.92-.89s-21.36-1-31.85-1l2.41,1.46-3.64,0H58.89C57,36,56.3,35.17,61.52,35.17c-2.76-.83-8.76.86-8.89,1.19-10.26-.2,3.95-1.85.81-1.76l-4.28.26,1,.13c-3.43.75-3.73,1.39-10,1.74-3.95,0-2.08-.76-3.64-.72,0-.1-.52-.11-2.38.12l-4.57.25c-1.13,0-2.34.13-3,.15a7.36,7.36,0,0,1-1,0,6.22,6.22,0,0,0,1.36.56c.4.12.85.23,1.21.32l.58.14a18.61,18.61,0,0,1-2.79.4,10,10,0,0,1-1.71-.08l-1,5.66c.84.06,1,0,.08-.54l.85-4.59a3.65,3.65,0,0,0,.73.48c-.21-.12-.45-.24-.75-.38l-.82,4.39a38.38,38.38,0,0,0,8.54,1.73c3.59.39,7.62.62,11.53.74,7.82.28,15.14.4,16.95.77,5.71-.64,11.31-.42,18.25-.07-1.72-.3-2.7-1.64,3.27-1.26-2.26,2.59,10.88,1.55,15.53,3.85-2.09-.79,2.12-.58,6-.43s7.53.28,4.25-.91c4.93.66.22,1,3.9,2,11.87.07,25.78,3.63,40.29,5.48.28-.31-2.07-1.21,1.12-1.26l7.38,2.93c2.88.28,2.95-1.59,8,.45-.69-.41-1.72-1,.22-.83,7,1.56,14.18,2.88,21.43,4s14.53,2.13,21.82,3.2c14.57,2.14,29.16,4.65,42.95,9.35-1.84-.75-2.13-1-1.58-1a23.54,23.54,0,0,1,3.33.6c-1.79-.58.24-.84,0-1.38,0,0,2.8,1,5.59,2.19l5.66,2.38c1.27-.32,4.46.63,7.67,1.35,1.45.32,2.81.73,4,1a4.83,4.83,0,0,0,2.54.22l-3.74-.93c2.61,0,1.22-1.32-.8-2.79s-4.63-3-4-3.87c-3,.09-6.38-1.65-10.38-3.37a38.53,38.53,0,0,0-6.53-2.25,25.89,25.89,0,0,0-7.09-.72c-2-.81,1.88-.24.87-.9-2.53.31-5.41-.11-10.65-1.47l.64-.08c-14.94-2.56-21.23-4.32-37.9-7.49l1.09,1.13a36.2,36.2,0,0,1-5.93-1.59c-4.35.77,10.09,1.65,6.08,2.63C201.35,55,195,54,188.88,53s-12.07-2.07-13.5-3.41c-5.53-.91,1.44,1.35-4.09.44l-1.37-.83-1.52.53C164.79,49,163.07,48,163,47.5c.88.2,2.53.25,3.49.36-4.61-1.44-13.34-1.85-14.94-2.31l5.29,1.18c-15.22-1.83-33.76-5.13-48.72-5.2l1.09.54a68.32,68.32,0,0,1-10.34-.71c-1.2-.18-2.43-.36-4.15-.51s-3.91-.31-7-.33l.46-.09a52.9,52.9,0,0,1-9.22.27c3.14-.41-5.84-1.23-1.72-1.66-12.24.45-6.06.48-14.2,1.85l-1.82-.81c-2.78.57-3,.92-9.21.89,5.09-.46-3.89-1.28,1.82-1.91a69.83,69.83,0,0,0-15.21-.65c-3.93.11-7,.14-9.72-1.33-3,.7-.32,1.32,2.75,1.65s6.52.36,4.85.5c2.74.81-5,1.32-9,.63a12.5,12.5,0,0,1-3.59-1.1l-.7,3.79a12.85,12.85,0,0,0,2.73.92c1,.24,2.09.35,3.15.49a45.69,45.69,0,0,0,8.48.11c-1,.06-1.09.22-2.12.28,3.93.27,7.58-1.25,12.32-.65,2.58-1.38,6.12-.18,6.84-1.78l-4.73.35-4.71.43c5.3-.73,10.33-2.78,19.25-1.91a33.91,33.91,0,0,1-5.15,1c2.6.44,5-.36,7.7.13-.77,1.56-11.56.36-17.24,1.86,2.77.51,10.82-1.44,8,.33,4.12-2.27,10.16.17,17.2-1.39l-.47.94a36.31,36.31,0,0,1,5.48-.49l-3.73,1.17c5.71-1,11,1.12,16.49.64-11.51-.17-2.56-1.19-7.41-2,14.18-1,8.16,2.65,24,2.3-2.14.12-8.06-.62-4.69-1a58.74,58.74,0,0,1,8.83,1.12c10.44-.08-1.59-1,2.86-1.53,3.54,1.21,5.13-.4,9.71-.64v1c11.85,1.08,3.24-1.89,13.94-.69l-4.6,1.14,5.62-.1-1.21,1.05c6.12-.53,8-.23,13.92.43-1.34-.75.89-1.72,6.15-1.36,3.55.85-2.11.75,5.41,1.2a14.32,14.32,0,0,1-2.9.57,9.63,9.63,0,0,1-3.92-.62c-.36.29-1.7.49-2.06.77a40.2,40.2,0,0,0,6.59.82c2.31.14,4.48.16,5.85.26a22.47,22.47,0,0,1-2.94-.44l11-.58c1.69.48.31.68-1.05.88,2.21,0,3.77-.31,7-.18-.89.73-.74,1.55-5.36,1.62l10.42-.19c.67.38,5.23,1.3,3.87,1.49,5.67.86,14.09-.49,21.52.94a10.86,10.86,0,0,1,2.84-.1c7.11,1,13.31,2.58,21.82,2.53l4.57,2c6.58.54-6.19-2.61,4.78-1.69,7.77.63,2.7,1.59,5.34,2.36a75.55,75.55,0,0,1,7.72,0,40.4,40.4,0,0,1,10,1.83C268,58,266.16,57.49,263.94,57.24Zm81,13.15c-1.61-.07-4.87,0-5.92-.77C341,68.85,342.33,69.62,345,70.39ZM286.23,43.21a13,13,0,0,1,4.88,1.43A28.74,28.74,0,0,1,286.23,43.21ZM59.34,6.84l-.17,0C55.77,6.13,57,6.42,59.34,6.84Zm7.22,1c.75-.08.71-.21.41-.37a14.08,14.08,0,0,1-4.07-.15C63.4,7.65,64.34,7.91,66.56,7.88ZM35.72,36.42l1.45.16C34,37.07,34.85,36.76,35.72,36.42Z"/><path class="cls-1" d="M300.29,45.36a1.05,1.05,0,0,1,.53.68C301.47,46,301.53,45.85,300.29,45.36Z"/><path class="cls-1" d="M213.52,51.23l-.24,0a.55.55,0,0,0-.27.14Z"/><path class="cls-1" d="M48.9,2.12a13.82,13.82,0,0,1,2.9.62C51.89,2.51,51.21,2.28,48.9,2.12Z"/><path class="cls-1" d="M105.78,9.67,101,9.41a20.06,20.06,0,0,1,4.23.77C105.17,9.94,104.3,9.52,105.78,9.67Z"/><path class="cls-1" d="M145.89,19.7c.7,0,1.45.15,2.14.11l-.13-.46C145,19,142.89,19.17,145.89,19.7Z"/><path class="cls-1" d="M109.78,13.34c.28.85,3.25.92,6.54,1.13l-.58-.07C116.83,13.38,113.31,13.37,109.78,13.34Z"/><path class="cls-1" d="M117.09,14.52c1,.07,2,.16,3,.3C120.55,14.41,118.9,14.6,117.09,14.52Z"/><path class="cls-1" d="M75.94,8.12c1.55.34,1.07-.95,1.93-.55C79.71,6.69,67.32,7.94,75.94,8.12Z"/><polygon class="cls-1" points="112.14 16.3 111.07 15.17 109.14 15.77 112.14 16.3"/><path class="cls-1" d="M86.22,13l5.24.71c-.07-.17.61-.21,1.44-.22C89.66,13.23,86.12,12.73,86.22,13Z"/><path class="cls-1" d="M92.9,13.53a28.79,28.79,0,0,0,4.26.19C96.24,13.65,94.27,13.52,92.9,13.53Z"/><polygon class="cls-1" points="104.92 15.79 103.39 15.41 99.69 14.95 104.92 15.79"/><path class="cls-1" d="M29.78,6.75,24,6.53c-.62.29.93.64,3.08.68C28.49,7.09,30.64,7.17,29.78,6.75Z"/><path class="cls-1" d="M46.72,11.8a7.35,7.35,0,0,1-2.41-1.12L44,11.88Z"/><path class="cls-1" d="M30.11,9.83c-.59.28-8.37.24-1.13.81C29.59,10.34,35.27,10.67,30.11,9.83Z"/><polygon class="cls-1" points="57.66 5.91 56.19 5.86 56.31 7.9 57.66 5.91"/><path class="cls-1" d="M134.8,6.69c-6.82-1.5-1.81,1-7.94-.47-1.67.26,5,1.18,3.29,1.37C134.37,7.68,136.48,8.31,134.8,6.69Z"/><path class="cls-1" d="M130.15,7.59c-.67,0-1.38,0-2.15,0A20.64,20.64,0,0,0,130.15,7.59Z"/><path class="cls-1" d="M275.58,78.65s.89.32,1.82.71l1.94.82L277,78.74l-.7-.06Z"/><path class="cls-1" d="M284,79.55s.19.39.39.77.41.77.41.77l1.21-.18,2.27-6c.07,0-.69.59-.84.41,0,0,0,.13.06.06s.06,0,.1,0a1.43,1.43,0,0,0,.3-.13,1.38,1.38,0,0,0,.38-.3l-2.14,5.39A6.42,6.42,0,0,1,284,79.55Z"/><path class="cls-1" d="M356.52,75l.38-.25c-.6-.45-1.59-.65-3.59-1Z"/><polygon class="cls-1" points="298.06 63.83 299.07 64.02 297.36 62.55 298.06 63.83"/><path class="cls-1" d="M248.6,57.4c2,.33,4.36.41,6.34.77C250.59,57.72,248.26,55.88,248.6,57.4Z"/></g></g></svg>