<svg xmlns="http://www.w3.org/2000/svg" viewBox="0 0 75.04 169.79"><defs><style>.cls-1{fill:#232323;}</style></defs><g id="Layer_2" data-name="Layer 2"><g id="Objects"><path class="cls-1" d="M71,44.36a5.54,5.54,0,0,1-1.15,2.45,4.5,4.5,0,0,0-.48.68c-.11.23.14.18-.08.42A5.88,5.88,0,0,0,70.88,46a4.54,4.54,0,0,0,.48-1.75c0-.87-.11-1-.15-1a2.3,2.3,0,0,0-.13.64C71,44.15,71,44.41,71,44.36Z"/><polygon class="cls-1" points="66.03 52.95 65.6 52.29 68.24 58.1 66.03 52.95"/><path class="cls-1" d="M57.81,30.86a7,7,0,0,1,.64,2.2l0,.31v.2a.8.8,0,0,0,.06.37l.18.39.27.55c.73,1.5,1.63,3.22,2.59,5,1.93,3.6,4.06,7.61,5.56,10.89l.39,1.14,2,2.67L63,42l-3.1-6-.69-1.35-.31-.62a2.44,2.44,0,0,1-.18-.41l0-.21,0-.31a8,8,0,0,0-.17-.79A5.51,5.51,0,0,0,57.81,30.86Z"/><path class="cls-1" d="M57.26,49.6c-.24-1.36,2,4.29-1.79-4.74.14.47.18.61.27.89C56.06,46.56,56.5,47.69,57.26,49.6Z"/><path class="cls-1" d="M55.74,45.75c-1.6-4,.81,2.72,0,0Z"/><path class="cls-1" d="M62.83,64.05l-2.17-5.21c.24,1.17,2,5.9,1.19,4.19C64,68.4,63.72,67.22,62.83,64.05Z"/><path class="cls-1" d="M65.18,68.87l-1.11-2.69A11.05,11.05,0,0,0,65.18,68.87Z"/><path class="cls-1" d="M61.72,60.45l2.35,5.73A4.93,4.93,0,0,0,63,63.54C63.38,63.94,62.76,62.87,61.72,60.45Z"/><path class="cls-1" d="M60.63,57.1c-.89-3-2.24-6.74-.06-1.65-1.87-4.93-3-7-2.9-6.59S58.82,52.14,60.63,57.1Z"/><path class="cls-1" d="M55.05,29.83a3.51,3.51,0,0,1,.78.28,3.38,3.38,0,0,1,1.31,1.25,5.74,5.74,0,0,1,.64,2.25,2.41,2.41,0,0,0,.11.46l.6,1,.93,1.57c-.23-.39-.57-1-.94-1.8A4.46,4.46,0,0,1,58,33.8a6.55,6.55,0,0,0-.25-1.38,3.73,3.73,0,0,0-1.67-2.29C55.42,29.77,55,29.77,55.05,29.83Z"/><path class="cls-1" d="M69.94,70.89c-.28-.25.42,1.85.41,2.31l1,1.81,1,1.78C71.43,74.89,69.85,71.24,69.94,70.89Z"/><path class="cls-1" d="M70.35,73.2,69,70.47c-.68-1.38-1.37-2.75-1.37-2.75C69.78,72.76,70.36,73.58,70.35,73.2Z"/><polygon class="cls-1" points="66.27 69.53 62.22 60.14 66.95 71.37 66.27 69.53"/><polygon class="cls-1" points="60.77 49.12 62.46 52.24 59.54 46.66 60.77 49.12"/><path class="cls-1" d="M54.73,34.66c1.23,2.29-.86-3.48.32-1-1.62-3.92-3.15-7.2-4.49-10.17C51.88,26.67,53.17,30.13,54.73,34.66Z"/><path class="cls-1" d="M48.32,18.38l2.24,5.1C49.86,21.78,49.15,20.08,48.32,18.38Z"/><path class="cls-1" d="M63.59,58a24.21,24.21,0,0,0-1.47-4.7l.54,2.43C63,56.4,63.27,57.18,63.59,58Z"/><path class="cls-1" d="M62.68,55.8l0-.09-2-4.89C60.91,51.45,61.52,52.94,62.68,55.8Z"/><path class="cls-1" d="M63.82,58.55c-.08-.21-.14-.37-.23-.57A1.35,1.35,0,0,0,63.82,58.55Z"/><path class="cls-1" d="M74.27,82.33c-2-3-5.55-9.64-2.6-3C73.16,81.5,71.35,77.77,74.27,82.33Z"/><path class="cls-1" d="M64.49,61.55,67,67.64c0-.17-.26-1.32.56.28,0,0-.76-1.59-1.53-3.17S64.49,61.55,64.49,61.55Z"/><polygon class="cls-1" points="63.13 58.62 64.49 61.55 63.59 59.28 63.13 58.62"/><path class="cls-1" d="M51.91,29.1c-1.21-2.59-2.28-5.45-3.53-8.77,1.22,3.6,2.52,7.21,3.87,10.65C52.57,31.42,53.38,32.84,51.91,29.1Z"/><path class="cls-1" d="M57,42.09l-.27-.57C56.86,41.89,57,42.18,57,42.09Z"/><path class="cls-1" d="M49.06,41.89,49,41.33l-.11-.1Z"/><path class="cls-1" d="M52.41,31.6a45,45,0,0,0,2.42,5.62c-.84-1.94-1.7-4-2.58-6.24C52.11,30.79,52.06,30.76,52.41,31.6Z"/><path class="cls-1" d="M41.73,19.79c-.29-1.39-.58-3-.78-4.73l4.91-1.48c0,.12.1.27.16.42l-.15-.42-4.94,1.48A21.28,21.28,0,0,0,41.73,19.79Z"/><path class="cls-1" d="M56.49,40.59c.06.13.11.25.18.39C56.4,40.08,56.4,40.21,56.49,40.59Z"/><path class="cls-1" d="M56.49,40.59c-.61-1.32-1.14-2.34-1.66-3.37.68,1.58,1.33,3,1.91,4.3C56.64,41.18,56.55,40.84,56.49,40.59Z"/><path class="cls-1" d="M54.66,51.15c-.52-.36-3-7.4-4.4-13.7-2.08-6-2.16-1.64-1.28,3.88.22.14.37.09,2.44,6.28-.44-2.26-3.62-14-1.71-8.85,2.64,8.22,1.87,6.82,2.86,10.91C52,46.1,56.35,60,56.57,58l-.41-1.11-.82-2.47-1.2-3.59C54.21,50.62,55.16,53.2,54.66,51.15Z"/><path class="cls-1" d="M45.44,29.5,44.53,27c.46,1.46.83,2.7,1.18,4.06s.66,2.87,1.09,4.85c1.45,4.22,1.86,5.07,2.07,5.33,0,0-.92-3.18-1.85-6.35l-.68-2.33c-.22-.72-.43-1.39-.61-2-.38-1.16-.64-1.93-.64-1.93Z"/><path class="cls-1" d="M45.62,13.74l0,0L41.23,15c.37,1.1,1,3.25,1.5,4.56s.85,1.87.54-.13c-.59-2.19-.86-3.62-1.06-4.58l2.49-.75a54,54,0,0,1,2.65,5.16c-1.17-3-1.78-4.28-1.92-4.66s.13.13.46.75a9.09,9.09,0,0,0,.77,1.35,11.56,11.56,0,0,0-1-2.87,69.16,69.16,0,0,1,2.76,6.48C47.63,18.14,46.86,16,46,14l.11.28,0,.06h0c.19.54.23.73,0,.13L46,14.21a2.58,2.58,0,0,1-.4-.48v0L41.22,15c.5,3.26.13,1.4-.13,0l4.64-1.4.29.57s.1.12.12.12v-.05l-.33-.67L41,15.05A67.65,67.65,0,0,0,44.53,27L43,22.38A50.9,50.9,0,0,1,41.23,15L45.6,13.7Z"/><path class="cls-1" d="M67.86,73.72c-.13-.37-.1-.37-.08-.41C67.38,72.59,67.22,72.32,67.86,73.72Z"/><path class="cls-1" d="M66,68.85A41.65,41.65,0,0,1,68,73.05c1,2.41-.19.08-.26.26.86,1.6,3,5.57.74.38l-.43-.79a76.2,76.2,0,0,1-3.61-10.17A35.17,35.17,0,0,0,66,68.85Z"/><path class="cls-1" d="M55.28,41.16s-1.05-2.43-2.09-4.86l-2.06-4.87,1.65,5.14.1-.33C55.07,41.85,54.84,40.53,55.28,41.16Z"/><polygon class="cls-1" points="49.2 43.11 48.37 41.9 50.72 47.58 49.2 43.11"/><path class="cls-1" d="M53.16,56.31l-.52-.37s.31.85.63,1.7l.68,1.7s-.21-.76-.41-1.51Z"/><path class="cls-1" d="M57.57,125.16,58.88,128C58.28,126.64,57.88,125.78,57.57,125.16Z"/><path class="cls-1" d="M48.9,104.42l-.39-.44C49,104.9,49.25,105.27,48.9,104.42Z"/><path class="cls-1" d="M41.39,55c-1.57-4.26-3.09-9.09-3.27-8.41L38.28,48C39.64,50.83,40.61,53.05,41.39,55Z"/><path class="cls-1" d="M54.69,113.82c.15.41.31.83.46,1.25.62.93,1.2,1.8,1.71,2.58Z"/><path class="cls-1" d="M51.68,111.72l-2.35-5.51C49.83,107.47,50.58,109.24,51.68,111.72Z"/><path class="cls-1" d="M15.69,62.55l-1.86-3.2C16.1,64.64,15.31,62.21,15.69,62.55Z"/><path class="cls-1" d="M40,16.58c-.32-1.32-.6-2.54-.82-3.58l-4.77,1.57A45.63,45.63,0,0,1,36,20a37.39,37.39,0,0,0-1.37-5.47l4.34-1.42A12,12,0,0,0,40,16.58Z"/><path class="cls-1" d="M49.91,118.83c.81,1.73,1.21,2.44,1.28,2.35C50.35,119.4,49.85,118.41,49.91,118.83Z"/><path class="cls-1" d="M38.45,31c-.12-.68-.25-1.35-.38-2.05C37.3,26.11,36.72,23.2,36,20c.31,1.64.61,3.45,1,5.34A53.49,53.49,0,0,0,38.45,31Z"/><path class="cls-1" d="M22.43,106,22,105C21.92,105,22.12,105.38,22.43,106Z"/><path class="cls-1" d="M21.56,135.26c-.43-1.22-1.06-3.22-1.66-5.11C20.17,131.08,20.64,132.63,21.56,135.26Z"/><path class="cls-1" d="M71.08,96.05c1.1,2.64.22.41,0,0Z"/><path class="cls-1" d="M67.47,95a3,3,0,0,0,.56,1A4.27,4.27,0,0,1,67.47,95Z"/><path class="cls-1" d="M48.78,58.35l.07.25C48.68,57.74,48.7,57.89,48.78,58.35Z"/><path class="cls-1" d="M72.56,100c-.39-1-.82-2.07-1.3-3.33C71.46,97.23,71.82,98.3,72.56,100Z"/><path class="cls-1" d="M72.51,99.42c.28.62.56,1.22.86,1.81l-4.92,2.15-.12-.37c-.1-.18-.13-.16,0,.39l5.05-2.21C73.3,100.91,73,100.37,72.51,99.42Z"/><path class="cls-1" d="M69.51,92.23c.69,1.6,1.23,3.07,1.75,4.45-.18-.54-.25-.76-.18-.63C70.76,95.27,70.33,94.15,69.51,92.23Z"/><path class="cls-1" d="M29.23,101.62c-.07-.18-.16-.39-.24-.58C27.5,98.48,28.1,99.63,29.23,101.62Z"/><path class="cls-1" d="M28.17,20.58l-.11-.31c0,.13.07.3.11.42Z"/><path class="cls-1" d="M31.41,30.59a61.57,61.57,0,0,1-3.24-9.9l-.23,3.69Z"/><path class="cls-1" d="M48,124l3.39,6.57c-5.07-7.36-8.06-13.1-5.09-6.8.43.06,1.54,1.64,3,4,.74,1.17,1.56,2.52,2.44,4,.43.72.88,1.47,1.34,2.22s.86,1.47,1.29,2.23c1.68,3,3.35,6.31,5,8.73s3.14,4,3.57,3.95l.74,1,4.16-2.18a12.15,12.15,0,0,0-1.73-4.39,16.71,16.71,0,0,1,1,1.62,9.27,9.27,0,0,1,.74,1.76A11.27,11.27,0,0,0,66.22,143L66,142.7l-.17-.22-.08-.12-.43-.81a31.14,31.14,0,0,0-1.75-2.79c-1.24-1.7-2.45-3.83-4.73-9.45-1.55-3.94-2.51-6.74-1.25-4.15l-4-8.55c-1-2.53-.57-2,.47.52l-2.84-6.61c-1.4-3.31-2.81-6.62-2.81-6.62l.08.08c-1-1.81-3.07-6-4.07-8-1.22-3.45.83,1.64.63.72l-3.36-7.24c-.92-3.14,1.93,2.84,4,7.94A27.79,27.79,0,0,0,43,89.71a105.09,105.09,0,0,1-5.46-13.52l3,6.93C39.41,78.32,37,73,34.23,64.88c.52,2,5.23,16.29,1.69,8.37a99.45,99.45,0,0,0-4-9.54c.43-.22-1.38-4.41-3.53-9.7l.74.12c-2.47-5.66-2.59-5.08-4.21-8.34-1.22-3.2-2-5.23-2.37-6.59a20.13,20.13,0,0,1-.62-3A20,20,0,0,0,20.52,33a8.3,8.3,0,0,0,.36,1.64c.21.79.4,1.52.2,1.33a23.52,23.52,0,0,1-1.95-4.26,48.62,48.62,0,0,1-2-7.47L12.6,25.65c1.2,2.4,2.31,4.84,3.53,7.53s2.61,5.63,4.22,9c2.37,6-.81-.87-.05,1.31l2.74,5c.55,1.28.23.94.06.76,2.1,4.31.75.1,3.92,6.93,1.46,1.58,5.25,14.58,9.72,22.8.76,2.18-.8-.86-.75-.12,2.79,5.76,4,8.23,5.15,10.41S43.3,93.35,45.86,98l3.47,8.26c-2.4-6.13,1.73,1.2,5.36,7.61-.81-2.2-1.49-4.08-2-5.32l5.42,10.41c.53,1.32-.19.35-1.27-1.26l1.08,1.86c1.62,3.88.34,2.09-1.3-.46-.5-1.35-1-2.68-1.49-4-1.61-2.44-3.18-4.69-3.25-4,.4.65,1.09,2,1.83,3.38-.43-.63-.72-1-.63-.68a33.63,33.63,0,0,0,1.76,3.08l.52,2.71.54.46,6.24,14L66,141l2.86-1.37a179.69,179.69,0,0,1-12.82-27.1c2,3.86,1.12.57,1.79.57,1.06,4.68,5,12.54,8.47,20.77-1.82-4.31-1.12-3.49-.56-2.44,0,0-1.72-3.6-3.34-7.27s-3.17-7.38-3.17-7.38c.6.16-.85-3.32-2.13-7.34.18,3.32-4.85-11-7.3-17.08.19-.49,1,.88,3.68,8.4-2.32-8.52-5-10.3-7.21-18.7a20.88,20.88,0,0,0,1.35,3.53c-1.8-4.2-5.1-14.84-4-12.45l.62,1.84c-2-6.15-5-15.52-7.65-23.59S31.92,36.5,31.24,35.69c.07-.15,1.45,1.36,1.83,2.06L28.51,27c-2.28-5.36-4.65-10.69-4.65-10.69,1.3,1.74.71-6.24,4.2,3.94-.39-1.5-.84-3.18-1.45-5.23a66,66,0,0,0-2.69-7.67c.67,2.05.75,5.37-.24,2.64-.34-1.45-.64-2.54-.86-3.36-.11-.4-.2-.74-.28-1a3.1,3.1,0,0,1-.09-.47,1.93,1.93,0,0,0,0-.24c0-.14,0-.3,0-.47a4.34,4.34,0,0,0-.29-1,3.94,3.94,0,0,0-1.51-1.77L18,0l.38,3.22c.18,1.51.41,3.51,1.14,7.25-.65-3.16,1.27,0,2.73,4.82-.4-.7-1,.74-1.62-1,0,0,1.18,2.92,2.43,5.79S25.6,25.8,25.6,25.8c-1.23-2.86-1.11-.2-.43,2.54-.12-.64.8,1.9,2,5s2.62,6.64,3.32,8.15l-1.78-5A75.08,75.08,0,0,0,34.83,49a112.38,112.38,0,0,1,6.51,12.25c-.92-1.42-3.06-3.16-.18,3.31a217.39,217.39,0,0,1,14.52,22.6l.76,2.25L61,97.69c-3.47-4.81-12.45-18.78-17-26.64,2,4.85.27,1.49,3.74,8.56.94,2.64-2.3-3.65-3.32-5.73l3.92,8.29c2,4.13,4,8.26,4,8.26.22-1,6.92,12.21,7.13,11.32,0,0-2.42-4.35-4.83-8.71s-4.75-8.75-4.75-8.75c.25-1,6.77,9.48,12.65,21,1.29,3.06-2.2-1.63-2.27-1.29,1,1.4,6.1,10.71,6.54,11.83L64,111.17c2.57,5.31,5.16,8.61,8,14l2.94-1.76A22.59,22.59,0,0,1,73,119.62c-1.26-2.59-2.66-8.39-3.24-8.74,1.11,4.8-.69,6.59-2.47,3.79-.18-.49-1.48-4.21-2.88-8.2s-2.73-8.34-3.14-10c-1.16-4.82,3.94,6.41,3,2.31a22.85,22.85,0,0,1-1.87-3.6c-.93-3,1,1-1.42-5.35-1-.83-4.51-13.11-1.62-2.84-2.37-6.24-2.19-6.74-4.69-14.17C55,75.31,51,66.6,48.84,60.26c.28.32,0-1.18-.06-1.91-2-6.55-3.32-11.64-4.57-16.63s-2.42-9.88-3.85-16.09c-.07-1.17-1.21-7.27-.35-4.76-.27-.89-.56-1.74-.93-2.84s-.81-2.47-1.56-4.34l-.12-.38L36,13.79c.47,2.66.17,1.75-.29.07l2-.67c1.08,2.41,2.13,6.63,1.6,3.13a29.62,29.62,0,0,1-1.48-3.17l-2.26.74c1,3.33,2.74,8.45,4.11,11.84,0-1.29-2.08-6.8-3.55-12l1.16-.38a45.12,45.12,0,0,1,2.13,5.87c-.2.06-.53-.44-1-1.4s-1.08-2.39-2-4.12l.6-.19c1.32,3.82,3.48,9.34,6,15.8,3.93,9.85,1.11,4.49,1.87,6.17a169.33,169.33,0,0,0,6.94,16.63c.82,1.73,1.59,3.37,2.49,5.55.44,1.09.92,2.32,1.45,3.77l.84,2.34,1,2.68c2,6.25-.88.67-.68,2.16a92.1,92.1,0,0,1-3.81-9.9c-1-2.81-1.76-5.31-2.81-8l2.32,6.83c-1.14-2.5-3.31-7.85-4.28-10.85.77,2.65,3.65,10.56,7.16,19.55,3.7,8.91,7.88,19,10.64,26.15,1.25,2.42,3.13,6.76,2.51,4.6l-.93-2.25c-.47-1.12-1-2.23-1-2.23-.66-2.14.36-.11,1.28,1.78s1.66,3.59.62.69a70.76,70.76,0,0,0,3.43,6.94l-2.35,1c-1.59-4.22-3.26-8.9-4.9-14.35l0-1.84A58.29,58.29,0,0,0,67.44,95C66,91.39,63.82,81.31,61.75,77.57l1.61,6.25C61,77.69,57.86,70.19,55.5,62.39c.58,3.7.65,1.76,1.79,7.48-.73-5,6.48,19.82,4.84,11.87,1.08,5.9,2.89,9.87,4.65,17.48.12-.29-.49-2.74,1.55,3.79,0,.07.09.17.17.35l4.82-2.11c-.16-.2-.41-.58-.58-.85l-.18-.39.13.32c-.14-.23-.16-.25.06.12l.38.9-4.43,1.94a22,22,0,0,1-.53-2.38c.26.54.58,1.29,1,2.24l3.62-1.59a54.82,54.82,0,0,1-3.46-7.32c-1.22-2.77-2.32-5.22-3-6.59-1.47-3.77.86,1.47.21-.66l-2.44-4.91c.2-.68-3.45-10.2.46-1.52l-3.28-7.91c-.86-2.37-1.93-5.17-3-7.86s-2-5.33-2.91-7.29c-1.34-3.82-4.08-9.38-2.5-6.21l-5-12.49.06-.15c-1.5-4.1-3.23-8.21-4.79-12.48A122.06,122.06,0,0,1,38.8,13.08l-4.11,1.36c1.77,4.22,2.38,9.23,3.38,14.46,1.16,4.36,2.39,8.84,4.26,16.14v1.52c1.64,5.54,4.54,16.77,5.72,19,.45,3.13,2.55,9.79,5,16.88S58.4,97,60.15,101.79l.62.18c1.24,3.27,2.55,6.47,4,9.79s2.85,6.9,5,10.88l.15-.7c.57,1,1.21,2.14,2,3.35L75,123.43c-3.57-6.36-7.81-15.34-12.4-24.19a42.44,42.44,0,0,1,2.73,5.22c-5.6-12.91-14.06-26.11-18.87-38a68.55,68.55,0,0,1-3.28-7c.13.27.25.5.36.7-.14-.29-.34-.73-.55-1.18L41.39,55c.45,1.25.91,2.44,1.34,3.47l-4.25-8.83L38.28,48l-.35-.76c-1.28-3.33-1.36-2.53-.93-.64-.81-1.64-1.57-3.14-2.19-4.29-.44-2.95-3.93-8.69-4.55-12.68-.62-1.06-2.3-5.3-3.85-9.51s-3-8.4-3.65-9.21c.07-.15-.17-1.18.37.69-.79-3-1.45-6-2-8.82l-2,1.34a1.37,1.37,0,0,1,.72,1.17l-.11.46c0,.31.07.62.1.94l0,.74s1,2,1.88,4,1.71,4.06,1.71,4.06c1.2,5.29,1.62,7.47-.36,2.49,4.37,12.17,3.2,10,6.93,20.35l-.53-.41c1.09,3.78,3.36,9.68,3.74,12,.88,4.34,4.12,14.75,8.12,26.73s8.86,25.5,12.52,36.17c-.45-4.52,3.2,10,4.42,10.54.22,1.33,1.25,4.33-.33,1,3.12,7.4,5,12.35,7.34,17l4.26-2c-1-2.05-2-4.05-3.28-6.17-.32-1.31,1.42,2.07,1.06.93a34.92,34.92,0,0,1-2.15-4.37c-.36-1.13.93,1.43,1.82,3C62,122.09,60.64,121.41,59.56,121a63.81,63.81,0,0,0-6-11.84c-.67-2-1.93-5.22,1.34,1.32-.88-1.86-3.54-7.54-6-12.81S44.17,87.56,43.79,87.5c-.4-1.23-2.32-5.24-2.82-6.22C37.31,72.81,37,72,33.35,63.76l.91,2.35c-2.14-3-3.18-6.84-6.19-13.49l.16.16c-3.11-7.79-3.89-9.42-4.66-11S22,38.58,19.12,30.84l-.09,1c-.75-.47-1.87-3.59-3.59-7.6L14,24.71a39.79,39.79,0,0,0,1.78,7.81A59.85,59.85,0,0,0,18.87,40l-1.14-3.3a52.87,52.87,0,0,1,3.36,9.36c1,3.56,1.91,7.14,2.83,9.61.35,1.1-.81-1.63-1.46-3.09,4.56,13,1.24,1.42,5.2,10.89.39,1.89-1.71-1.93.81,4.5.51,1.65,2.63,6.2,5,11.46,1.18,2.63,2.41,5.44,3.55,8.15s2.2,5.31,3,7.55c-.56-2-1.11-4,.9.31,2.9,6.71,6.65,18.65,10,24.42a3.64,3.64,0,0,1,.33,1.3c1.15,2.55,3,6.7,4.8,10.59.88,1.94,1.74,3.81,2.49,5.39a26.81,26.81,0,0,0,2,3.51,16.31,16.31,0,0,0,1.1,3.34l.29.65a3.37,3.37,0,0,0,.47.71c.2.29.4.6.59.93a8.76,8.76,0,0,1,.85,2.22l3-1.59c-3.33-3.54-6.22-9.28-8.87-13.76s-4.59-7.66-4.09-7.92l-4.33-7.4-4.25-7.45.36.31c-5.24-9.62-7.3-12.9-9.43-16.14-1.08-2.3-.1-.73.07-.58-3.58-7.18-5.54-11.12-7.44-14.73S25,72.4,21.82,66.48L21.69,65A117.7,117.7,0,0,1,17,53.71C14.91,48.05,12.46,41,9.83,34.34l-3.77,1.2a48.2,48.2,0,0,0,2.05,5.8,6.4,6.4,0,0,1-.82-1.59c.83,2.13,1.75,4.3,2.67,6.5s1.78,4.42,2.63,6.75c1.72,4.61,3.45,9.27,5.12,13.57,3.35,8.6,6.51,15.78,8.67,18.37L29,90.18l2.68,5.21c-6.27-13.79,1.65,1.72-.71-4,2.6,5.35,6.11,14.13,2.87,7.57l-.41-1.07c-1-1,.93,3.27,3.06,7.78s4.45,9.25,4.07,9.21L49,131.93q2.09,4.26,4.16,8.48l1,2.11.53,1.1a3.25,3.25,0,0,0,.44.69l.28.42a9.1,9.1,0,0,1,1.39,3.64L60,147a114.52,114.52,0,0,1-6.47-10.33c-2.18-3.58-4.35-7-6.48-10.44-4.26-6.91-8.32-13.78-12-20.77l.86,3.16-2.25-4.29L31.51,100c-1-2.35-1-3.3,2.07,2.87a69.4,69.4,0,0,0-5.73-10.32c-5.66-12.33,3.08,4.39,1.28.64l-2.52-5,.48,1.18a112.56,112.56,0,0,1-6.3-11.76C18.63,72.74,20,74.93,19.14,73c0,0,0-.17-.24-.61s-.57-1.15-1.13-2.26c0,0-1.32-2.75-2.56-5.51s-2.38-5.55-2.38-5.55.33,1.16.67,2.33.71,2.34.71,2.34C11.73,59,10,53.21,11.36,58.67,10.93,57.06,10,54.4,9.07,51L6.41,52c1.28,3.15,2.5,7.07,3.85,11.22s3,8.42,4.58,12.35C18,83.46,21,90,21.76,91.93c3.52,6.78,6.71,13.56,10.57,22-.86-2.15-.85-3.67,2.45,3.63-2.45-2.1,5.66,13.56,7.52,19.84-.93-2.76,1.5,2.39,3.8,7.15s4.43,9.2,2.94,4.85c2.71,6.13-.28.59,1.55,5.32a70.53,70.53,0,0,1,3.23,7.38l3.24-1.33c-1.58-3.27-3.45-6.47-5.33-9.71s-3.69-6.58-5.57-10c-3.71-6.88-7.55-14-11.43-21.23-.3-.19,1,2.85-1.2-.76l-2-4.8-2-4.81c-1.85-3.42-2.52-2.73-5.24-9.33.33,1,.82,2.4-.43.1C20.48,93.32,17,86.4,13.49,79.42L10.9,74.17,9.61,71.53c-.41-.86-.8-1.71-1.18-2.6C6.89,65.38,5.53,61.56,3.14,58L.33,59.73C2.87,64.56,3.42,70.67,5.1,76.46s3.4,11.47,5.08,17.15c.84,2.84,1.63,5.67,2.32,8.52s1.38,5.78,2.06,8.67q2.08,8.67,4.31,17.27c-1.2-5.21-.17-1.81,1,2.08-.69-2.55.44-.07.51-.64,0,0,1.05,4,2.2,7.94s2.38,7.9,2.38,7.9c1.55,2.66,6.44,16.4,7.65,17.77l-2-4.78c3.26,6.15-2-9.57-.74-9-1.77-3.45-3.2-8.34-4.73-13.83S22,123.94,19.71,118c-.56-2.74.94,2.21.75.71-1.26-3-2.38-6.68-4-13.69l.29.76c-2.29-9.44-4.53-16.23-6.48-23.14-1-3.47-1.93-7-2.76-10.91-.43-1.95-.79-4.06-1.32-6.36A32.19,32.19,0,0,0,3.69,58L0,60.18c.28.46.73,1.15,1.14,1.94L1,61.32l-.21-.79a26.5,26.5,0,0,1,2.1,4.33c.41,1,.66,1.83,1,2.9,1.1,1.93.54.36-.4-1.91C3,64.72,2.44,63.43,1.87,62.34s-1.11-2-1.37-2.5l2.65-1.6c.25.61.23.74-.23.12L.72,59.69a3.18,3.18,0,0,1,.24.25c.67,1.38,1.85,3.93,3.14,7.27.67,1.66,1.38,3.5,2.27,5.42L9.1,78.24c3.7,7.51,7.4,14.7,7.91,16.9,3.45,6.67-.52-2.21,2.92,4.46l.65,1.91L21.79,103c2.2,4.4,3,6.78,2.85,7.06-.51-1.08-1.6-3-2.21-4.12,1.31,2.91,3.36,6.92,5.26,10.43s3.59,6.54,4.06,7.53l-3.21-6.49c3.79,7.07,7.94,14.72,12.23,22.42,2.16,3.85,4.32,7.68,6.55,11.5s4.5,7.42,6.28,11.08l3.82-1.57a123.56,123.56,0,0,0-5.77-12.67l.43,1.45c-6.71-13.53-4.87-11.08-12-26.06l.31.53c-1.61-2.93-3.58-6.91-5.47-11,2,3.7-2.87-7.37-.29-2.5-7.31-14.69-3.75-7.2-9-16.68l-.69-2.43a80.4,80.4,0,0,1-5.49-11c2.95,6.11-1.54-5.07,1.82,1.74-3-8-5.48-13.94-7.33-18.79s-3.14-8.81-4.25-12.79L5.73,52.08l0,.19c1.16,2.47,1.08,1.66.53-.36l2.8-1c1.56,3.93,4.45,12.76,3.41,10,.39,1.66-.15.58-1-1.59s-2.07-5.42-3.2-8l-1.19.44c.18.58.34,1.11.5,1.59.88,2.66,1.4,5,2.43,8.31a95.74,95.74,0,0,0,5.73,13.83c-.61-1.25-.72-1.3-1.32-2.56,2.06,4.82,4.77,9.07,7.17,15.05,2.12,3,3.61,7.52,4.78,8.11L20.64,84.5C24,91,27.69,96.74,32.87,107.58c-.59-.75-2.42-3.82-3.64-6,1.39,3.24,3.22,5.94,4.76,9.26-.6-.26-2.51-3.69-4.69-7.93s-4.64-9.26-6.6-12.64c1.31,3.55,7,13,4.53,9.87a60.44,60.44,0,0,1,5.08,8.89A83.56,83.56,0,0,0,39,120.38l-.73-.29c.83,1.26,2.64,3.81,4.1,6.16l-3.15-4c2.22,3.16,4.09,6.36,5.93,9.54.92,1.58,1.83,3.16,2.78,4.72s1.83,3,2.84,4.59l-2.33-3.86c-.6-1-1-1.69-1.31-2.18-.57-1-.58-1.18-.44-1.13.29.11,1.22,1.13-.38-1.71,1.92,2.82,3.33,4.91,4.31,6.6s1.68,3,2.23,4.1a53.44,53.44,0,0,0,3.61,6.72l4.68-2a12.61,12.61,0,0,0-2-5.62c-.12-.17-.25-.35-.37-.54l-.25-.5-.77-1.58-1.84-3.65c.67,1.27,1.81,3.71,2.51,5.35l.12.3a.81.81,0,0,1,.05.14,1.29,1.29,0,0,0,.1.22,4,4,0,0,1,.32.63c0,.09,0,.06-.2-.13l-.33-.4a.8.8,0,0,1-.21-.26c-1.72-3.65-3.93-8.51-4.82-10.84-6.35-12.55.53,2.15-2.4-3.08-1.62-4.54-3.29-6.08-6.18-11.54l.42-.26c-6.77-14.54-2.8-3.36-8.74-16.53l3.25,5.21L36.4,97.88l1.16,1.17a162.38,162.38,0,0,1-8-16.91c.46,1.83-1.25-.59-4.09-7.09-1.64-4.56,1.46,2.32-2.52-6.9a35.27,35.27,0,0,1,3.8,8.29c.33.35,1.18,1.93,1.51,2.29-1.81-4.89-5.11-12-6.48-15.4.51,1.3,1.13,2.86,1.4,3.68L20.08,60.4l-3-6.64c-.67-2.2.13-.56.92,1.07-1.15-2.73-2-4.53-3.73-8.62a8.58,8.58,0,0,1,1.14,1.31,14.71,14.71,0,0,1,.92,1.67c.37.77.83,1.81,1.44,3.22l-.85-2C16.41,49.24,15.7,47.57,15,46S13.57,42.81,13,41.63l-.83-2c-.08-.45-.57-2.11-.86-3.44s-.43-2.34-.15-1.55l-.11-.45L5,36.17c1.28,3.63,3.11,7.94,5,12.52s4,9.48,5.91,14.14c.3.45.78,1.41,1.75,3.38A250.48,250.48,0,0,0,30.81,92.79l2.37,6.07c4.34,7.85-3.33-8.18,3.9,4.87,5.24,9.17,1.36,3.75,3,7.1a235.73,235.73,0,0,1,12.4,20.63C50.69,128.77,49.52,126.54,48,124ZM36,73.45c.89,1.94,2.76,5.77,3.08,7.33C37.65,78.73,37.2,76.89,36,73.45Zm24.92,55.36a47.66,47.66,0,0,1-2.86-6.17C59,124.43,59.93,126.48,60.91,128.81ZM58.43,66.65l-.11-.2C56.67,62,57.25,63.59,58.43,66.65ZM62,75.82c.44.89.48.8.38.39a48.39,48.39,0,0,1-2.18-5A24.36,24.36,0,0,0,62,75.82ZM18.5,72.13l.73,1.79C17.2,70.07,17.85,71.12,18.5,72.13Z"/><path class="cls-1" d="M52.06,112a1.94,1.94,0,0,1-.16-.93C51.46,110.37,51.37,110.39,52.06,112Z"/><path class="cls-1" d="M16,63.14l-.14-.31a1.57,1.57,0,0,0-.21-.28Z"/><path class="cls-1" d="M63.12,95c.63,1.93,1,3,1.14,3.75C64.41,98.83,64.17,97.93,63.12,95Z"/><path class="cls-1" d="M60.62,80.39l2.1,6c-1-2.91-1.22-4-1.64-5.47C61,81.07,61.24,82.27,60.62,80.39Z"/><path class="cls-1" d="M47,27.06c-.36-.86-.65-1.85-1-2.7l-.13.31C47.21,28.39,48.26,30.94,47,27.06Z"/><path class="cls-1" d="M60.31,74.32c.23-.6-1.15-4.33-2.6-8.52l.24.75C57,65.48,58.66,69.91,60.31,74.32Z"/><path class="cls-1" d="M57.37,64.83c-.44-1.29-.89-2.62-1.29-3.89C55.7,60.51,56.55,62.53,57.37,64.83Z"/><path class="cls-1" d="M67.09,87.24c.71,2,1,1,1.28,2.17C69.75,91.36,62.42,76.77,67.09,87.24Z"/><polygon class="cls-1" points="60.46 70.5 60.48 72.17 61.64 74.4 60.46 70.5"/><path class="cls-1" d="M70.74,101.19c.18.39.37.77.56,1.15l-.63.28L69,97.09a6.35,6.35,0,0,1-.75-1.74c.89,2.77,1.85,5.73,2.35,7.3l.82-.35C71,101.54,70.76,101.11,70.74,101.19Z"/><path class="cls-1" d="M68.22,95.35c-.71-2.17-1.39-4.22-1.87-5.39C66.74,91.12,67.59,93.63,68.22,95.35Z"/><polygon class="cls-1" points="63.63 79.66 64.19 81.68 65.71 86.44 63.63 79.66"/><path class="cls-1" d="M42.63,30.49s-.18-.45-.44-1.13-.59-1.58-.93-2.48l-1.34-3.63c-.41-.69.15,1.34,1.18,4C41.82,29,42.88,31.66,42.63,30.49Z"/><path class="cls-1" d="M49.62,52.83a23.63,23.63,0,0,1-.86-3.32H48.1Z"/><path class="cls-1" d="M41.49,31.78c-.46-.64-4.24-10.42-.93-1.18C41,31.28,43.88,38.48,41.49,31.78Z"/><polygon class="cls-1" points="65.83 106.75 65.08 104.93 64.25 105.57 65.83 106.75"/><path class="cls-1" d="M33.75,50.7c3.58,8.48,1.46,1.74,4.66,9.41,1.12,1.85-2.63-6.26-1.51-4.34C34.36,50.83,33.32,48.1,33.75,50.7Z"/><path class="cls-1" d="M36.9,55.77c.41.79.85,1.62,1.33,2.5C37.5,56.84,37.14,56.17,36.9,55.77Z"/><polygon class="cls-1" points="28.44 155.82 30.42 161.37 29.33 157.72 28.44 155.82"/><path class="cls-1" d="M33.34,166.08s0,.41,0,.81l0,.75a13.8,13.8,0,0,1,.75,1.23,4.12,4.12,0,0,1,.27.62,1.24,1.24,0,0,1,0,.3,1.29,1.29,0,0,0,0-.29,1.22,1.22,0,0,0,0-.32,4.83,4.83,0,0,0-.26-1C33.85,167.48,33.48,166.65,33.34,166.08Z"/><path class="cls-1" d="M31.11,57.77l-.31-.36a36.21,36.21,0,0,0,1.69,4.77Z"/><polygon class="cls-1" points="61.03 131.72 60.51 130.45 60.97 133.05 61.03 131.72"/><path class="cls-1" d="M36.79,106.64c1.3,2.43,3,5.2,4.3,7.62C38.07,109.08,37.09,105.63,36.79,106.64Z"/></g></g></svg>