<svg xmlns="http://www.w3.org/2000/svg" viewBox="0 0 161.2 138.24"><defs><style>.cls-1{fill:#232323;}.cls-2{fill:#fff;}</style></defs><g id="Layer_2" data-name="Layer 2"><g id="Objects"><path class="cls-1" d="M161.2,80.6a80.64,80.64,0,0,1-21.9,55.23c-.78.82-1.57,1.63-2.38,2.41-10.18-23.79-26.59-38.15-51.38-40.15-29.7-2.4-49.83,12.21-62.19,39A76,76,0,0,1,4.77,107.27c-1.46-4.44-2.56-9-3.7-13.55A80.57,80.57,0,0,1,15.14,33.58c.31-.44.62-.87.95-1.3a80.48,80.48,0,0,1,8.84-10c.31-.31.63-.6.94-.88A80.32,80.32,0,0,1,66.33,1.26l.15,0a81.57,81.57,0,0,1,25-.5,80.13,80.13,0,0,1,36.25,14.49c.51.36,1,.73,1.51,1.11s.75.57,1.12.86a81.65,81.65,0,0,1,7.23,6.42l.88.9A80.35,80.35,0,0,1,161.2,80.6Z"/><path class="cls-2" d="M106,64.89A25.38,25.38,0,1,1,80.67,39.4,25.52,25.52,0,0,1,106,64.89Z"/></g></g></svg>