<svg xmlns="http://www.w3.org/2000/svg" viewBox="0 0 71.35 290.6"><defs><style>.cls-1{fill:#232323;}</style></defs><g id="Layer_2" data-name="Layer 2"><g id="Objects"><path class="cls-1" d="M18.48,290.24c-.07-.8-.17-1.13-.29-1.23s-.23,0-.28-.14a5.54,5.54,0,0,0,.25,1.46c.08.23.16.29.21.27S18.53,290.21,18.48,290.24Z"/><polygon class="cls-1" points="18.79 277.23 19.04 277.63 17.96 274.15 18.79 277.23"/><path class="cls-1" d="M14.79,254.63c-.33,2.27,1.51,8.19,2,12.26l-.05.69.89,1.72C16.64,264.43,15.19,258.12,14.79,254.63Z"/><path class="cls-1" d="M14.22,242.28c-.14.79-.69-2.58.42,2.84,0-.28,0-.36,0-.53C14.53,244.1,14.42,243.43,14.22,242.28Z"/><path class="cls-1" d="M14.62,244.59c.43,2.39,0-1.6,0,0Z"/><path class="cls-1" d="M12.45,233.59l.83,3.09c0-.68-.44-3.49-.13-2.47C12.41,231,12.37,231.71,12.45,233.59Z"/><path class="cls-1" d="M11.38,230.71l.41,1.6A3.91,3.91,0,0,0,11.38,230.71Z"/><path class="cls-1" d="M12.65,235.73l-.86-3.42c0,.48-.25.57.38,1.57C11.91,233.64,12.23,234.28,12.65,235.73Z"/><path class="cls-1" d="M12.91,237.7c.17,1.8.49,4.09-.33,1C13.76,244.68,14.1,243.71,12.91,237.7Z"/><path class="cls-1" d="M13.87,253.6l.2,2.39.58,2C14.36,257,14.07,253.42,13.87,253.6Z"/><path class="cls-1" d="M9.1,214c-.19-.17-.2,1.12-.35,1.39l.61,2.28A17.49,17.49,0,0,1,9.1,214Z"/><path class="cls-1" d="M8.75,215.41,7.86,212C8.39,215.09,8.63,215.64,8.75,215.41Z"/><polygon class="cls-1" points="10.49 230.3 12.1 235.89 10.27 229.2 10.49 230.3"/><polygon class="cls-1" points="6.81 200.83 7.48 202.73 6.39 199.33 6.81 200.83"/><path class="cls-1" d="M5.45,192.1c.49,1.4.22-2,.61-.55-.37-2.37-.85-4.34-1.31-6.2A48.65,48.65,0,0,1,5.45,192.1Z"/><path class="cls-1" d="M4,182.28c.19,1,.44,2,.71,3.07C4.56,184.31,4.33,183.29,4,182.28Z"/><path class="cls-1" d="M6.88,206.1a8.26,8.26,0,0,0,0-2.79l-.2,1.43Z"/><path class="cls-1" d="M6.65,204.79v0c-.23-1.48-.39-2.5-.46-2.94C6.25,202.18,6.38,203.08,6.65,204.79Z"/><path class="cls-1" d="M6.94,206.45l-.06-.35A.44.44,0,0,0,6.94,206.45Z"/><path class="cls-1" d="M9.13,221.15c-.62-2-1.68-6.17-1.26-2C8.44,220.55,8.19,218.16,9.13,221.15Z"/><path class="cls-1" d="M6.71,208.23l.56,3.69c.1-.09.14-.79.44.2Z"/><polygon class="cls-1" points="6.26 206.45 6.71 208.23 6.5 206.86 6.26 206.45"/><path class="cls-1" d="M4.43,188.69c-.39-1.55-.61-3.35-.89-5.32.18,2.14.4,4.37.66,6.42C4.37,190.07,4.72,191,4.43,188.69Z"/><path class="cls-1" d="M5.37,196.53l-.07-.35C5.29,196.4,5.31,196.57,5.37,196.53Z"/><path class="cls-1" d="M2.79,164.78l-.15.22.06.08Z"/><path class="cls-1" d="M4.16,190.16a15.54,15.54,0,0,0,.62,3.41c-.2-1.18-.41-2.43-.58-3.78C4.12,189.67,4.08,189.65,4.16,190.16Z"/><path class="cls-1" d="M3.23,176.91c0,.83,0,1.77.06,2.76A13.72,13.72,0,0,0,3.23,176.91Z"/><path class="cls-1" d="M5.34,195.63l0,.23C5.4,195.33,5.37,195.4,5.34,195.63Z"/><path class="cls-1" d="M5.34,195.63c-.18-.81-.39-1.43-.56-2.06.16,1,.34,1.84.52,2.61A4.15,4.15,0,0,1,5.34,195.63Z"/><path class="cls-1" d="M3.65,165.52c-.13,0-.4-.37-.72-.93a3,3,0,0,0-1.82-2.07l.2-.08A20.25,20.25,0,0,0,0,166.27c0,1.82.42,2.11.87,1.62A21.7,21.7,0,0,0,2.64,165c-.05-.05-.11-.09-.12-.33a4.29,4.29,0,0,1,.32-1.48l-2.37.91a.85.85,0,0,1,.5.23.68.68,0,0,0-.39-.5l2-.76C1.46,164.7,1,168.1,1,165.81a8.26,8.26,0,0,1,.9-3.07l-1,.4a1.23,1.23,0,0,1,.63.65,2.83,2.83,0,0,1,.11.4l0,.26c0,.16,0,.32.06.51a2.44,2.44,0,0,1,0-.34s0-.06.06-.06.05,0,.09,0,.07.16.12.28.22.36.38.6l.42.71c.31.52.66,1.12,1,1.66.65,1.08,1.23,1.92,1.33,1.43l-1.91-3.86C3.25,165.3,4,166.66,3.65,165.52Z"/><path class="cls-1" d="M2.24,171.32l.14,1.47a21.65,21.65,0,0,1,.41-5c0-2.2,0-2.56-.09-2.75,0,0-.1.36-.21.94a17.84,17.84,0,0,0-.21,2.25c-.07,1.69.05,3.55.05,3.55Z"/><path class="cls-1" d="M3,179.48c-.58-1.12-1.11-4.7-1.36-2.45.51,4.41.71,3.05,1.21,5.67-1-7.11.47,2,.11-3.16.23,1.39.41,2.64.57,3.83-.1-1.29-.19-2.53-.25-3.7v.2h0c0,.31,0,.42,0,.07a1,1,0,0,0,0-.15.77.77,0,0,1-.2-.3c-.14-2.06.07-.33.2.3,0,0,0,.08.07.08v0l-.5-3.53c-.23-1.76-.4-3.52-.4-3.52A63.59,63.59,0,0,0,3,179.48Z"/><path class="cls-1" d="M6.25,215.54c0-.23,0-.23.06-.25C6.17,214.84,6.1,214.67,6.25,215.54Z"/><path class="cls-1" d="M6,212.57a11.14,11.14,0,0,1,.67,2.59c.15,1.47-.2,0-.32.13.3,1,1,3.48.57.27l-.15-.49c-.39-2.88-.51-6.65-.36-6.16A13.24,13.24,0,0,0,6,212.57Z"/><path class="cls-1" d="M4,195.86l-.52-3L3,190,3,193l.2-.18C3.61,196.23,3.8,195.46,4,195.86Z"/><path class="cls-1" d="M3.15,164.33l.13.36a3.3,3.3,0,0,0,.13.35,8.08,8.08,0,0,1,.17-1.48l-3.42,1.3c.13,0,.15-.14.24-.17a.4.4,0,0,1-.18,0l3.2-1.22C3.32,163.76,3.23,164,3.15,164.33Z"/><polygon class="cls-1" points="1.97 169.01 1.5 168.9 2.51 170.68 1.97 169.01"/><path class="cls-1" d="M46.29,144.38l.34.5A3.74,3.74,0,0,0,46.29,144.38Z"/><path class="cls-1" d="M41.63,133.49l-.3-.2C41.67,133.78,41.84,134,41.63,133.49Z"/><path class="cls-1" d="M16.38,147.19c-.14-2.55.08-5.31-.31-5l-.34.8C16.06,144.73,16.25,146.05,16.38,147.19Z"/><path class="cls-1" d="M38.21,176.68c0,.25,0,.51,0,.76l.75,1.62C38.75,178.35,38.48,177.53,38.21,176.68Z"/><path class="cls-1" d="M36.08,175.26l-.4-3.39C35.74,172.64,35.86,173.73,36.08,175.26Z"/><path class="cls-1" d="M48.86,145s-.18-.33-.36-.59-.32-.48-.32-.48C48.28,144.43,48.55,144.63,48.86,145Z"/><path class="cls-1" d="M28,244.49A28.19,28.19,0,0,0,30.23,250C29,247.29,28.61,245.05,28,244.49Z"/><path class="cls-1" d="M40.49,142.52c.49,1,.75,1.34.83,1.28C40.82,142.8,40.49,142.26,40.49,142.52Z"/><path class="cls-1" d="M35.22,245.33c0,.21,0,.29,0,.35l0,.1s.06.21.08.31a11.74,11.74,0,0,1,.79,4.18l.06,9.37-4.9-7.94c-.32-.52-.71-1.09-1-1.73.25.6.59,1.19.92,1.81l4.62,8.48.48-10a10.46,10.46,0,0,0-.27-2.88,9.56,9.56,0,0,0-.46-1.4l-.07-.17-.05-.1-.06-.07A1.42,1.42,0,0,1,35.22,245.33Z"/><path class="cls-1" d="M60.39,93.91c0-.19,0-.41,0-.58S60.33,93.54,60.39,93.91Z"/><path class="cls-1" d="M51.9,20.48c.19.7.45,1.87.7,3C52.51,22.9,52.31,22,51.9,20.48Z"/><path class="cls-1" d="M13.13,198.22c-.58-1.55-.14-.23,0,0Z"/><path class="cls-1" d="M12,190.08c.17.32.32.55.43.55A1.36,1.36,0,0,1,12,190.08Z"/><path class="cls-1" d="M30.15,229.47l0-.15C30.12,229.82,30.13,229.74,30.15,229.47Z"/><path class="cls-1" d="M12.48,195.81c.16.6.35,1.29.59,2C13,197.51,12.81,196.89,12.48,195.81Z"/><path class="cls-1" d="M12.4,196.2,12,194.83C11.81,194.66,11.83,194.85,12.4,196.2Z"/><path class="cls-1" d="M13.91,200.37c-.31-.88-.59-1.72-.84-2.53.08.32.1.45.06.38Z"/><path class="cls-1" d="M29,51.33l.19.46C29.53,52.21,29.3,51.79,29,51.33Z"/><path class="cls-1" d="M27.52,159.19l-.09-.17.08.24Z"/><path class="cls-1" d="M30.14,164.57a20.17,20.17,0,0,1-2.63-5.31l-.38,2.3Z"/><path class="cls-1" d="M50.55,154.26s-.34-1.08-.67-2.17l-.6-2-.75-3.05c-.17-.66-.44-1.51-1.1-3.8.81,2.81,1.17,4.16,1.29,4.65s0,.23-.12,0c-.26-.51-.5-1-.11,1.64l-.54-2c.1.28.08,0,.17.28-.25-1-.32-1.22-.39-1.23s-.09.28-.16.51-.17.4-.35.26a3.65,3.65,0,0,1-.79-1.49c-.44-1.3-.52-2-.14-1.5l-.17-.26L46,144l0-.08,0,0-.05-.11c-.14-.28-.29-.58-.45-.88l-1.21-2.4c-.59-1.44-.22-1.19.37.25,0,0-.83-1.87-1.67-3.74-.41-.94-.83-1.87-1.14-2.58l-.55-1.15.07,0c-.68-1-2.08-3.25-2.74-4.37-.69-2,.56.89.5.34l-2.18-4c-.45-1.83,1.42,1.45,2.67,4.32-.52-4.42-1.87-3.28-4.94-11.93l1.94,3.82c-.45-2.84-2.09-5.76-3.66-10.38.25,1.16,2.92,9.34.58,5A32,32,0,0,0,31,110.87c.21-.11.05-.71-.36-1.71a22.53,22.53,0,0,0-2.13-4l.68-.13a10.12,10.12,0,0,0-1.39-1.59l-4.44-4.1-.58,5.51a7.77,7.77,0,0,0,.07,2.43c.11.6.25,1.16.51,2.13.09.58.2,1.1.31,1.56a.52.52,0,0,1,0,.17s0,.06,0,0,0,.07,0,.11,0,.34,0,.5a11.06,11.06,0,0,1,.05,1.56,7.45,7.45,0,0,1-.29,1.78c1.05,6.2,0-4.4,1.47,2.89a133.1,133.1,0,0,0,3.16,14.78c.44,3.62-.5-.55-.44.77l1.07,3.07c.13.78-.07.56-.17.44.69,2.64.67.1,1.61,4.27.9,1,.56,8.82,2.3,13.87,0,1.31-.5-.55-.67-.11,1.82,7,1.46,6,3.27,11.77l.58,5.06c-.26-3.75,1.23.82,2.53,4.81,0-1.34-.07-2.49-.12-3.25l1.66,6.45c.06.81-.29.2-.77-.82l.4,1.17c.24,2.38-.37,1.24-1.06-.36l-.09-2.43c-.71-1.53-1.44-2.95-1.74-2.54a20.35,20.35,0,0,1,.61,2.1c-.19-.4-.34-.65-.36-.44a9.32,9.32,0,0,0,.63,1.92L37,180.11l.35.3L38.61,189c1,3,1.93,5.75,2.91,9,.5,1.68,1.11,3.36,1.65,5.28a21.28,21.28,0,0,1,1,6.52c-.18-1.23-.45-1.33-.66-1.18s-.46.55-.78.48c.38-1.18.12-3-.42-5.12-.3-1.06-.61-2.19-.93-3.36a31.38,31.38,0,0,1-.8-3.76,6,6,0,0,1,.14,2c-.07.13-.24-.18-.35-.53l.38,1.45c.24.83.56,1.93.87,3s.58,2.16.75,2.95.26,1.33.26,1.33c-.24-.07-.28.3-.32.89a9.53,9.53,0,0,1-.23,2.16l4.09-.25c0-.23-.11-.47-.16-.71-.22,1-.88-.55-1.6-2.82s-1.52-5.26-2.2-7c.26-.32.86.47,2,4.87-.62-5-2.81-6-3.82-10.84a7.8,7.8,0,0,0,.82,2c-1.09-2.4-3.08-8.43-2.29-7.13l.39,1c-2.39-7-8.31-20.88-9.51-21.56a4,4,0,0,1,1.65.84s-1.93-2.75-3.85-5.51l-3.89-5.47c1.13.77,1-4,3.76,1.44a49.11,49.11,0,0,0-3.08-7c.39,1.14.24,3.16-.48,1.69-1.09-4.43-.86-3-2.54-8.36.61,1.7-1.26.36-2.44-2.21.35.32.93-.7,1.48.19,0,0-.26-.37-.63-.93l-.65-.94c-.19-.26-.43-.66-.65-1l-1.3-2.12-.62-.95c.91,1.55,1.06-.08.55-1.77.05.23-.15-.13-.57-.83a10.32,10.32,0,0,0-.91-1.31,5.28,5.28,0,0,0-.89-.87,3.63,3.63,0,0,0-.87-.46A2.86,2.86,0,0,0,12.4,132l-1.51.27-.12,1.57a31,31,0,0,0,0,4.47s0-.78.1-1.56c0-.39.07-.78.1-1.08s.06-.48.06-.48a19,19,0,0,0,1.17,8.07,50.5,50.5,0,0,1,2.25,7.63c-.43-.88-1.92-2-1.16,2,.48.84,1.64,2.66,2.9,5.11a50.85,50.85,0,0,1,3.57,8.94l0,1.38,1.49,5.17c-1.54-3.09-5.29-11.88-7.14-16.66.42,3-.18.87.82,5.21,0,1.61-1-2.28-1.29-3.52l2,10.14c.57-.59,2.32,7.61,2.78,7.11l-3-10.86c.56-.59,3.27,6,4.65,13.18.12,1.88-1.45-1.13-1.64-.93a49.73,49.73,0,0,1,1.81,7.43l-1-3c.57,4,2.2,6.36,2.51,11.31.28,1.67.09,5.13.53,5.34.25-2.85,2.48-3.83,3.39-2.12.07.6.89,8.91.87,10.88-.08,2.86-2.17-3.86-2.24-1.43a8.24,8.24,0,0,1,.89,2.17c.17,1.78-.7-.63.09,3.17.79.51,1.37,7.76.9,1.7.88,3.69.6,4,1.41,8.35.18-1.47,2.18,3.67,3,7.4-.21-.2-.29.68-.33,1.11.59,3.84.91,6.8,1.25,9.71l.52,4.41c.1.76.2,1.55.3,2.36a5,5,0,0,0,.35,1.27,10,10,0,0,1,.3,1.23,13.06,13.06,0,0,1-.09,1.8l1.27-.37c-.37-.82-.6-1.45,0-.86a13.89,13.89,0,0,1-2.22-3.48c-.54-2.08-.07-.94.51.26s1.31,2.44.91.88a8.12,8.12,0,0,1-1.74-2.82c-.76-1.6-1.52-3.61-2.09-5.09-.14.55.34,2.33,1.14,4.27a30.67,30.67,0,0,0,2.81,5.29c-.35.21-1.45-.74-2.72-2.76a41.87,41.87,0,0,1-3.85-8.71c-1.82-5.75-.18-2.66-.57-3.64-3.06-10.85-4.16-8.8-6.32-17.93-.59-3.71,1-.48,1.1-1.38,1.65,4.62,1.88,7.29,2.87,10.47l-.95-4A41.27,41.27,0,0,1,25,226.67c-.44-3.13-5.38-18.32-7.89-26.69-.68-1.41-1.76-3.87-1.53-2.6l1,2.58c.43,2.53-2.28-4.7-1.32-1.34a112.38,112.38,0,0,1-5-12.05l.23-1.13A18.88,18.88,0,0,0,12,190.05c-1-1.94-2.05-7.76-3.68-9.68l.93,3.55a126.18,126.18,0,0,1-5.5-11.69c.25,2.14.48,1,1,4.25-.21-3,4.29,11,3.48,6.38.45,3.43,1.77,5.55,2.63,9.9.14-.19-.17-1.59,1.07,2.07a8.08,8.08,0,0,1,.45.73l.08.25-.05-.2c.08.14.09.15,0-.08a11.18,11.18,0,0,1-.39-1.95c1.11,1.63,3.15,7.43,4,9.32.64,2.2-.53-.83-.33.42l1.32,2.83c-.32.43,1.18,6-.74,1l1.47,4.62a71.34,71.34,0,0,0,2.58,8.86c.57,2.23,2.16,5.42,1.24,3.6l2.48,7.23-.09.1c.88,3.08,1.83,6.33,3,9.68a58.2,58.2,0,0,0,4.57,10.3l3.83,6.56.37-7.8a13.88,13.88,0,0,0-.44-4.18l-.11-.28,0-.07a.59.59,0,0,1-.06-.21l-.18-.92c-.12-.65-.24-1.34-.37-2.07-.24-1.47-.49-3.16-.73-5.25l.27-.86c-.58-3.26-1.11-9.84-1.76-11.16.47-3.68-2.57-15.69-3.44-21.35l-.54-.12c-.68-3.88-1.5-7.61-2.64-12.39l-.38.38c-1.16-4.09-1.79-10.75-3.22-17.3a13,13,0,0,1,.71,3.28c-.65-8.05-4.2-16.34-5.17-23.6a21.25,21.25,0,0,1-1-4.24c0,.16.08.31.12.43l-.16-.72c-.08-.78-.17-1.58-.27-2.45,0,.74.1,1.46.19,2.07L15.38,144l.35-.92-.07-.45c-.07-1.94-.41-1.53-.65-.45l-.55-2.6c.48-1.2,0-3.44.21-5.4l-1.76.53a.43.43,0,0,1,0,.15.64.64,0,0,1,0,.07.36.36,0,0,1,0,.11,1.15,1.15,0,0,1-.1.23,4,4,0,0,1-.37.58.07.07,0,0,0,0,.06,2.53,2.53,0,0,1,.15.56A5.1,5.1,0,0,1,13.67,138c.49.85,1,2,1.57,3.12.27.59.52,1.14.85,1.78s.59,1,.87,1.47A5.25,5.25,0,0,0,18.27,146c-.08.11.13.68-.34-.33a48.42,48.42,0,0,0,2.81,6.05l-.16,1.14,2.78,4.27c.88,2.95,1.17,4.2-.46,1.6,3.55,6.44,2.58,5.35,5.64,10.83l-.49-.13c.87,2.06,2.72,5.15,2.93,6.52.58,2.43,2.87,8,5.27,14.61.6,1.65,1.21,3.36,1.79,5.09s1.09,3.47,1.57,5.24c1,3.53,1.78,7.06,2.6,10.23l3.91-.24.1-.54c-.19.34-.31.49-.37.49l-3.37.21s0,0,0,0l3.3-.21c-.11,0,0-.56.07-1.26A19.32,19.32,0,0,0,46,207c0-1.8-.28-3.55-.7-3.69.13-.81-.1-2.63.57-.59-.4-1.64-.74-3.05-1-4.27s-.38-2.4-.56-3.47a31.14,31.14,0,0,0-1.55-6.26c.13-.79.67,1.3.7.61a11,11,0,0,1-.61-2.7c0-.68.41.9.73,1.9-1.35-6.57-2.33-7.05-3.2-7.37a20.45,20.45,0,0,0-1.7-7.33c0-1.21-.1-3.18.81.86-.21-1.15-.85-4.65-1.45-7.89s-1.23-6.22-1.57-6.28a21.26,21.26,0,0,0-.72-3.81c-.91-5.16-.93-5.63-1.92-10.68l.16,1.43c-1.12-1.86-.94-4.18-1.77-8.24l.09.1c-1.16-9.46-1-4-2.07-13.34l-.37.59c-1.18-.66-.94-8.27-2.33-13.53l.1,2a9.57,9.57,0,0,1-.38-2.18c0-.41-.06-.84-.07-1.27,0-.22,0-.44,0-.67v-.56c0-.07,0-.15,0-.22a8.89,8.89,0,0,1,.69-4.36L24,106.9c.19.31.36.6.51.86s-.29-.25-.73-.66l4.42-1.25c0,.17,0,.33,0,.47,0-.17.08-.33.12-.45l-4.58,1.29c.68,1,1,1.7,1.23,2s.33.32.44.26.47-.47,1.65,2.06c.05.56-.28.33-.44.41s-.17.48.66,2.36c.56,1.89,5.7,9.87,7.33,15-.25-1.19-.5-2.36.8,0,.9,1.87,1.84,4.52,2.83,7.09A30.11,30.11,0,0,0,41.21,143c.15.52.16.73.11.78.18.35.38.76.6,1.21l.9,1.9L45,151.53a47.46,47.46,0,0,0,3.1,6,29.8,29.8,0,0,0,1,3.46c.46,1.24,1,2.72,1.61,4.36a38.31,38.31,0,0,0,1.82,4.13A21.85,21.85,0,0,0,54,171.94c.44.64.79,1.2,1.17,1.82a11,11,0,0,1,.93,1.79,29.5,29.5,0,0,1,1.32,3.76l.42.88c.27.53.64,1.25,1.09,2a22.87,22.87,0,0,0,1.5,2.31c.27.36.5.66.71.89l.22.27s0,0,0,0,0,.16,0,.19l0,.1.11.13s0,0,0,0l.07,0,.12-.08a1,1,0,0,0,.18-.18,1,1,0,0,0,.19-.48c-.29-1.69-.61-3-1-4.34s-.74-2.6-1.14-3.94c-.09-.7.37.87.53,1.33-.13-.71-.24-1.39-.34-2.09s-.2-1.47-.29-2.11-.21-1.39-.3-2-.23-1.35-.36-2-.38-1.68-.59-2.57-.41-1.76-.81-3.09l-2.39-8.17a2.81,2.81,0,0,0,.54.17c-.55-1.8-1.24-5.8-2.38-11.79l-.78-4c-.21-1.1-.44-2.23-.68-3.37-.49-2.29-1-4.59-1.69-6.74a2.17,2.17,0,0,1,.43.91c-1.39-4.85-2.43-10.8-3.58-15.94s-2.33-9.42-3.71-11l-2.31-6.25c2.32,8.28-1.11-1-.39,2.47-1.06-3.2-2-8.51-.71-4.57l.1.65c1.36,1.18-2.82-10.3-2.15-10.27-.45-1.42-.9-2.84-1.34-4.25-.32-1.08-.65-2.15-1-3.22-.63-2.08-1.1-4-1.53-5.66S33.54,70.29,33.1,69a3.07,3.07,0,0,1,.13-2,21.23,21.23,0,0,1,1.45,2.64c.14.29.27.59.4.88L32.7,63.82s.41.87.78,1.75l.74,1.74c.74,2,1.6,4.69.81,2.8.7,2,.74,1.93.71,1.58a12,12,0,0,0-.24-1.48c1.29,3,1.29,3.41,1.27,3.78a1.25,1.25,0,0,0,.1.94l.48.84-.26-.71c.06-.55-.18-1.75,1.08.87a10,10,0,0,1,.63,1.91,3.83,3.83,0,0,0,.21.87,1.91,1.91,0,0,0,.37.78l1.33,2.83s0-.38-.11-.87-.2-1-.2-1a19.63,19.63,0,0,1,1.18,2,1.27,1.27,0,0,0,.18.26c.06.08.1.1.11,0a4,4,0,0,0-.13-1c0,.24.11.5.2.79s.3.82.49,1.29c.39,1,.88,2.09,1.44,3.32,1.13,2.45,2.53,5.32,3.88,8.13,2.71,5.63,5.41,11,5.9,12.39A130.12,130.12,0,0,1,60,119.92c-.46-1.24-.22-2.22,1.69,1.91-2-.93,3.19,7.76,3.64,11.46-.42-2,1.68,2.87,2.68,5.82l1.61,4.76,1.52-4.6a4.06,4.06,0,0,0,.18-.78c0-.18,0-.37,0-.53a7.09,7.09,0,0,0-.07-.76,4.19,4.19,0,0,0-.2-.87c-.14-.3-.2-.09-.29,1-.15-2.08-.12-2.09.06-2.08s.39.17.23-1.34c-.3-1-.59-2.05-.9-3.12-1.42-8.13-2.21-17.73-3.79-27.46-.2-.15-.2,1.74-.81-.59v-6c-.41-2.17-1.3-1.86-1.29-5.94-.06.58-.15,1.46-.43,0-1.18-10.89-3-21.93-4.72-33-.91-5.56-2-11.11-3-16.64s-2.11-11-2.9-16.56c.32,3-.15,1.07-.66-1.18.25,1.48-.43.06-.6.4l-.72-4.63c-.37-2.32-.83-4.65-.83-4.65a34.59,34.59,0,0,1-2-5.46c-.66-2.31-1.6-4.65-2.15-5,0,0,.37.71.68,1.42S47.57,7,47.57,7c-1-1.79-.91-.29-.8,1.54s.33,4.08-.22,3.94c1,2,1.47,4.83,1.94,8a43.16,43.16,0,0,0,2.39,10.15c.16,1.6-.6-1.26-.63-.38a29.88,29.88,0,0,1,2.06,7.84l-.2-.43c1.24,5.59,1.94,9.61,2.57,13.82s1.15,8.6,1.94,15l.33-1a43.57,43.57,0,0,1,.36,4.65c1.17,3-1.1-7.7.11-5-.42,3.78,2.84,19.33,2.11,21.94.62,4.22.36-1.31,1,2.9l-.13,1.16.54,1c.34,2.77.18,4.22-.05,4.36-.07-.68-.35-1.9-.48-2.61.18,3.63,1.61,10.08,1.68,11.33l-.42-4.08c.81,4.69,1.57,9.82,2.34,15s1.57,10.43,2.44,15.38c.3,1.1.59,2.17.88,3.22a24.43,24.43,0,0,1,.6,2.79l.08-.36c0-.2.07-.39.07-.39.06.35.11.68.13.92s0,.24,0,.3v.05h0l.2.06a2.2,2.2,0,0,1,.39.17l2.18-.12c-1.09-3-1.58-4.41-2.16-6.05a59.84,59.84,0,0,0-3.25-7.35l.2.29a57,57,0,0,1-3.33-6.16c1.28,2-1.48-4.25.14-1.56-4.46-8.2-2.32-4-5.75-9.18l-.28-1.44a32.45,32.45,0,0,1-3.59-6c2,3.33-.8-3,1.46.75a78.86,78.86,0,0,0-5-10.47c-1.47-2.62-2.61-4.65-3.08-6.94-2.93-3.61,3.29,7.9,2,5.73.65,2-2.35-3-3.63-5.84a14,14,0,0,1-.83-2.15c-.27-.82-.63-1.91-1.1-3.21s-1.1-3-2-5-2-4.39-3.29-7.06c.53,1.08.54.93,1.08,2-1-2.4-2-4-3.09-6.42C34.43,60,33.29,57.62,32,55c-.19.54-.78-.49-1.29-1.31a2.81,2.81,0,0,0-.56-.78c-.08,0,0,.3.2,1.15l.48.82L32,56.74c.42.68.88,1.41,1.25,2l.63,1.11c-1.15-1.91-1.69-2-2.52-3.12-.76-1-1.49-2.73-3.12-6.41,0-.19.44.49.76,1a20.9,20.9,0,0,0-1-2.21c-.27-.51-.56-1-1-2l-.18-.34a2,2,0,0,1-.12-.52c0-.32.78,1.09,1.6,2.68.41.81.88,1.69,1.39,2.49A6.39,6.39,0,0,0,31,53.12a21.46,21.46,0,0,0-2.26-3.64,6.12,6.12,0,0,1-1.05-2.57c.14.88,0,.76-.34.19s-.8-1.59-1.37-2.64a1.74,1.74,0,0,0-.83-.65.81.81,0,0,0-.41,0l-.23.08c0-.06-.05.19-.07.38l0,.57-.27-1.23a26.46,26.46,0,0,0-.07,4.27,14.79,14.79,0,0,1-.26-1.67c-.09-.87-.11-1.82-.11-1.82,0,1.27,0,2.19,0,2.8a6,6,0,0,0,.07.69.93.93,0,0,0,.06.18l.07.54a37.9,37.9,0,0,0,.78,5.12c-.7-3.93-.61-4-.36-3.39s.7,1.92.54.68c1.49,5.77,1.45,6.4,1.18,7a2.76,2.76,0,0,0-.28,1.45,18.32,18.32,0,0,0,.16,1.93c.06.43.13.92.22,1.48a13.94,13.94,0,0,0,.38,1.35c.16.55.34,1.12.52,1.72-.22-.68-.47-1.57-.7-2.43a1.53,1.53,0,0,1-.08-.45v-.32a4.83,4.83,0,0,1,0-.54c0-.6.19-.63.62.85.05.44.1.92.16,1.4.2.82.41,1.64.6,2.44.37,1.56.71,3.06.84,4,1,3.19,1.54,4.83,1.76,5.38s.18.15.07-.45c-.24-1.25-.61-3,.37-.35.43,3.3,2.27,6.42,3.75,10.5L34,86c2.42,8.77,1.69,2,3.75,9.93l-1.66-3.11,1.42,4-.79-.68a60.19,60.19,0,0,1,3.17,10.13c0-1.11,1,.32,2.11,4.19.45,2.72-.83-1.36.71,4.12a11.36,11.36,0,0,1-1.58-4.92c-.22-.21-.64-1.14-.86-1.35.49,2.92,1.9,7.15,2.41,9.14-.18-.77-.39-1.69-.46-2.17l1.36,3.9c.65,2,1.31,3.92,1.31,3.92.13,1.31-.26.34-.63-.62.44,1.61.92,2.69,1.53,5.07-.53-.53-.89-.29-1.87-3.63l2.21,7.56c0,.55.43,4,.07,3.08a74.21,74.21,0,0,0,1.92,7.49c.09.32.18.64.28,1l.12.28c.08.2.17.42.24.64a3.92,3.92,0,0,1,.24,1.23,5.42,5.42,0,0,1,.45,1.08,10.39,10.39,0,0,1,.09,1.57,20.08,20.08,0,0,0,1.09,3.79l-.76-1.88L49,147.6c.31,1,.92,2.61,1.5,4.13s1.18,3,2,6c.17.6.26,1,.29,1.17.11.62-.42-.86-1-2.57s-1.22-3.62-1.46-4.2c.16.53.32,1.1.5,1.72s.19.87.27,1.27a10.48,10.48,0,0,1,.24,1.63c0,.54-.42-.55-1.31-3.52C50.06,152.87,50.44,154.09,50.55,154.26Zm-17-38c.59,1.06,1.87,3.13,2,4C34.45,119.25,34.25,118.17,33.54,116.22Zm5.59,69.65a15.69,15.69,0,0,1-.67-3.8A30.21,30.21,0,0,1,39.13,185.87Zm-20,29.37.07.11C19.85,218,19.64,217,19.17,215.24Zm-1.48-5.39c-.23-.52-.28-.46-.27-.21a15.8,15.8,0,0,1,1,2.89A7.94,7.94,0,0,0,17.69,209.85ZM39.09,78.47l-.28-.86C39.36,78.42,39.22,78.41,39.09,78.47Z"/><path class="cls-1" d="M36.34,175.46a.82.82,0,0,1,.15-.56C36.32,174.45,36.22,174.46,36.34,175.46Z"/><path class="cls-1" d="M49,145.27s0,0,0,0a1.16,1.16,0,0,0-.13-.2Z"/><path class="cls-1" d="M24.37,207.81a14.55,14.55,0,0,1-.16-2.24C24.08,205.53,24.08,206.07,24.37,207.81Z"/><path class="cls-1" d="M7,182.31l1.41,3.29a26.36,26.36,0,0,1-1-3.06C7.27,182.65,7.36,183.35,7,182.31Z"/><path class="cls-1" d="M0,172.45c.09.52.08,1.11.18,1.62l.21-.16C.22,171.69,0,170.13,0,172.45Z"/><path class="cls-1" d="M7.23,178.64c.27-.42-.69-2.45-1.7-4.75l.16.41C4.89,173.82,6.07,176.23,7.23,178.64Z"/><path class="cls-1" d="M5.29,173.35c-.31-.71-.63-1.43-.9-2.13C4.06,171,4.71,172.1,5.29,173.35Z"/><path class="cls-1" d="M15.22,203.22c-.28-1.16-.73-.54-.79-1.22C13.52,200.9,17.55,209.27,15.22,203.22Z"/><polygon class="cls-1" points="7.72 176.25 7.58 177.28 8.48 178.44 7.72 176.25"/><path class="cls-1" d="M14.45,194.93l-1.25-3.82c-.06.09-.28-.37-.53-1A43.5,43.5,0,0,0,14.45,194.93Z"/><path class="cls-1" d="M12.67,190.16a30.12,30.12,0,0,0-1.22-3C11.71,187.82,12.25,189.22,12.67,190.16Z"/><polygon class="cls-1" points="9.88 181.31 10.21 182.46 11.2 185.12 9.88 181.31"/><path class="cls-1" d="M27.36,236.13s.33,1,.67,2.09l.7,2.09c.3.37,0-.8-.49-2.35C27.84,237,27.34,235.43,27.36,236.13Z"/><path class="cls-1" d="M24.94,223a7.69,7.69,0,0,1,.19,2l.64-.05Z"/><path class="cls-1" d="M28.69,235.26c.27.39,2.22,5.94.66.65C29.06,235.54,27.75,231.34,28.69,235.26Z"/><polygon class="cls-1" points="24.81 200.82 25.02 201.92 26 201.58 24.81 200.82"/><path class="cls-1" d="M10.58,144.13c.29,2.7.55,3,.73,3.19s.35.39.7,2.76c.48,1.17-.55-3.89-.08-2.68C11.08,144.3,11.05,142.55,10.58,144.13Z"/><path class="cls-1" d="M11.93,147.4c.14.49.29,1,.47,1.57C12.15,148.08,12,147.66,11.93,147.4Z"/><path class="cls-1" d="M49.16,8.38s-.19-.83-.43-1.69S48.21,5,48.21,5s.14.59.25,1.16.21,1.14.21,1.14Z"/><path class="cls-1" d="M45.72,2.22a2.76,2.76,0,0,0-.06-.61c-.06-.32-.14-.66-.14-.66A4.8,4.8,0,0,0,42.73,0L41,0l-.17,1.06-.1.57L41,1.14,41.48,0l1.24.1a3.66,3.66,0,0,1,2.15,1,3.63,3.63,0,0,1,.55.61A2.39,2.39,0,0,1,45.72,2.22Z"/><path class="cls-1" d="M30.89,107.17l-.27-.19a18.57,18.57,0,0,0,1.06,2.85s-.19-.65-.37-1.29S30.89,107.17,30.89,107.17Z"/><path class="cls-1" d="M47.14,144.75l-.06-.18s0,.3,0,.67,0,.76,0,.76S47.13,144.72,47.14,144.75Z"/><path class="cls-1" d="M47.73,144.13s0,0,0,0l.17.55c.07.23.16.5.09.34-.16-.57.6,1.66.72,1.93S48.59,146.58,47.73,144.13Z"/></g></g></svg>