<svg xmlns="http://www.w3.org/2000/svg" viewBox="0 0 113.77 674.42"><defs><style>.cls-1{fill:#232323;}</style></defs><g id="Layer_2" data-name="Layer 2"><g id="Objects"><path class="cls-1" d="M66.47,0a1.76,1.76,0,0,0,.24.12s0,0,0,0a1.09,1.09,0,0,0,0,.17,3.58,3.58,0,0,0,0,.64,9,9,0,0,0,.24,1.31,12.94,12.94,0,0,0,.43,1.45c.19.49.24,0,.39.73-.15-1.09-.33-1.72-.44-2.3A12.71,12.71,0,0,1,67.08.87a4.56,4.56,0,0,1,0-.57s0,0,0,0l-.29-.1L66.62.11l-.06,0A.57.57,0,0,1,66.43,0L62.81.85a3,3,0,0,1,.26.25,1.13,1.13,0,0,1,.19.18c.09.08.11,0,.09-.08A1.36,1.36,0,0,0,63.2.81L63.05.59,66.43,0Z"/><path class="cls-1" d="M94.14,121.24l-.77-2.1s1.37,4.45,2.73,8.9c.69,2.22,1.37,4.43,1.83,6.09s.74,2.78.74,2.78L98,134.46c-.39-1.46-1-3.41-1.55-5.37C95.32,125.16,94.14,121.24,94.14,121.24Z"/><path class="cls-1" d="M66,62.28c1,2.7,2.21,6.65,3.6,11.29.69,2.32,1.54,4.78,2.44,7.41s1.86,5.35,2.83,8.17c2,5.61,4.15,11.47,6.41,17.1s4.62,11,6.8,15.77l1.35,3.18s1.17,2,2.39,4.08,2.46,4,2.46,4c-3-5.55-6.1-11.66-8.93-18S79.91,102.4,77.56,96s-4.49-12.7-6.44-18.42S67.81,66.55,66,62.28Z"/><path class="cls-1" d="M77.48,119.26c-.49-1.9.65,1.33.76,1.66s-.87-2.23-5.17-15.71c.39,1.37.51,1.76.73,2.56C74.58,110.19,75.6,113.55,77.48,119.26Z"/><path class="cls-1" d="M73.8,107.77c-3.75-11.87,2.23,7.84,0,0Z"/><path class="cls-1" d="M92,162.11s-.27-.93-.75-2.31c-.23-.68-.53-1.48-.87-2.33l-.26-.64L90,156.6a1.51,1.51,0,0,1-.11-.32l-.13-.39c-.15-.47-.31-.95-.46-1.44-1.25-3.86-2.59-7.71-2.59-7.71.48,1.63,1.75,5.91,2.71,9.14.07.26.15.51.22.75s.17.43.24.64.24.66.34.95c.21.57.35,1,.44,1.34.17.59.13.5-.32-.69A56.52,56.52,0,0,1,92.63,167c.35,1.74.47,2.53.52,2.54a9.34,9.34,0,0,0-.16-2.06A47.18,47.18,0,0,0,92,162.11Z"/><path class="cls-1" d="M94.34,175.22a2.7,2.7,0,0,0,.31-.69,2.82,2.82,0,0,0,0-1.58,4.83,4.83,0,0,0-.16-.5c-.08-.19-.16-.38-.23-.57a2.44,2.44,0,0,1-.11-.6l-.09-.84c0-.22-.06-.42-.08-.61l-.19-1.25c0,.35.08.75.13,1.22,0,.23,0,.49.08.76l0,.49c0,.25,0,.52.09.79s.19.45.29.7.09.23.12.34a4.61,4.61,0,0,1,.15.72A2.74,2.74,0,0,1,94.34,175.22Z"/><path class="cls-1" d="M88.78,151.73l.87,2.66c.12.4.26.83.41,1.29l.11.34.08.25c0,.11.07.19.11.31s.19.46.29.7c.37.94.74,1.94,1.08,3a53.38,53.38,0,0,1,1.55,5.7c.33,1.57.49,2.64.49,2.64a27.45,27.45,0,0,0-.32-2.77A26.8,26.8,0,0,0,92,160.9c.29.65.17.16-.36-1.33-.27-.75-.66-1.75-1.18-3-.25-.64-.29-.85-.43-1.24s-.24-.73-.37-1.12C89.37,153.47,89.08,152.63,88.78,151.73Z"/><path class="cls-1" d="M85.74,142.07c-2.79-8.73-6.57-20-1-4.53-5.15-14.77-7.38-21.11-7.13-20,.12.57.86,3,2.23,7.14S83.22,134.68,85.74,142.07Z"/><path class="cls-1" d="M63.42,63.93q-.35-1.66-.6-3.36l1.31-.43a60,60,0,0,1,3.19,8.41s.88,2.52,1.72,5,1.75,5,1.75,5c-1.39-3.48-3.93-13.67-6.54-18.5l-1.57.52A16.25,16.25,0,0,0,63.42,63.93Z"/><path class="cls-1" d="M63,99.51c-.47-.92,1.37,5.34,1.58,6.55l2,5.67c1,2.82,2.09,5.65,2.09,5.65C66.65,111.54,63,100.37,63,99.51Z"/><path class="cls-1" d="M64.53,106.06l-6-17C63.62,104.35,64.71,107.07,64.53,106.06Z"/><path class="cls-1" d="M95.05,175a9.85,9.85,0,0,0,1.41.83l-1.93.39a3.92,3.92,0,0,0,.94-2.25,3.84,3.84,0,0,0-.13-1.2c-.06-.21-.13-.41-.22-.64l-.24-.57-.07-.62a52.43,52.43,0,0,0-1.23-6.67,54.84,54.84,0,0,0-2-6.41c-.21-.53-.4-1-.64-1.58s-.22-.66-.32-1l-.27-.82-1.09-3.29,1.08,3.29.26.82c.11.3.14.47.33,1s.43,1.05.63,1.59a53.33,53.33,0,0,1,2,6.4A52.91,52.91,0,0,1,94.75,171l.07.62.25.58c.09.23.15.43.21.63a3.63,3.63,0,0,1-.81,3.39l2-.41a9.19,9.19,0,0,1-4.44-4.59,10.41,10.41,0,0,0,1.25,2.13A9.5,9.5,0,0,0,95.05,175Z"/><polygon class="cls-1" points="67.18 135.94 63.51 126.35 69.97 143.46 67.18 135.94"/><path class="cls-1" d="M82.69,179.12c-2.86-7.05,3.07,10,.17,2.47C85,187.46,87,192.82,89,198s4.1,9.61,5.49,13.94c-1.42-4.62-3.48-9.32-5.54-14.83S85,185.77,82.69,179.12Z"/><path class="cls-1" d="M98.22,212a68.28,68.28,0,0,0,3.74,5.86l-5.69,2a37.28,37.28,0,0,0-1.77-7.9,38.06,38.06,0,0,1,1.7,7.9l5.81-2Q100,215,98.22,212Z"/><path class="cls-1" d="M59.3,110.15c.35,1.36.94,4,4.11,13.68l-1.88-6.89Z"/><path class="cls-1" d="M61.47,116.69l.06.25,4.94,14.58Z"/><path class="cls-1" d="M58.74,108.44c.21.63.36,1.09.56,1.71A12.19,12.19,0,0,0,58.74,108.44Z"/><path class="cls-1" d="M74,133.76c-2.12-4.85-5.1-12.45-6.63-16.34s-1.78-4,1.73,6.12c1.48,3.51,1.19,2.37,1.27,2.22S70.85,126.44,74,133.76Z"/><path class="cls-1" d="M56.57,99.82l-2.15-7.23-.27-.9-.08-.3a.51.51,0,0,0-.11-.22l-.21-.34c-.1-.16-.19-.33-.28-.5A8.14,8.14,0,0,1,53,89.24a7.35,7.35,0,0,1-.08-4.9l1.79-5.12,1.69,5.11,1.3,3.93c0-.39-1-3.73.82,1.22l-1.84-5.25-2.07-5.88-2,5.9a7.66,7.66,0,0,0,.15,5.07,9.2,9.2,0,0,0,.5,1.1c.1.17.19.35.3.51l.15.25.06.08a.38.38,0,0,1,.1.2l.09.28.29.89Z"/><polygon class="cls-1" points="59.56 108.78 56.57 99.82 58.69 106.65 59.56 108.78"/><path class="cls-1" d="M89.42,196.05c1.45,3.69,3.08,7.38,4.52,11.3A46.31,46.31,0,0,1,97,219.74l4.33-1.5c-.33-.5-.7-1-1-1.57.33.53.69,1.05,1,1.58L97,219.74c-.29-4.74-1.88-9.65-3.68-14.46-.9-2.42-1.87-4.83-2.81-7.28s-1.78-4.87-2.66-7.27C87.24,189.34,85.4,185,89.42,196.05Z"/><path class="cls-1" d="M75.64,157.55l.65,1.73A6.44,6.44,0,0,0,75.64,157.55Z"/><path class="cls-1" d="M58.88,125.2c.18.53.33,1,.51,1.53.07.11.13.19.21.33Z"/><path class="cls-1" d="M87.33,189c-2.73-7.81-4.51-12.42-6.23-16.81l6.78,18.57C88.17,191.35,88.26,191.46,87.33,189Z"/><path class="cls-1" d="M85.68,187c1.76,3.92,3.8,8.32,6,13C89.93,196.07,86.42,188.29,85.68,187Z"/><path class="cls-1" d="M77.12,161.94c-.14-.39-.28-.74-.43-1.16C77.52,163.36,77.45,163,77.12,161.94Z"/><path class="cls-1" d="M77.12,161.94c1.51,4,2.75,7.09,4,10.22-1.76-4.71-3.4-9.09-4.81-12.88C76.61,160.25,76.91,161.23,77.12,161.94Z"/><path class="cls-1" d="M51.47,114.54a51.24,51.24,0,0,1-2.62-8.61l0,0c3.2,7.74,7.82,19.74,11.86,30.72,3.54,8.53,4.54,9.84,3.93,7.15s-2.73-9.41-5.3-17c-.37-.47-.51-.4-7.58-18,1.1,3.14,4.77,13,7.42,20.25s4.31,11.8,1.21,4.41c-8.39-21-7.58-19.81-10.49-27.85l-2.2.66c.15.82.36,1.86.63,3.06-.93-5.19.85,2.74,3.83,10.85s6.21,16.74,5.65,14l-1.17-3.24c-.7-2-1.62-4.55-2.54-7.15s-1.81-5.21-2.44-7.18-1-3.29-1-3.29C50.65,112.83,53.15,120.42,51.47,114.54Z"/><path class="cls-1" d="M72.91,160.2l3.18,7.11c-3.54-8.14-5.89-14-10-25-5-12-6-14.46-6.51-15.24,0,0,3.44,9,7,17.87,1.8,4.45,3.63,8.88,5,12.19l2.37,5.5Z"/><path class="cls-1" d="M90.94,199c-3.11-5.26-11.25-22.14-6.77-11.56,4.93,10.32,6.84,13.88,8.16,16.42l2,3.69c.78,1.43,1.77,3.3,3.48,6.2-2.26-3.94-3.67-6.9-4.68-8.95l-1.79-3.74c-.49-1,.27.43,1.17,2.17s2,3.76,2.08,3.85a7.75,7.75,0,0,0-.67-1.6c-.57-1.2-1.49-3.17-2.91-6.2,3.26,6.55,6,12.38,9.27,17.38a151,151,0,0,1-8.61-16.75c.14.31.23.53.34.78l.08.16,0,0c.65,1.46.84,1.95.09.31,0-.11-.26-.51-.34-.69A15.43,15.43,0,0,1,91,199c-4.61-9.65-.65-1.58.88,1.44.07.1.21.35.25.38L92,200.7s-1-2.08-2.57-5.2-3.56-7.26-5.55-11.43c-4-8.33-7.81-16.76-7.81-16.76C79.24,174.48,83.27,183.41,90.94,199Z"/><path class="cls-1" d="M61.63,105.22c-.34-1.1-.29-1.06-.29-1.15C60.52,101.81,60.2,101,61.63,105.22Z"/><path class="cls-1" d="M57,90.68c.91,2.54,1.77,4.62,4.52,12.93,2.32,7.24-.2,0-.21.46,1.8,5,6.31,17.36,1.11,1.65l-.9-2.46c-2-6.14-4.15-13.08-5.9-18.68l-.92-3-1.06,3a6.62,6.62,0,0,0-.29,3.34,8.16,8.16,0,0,0,1.07,2.76,1.68,1.68,0,0,1,.2.37l.11.4.28,1,.48,1.78c.56,2.11.8,3.1.57,2.39-.32-1.54-.64-3-1.06-4.82l-.15-.65-.05-.27-.14-.24A8.68,8.68,0,0,1,54,89.06a6.37,6.37,0,0,1,0-4.37l.82-2.12.52,2.12C55.61,85.81,56.25,88,57,90.68Z"/><path class="cls-1" d="M78.32,161.32l10.69,29-5-14.91.06.82C78.19,159.66,79.22,163.32,78.32,161.32Z"/><polygon class="cls-1" points="57.81 121.83 59.71 125.48 52.68 109.08 57.81 121.83"/><path class="cls-1" d="M52.78,127.87l-.85-1.28,1.82,5,1.86,5Z"/><path class="cls-1" d="M58.58,421.06l-2.36-3.89-2.33-3.92C56.07,417,57.51,419.34,58.58,421.06Z"/><path class="cls-1" d="M95.61,464.24l-.06-.06,0,0-.16-.25c-.23-.34-.45-.69-.45-.69.17.32.32.61.47.87a.65.65,0,0,0,.09.16l.09.13a2,2,0,0,1,.19.16c.15.14.28.29.39.4s.32.4.35.41a1.36,1.36,0,0,0-.23-.35,5,5,0,0,0-.37-.45l-.14-.16-.09-.08Z"/><path class="cls-1" d="M107,372.53a7.52,7.52,0,0,1-2.63-2.6,10.49,10.49,0,0,1-.87-1.78l-.26-.7a8.81,8.81,0,0,0-.44-.79c-.2-.35-.4-.7-.61-1.05-1.61-2.78-3.14-5.4-4.43-7.62-2.55-4.4-4.11-7.25-3.92-6.45l1.66,3.68c2.43,3.91,4.57,7.36,6.51,10.47l.71,1.16a4,4,0,0,1,.49.93l.13.34.1.24a11.2,11.2,0,0,0,1,1.79A7.58,7.58,0,0,0,107,372.53Z"/><path class="cls-1" d="M79.72,388.75l1.93,3.36c1.83,2.63,3.56,5.11,5.11,7.32C84.62,396.24,82.21,392.6,79.72,388.75Z"/><path class="cls-1" d="M73.35,381.69s-2.18-3.79-4.28-7.62-4.13-7.71-4.13-7.71C66.73,369.87,69.38,374.83,73.35,381.69Z"/><path class="cls-1" d="M44.08,426l5,9.31C41.86,420.47,44.86,427.09,44.08,426Z"/><path class="cls-1" d="M98.65,282.15a66.74,66.74,0,0,1-4.5-6.42c-.65-1.07-1.25-2.11-1.83-3.16s-1.25-2.15-1.83-3.17c-2.34-4-4.38-7.71-6.25-11.2,1.57,3,3.09,5.89,4.54,8.52l2.12,3.78c.72,1.2,1.35,2.43,1.92,3.44A41.32,41.32,0,0,0,98.65,282.15Z"/><path class="cls-1" d="M76.21,440.5c-3.12-4.56-4.45-6.51-4.44-6.32C74.91,438.92,76.78,441.53,76.21,440.5Z"/><path class="cls-1" d="M69.8,228.84c.77,1.85,1.56,3.64,2.37,5.5,3.55,7.46,7.32,14.94,12.07,23.86-2.31-4.47-4.71-9.32-7.17-14.29S72.18,233.87,69.8,228.84Z"/><path class="cls-1" d="M61.59,590.66c.46.82,1,1.81,1.45,2.55A18.47,18.47,0,0,0,61.59,590.66Z"/><path class="cls-1" d="M26.91,582.88c-1.84-3.27-4.75-8.65-7.36-13.8C20.82,571.59,22.92,575.82,26.91,582.88Z"/><path class="cls-1" d="M83.35,219c3.67,7.63.62,1.19,0,0Z"/><path class="cls-1" d="M94.25,240.45a31.2,31.2,0,0,0,1,3.21C95,243,94.68,241.88,94.25,240.45Z"/><path class="cls-1" d="M53.55,205l.23.7C53.07,203.23,53.19,203.65,53.55,205Z"/><path class="cls-1" d="M88.75,230.57c-1.38-2.86-3-6.17-4.64-9.78C84.84,222.38,86.2,225.37,88.75,230.57Z"/><path class="cls-1" d="M88.17,228.94l1.77,3.61,1.47,3.14c.26.46.3.48-.13-.46L90.22,233l-.91-1.8C89,230.52,88.59,229.78,88.17,228.94Z"/><path class="cls-1" d="M78.37,208.32c2,4.4,3.92,8.51,5.74,12.47-.69-1.52-1-2.16-.76-1.76C82.28,216.79,80.79,213.61,78.37,208.32Z"/><path class="cls-1" d="M51.84,517.54c-.3-.48-.67-1-1-1.55-2.43-3.55-3.1-4.56-2.73-4S49.94,514.8,51.84,517.54Z"/><path class="cls-1" d="M77,335.37c-.14-.37-.22-.56-.35-.9.13.37.3.85.41,1.18Z"/><path class="cls-1" d="M88.29,363.64a281,281,0,0,1-11.28-28l1.16,5,1.19,4.95s2.16,4.56,4.4,9.08S88.29,363.64,88.29,363.64Z"/><path class="cls-1" d="M62.35,439.72l-4.2-9.85L54,420c5.39,11.73,10.15,21.8,12.47,26.68s2.25,4.52-1.67-4.75c-.62-.55-3.11-5.55-6.43-12.81S51,412.28,46.93,402.71c-2-4.79-4-9.6-5.79-14.13L38.57,382c-.82-2.12-1.59-4.13-2.31-6-1.5-3.67-2.77-6.79-3.7-9.08A31.33,31.33,0,0,0,30.9,363a36.86,36.86,0,0,1-.85-4.31l-4.47,1.75A75.63,75.63,0,0,1,30,368.47c-.89-1.78-1.45-2.78-2-3.76s-1.13-1.95-2.15-3.56c1.7,2.8,2.95,5.32,4.06,7.53s2,4.12,2.92,5.8c1.74,3.35,3.14,5.79,4.67,8.44,3.11,5.28,6.6,11.48,15.23,27,6,10.81,10.42,18.28,5.92,11.12,0,0,3.59,5.91,7.35,11.71s7.67,11.5,7.67,11.5c4.51,6.67,3.19,5.19-1.27-1.47,6.56,9.79,13.51,19.34,20.93,28.51l2.35,2.9,1.4-3.5a5.5,5.5,0,0,0,.07-3.8,6.57,6.57,0,0,0-.86-1.6c-.17-.23-.35-.44-.53-.64l-.14-.15-.1-.09L94.72,463l.17.26-6-11.45c-2.3-4.41-4.63-8.88-6.15-11.82-4.52-9.66,2.48,4.73,1.43,2.21L73.63,421.44c-3.85-8.65,4.93,8.48,12,22.9-4.17-10-6.37-14.32-10-21.39-1.82-3.54-4-7.77-7-13.77-1.48-3-3.18-6.43-5.08-10.46s-4-8.66-6.46-14l4.8,9.86c2.38,4.95,4.85,9.84,4.85,9.84-1.4-3.25-2.89-6.66-4.52-10.3l-5.33-11.63c-3.8-8.3-8.17-17.79-12.64-29.25.51,1.37,1.86,4.93,3.54,9.12s3.69,9,5.34,12.92c3.3,7.85,5,12.18-.5.85l-5.11-11.49c-2-4.51-4.28-9.76-7-16,.14-.1-.41-1.59-1.36-4.1a83.85,83.85,0,0,1-3.35-10.36l-3.17,2.64c0,.07-.07.23-.06.22l0,0,0,0s0,0,.08,0,.24.22.37.32.28.3.43.45a6.51,6.51,0,0,1,.44.53,25.92,25.92,0,0,1,1.8,2.65c1.17,2,2.31,4.19,3.4,6.53l-1-.73,1.33,2.79c.23.49.46,1,.67,1.42s.44.81.65,1.19c.83,1.49,1.53,2.77,2.15,3.89,1.25,2.24,2.17,3.83,3,5.22,1.63,2.78,2.84,4.73,5.46,9.33,9.47,17.7,11.21,21.51,13.18,25.85,16.23,27.83-10.64-19.54,8.87,13.21,5.12,8.66,9.84,16.24,14.57,23.8L95.13,445c.61,1,1.23,2,1.85,2.94l.46.72a1.14,1.14,0,0,1,.17.38,15.44,15.44,0,0,0,.81,1.88,14,14,0,0,0,5.93,6.16l5.33,2.81-2.26-5.51a215.58,215.58,0,0,0-9.59-19.58c-8.32-16.67,1.83,2.72-1.06-3.31l-4-7.24c-1.94-3.65-3.89-7.29-3.89-7.29-1.77-3.64-1.06-2.54-.69-2-3.14-6.21-3.39-6.41-4.09-7.5s-1.85-3.06-6.54-13c-1.56-2.54-6-12.86-11.34-25.7S54.87,340.62,49.6,328.13c-2.26-6.31,1.54,2.87,1,.87-2.52-6.24-4.59-11.14-6-14.86s-2.32-6.26-2.81-7.66l-3.52,1.42c3,6,4.67,10.36,6.79,15.32s4.55,10.59,8.75,19.46c0,0,2.56,6,5.34,11.93,1.38,3,2.82,5.91,3.92,8.1l1.86,3.65c-1.09-2.15-1.83-3.7-2.29-4.73A6.45,6.45,0,0,1,62,360c.1-.12,1.08,1.55,2.7,4.32,3.22,5.56,9.14,15.41,15,24.39-3.36-5.9-6.13-11-8-14.42,0,0,4.32,7.36,8.9,14.57,2.28,3.61,4.6,7.2,6.34,9.89s2.91,4.48,2.91,4.48c2.13,3.54.1.75-3.13-3.84l3.49,5.21c3.18,5.22,3.88,6.52,3.11,5.65s-3-4-5.47-7.56c-2.12-3.58-4.24-7.14-6.24-10.62-4.81-6.95-9.18-13.57-8.61-11.86l6,9.52c-1.26-1.83-2.07-3-1.59-2.08s2.53,4,5.66,8.66l3.57,6.94,1.25,1.45A230.28,230.28,0,0,0,101.52,425l1.25,1.61,1.55-1.35a3.66,3.66,0,0,0,1.13-1.59,3.32,3.32,0,0,0,0-2.27,5.21,5.21,0,0,0-1.39-1.95l-.67-1.54-.87-1.93c-.58-1.28-1.19-2.56-1.81-3.83s-1.25-2.52-1.91-3.78-1.24-2.45-1.85-3.69c-7.44-14.12-14.35-27.38-21.44-43.14-3.51-7.89-7-16.43-10.9-25.93s-7.88-20-12.17-32c4.71,11.7,1.71,2.26,2.52,2.7,2,6.63,5.44,15.85,9.64,26.42,2.09,5.3,4.38,10.93,6.76,16.76s4.87,11.84,7.47,17.87c-2.7-6.3-3.6-8.81-3.72-9.33s.6.94,1.32,2.53c0,0-1.15-2.69-2.86-6.72s-3.93-9.48-6.12-14.92c-4.4-10.86-8.57-21.82-8.57-21.82.83.81-3.09-9.45-6.91-21.12.57,2.42,0,1.22-1.36-2.18a117,117,0,0,1-4.9-15.51l-2.6,1c2.74,5.05,4.83,11.22,7,17.05s4.52,11.2,6.32,15.3c.08.61-.42-.1-2-3.67-.8-1.79-1.88-4.3-3.27-7.73s-2.91-7.92-5-13.28c1,3,2,5.77,2.89,8.32s1.85,5,2.76,7.13c1.83,4.36,3.57,8.14,5.34,11.88,3.53,7.48,7.15,14.83,12.15,26.44-2.39-5.17-3.61-8-4.7-10,5.72,12,19.4,41.5,15.88,34.71L78,360.3c3.93,8.42,8.93,19,14.58,30.06s12,22.63,18.37,33.09l2.82-1.34a154.86,154.86,0,0,0-7.54-16.55c-2.55-5-4.74-9.6-6.66-13.6-3.82-8-6.39-13.47-7.17-14.69-.05-.39,2.93,4.11,4,6.12,0,0-7.58-15-14.4-30.45-3.43-7.69-6.66-15.49-9-21.35s-3.92-9.79-3.92-9.79c1.32,2.68.52-1.5.73-2.67s1.34.69,6.82,15.34L63.92,297.56c1.79,5.86,3.8,14.84,1.09,6.91L59.38,285.1c-.65-2.23-1.35-4.63-2.39-8.17s-2.4-8.22-4.17-15.05c1,3.73.9,4.2.12,2.45a86.77,86.77,0,0,1-3.62-10.93l-1.42.53a14.63,14.63,0,0,1,1.15,2.73c.07.24.14.49.2.74a7.13,7.13,0,0,0,.24.84c.18.53.36,1.06.55,1.6-.45-1-.62-.68-.91-.67s-.32-.08-.57-.48a3.79,3.79,0,0,1-.21-.38,1.42,1.42,0,0,1-.13-.35l-.09-.27c-.13-.35-.29-.79-.48-1.35a13.17,13.17,0,0,1,.43,1.31l.11.39a3.77,3.77,0,0,0,.17.51c.1.29.22.59.34.91.24.65.52,1.38.81,2.18,1.2,3.19,2.8,7.44,4.39,11.69,3.32,8.44,6.86,16.78,6.86,16.78-3.41-8.37-1.51-1.14,1.21,6.53-.59-1.79,2.25,5.52,6,14.28s8.57,18.89,10.8,23.2c0,0-1.66-3.48-3.26-7s-3.15-7-3.15-7A265,265,0,0,0,89.49,352.4c2.34,3.78,4.68,7.25,7.32,11.16l2,3,1.07,1.61a4.81,4.81,0,0,1,.47.79c.12.3.27.63.43.94a11.85,11.85,0,0,0,2.65,3.56,10.8,10.8,0,0,0,4.25,2.34l.45.13-.07-.46a77.67,77.67,0,0,0-3.87-14c1,2.26,2.21,5.07,2.49,4.82s-.21-3.73-4.21-13.32l-13-25.91c-6.17-12.31-13.89-27.56-20.74-44.18l-2.25-6.52-5.2-12.74c-2.58-6.39-5.07-12.81-5.07-12.81,3.39,7.9,9.89,22.87,17.09,38.77S88.92,322.05,94.48,334c-5.92-14.11-1.37-4.07-10.67-25-3-7.51,5.48,11.2,8.24,17.36L81.37,302c-2.63-6.11-5.18-12.23-7-16.85s-3.07-7.73-3.07-7.73c.13,1.23-3.82-8.16-7.63-17.63s-7.44-19.07-7.35-18l3.22,8.43c1.95,5.06,4.61,11.77,7.34,18.47S72.35,282,74.45,287L78,295.28c.16,1.2-3.59-6.25-8.86-18.56S56.94,247.4,50.78,229.54c-1.49-4.56-.6-3,.65-.35s2.88,6.33,2.85,5.91c-.47-1.16-1.55-4-2.9-7.59a77.8,77.8,0,0,1-3.68-12.15l-3.38,1c1.57,3.9,3.09,7.71,4.3,10.74s2,5.35,2.28,6.14c0,0-.38-.93-.94-2.33s-1.31-3.25-2.09-5.07l-3.1-7.32c3.79,9.68,6.93,17.69,10.37,26.15L67,273.83c1.71,4,4.26,10,6.45,15.22a94.62,94.62,0,0,0,4.72,10.06c-2.78-6.59-3.84-10.79-3.7-12.28s1.51-.27,3.79,3.88c.47,1,3.08,6.83,6.63,14.16.46.91.92,1.88,1.34,2.85s.9,1.93,1.38,2.91c1,1.95,2,3.92,3.15,5.85l.85,1.44.23.37a3.68,3.68,0,0,1,.23.44c.11.25.23.49.35.73a26.52,26.52,0,0,0,1.62,2.8,27.39,27.39,0,0,0,4,4.74l-.92.19a6.74,6.74,0,0,0,.63-4,7.65,7.65,0,0,0-.53-1.8,8.76,8.76,0,0,0-.41-.81c-.13-.29-.4-.54-.44-.88-.61-2.36-1.12-4.18-1.49-5.49-1-3.45-1-3.92-.46-2.89A66.91,66.91,0,0,1,97,317.64c.24.63.49,1.44.69,1.85l.25.33.3.47a9.81,9.81,0,0,1,.52.95,9,9,0,0,1,.87,3.4c0,.85,0,1.28.13,1a6,6,0,0,0,.12-3.09,16.36,16.36,0,0,0-.73-1.8c-.1-.23-.25-.47-.38-.72l-.24-.38-.11-.18-.09-.11a1.35,1.35,0,0,1-.24-.48c-.09-.28-.18-.57-.28-.86-.78-2.36-1.73-5-2.31-6.59-1.45-4.38-1-3.52-1.05-3.94a14,14,0,0,0-.77-2.37c-.3-.81-.72-1.91-1.34-3.38l-1-2.45c-.37-.92-.77-1.95-1.23-3.09-1.79-2.87-15-37.61-4-8.54-7.41-18-7.7-19.21-16.07-40.46,1.12,3.46-1.13-1.16-4.43-9S58,219.42,54.77,210.2c.53,1-.66-3.19-1.22-5.24-1.65-5-3.13-9.75-4.51-14.24-.34-1.13-.68-2.23-1-3.33l-.51-1.63a7,7,0,0,0-.7-1.54,10.91,10.91,0,0,1-1.07-6.28l-.29,0c4.84,11,8.73,20.94,12.88,31.26s8.48,21,14.47,33.37c.67,1.58,3,6.42,4.7,10s2.83,5.91.91,2.59c2.62,4.68,5.09,9,11,18.81,1.3,2.48,2.2,3.94,2.64,4.68s.43.78.1.33-1-1.38-1.72-2.61c-.38-.61-.79-1.3-1.2-2s-.85-1.45-1.31-2.2c-3.67-6-7.42-12.84-3.58-5.24A28.15,28.15,0,0,1,86,269.41l1.56,2.47c.59.93,1.23,1.94,1.89,3.1a71.44,71.44,0,0,0,5.14,7.53c.51.65,1,1.3,1.58,1.95l.84,1,.38.44a1.05,1.05,0,0,1,.27.39,5.65,5.65,0,0,0,1.84,2.35,5.13,5.13,0,0,0,3,.85l1.13,0-.2-1.08a75.91,75.91,0,0,0-5.69-16.59c.3,1,1.12,3.08,2.15,5.93a67.38,67.38,0,0,1,3,10.75l.09.52h-.53a4.42,4.42,0,0,1-4.16-2.46c-.23-.4-.25-.7-.54-.95l-.77-.89c-.52-.62-1-1.25-1.55-1.89a69.41,69.41,0,0,1-5.6-8.17c-.79-1.42-1.67-2.74-2.48-4.1L85,266.56c-1.51-2.56-2.88-5-4.05-7.07.26-.17,2.17,2.84,5.6,8.23.86,1.34,1.83,2.83,2.88,4.45s2.09,3.46,3.38,5.29,2.72,3.75,4.36,5.67l1.27,1.44c.21.28.57.53.67.91a4.35,4.35,0,0,0,.46.82,3.14,3.14,0,0,0,2.89,1.42l-.78.93a69.19,69.19,0,0,0-4.4-13.34c-2-4.69-4.44-9.55-6.77-14.79-11.75-28.64-4.5-12.65-6.62-17.59-5.35-13.5-9.26-23.09-12.39-30.58s-5.22-13-7.29-18.15c-4.2-10.34-7.82-19.52-16-42.24A65.54,65.54,0,0,1,46,143.9c-.17-1.05.06-.74.41,0,.69,1.53,2,4.79,1.54,2.71,2,6,4,11.16,5.82,15.91s3.3,9.07,4.77,13.13C61.42,183.82,64,191,67,199l-7.09-19.79c3,7.44,8.92,23.17,12,31.78-1.54-4.33-4.92-13.75-9.43-25.94L55,165c-2.69-7.21-5.78-14.75-8-22.71l-.28.11c9.92,22.55,19.8,46.56,27.42,64.12,3.39,7.2,9.47,19.52,6.88,13.56,0,0-1.51-3.21-3-6.41s-3-6.43-3-6.43c-2.47-6,.38,0,3,5.45s5,10.31,1.35,2.15c2.53,5.25,5.23,10.66,8.16,16.28,1.52,2.83,2.86,5.84,4.42,8.7s3.37,5.7,5.89,7.59l-2.31,1.38c-1.3-8.59-4.67-17.45-8.16-27.2l-1.14-4.94c0,.29,1.42,4.45,3.18,9.39s3.74,10.66,4.77,14.24c-.78-2.65-1.94-6.4-3.43-10.69l-4.91-14.09c-3.43-9.81-7-19.73-9.44-25.33l6,17.77C79,199,75.17,189,71.12,178.54c-2.05-5.24-4-10.7-5.94-16.2s-3.93-11.1-5.84-16.72c3,10.4,1.87,5.14,6.77,21.3-2-7.06,2.92,7.32,7.82,20.5s9.26,25.38,5.67,14.2c2.48,8,4.87,14.78,7.49,22.17,1.31,3.68,2.7,7.46,4,11.58a74.73,74.73,0,0,1,3,13.59l4.6-2.74-.67-.6c-.23-.24-.47-.47-.7-.73a6.34,6.34,0,0,0,.62.8c.26.27.45.48.26.36a9.41,9.41,0,0,1-2-2,39,39,0,0,1-4.83-8.41l-2.07-3.91-.59-1.21.47,1c-.41-.74-.46-.83.18.39,1,2.22,1.87,4.17,2.59,5.72s1.28,2.7,1.6,3.37c-.64-1-1.39-2.3-2.22-3.91s-1.72-3.49-2.8-5.55c-2.09-4-4.41-8.64-6.67-13.36-4.51-9.44-8.9-19.08-11.07-24-4.56-10.89,2.16,4.45-.18-1.56L64,178.13c-.21-1.64-11.65-29.13-.47-3.67L58.64,163,55.27,155l-1.5-3.6c-1.27-3.2-2.66-6.74-4.45-10.39l-5.13,2a193.58,193.58,0,0,0,6.34,18.6c2.25,5.9,4.36,11.45,6.06,15.92,4,11.12,10.88,27.81,7,18.29l2.18,5.74c.66,1.72,1.42,3.73,2.24,5.88l1.26,3.32c.46,1.12.93,2.26,1.39,3.4l7.43,18.22,0,.38c3.66,9.15,7.36,18.4,11.24,27.82,2.06,4.73,4.31,9.3,6.31,14a67.3,67.3,0,0,1,4.66,14.32l2.17-2.6a2,2,0,0,1-.91-.16,1.5,1.5,0,0,1-.63-.52,2.24,2.24,0,0,1-.29-.47s-.16-.36-.25-.57a1.79,1.79,0,0,0-.43-.6l-.71-.83-.6-.71a65.69,65.69,0,0,1-4.42-6c-.69-1.05-1.34-2.13-2-3.22s-1.33-2.3-2-3.41q-2-3.34-3.89-6.78Q82.58,256.15,79,249c-2.37-4.79-4.69-9.64-6.86-14.61-2.77-5.86-5.42-11.9-8.41-19S57.52,200,53.37,189.88l-1.3-4.09-4-9-3.93-9-1.36,9.77a14,14,0,0,0,1.51,8.26l.31.58.18.58c.18.57.35,1.14.53,1.72q.53,1.71,1,3.45c1.4,4.62,2.86,9.29,4.26,13.58,2.78,8.59,5.31,15.73,6.48,18.51,1.27,4.36,3.64,11.34,6.76,19.74s7,18.2,11.14,28.28,8.33,20.54,12.22,30.16a142,142,0,0,1,5.08,13.48c.34,1.07.67,2.12,1,3.15.18.64.37,1.28.55,1.9,0,.26.21.4.32.61s.28.42.29.45l.25.47a3.85,3.85,0,0,1,.18,3.25c0,.16.08.33.12.5l4.58-1-.45-.13a25,25,0,0,1-4.3-5.28c-.29-.49-.57-1-.83-1.49-.16-.28-.19-.42-.51-1l-.54-.85c-.65-1-1.29-2.1-1.9-3.16-1.24-2.14-2.39-4.33-3.47-6.59-.54-1.2-1.18-2.36-1.77-3.53l-1.76-3.49c-4.71-9.38-9.46-19.43-14.56-30.91l.2,1.6c-3.16-6.89-6.61-15.31-10.2-24.76C57.72,241,55.88,236,54,230.82l-1.43-3.9c-.51-1.32-1-2.64-1.54-4-1-2.67-2.08-5.37-3.14-8.1l-4,1.21a92.63,92.63,0,0,0,4.34,14.75c1.7,4.74,3.36,9.64,5.15,14.47-.48-1.07-1.45-3.66-2.54-6.72s-2.28-6.57-3.28-9.48L50,236.4c.82,2.48,1.67,4.95,2.55,7.43,1.74,5,3.58,9.94,5.48,14.91,3.81,9.94,7.85,19.85,11.93,29.64,8.25,19.59,17.32,38.2,24.21,55.43,3.79,8.51,6.54,14.59,8.49,20.65-.28-.8-.55-1.5-.78-2.11.31.88.78,2.18,1.22,3.52a64.05,64.05,0,0,1,2.25,10.05l3.14-2.71a8.85,8.85,0,0,1-1.54-.68,8.86,8.86,0,0,0,1.53.7l-3.1,2.69a56,56,0,0,0-1.69-8.16,62.11,62.11,0,0,1,1.89,8.13l2.84-2.46a8.33,8.33,0,0,1-5.4-4.91,2.72,2.72,0,0,1-.11-.25l-.13-.32a3.7,3.7,0,0,0-.46-.86l-.69-1.09-1.4-2.21-2.84-4.48s-.5-1-1-2.05l-1-2-1.25-2.09c-2.52-4.51-3.56-6.32-3.72-6.34A20.59,20.59,0,0,0,92.31,351c-2.72-4.57-5.11-8.83-7-12.13-1.61-3.92-4.79-10.08-7.95-16.7A184.27,184.27,0,0,1,69.25,303c-1.33-2.71-5.21-11.92-9.11-22.15l-2.92-7.75c-1-2.58-1.84-5.15-2.72-7.59l-2.45-6.84q-.28-.75-.54-1.47c-.07-.25-.13-.51-.2-.75s-.16-.54-.25-.79a17.18,17.18,0,0,0-1.23-2.75l-2.61,1a45.67,45.67,0,0,0,1.69,5.2c0,.38.75,3.44-.75-2.13,1.46,5.77,3.12,11.48,4.82,17s3.42,10.86,5.15,15.9l1,5,4.42,12.18,4.54,12.13c2.38,7.5,4.13,12.79,4.54,14.39s-.55-.47-3.37-7.77C75.84,343.5,78.77,350.6,81.4,357s5,12.22,11.88,26.74l-1-1.27c2.34,5.25,5.56,12,8.59,18.16s6,11.75,7.21,15c.83,2,1.84,4.42,2.9,7.49l2.5-1.2c-3.73-6.39-8.7-15.11-14.14-25.58s-11.42-22.62-17.57-35.7-12.65-27-18.79-41c-3.06-7-6-14.07-8.78-21.08s-4.78-14.2-8.27-20.85L42.51,279c1.9,8.77,5,16.64,7.45,24.11-1.54-6.23.81,1.06,3.92,10.12s7,19.89,7.91,21c1.11,3.68,4.3,12.3.22,2.43,3.1,7.82,5.82,14.66,8.29,20.87s4.87,11.73,7.17,16.93c4.61,10.37,9,19.42,14.49,29.65,1.46,3.57-3.56-6.27-2.18-3.13l3.13,6c.64,1.23,1.3,2.54,1.91,3.66s1.09,2.13,1.45,2.92c.68,1.54.1.47-1-1.53l-.92-1.64c-.34-.61-.71-1.28-1-1.93l-2-3.87c.9,1.8,1.77,3.54,2.62,5.18s1.64,3.05,2.37,4.46,1.37,2.73,2,4l.86,1.82c.36.77.7,1.52,1,2.24l.65.55.15.14,0,0a.46.46,0,0,1,.07.07c.06,0,0,.09.1,0a4.07,4.07,0,0,1,.84-.4c.44-.15.54,0,.33-.12a1.06,1.06,0,0,1-.21-.11,1.54,1.54,0,0,1-.28-.19,3,3,0,0,1-.33-.29l-.18-.18h0l3.75.35c-4.11-5-6.38-8-8-9.88a19.47,19.47,0,0,0-3-3.1c-9-14.84-13.74-22.1-20.51-32.65-1.41-2.67-3.28-6.24-3.47-6.83s1.17,1.84,6.63,10.95c-1.52-2.57-4.59-7.79-8.13-14.31s-7.43-14.38-10.92-22.07c-7-15.37-12.55-29.95-13.19-30.4a78.39,78.39,0,0,0-3.28-7.42l-2.6,1.05c1.45,4.61,3.41,9.53,4.12,11.25,4.9,12.54,7.51,19.38,10.25,26.11s5.45,13.4,10.74,25.53l-2.81-6.78c4.83,9.29,8.83,20.13,18,39.4l-.33-.52c4.65,10.17,7.78,16.62,10,21.1s3.52,7,4.68,9.2,2.18,4.09,3.84,7.33c.83,1.62,1.82,3.57,3,6.09s2.6,5.59,4.11,9.5l1.81-1.59a10.59,10.59,0,0,1-4.26-4.56,11.91,11.91,0,0,1-.52-1.21c-.09-.23-.14-.37-.24-.7a3.18,3.18,0,0,0-.46-.92l.23.5a3.76,3.76,0,0,1,.12.55c0,.15,0,.32.08.48.09.61.25,1.21.25,1.21a5.18,5.18,0,0,1-.6-1,8.06,8.06,0,0,1-.37-.86c-.09-.16-.22-.33-.33-.5l-.31-.46c-.85-1.27-1.91-2.93-3.13-4.9-2.45-4-5.57-9.17-9.06-15-7-11.67-15.38-25.91-22.36-38,0,0,1.18,2.23,2.37,4.45l2.4,4.43c-4-6.49-8.91-16-13.6-25.56-2.33-4.8-4.66-9.61-6.82-14.08l-3.13-6.39q-.75-1.5-1.44-2.91c-.41-.92-.8-1.81-1.17-2.66-.68-1.56-.06-.35.93,1.77.27.59.42.89.79,1.55s.65,1.22,1,1.84l1.91,3.5-2.57-5-.56-1.1-.4-.92-.89-2c-1.13-2.51-2.11-4.4-2.9-5.83a19.18,19.18,0,0,0-2.85-4.18c-.35-.32-.22,0-.44-.06a4.62,4.62,0,0,1-.74-.62c-.24-.21-.46-.48-.9-.82l-.73-.57a9.81,9.81,0,0,0-1.22-.63l-3.76-1.74,1.11,4.05a87.84,87.84,0,0,0,3.39,10c.88,2.66,0,1.07-.14,1.18s0,.55.64,2.19S37.09,353,39,357.66c.91,2.35,2.86,6.89,5.55,12.7s6.13,12.89,9.85,20.42c1.85,3.77,3.77,7.66,5.69,11.56S64,410.16,65.9,414c3.8,7.68,7.37,15,10.25,21.29-2.43-5.56-4.85-11.08,1.45,1.32,2,4.1,4.33,8.86,6.77,14l7.75,16.28.32.31.25.26a2.91,2.91,0,0,1,.24.31,2.22,2.22,0,0,1,.29.54,1.41,1.41,0,0,1-.07,1l3.32-.53c-9-11.37-17.06-23.2-22.79-31.23a26,26,0,0,1-1.91-3.32c-4.5-6.75-11.41-18-17.56-28.75s-11.64-21-14.07-25.22c-.72-1.9-2.1-4.91-3.9-8.72a104.29,104.29,0,0,0-7.15-13.43l-3.22,1.25a59.45,59.45,0,0,0,3.48,11.91c.77,1.95,1.56,3.92,2.34,5.91s1.54,4,2.3,6c3.11,8.06,6.46,16,9.48,23,6.05,14.06,10.63,24.54,10.08,24.65L56.76,438l7.15,15.67,10.4,22.76-.67-1.12c.75,1.69,1.46,3.31,2.12,4.88s1.36,3.35,2,4.91l.52.5a.92.92,0,0,1,.14.16l.08.09a1.08,1.08,0,0,1,.12.21l.24,0c.06,0,0,0,0,0-.27-.08-.18-.06-.25,0l3.27.08C76,477,72.16,470.22,69,464.83s-5.52-9.48-7.88-13.54c-3.41-6.57-.73-1.88-.37-1.38-8.44-16-14.12-26.39-18.88-35.13l-6.82-12.34-3.47-6.15a48.63,48.63,0,0,0-4.36-6.55l-2.73,1.32a65.24,65.24,0,0,0,3.42,9.59c1.47,3.38,3.26,7,5.12,11l1.23,3.93c2,4.15,7.48,16.29,15.14,31.84,3.81,7.8,8.28,16.39,12.87,25.34,2.29,4.49,4.61,9.06,6.86,13.7l1.67,3.49.58,1.24.38.86c.5,1.15,1,2.31,1.39,3.53l.38,1.14.08.29,0,.15s0,.05,0,.07H73.6a1,1,0,0,1-.52-.19,8.41,8.41,0,0,1-1.61-1.6,41.68,41.68,0,0,1-2.73-3.84c.13.18.39.54,1.38,1.95l-.68-1-.35-.52-.17-.27-.08-.13,0-.07,0,0h0l-1.43,1c.39-.49-2.07,1.92.65-.94l0,0a2.5,2.5,0,0,1-.53.4l-.92.67-.12.08h0l3.31-2.26c-5-7.26-9.93-15.29-14.86-23.5S45,450.36,40.29,442.08,31,425.62,26.85,418c-2-3.9-4-7.7-6-11.29-1-1.8-2-3.55-3.05-5.26-.52-.85-1.05-1.68-1.64-2.52-.3-.42-.6-.84-1-1.28a7.81,7.81,0,0,0-.65-.72,5.09,5.09,0,0,0-.53-.44,3.55,3.55,0,0,0-1.19-.56l-4.44-1,1.7,4.23a261.6,261.6,0,0,0,11.73,26s3.52,7.77,7.2,15.46,7.48,15.33,7.48,15.33c-18.66-40,3.45,5.63-4-10.92l11.24,23.72c2.69,5.78,3.21,7.24-1.57-2.27l-1.4-3c-2.17-3.3,3.85,9,10.28,22,1.6,3.25,3.23,6.56,4.77,9.67s2.91,6.05,4.12,8.55c.59,1.26,1.14,2.41,1.62,3.42l.34.74.22.46a1.54,1.54,0,0,0,.28.42,5,5,0,0,1,.57.95c.49,1.12.35,1.78.29,1.67a5,5,0,0,1,0,.67l2.94-.83C55.37,495.81,46.34,479.31,37.15,463c-4.6-8.15-9-16.32-13.5-24.44L17,426.41c-2.25-4-4.23-8.21-6.86-12.2l-3.39-5.13.09,6.13A23.16,23.16,0,0,0,9,423.88c1.11,2.62,2.41,5.09,3.5,7.51,2.17,5,4.43,10.08,6.75,15q7,14.91,14.53,29.33l15.18,28.61,7.54,14.19c.6,1.17,1.31,2.38,1.94,3.5s1.26,2.3,1.86,3.46S61.45,527.85,62,529l.83,1.78.95,2.08.27.3.21.23.16.23a1.84,1.84,0,0,1,.19.41,1.4,1.4,0,0,1,0,.81l3.7-.81c-1.13-1.41-2.26-2.75-3.33-4.15,1,1.5,2,2.94,3,4.42L65,535a2.07,2.07,0,0,0,.16-1.08,2.33,2.33,0,0,0-.18-.57,2.76,2.76,0,0,0-.52-.77,4,4,0,0,1,.59.73,2.36,2.36,0,0,1,.25.57,2.13,2.13,0,0,1,0,1.2l2.44-.54q-3.83-4.68-7.4-9.56t-6.9-10c-2-3.14-3.18-5.31-2.56-4.57.3.37,1.07,1.46,2.46,3.51s3.4,5,6.32,9.11c-2.93-4.38-7.68-11.32-11.57-17.36S41,494.63,40.79,494.43c-4.89-8.57-6.75-12.1-7-12.66s1.25,1.82,3.13,4.93c3.75,6.25,9.35,15.35,6.27,10.15l-4.16-7.09L35,482.64l1.76,3.26c-3.43-5.72-5.36-8.8-7.88-13.11S23.17,463,17.69,452.14a101.78,101.78,0,0,1-4.36-9.47,16.07,16.07,0,0,0-1.28-3.2s0-.11-.14-.38l-.59-1.36c-.58-1.28-1.51-3.42-3.14-6.74-1-2.08-2.07-4.14-3.26-6.16l-2.46-4.14L1,425.31a8.26,8.26,0,0,0,0,4.8,9.56,9.56,0,0,0,.94,2.13l.25.39a.46.46,0,0,1,.09.17l.21.65,2.26,6.87c1.55,4.62,3.23,9.17,5,13.69,0,0-1.2-3.39-2.3-6.82s-2.13-6.87-2.13-6.87c2.68,7.52,5.82,15.33,7.54,19.35s1.9,4.28-.94-3.48c1.21,3.41,3.24,8.52,5.89,14.77s5.88,13.67,9.75,21.56,8.26,16.3,12.81,24.72c1.15,2.11,2.26,4.2,3.45,6.33l3.56,6.22a66.52,66.52,0,0,1,5.79,12.4l2.74-1.47a168.83,168.83,0,0,1-10.34-14.37c-3.1-4.69-5.95-9-8.39-12.9-4.89-7.78-8.35-13.67-9.83-16.27C23,490.08,18.7,483,14.6,475.46c-2-3.75-4-7.59-6-11.58A101.12,101.12,0,0,1,3.15,451.5L1,452.72A9.3,9.3,0,0,1,2,454.4c.15.31.28.62.4.94s.18.56.35,1.11c.66,1.45,1.31,2.91,2,4.38q2,4.34,4,8.88c-2.66-6.18-3.76-10.12,5.84,11.2-2.38-3.62,1.92,6.18,7.68,19.09s13.42,28.78,17.43,37.37c-1.5-3.16-1.07-2.5.47.31s4.19,7.78,7.32,13.14l9.38,15.92c.71,1.19,1.37,2.31,2,3.34l1,1.42c.28.4.54.79.76,1.16a27.79,27.79,0,0,1,1.58,3.12l2.52-1.38c-.34-.39-.4-.4-.09.07l-2.32,1.27a14.44,14.44,0,0,0-1.77-4.15,18.66,18.66,0,0,1,2,4.08l2-1.07c-6.69-9,1.59,1.35-6.14-9.35C49.78,554,41.2,541.53,32.44,528.4c-4.37-6.56-8.73-13.31-12.83-20.35-2.05-3.53-4-7.09-5.92-10.81s-4-7.25-4.54-11l-3.63,1.28A108.87,108.87,0,0,1,11.85,502c1,2.51,2,5.07,3,7.6l3.22,7.5c4.31,10,8.77,20.16,13.79,30.12.56.72-3.52-8,2.26,2.91,0,0,3.26,6.86,6.78,13.6S48.1,577.1,48.1,577.1c2.9,4.87,4.48,7,6.53,10.15,1,1.58,2.19,3.43,3.72,6s3.45,5.92,6.16,10.39c-1.47-2.56-3.63-6.39.53,0,2,3.18,4.19,6.31,6.5,9.35l2.56-1.5c-1.87-4.31-4.9-7.6-7.39-11L59.3,590c-4.92-7.1-10-14.15-14.86-21.31L29.7,547.14c-5.07-7.1-9.37-14.63-14.32-22l-2.89,1.65c9.88,20.5,20,41,31.35,61q8.46,15,17.55,29.55c3,4.89,6.15,9.67,9.23,14.49L75.26,639l.29.45a3.52,3.52,0,0,0,.42.58c.23.27.42.51.61.77a15.36,15.36,0,0,1,1,1.62A13.89,13.89,0,0,1,79,646.05l2.51-1.67a44.45,44.45,0,0,1-7.79-7.78l-3.58-4.45-3.62-4.43c-4.76-5.91-9.34-12-13.82-18.09L46,600.39l-6.75-9.19c-4.49-6.12-8.82-12.19-12.76-18.62l3.74,6c.53.87.38.73-.22-.12s-1.69-2.39-3-4.36-3.07-4.36-4-6.66L19.52,569l0,.05,0-.06,3.54-1.55c.58,1.49,1.07,2.26,1.18,2.57s0,.17-.27-.13c-.52-.59-1.27-1.82-1.08-1.15-.16-.35-.31-.7-.44-1.06l-2.34,1c6.82,14,14.57,27.51,22.61,40.8,2.57,3.54,9.46,14.35,16.12,24.74L68,648.65a92.2,92.2,0,0,0,5.48,8s-2.13-3.15-4.17-6.35l-4.07-6.38c5.64,8.34,2.29,2.13-2.25-5.86s-10.28-17.79-9.08-16.81c-4.41-6.4-9.46-14.41-14.79-23.54s-10.94-19.39-16.37-30.31l-3,1.33c1.15,3,2.93,5.16,4.37,7.51s3.14,4.74,4.81,7.06c3.34,4.65,6.9,9.18,10.5,13.65,4.75,6.64-4.43-5.38-2-1.76,3,3.63,6.17,7.66,10.12,13S56.29,620,62.81,628.28l-1.57-1.8c1.61,2,3.19,4,4.75,5.83s3,3.67,4.46,5.45A50.94,50.94,0,0,0,79.59,647l3.47,2.51-1-4.17a16.71,16.71,0,0,0-1.46-4,16.25,16.25,0,0,0-1.07-1.81c-.2-.29-.4-.57-.61-.84l-.32-.41-.27-.32-3.92-6.1-7.61-11.91c-4.87-7.81-9.49-15.5-14.16-23.6C43.31,580.14,33.84,562.19,22,537.58l1.73,4.61c-4.45-9.16-6.27-13.2-8-16.94l-3.36,1.93,2.71,4.33c3.55,5.13,1.32,1.33-2.49-4.48l2.9-1.66c4.79,10.13,12.79,26.12,8.3,18.12-1.63-3.77-4.62-10.16-8.35-18.09l-2.8,1.6c2.12,3.22,4.34,6.78,6.68,10.53,1.17,1.88,2.38,3.8,3.64,5.74s2.6,3.84,3.92,5.79l15.94,23.32,13.84,20c1.91,2.79,3.58,5.26,4.93,7.3l1.79,2.73,1.34,2a73.63,73.63,0,0,1,4.79,6.45c.48.75.34.38.08-.18a8.57,8.57,0,0,1-.57-1.24,4.17,4.17,0,0,1,.57.75,18.22,18.22,0,0,1,1.47,2.68L74.14,611c-.5-.64-1.44-1.86-2.58-3.44,0,0-.77-1.2-1.52-2.43s-1.47-2.46-1.47-2.46-.83-1.09-1.65-2.19l-1.63-2.22c-3.72-6.07-6.3-10.82-8.07-14A40.24,40.24,0,0,1,54.58,579c1.74,3,5.1,8.5,7,11.68-4.55-8.12-11.36-19.32-17-29.37s-10.14-19-11.44-21.88c0,0,2.2,4.74,4.55,9.4s4.82,9.28,4.82,9.28c-6.07-10.88-11.69-22.59-17.08-34.85l-4-9.26c-1.33-3.1-2.73-6.25-4-9.33-2.54-6.26-4.77-12.89-8.32-19.15l-4,1.41a25.89,25.89,0,0,0,2.32,7c1,2.17,2.17,4.17,3.21,6.14,2.13,4.06,4.4,8.07,6.74,12,4.7,7.84,9.74,15.38,14.74,22.74,10,14.75,20,28.92,30.09,41.62l3.19-1.75A22.09,22.09,0,0,0,63,570a22.74,22.74,0,0,1,2,4.31A22,22,0,0,0,63,570.45c-.37-.58-.75-1.13-1.15-1.65a3.61,3.61,0,0,1-.43-.61l-.45-.77-3.35-5.67-5.35-9.13c-3.12-5.27-5.24-9.26-7.4-13.4s-4.34-8.43-7.29-14.38-6.71-13.58-11.7-24.6l.77,1.58c-4.2-8.71-9.66-20.43-15.11-32.48,5.28,11-9-21.18-2.14-6.68l-3-6.5L6,455.43a1.62,1.62,0,0,1-.17-.44,13.44,13.44,0,0,0-.63-1.65,12.6,12.6,0,0,0-1.72-2.73L0,452.56a78.89,78.89,0,0,0,3.78,8.81l2.75,5.44c1.47,2.85,2.3,4.35,3.12,5.78l3.11,5.31c1.49,2.52,3.68,6.2,7.36,12.2l3.37,6.47,7,10.86c2.49,3.86,5.81,9.19,12.54,19.23-11.17-16.38,8,13.21-4.55-5.12,5.08,8,9.64,15.28,14.73,21.45l3.4-1.84a61.09,61.09,0,0,0-5.15-11.39c-1.88-3.39-3.79-6.49-5.44-9.47-3.37-6.06-6.39-11.52-9.11-16.61A245.92,245.92,0,0,1,23.83,476c-2.59-5.21-2.81-5.3-1.77-2.68s3.34,7.92,6,13.43c5.24,11,11.71,22.89,8.56,17.2,2.4,4.89-.05.76-3.88-6.43-1.91-3.6-4.15-8-6.27-12.37s-4.11-8.83-5.69-12.48c-2.71-6.19-4.87-11.7-7.43-18.79-1.28-3.55-2.65-7.5-4.15-12.15-.73-2.34-1.51-4.86-2.36-7.58-.21-.69-.43-1.38-.65-2.09L6,431.47a2.1,2.1,0,0,0-.33-.75,4.8,4.8,0,0,1-.32-.51,3,3,0,0,1-.21-.4,4.35,4.35,0,0,1-.26-3.34l-3.38.42c2.58,4.35,4.8,9.76,7.66,15.95l-3.53-7.6c1.51,3.45,3,7,4.73,10.41s3.43,6.87,5.27,10.38c3.67,7,7.66,14.37,12.07,22.65,5.67,8.84,12,21.13,14.32,23.3,0,0-4.85-8-9.49-16.13-2.33-4-4.66-8.1-6.38-11.17s-2.84-5.11-2.84-5.11c2.58,4.63,5.22,9.15,8,13.78s5.62,9.4,8.75,14.52,6.54,10.57,10.45,16.52,8.34,12.38,13.73,19.29c-.92-1-3-3.54-5.39-6.58s-5-6.6-7-9.56a190.16,190.16,0,0,0,13.82,18.72l1.61,2,.68-2.46a4.9,4.9,0,0,0,0-2.71,5,5,0,0,0-.56-1.24,6.45,6.45,0,0,0-.37-.54l-.25-.29-1.15-2.62a8,8,0,0,1,.58.91l.42.79c.08.14.16.3.24.47l.16.29.18.17c.11.13.24.3.36.46a5.66,5.66,0,0,1,.65,1.2,5.24,5.24,0,0,1,.17,3.22l-.86,3.22-2.16-2.56c-2.17-2.55-4.93-6-7.88-10s-6.11-8.63-9.21-13.44c-6.21-9.6-12.2-20-16.82-27.6,2.56,4.84,8,14.11,12.29,20.86s7.16,11,3.66,6.47c4.9,6.61,10.47,15,17.74,23.88l2.45,3,1.05-3.76a5.69,5.69,0,0,0,0-3.09,6.46,6.46,0,0,0-.64-1.41c-.14-.21-.28-.4-.42-.59l-.13-.16-.08-.09-.69-1.53-.85-1.83c-.59-1.23-1.2-2.46-1.84-3.69s-1.31-2.47-2-3.71l-1-1.82c-.34-.62-.67-1.25-1-1.88-2.71-5-5.58-10.21-8.63-15.52L52.55,502c-2.12-3.81-6.57-11.68-10.34-18.76l7.38,12.52c-2.74-4.85-5.35-9.67-7.88-14.45s-5.05-9.5-7.38-14.27c-4.7-9.53-9.19-19-13.73-28.66,4.64,10.14,7.42,15.71,8.83,18.73s1.56,3.44,1.31,3.16c-.48-.56-2.47-4,1.63,4.55-8.69-16.68-12.56-25.55-15.24-32-.33-.82-.64-1.59-.95-2.34s-.63-1.53-.94-2.24c-.62-1.43-1.22-2.76-1.78-4.12s-1.09-2.73-1.54-4.21a15.56,15.56,0,0,1-.76-4.69l-4.7,1.43c1,1.55,2,3.34,3.07,5.45s2.34,4.56,3.83,7.27c3,5.45,6.68,12.21,11.49,20.85-4.12-7.32-15-27.74-8.46-16.35C22,444.2,29.38,458,32.73,464.39c20.3,35.69-2.69-5.73,6.17,9.34,3.19,6.23,5.75,10.58,8.7,15.3s6.28,9.8,11.32,17.31l-.33.37c1.64,2.52,3.15,4.73,4.5,6.68l3.54,5.11.42-6.23a8,8,0,0,0-.79-4.07,8.93,8.93,0,0,0-.94-1.54.78.78,0,0,1-.13-.2l-.29-.58-2-4.09c-1.19-2.38-2.07-4.11-2.75-5.4a50.18,50.18,0,0,0-2.55-4.46c-1.25-2-2.74-4.58-11.35-22.29l8.52,15.63L44.84,465.7l2.51,3.81c-5.52-10.58-9-17.57-12.29-24.59s-6.45-14-11-24.76c.93,2.55.42,1.95-1.34-1.68s-4.76-10.27-8.6-19.86l-.34-.92-1.52.95a1.32,1.32,0,0,1-.14.45,1.27,1.27,0,0,1-.13.19l-.08.09-.09.17-.09.14h0l0,0,.21.22c.15.19.3.38.43.57.26.37.47.7.63,1a6.75,6.75,0,0,1,.5.9c.09.23-.19-.12-.2-.07s.29.51,1.46,2.48,3.19,5.49,6.52,11.74l-4.51-7.58-2.71-4.5c-.49-.8-1-1.62-1.54-2.44-.27-.4-.56-.81-.83-1.16a5.62,5.62,0,0,0-.37-.46c0-.05-.15-.09,0-.11a9.24,9.24,0,0,0,.66-1,1.14,1.14,0,0,0,.29-.66l2.22-1.24c.66,1.76,1.38,3.7,2.17,5.8.63,1.15,2.75,5.91,3.42,7.09-1.55-3.92-3.32-8.4-5.17-13.05l-2.64,1.4a1.24,1.24,0,0,1-.17.5,1,1,0,0,1-.16.2l-.22.36a4.45,4.45,0,0,1-.52.69l-.15.16-.07.07h0s0,0,0,0a1.66,1.66,0,0,1,.2.22c.18.2.39.49.6.78.42.59.85,1.24,1.26,1.91.84,1.33,1.66,2.73,2.46,4.12,1.6,2.8,3.13,5.61,4.58,8.29l2.09,3.91c.66,1.25,1.39,2.55,2,3.66l3.39,6-3.09-5.55c-.5-.92-1-1.71-1.39-2.57l-1-2.05s.32.59.89,1.61,1.43,2.5,2.43,4.23c2,3.44,4.74,8,7.44,12.62,5.43,9.17,11,18.25,11,18.25,3.27,5.86.41,1.36-2.38-3.11,4.42,7.42,7.7,12.43,14.33,23.24-2-2.62-2-1.68-11.42-17,3.48,5.72,7,11.38,10.54,17.05S62,487.52,65.9,493l4.29-2.93-.06-.07-.1-.13-.12-.15-.07-.07,0,0,0,0a3.55,3.55,0,0,0-.34-.26,2.52,2.52,0,0,0-.79-.34,2.61,2.61,0,0,0-1.68.14,2.58,2.58,0,0,0-1.24,1.17,2.5,2.5,0,0,0-.28.84,4,4,0,0,0,0,.44v.07h0v.06l0,.08.1.34c.08.22.16.45.23.69.48.88,1.44,2.39,2.68,4.18a41.58,41.58,0,0,0,4,5.06,15,15,0,0,0,2.92,2.37,12,12,0,0,0,1.84,1,7.75,7.75,0,0,0,1.55.49,4.88,4.88,0,0,0,.93.09h.43l0,0,.18-.08c.21-.09.37-.13.39-.1s-.1.12-.36.28a14.38,14.38,0,0,1,1.66-.64c-.6-2-1.16-4.05-1.86-6.26s-1.65-4.68-2.74-7.22c-.53-1.24-1.15-2.62-1.65-3.67-.33-.71-.68-1.42-1-2.14l-2.16-4.33c-2.94-5.83-6.2-11.9-9.55-18.12-6.72-12.41-13.52-25.62-19.5-38.52-.73-1.37-2.14-4.13-4.82-9.84l-5.68-12.76a72,72,0,0,1-4.44-12.51l-4.77,2.31c2.5,3.23,4.43,7.25,6.68,11.33L37.25,416c4.57,8.4,9.49,17.19,14.86,26.75l8.32,16.94c6.35,11.4,3.46,5.68,1.63,1.86-.91-1.91-1.56-3.34-.66-1.93s3.27,5.71,8.76,15.1c4.43,7.5,7,11.47,8.22,13.56L80,491l2-2.61a4.52,4.52,0,0,0,.75-1.6,4,4,0,0,0,0-1.53,5.26,5.26,0,0,0-.55-1.6c-.31-.57-.31-.63-.22-.63s.27.15.26,0-.42-.72-.38-.72l0-.17,0-.11,0-.05-.05-.15c-.16-.44-.36-1-.6-1.61-.78-1.77-1.65-3.69-2.62-5.74L77,471.36c-.55-1.1-1.07-2.15-1.61-3.31-2.17-4.58-4.58-9.66-7.17-15.1C63,442,57.31,429.66,52.08,416.61,55.86,425.13,58.71,431.82,62.35,439.72Zm-9.52-63c2.69,5.59,8.31,16.62,10,20.85C59.3,391.4,57.15,386.36,52.83,376.7ZM102.77,419c.21.42.32.68.49,1l.24.21.13.11.19.2a4,4,0,0,1,.71,1,2.47,2.47,0,0,1,.15,1.7,2.88,2.88,0,0,1-.91,1.37l-.86.75-.73-.9a131.85,131.85,0,0,1-8.47-12.12c2.48,3.68,5.24,7.71,8.59,12l.61.79.76-.66a3,3,0,0,0,.81-1.07,2.38,2.38,0,0,0,0-1.58,4.46,4.46,0,0,0-1.31-1.82C103.07,419.72,103,419.46,102.77,419ZM47.14,150.92c.1.25.16.43.24.63,2.28,6.63,3.11,8.68,2.85,8S48.7,155.53,47.14,150.92ZM57,160.31c1.2,2.63,1.18,2.42.76,1.27-.45-.89-1.31-2.83-2.42-5.38S53,150.46,51.49,147C52.23,149,53.48,152.47,57,160.31ZM10.58,436.65s.55,1.28,1.09,2.57,1.11,2.54,1.11,2.54c-2.69-5.65-3.61-7.79-3.7-8S9.8,435.08,10.58,436.65Z"/><path class="cls-1" d="M74.17,382.67A13.86,13.86,0,0,1,73,380.25C71.73,378.17,71.61,378.19,74.17,382.67Z"/><path class="cls-1" d="M43.17,424.28l.41.89a6.52,6.52,0,0,0,.5.84Z"/><path class="cls-1" d="M96.32,311.54c.93,2.86,1.57,5.1,2.05,6.91l.12.5a.93.93,0,0,0,.15.32l.29.52c.11.2.19.41.29.6a9.18,9.18,0,0,1,.67,2.19c.06.21.14-.64-.76-2.57-.11-.23-.28-.52-.39-.72a1,1,0,0,1-.19-.42c-.16-.54-.33-1.16-.52-1.86C97.6,315.53,97.05,313.72,96.32,311.54Z"/><path class="cls-1" d="M76.9,197.17l6.44,17.28c-3.08-8.37-4.08-11.39-5.55-15.65C77.83,199.22,78.88,202.59,76.9,197.17Z"/><path class="cls-1" d="M72.9,165.92c1.14,2.44,2.33,5.22,3.48,7.61l-.1-.76C71.55,162.32,68.27,155,72.9,165.92Z"/><path class="cls-1" d="M72.55,180.6a74.3,74.3,0,0,0-2.69-8.26l-5.78-16.27.76,2.15c-.9-1.7-.17.68,1.37,5.1S70.08,174.21,72.55,180.6Z"/><path class="cls-1" d="M63.08,153.24,59.13,142C58.41,140.61,60.68,146.56,63.08,153.24Z"/><path class="cls-1" d="M71.59,193.74c2.32,5.66,2,3.32,3.22,6.55C77.92,206.39,58.17,163.05,71.59,193.74Z"/><path class="cls-1" d="M70.27,170.31l1.07,4.53,2.86,6.66-2-5.59c-.5-1.39-1-2.79-1.34-3.85Z"/><path class="cls-1" d="M87.18,232.26c1.44,2.88,2.67,5.84,4.18,8.64a22.86,22.86,0,0,0,5.76,7.46l-.38.22-.21-1.39c0,.32-.49-2.26-1.3-5.36.55,2.24,1,4.54,1.34,6.78l.66-.4a19.71,19.71,0,0,1-4.67-5.51,58.28,58.28,0,0,1-2.88-5.45A48.55,48.55,0,0,0,87.18,232.26Z"/><path class="cls-1" d="M95.23,241.83a133,133,0,0,0-5.16-15.73C91.32,229.46,94,236.7,95.23,241.83Z"/><polygon class="cls-1" points="80.04 196.77 82.03 202.54 87 216.24 80.04 196.77"/><path class="cls-1" d="M90.18,257.65s.51,1.31,1.38,3.24,2,4.49,3.22,7.05,2.33,5.12,3.14,7.06,1.3,3.26,1.3,3.26c1,2.1-1-3.74-4.58-11.32-1.17-2.43-2.64-5.54-3.59-7.67S89.62,256,90.18,257.65Z"/><path class="cls-1" d="M66.55,193.76c2,5.74,2.06,6.16,3.1,9.44l.82.42Z"/><path class="cls-1" d="M90.67,254.81c.27.49,1.13,2.67,2.26,5.11s2.48,5.27,3.42,7.23,1.46,3,1,2-1.92-4.2-4.74-10.67C91.62,256.43,83.13,235.54,90.67,254.81Z"/><path class="cls-1" d="M87,312.07s.68,1.27,1.39,2.51,1.46,2.48,1.46,2.48l.45-1.23L88.62,314C87.8,313,87,312.07,87,312.07Z"/><path class="cls-1" d="M91.92,359.51c3,4.91,4.86,7.93,6.1,9.87.09.16.19.3.27.43l.23.54c.22.46.42.85.61,1.18a9.66,9.66,0,0,0,1,1.42,16.19,16.19,0,0,0,1.61,1.68,13.69,13.69,0,0,0,1.78,1.41,13.55,13.55,0,0,0,3.65,1.73l3.53,1.1-.57-3.65a70.76,70.76,0,0,0-1.7-7.93c-1.16-3.28.79,2.57,1.51,7.95l.45,3.35-3.17-1a12.86,12.86,0,0,1-3.41-1.65,11.39,11.39,0,0,1-2.13-1.9,5.23,5.23,0,0,1-.7-.92s.22.26.83.9a12.9,12.9,0,0,1-2-2.78,14.4,14.4,0,0,1-.69-1.43l-.11-.26a.61.61,0,0,0-.07-.14l-.31-.48L96,364.84,92.26,359C90.53,356.29,90.28,356.12,91.92,359.51Z"/><path class="cls-1" d="M101.77,374a12.32,12.32,0,0,0,5.5,3.29l2.92.82-.58-2.84c-.18-.83-.32-1.81-.56-2.77.34,1.56.54,2.87.55,2.77l-2.33,2a12.35,12.35,0,0,1-3.83-1.85A13.2,13.2,0,0,1,101.77,374Z"/><polygon class="cls-1" points="59.43 636.83 68.4 651.46 62.8 641.89 59.43 636.83"/><path class="cls-1" d="M78.19,664.1s.48.91,1,1.82,1,1.81,1,1.81,1.77,2,3.68,3.8c.48.47.89.88,1.45,1.39a6.22,6.22,0,0,0,2,1.26,4.72,4.72,0,0,0,1.86.22,4.38,4.38,0,0,0,.63-.08,5,5,0,0,1-2.46-.22,5.91,5.91,0,0,1-2.14-1.47c-.52-.53-.93-1-1.42-1.51s-.95-1-1.4-1.57A64,64,0,0,1,78.19,664.1Z"/><path class="cls-1" d="M32.23,338.17s.12,0,.31.18l.36.28-.25-.32-.13-.17-.11-.11a2.13,2.13,0,0,1-.21-.22v0l0-.07.06-.12.11-.24a4.88,4.88,0,0,0,.18-.54l3.94-2.81a63.2,63.2,0,0,0,3.56,11,73.07,73.07,0,0,1-3.34-11l-4.16,2.87c-.12.58-.63,1.42-.52,1.15l.05.06Z"/><polygon class="cls-1" points="47.26 402.52 49.2 406.05 46.09 399.18 47.26 402.52"/><path class="cls-1" d="M72.36,481.66c1.44,2.41,3,4.93,4.68,7.5l3,4.63,3.21-4.47a5.9,5.9,0,0,0,1-2.27,5.58,5.58,0,0,0-.17-2.77,6.72,6.72,0,0,0-1-1.9l-.27-.34-.16-.18h0l-1-2.38-1.32-3.08c-.88-2-1.78-4-2.65-5.89,1.07,2.28,2,4.44,2.89,6.47l1.2,2.94c.35.87.85,2.16.78,2v0l.2.24c.09.11.19.23.28.36a6.28,6.28,0,0,1,1,2,5.47,5.47,0,0,1,.06,2.67,5.78,5.78,0,0,1-1,2l-3.14,4.32-2.73-4.47C73.63,483.21,72.06,480.27,72.36,481.66Z"/></g></g></svg>