<svg xmlns="http://www.w3.org/2000/svg" viewBox="0 0 674.42 113.77"><defs><style>.cls-1{fill:#232323;}</style></defs><g id="Layer_2" data-name="Layer 2"><g id="Objects"><path class="cls-1" d="M674.39,66.47c-.06.09,0,.1-.13.24s0,0,0,0l-.18,0a3.44,3.44,0,0,0-.63,0,8.79,8.79,0,0,0-1.31.24,13.36,13.36,0,0,0-1.46.43c-.48.19.06.24-.72.39,1.08-.15,1.72-.33,2.3-.44a12.27,12.27,0,0,1,1.31-.23,4.56,4.56,0,0,1,.57,0h0c0-.09.06-.2.1-.29l.07-.14,0-.06a.6.6,0,0,1,.09-.13l-.86-3.62a1.89,1.89,0,0,1-.24.26,1.77,1.77,0,0,1-.18.19c-.09.09,0,.11.08.09a1.3,1.3,0,0,0,.38-.15l.23-.15.59,3.38S674.38,66.48,674.39,66.47Z"/><path class="cls-1" d="M553.18,94.14l2.1-.77-8.9,2.73c-2.23.69-4.43,1.37-6.1,1.83s-2.77.74-2.77.74L540,98c1.46-.39,3.41-1,5.37-1.55Z"/><path class="cls-1" d="M612.14,66c-2.71,1-6.65,2.21-11.3,3.6-2.31.69-4.77,1.54-7.4,2.44l-8.17,2.83c-5.61,2-11.48,4.15-17.11,6.41s-11,4.62-15.77,6.8l-3.17,1.35s-2.05,1.17-4.08,2.39-4,2.46-4,2.46c5.55-3,11.65-6.1,18-8.93s12.91-5.44,19.34-7.79,12.71-4.49,18.43-6.44S607.87,67.81,612.14,66Z"/><path class="cls-1" d="M555.16,77.48c1.89-.49-1.33.65-1.66.76s2.22-.87,15.71-5.17l-2.56.73C564.23,74.58,560.86,75.6,555.16,77.48Z"/><path class="cls-1" d="M566.65,73.8c11.86-3.75-7.84,2.23,0,0Z"/><path class="cls-1" d="M512.3,92s.94-.27,2.31-.75c.69-.23,1.49-.53,2.33-.87l.64-.26.24-.09a1.63,1.63,0,0,1,.31-.11l.39-.13L520,89.3c3.87-1.25,7.71-2.59,7.71-2.59l-9.14,2.71-.74.22-.65.24c-.33.13-.65.24-.94.34-.58.21-1,.35-1.34.44-.6.17-.51.13.68-.32a56.13,56.13,0,0,1-8.15,2.29c-1.74.35-2.53.47-2.54.52a9.38,9.38,0,0,0,2.06-.16A47.08,47.08,0,0,0,512.3,92Z"/><path class="cls-1" d="M499.19,94.34a2.93,2.93,0,0,0,.69.31,2.86,2.86,0,0,0,1.59,0c.16,0,.33-.1.5-.16l.56-.23a2.52,2.52,0,0,1,.61-.11L504,94l.61-.08,1.25-.19-1.22.13-.76.08-.49,0c-.25,0-.52,0-.79.09l-.7.29-.34.12a4.61,4.61,0,0,1-.72.15A2.77,2.77,0,0,1,499.19,94.34Z"/><path class="cls-1" d="M522.68,88.78l-2.65.87-1.29.41-.35.11-.25.08-.31.11-.69.29c-.94.37-1.95.74-3,1.08a53.38,53.38,0,0,1-5.7,1.55c-1.58.33-2.64.49-2.64.49a27.79,27.79,0,0,0,2.77-.32,26.77,26.77,0,0,0,4.9-1.48c-.64.29-.16.17,1.34-.36.75-.27,1.74-.66,3-1.18.63-.25.85-.29,1.23-.43l1.12-.37Z"/><path class="cls-1" d="M532.35,85.74c8.73-2.79,20-6.57,4.52-1,14.77-5.15,21.12-7.38,20-7.13-.57.12-3,.86-7.15,2.23S539.74,83.22,532.35,85.74Z"/><path class="cls-1" d="M610.48,63.42q1.68-.35,3.36-.6l.43,1.31a59.37,59.37,0,0,1-8.4,3.19s-2.52.88-5,1.72-5,1.75-5,1.75c3.49-1.39,13.67-3.93,18.51-6.54l-.52-1.57A16.81,16.81,0,0,0,610.48,63.42Z"/><path class="cls-1" d="M574.91,63c.91-.47-5.34,1.37-6.55,1.58l-5.67,2L557,68.67C562.88,66.65,574.05,63,574.91,63Z"/><path class="cls-1" d="M568.36,64.53l17-6C570.07,63.62,567.34,64.71,568.36,64.53Z"/><path class="cls-1" d="M499.38,95.05a9.85,9.85,0,0,0-.83,1.41l-.39-1.93a3.67,3.67,0,0,0,3.45.81c.21-.06.4-.13.63-.22l.58-.24.62-.07a52.76,52.76,0,0,0,6.67-1.23,54.69,54.69,0,0,0,6.4-2c.54-.21,1-.4,1.59-.64s.66-.22,1-.32l.82-.27,3.28-1.09-3.28,1.08-.83.26c-.3.11-.47.14-1,.33s-1.05.43-1.58.63a54.28,54.28,0,0,1-13.08,3.22l-.63.07-.58.25a6.64,6.64,0,0,1-.63.21,3.73,3.73,0,0,1-1.18.12,3.79,3.79,0,0,1-2.2-.93l.4,2a9.25,9.25,0,0,1,4.6-4.44,10.41,10.41,0,0,0-2.13,1.25A9.5,9.5,0,0,0,499.38,95.05Z"/><polygon class="cls-1" points="538.47 67.18 548.07 63.51 530.96 69.97 538.47 67.18"/><path class="cls-1" d="M495.3,82.69c7.05-2.86-10,3.07-2.47.17C487,85,481.6,87,476.47,89s-9.61,4.1-14,5.49c4.63-1.42,9.33-3.48,14.84-5.54S488.65,85,495.3,82.69Z"/><path class="cls-1" d="M462.45,98.22A68.18,68.18,0,0,0,456.6,102l-2-5.69a37.07,37.07,0,0,0,7.89-1.77,37.93,37.93,0,0,1-7.9,1.7l2,5.81C458.49,100.68,460.44,99.42,462.45,98.22Z"/><path class="cls-1" d="M564.27,59.3c-1.37.35-4,.94-13.68,4.11l6.89-1.88Z"/><path class="cls-1" d="M557.72,61.47l-.24.06L542.9,66.47Z"/><path class="cls-1" d="M566,58.74l-1.71.56A12.19,12.19,0,0,0,566,58.74Z"/><path class="cls-1" d="M540.66,74c4.84-2.12,12.45-5.1,16.34-6.63s4-1.78-6.12,1.73c-3.51,1.48-2.37,1.19-2.22,1.27S548,70.85,540.66,74Z"/><path class="cls-1" d="M574.59,56.57l7.24-2.15.9-.27.3-.08a.43.43,0,0,0,.21-.11l.34-.21c.16-.1.34-.19.51-.28a7.16,7.16,0,0,1,1.09-.47,7.35,7.35,0,0,1,4.9-.08l5.12,1.79-5.11,1.69-3.94,1.3c.4,0,3.74-1-1.22.82l5.25-1.84,5.88-2.07-5.89-2a7.66,7.66,0,0,0-5.07.15,10.13,10.13,0,0,0-1.11.5c-.17.1-.34.19-.5.3l-.25.15-.09.06a.35.35,0,0,1-.19.1l-.28.09-.9.29Z"/><polygon class="cls-1" points="565.64 59.56 574.59 56.57 567.76 58.69 565.64 59.56"/><path class="cls-1" d="M478.37,89.42c-3.7,1.45-7.38,3.08-11.3,4.52A46.5,46.5,0,0,1,454.68,97l1.49,4.34c.5-.34,1-.71,1.58-1.06-.54.33-1.05.69-1.59,1L454.68,97c4.73-.29,9.65-1.88,14.46-3.68,2.42-.9,4.83-1.87,7.28-2.81s4.87-1.78,7.27-2.66C485.07,87.24,489.46,85.4,478.37,89.42Z"/><path class="cls-1" d="M516.87,75.64l-1.73.65A6.44,6.44,0,0,0,516.87,75.64Z"/><path class="cls-1" d="M549.22,58.88l-1.54.51c-.11.07-.18.13-.32.21Z"/><path class="cls-1" d="M485.45,87.33c7.81-2.73,12.42-4.51,16.8-6.23l-18.56,6.78C483.06,88.17,483,88.26,485.45,87.33Z"/><path class="cls-1" d="M487.46,85.68c-3.92,1.76-8.32,3.8-13,6C478.34,89.93,486.13,86.42,487.46,85.68Z"/><path class="cls-1" d="M512.48,77.12l1.16-.43C511.06,77.52,511.39,77.45,512.48,77.12Z"/><path class="cls-1" d="M512.48,77.12c-4,1.51-7.1,2.75-10.23,4l12.89-4.81C514.17,76.61,513.18,76.91,512.48,77.12Z"/><path class="cls-1" d="M559.88,51.47a50.52,50.52,0,0,1,8.61-2.62v0c-7.73,3.2-19.73,7.82-30.71,11.86-8.53,3.54-9.84,4.54-7.16,3.93s9.42-2.73,17-5.3c.48-.37.41-.51,18-7.58-3.14,1.1-13,4.77-20.24,7.42s-11.8,4.31-4.42,1.21c21.05-8.39,19.82-7.58,27.85-10.49l-.65-2.2c-.82.15-1.86.36-3.06.63,5.19-.93-2.74.85-10.85,3.83s-16.74,6.21-14,5.65l3.24-1.17,7.15-2.54c2.6-.92,5.21-1.81,7.17-2.44s3.3-1,3.3-1C561.58,50.65,554,53.15,559.88,51.47Z"/><path class="cls-1" d="M514.21,72.91l-7.11,3.18c8.15-3.54,14-5.89,25-10,12-5,14.46-6,15.24-6.51,0,0-9,3.44-17.87,7-4.45,1.8-8.88,3.63-12.19,5L511.79,74Z"/><path class="cls-1" d="M475.41,90.94c5.26-3.11,22.13-11.25,11.56-6.77-10.33,4.93-13.88,6.84-16.42,8.16l-3.69,2c-1.43.78-3.31,1.77-6.2,3.48,3.93-2.26,6.9-3.67,8.94-4.68l3.74-1.79c1.06-.49-.42.27-2.17,1.17s-3.76,2-3.84,2.08a7.91,7.91,0,0,0,1.59-.67L475.13,91c-6.55,3.26-12.39,6-17.38,9.27a151,151,0,0,1,16.75-8.61l-.78.34-.16.08,0,0c-1.46.65-1.95.84-.31.09l.69-.34a14.15,14.15,0,0,1,1.44-.88c9.65-4.61,1.57-.65-1.44.88a3.58,3.58,0,0,0-.38.25l.13-.06,5.19-2.57c3.11-1.53,7.27-3.56,11.44-5.55,8.33-4,16.75-7.81,16.75-7.81C499.94,79.24,491,83.27,475.41,90.94Z"/><path class="cls-1" d="M569.19,61.63c1.11-.34,1.07-.29,1.16-.29C572.6,60.52,573.45,60.2,569.19,61.63Z"/><path class="cls-1" d="M583.74,57c-2.54.91-4.62,1.77-12.94,4.52-7.23,2.32,0-.2-.45-.21-5,1.8-17.36,6.31-1.65,1.11l2.46-.9c6.14-2,13.08-4.15,18.68-5.9l3-.92-3-1.06a6.57,6.57,0,0,0-3.33-.29,8.3,8.3,0,0,0-2.77,1.07,1.88,1.88,0,0,1-.36.2l-.4.11-1,.28-1.79.48c-2.11.56-3.09.8-2.39.57,1.55-.32,3-.64,4.83-1.06l.64-.15.27-.05.25-.14a8.39,8.39,0,0,1,1.61-.73,6.37,6.37,0,0,1,4.37,0l2.11.82-2.11.52C588.6,55.61,586.4,56.25,583.74,57Z"/><path class="cls-1" d="M513.1,78.32,484.12,89,499,84l-.82.06C514.76,78.19,511.1,79.22,513.1,78.32Z"/><polygon class="cls-1" points="552.59 57.81 548.94 59.71 565.34 52.68 552.59 57.81"/><path class="cls-1" d="M546.55,52.78l1.28-.85-5,1.82-5,1.86Z"/><path class="cls-1" d="M253.35,58.58l3.9-2.36,3.91-2.33C257.44,56.07,255.08,57.51,253.35,58.58Z"/><path class="cls-1" d="M210.17,95.61l.07-.06,0,0,.26-.16.68-.45-.86.47a1.09,1.09,0,0,0-.17.09l-.12.09-.16.19c-.14.15-.29.28-.41.39s-.39.32-.4.35a1.65,1.65,0,0,0,.35-.23,5,5,0,0,0,.45-.37l.15-.14.09-.09Z"/><path class="cls-1" d="M301.88,107a7.55,7.55,0,0,1,2.61-2.63,10.39,10.39,0,0,1,1.77-.87l.7-.26c.3-.12.67-.38.8-.44l1.05-.61,7.61-4.43c4.4-2.55,7.26-4.11,6.46-3.92l-3.68,1.66L308.73,102l-1.16.71a4.25,4.25,0,0,1-.93.49l-.34.13-.25.1a11.09,11.09,0,0,0-1.78,1A7.62,7.62,0,0,0,301.88,107Z"/><path class="cls-1" d="M285.66,79.72l-3.35,1.93c-2.64,1.83-5.12,3.56-7.33,5.11C278.18,84.62,281.82,82.21,285.66,79.72Z"/><path class="cls-1" d="M292.72,73.35s3.79-2.18,7.63-4.28,7.71-4.13,7.71-4.13C304.55,66.73,299.59,69.38,292.72,73.35Z"/><path class="cls-1" d="M248.4,44.08l-9.3,5C254,41.86,247.33,44.86,248.4,44.08Z"/><path class="cls-1" d="M392.27,98.65a66.74,66.74,0,0,1,6.42-4.5c1.06-.65,2.1-1.25,3.15-1.83S404,91.07,405,90.49c4-2.34,7.71-4.38,11.2-6.25-3,1.57-5.9,3.09-8.53,4.54l-3.77,2.12c-1.2.72-2.43,1.35-3.44,1.92A40.69,40.69,0,0,0,392.27,98.65Z"/><path class="cls-1" d="M233.92,76.21c4.56-3.12,6.51-4.45,6.32-4.44C235.49,74.91,232.88,76.78,233.92,76.21Z"/><path class="cls-1" d="M445.57,69.8c-1.84.77-3.64,1.56-5.5,2.37-7.45,3.55-14.94,7.32-23.85,12.07,4.47-2.31,9.32-4.71,14.29-7.17S440.55,72.18,445.57,69.8Z"/><path class="cls-1" d="M83.75,61.59,81.21,63A18.17,18.17,0,0,0,83.75,61.59Z"/><path class="cls-1" d="M91.54,26.91c3.26-1.84,8.64-4.75,13.79-7.36C102.82,20.82,98.59,22.92,91.54,26.91Z"/><path class="cls-1" d="M455.39,83.35c-7.63,3.67-1.2.62,0,0Z"/><path class="cls-1" d="M434,94.25a31.81,31.81,0,0,0-3.22,1C431.41,95,432.53,94.68,434,94.25Z"/><path class="cls-1" d="M469.46,53.55l-.7.23C471.19,53.07,470.77,53.19,469.46,53.55Z"/><path class="cls-1" d="M443.85,88.75c2.86-1.38,6.17-3,9.78-4.64C452,84.84,449,86.2,443.85,88.75Z"/><path class="cls-1" d="M445.47,88.17l-3.61,1.77-3.13,1.47c-.46.26-.49.3.46-.13l2.23-1.06,1.81-.91Z"/><path class="cls-1" d="M466.1,78.37l-12.47,5.74c1.52-.69,2.16-1,1.76-.76C457.63,82.28,460.8,80.79,466.1,78.37Z"/><path class="cls-1" d="M156.88,51.84c.47-.3,1-.67,1.54-1,3.56-2.43,4.57-3.1,4-2.73S159.62,49.94,156.88,51.84Z"/><path class="cls-1" d="M339,77l.91-.35-1.19.41Z"/><path class="cls-1" d="M310.78,88.29a280.93,280.93,0,0,1,28-11.28l-4.95,1.16-4.94,1.19s-4.56,2.16-9.09,4.4S310.78,88.29,310.78,88.29Z"/><path class="cls-1" d="M234.69,62.35l9.85-4.2L254.43,54c-11.73,5.39-21.8,10.15-26.69,12.47s-4.52,2.25,4.75-1.67c.55-.62,5.56-3.11,12.82-6.43s16.83-7.44,26.4-11.48c4.79-2,9.59-4,14.13-5.79l6.57-2.57,6-2.31,9.09-3.7a31.33,31.33,0,0,0,3.95-1.66,36.86,36.86,0,0,1,4.31-.85L314,25.58A76.61,76.61,0,0,1,306,30c1.78-.89,2.78-1.45,3.76-2s2-1.13,3.55-2.15c-2.79,1.7-5.31,2.95-7.52,4.06s-4.13,2-5.8,2.92c-3.35,1.74-5.79,3.14-8.44,4.67-5.29,3.11-11.48,6.6-27,15.23-10.82,6-18.29,10.42-11.13,5.92,0,0-5.9,3.59-11.7,7.35s-11.5,7.67-11.5,7.67c-6.67,4.51-5.19,3.19,1.47-1.27-9.8,6.56-19.34,13.51-28.52,20.93l-2.89,2.35,3.5,1.4a5.5,5.5,0,0,0,3.8.07,6.57,6.57,0,0,0,1.6-.86,6.77,6.77,0,0,0,.63-.53l.16-.14.09-.1,1.48-.73-.27.17,11.45-6,11.83-6.15c9.66-4.52-4.73,2.48-2.21,1.43L253,73.63c8.65-3.85-8.48,4.93-22.91,12a235.86,235.86,0,0,0,21.4-10c3.54-1.82,7.77-4,13.77-7,3-1.48,6.43-3.18,10.46-5.08s8.65-4,14-6.46l-9.86,4.8C274.87,64.23,270,66.7,270,66.7c3.24-1.4,6.66-2.89,10.3-4.52l11.62-5.33c8.3-3.8,17.8-8.17,29.26-12.64-1.37.51-4.94,1.86-9.12,3.54s-9,3.69-12.93,5.34c-7.84,3.3-12.17,5-.84-.5l11.48-5.11,16-7c.1.14,1.59-.41,4.1-1.36a83.61,83.61,0,0,1,10.35-3.35l-2.63-3.17-.22-.06,0,0,0,0a.19.19,0,0,0,0,.08A3.68,3.68,0,0,0,337,33c-.11.13-.31.28-.45.43a6.51,6.51,0,0,1-.53.44,27.28,27.28,0,0,1-2.66,1.8,73.29,73.29,0,0,1-6.53,3.4l.73-1-2.78,1.33-1.42.67-1.19.65-3.89,2.15c-2.24,1.25-3.83,2.17-5.22,3-2.78,1.63-4.73,2.84-9.34,5.46-17.7,9.47-21.51,11.21-25.84,13.18C250,80.72,297.36,53.85,264.62,73.36c-8.66,5.12-16.24,9.84-23.8,14.57l-11.44,7.2L226.44,97l-.71.46a1.14,1.14,0,0,1-.38.17,15.57,15.57,0,0,0-1.89.81,14,14,0,0,0-6.15,5.93l-2.81,5.33,5.51-2.26a215.58,215.58,0,0,0,19.58-9.59c16.67-8.32-2.72,1.83,3.31-1.06l7.24-4,7.29-3.89c3.64-1.77,2.53-1.06,2-.69,6.22-3.14,6.42-3.39,7.51-4.09s3.06-1.85,13-6.54c2.53-1.56,12.86-6,25.7-11.34s28.22-11.38,40.72-16.65c6.31-2.26-2.87,1.54-.87,1,6.23-2.52,11.14-4.59,14.86-6s6.26-2.32,7.66-2.81l-1.43-3.52c-6,3-10.36,4.67-15.32,6.79s-10.58,4.55-19.45,8.75c0,0-6,2.56-11.94,5.34-3,1.38-5.9,2.82-8.1,3.92l-3.64,1.86c2.15-1.09,3.7-1.83,4.73-2.29a6.29,6.29,0,0,1,1.59-.61c.12.1-1.56,1.08-4.33,2.7-5.56,3.22-15.4,9.14-24.39,15,5.91-3.36,11-6.13,14.43-8,0,0-7.36,4.32-14.58,8.9-3.61,2.28-7.19,4.6-9.88,6.34l-4.48,2.91c-3.54,2.13-.75.1,3.83-3.13l-5.2,3.49c-5.22,3.18-6.52,3.88-5.65,3.11s3.95-3,7.56-5.47c3.58-2.12,7.14-4.24,10.62-6.24,6.95-4.81,13.57-9.18,11.86-8.61l-9.53,6c1.83-1.26,3-2.07,2.08-1.59s-4,2.53-8.65,5.66l-6.95,3.57-1.44,1.25a227.34,227.34,0,0,0-20.23,13.63l-1.61,1.25,1.35,1.55a3.62,3.62,0,0,0,1.58,1.13,3.35,3.35,0,0,0,2.28,0A5.32,5.32,0,0,0,255,104l1.54-.67,1.93-.87c1.28-.58,2.55-1.19,3.82-1.81s2.53-1.25,3.78-1.91,2.45-1.24,3.69-1.85c14.12-7.44,27.39-14.35,43.15-21.44,7.88-3.51,16.43-7,25.93-10.9s20-7.88,32-12.17c-11.7,4.71-2.27,1.71-2.71,2.52-6.63,2-15.84,5.44-26.42,9.64-5.29,2.09-10.92,4.38-16.76,6.76s-11.83,4.87-17.86,7.47c6.29-2.7,8.81-3.6,9.32-3.72s-.94.6-2.52,1.32l6.72-2.86c4.05-1.69,9.48-3.93,14.91-6.12,10.87-4.4,21.82-8.57,21.82-8.57-.81.83,9.46-3.09,21.12-6.91-2.42.57-1.21,0,2.19-1.36a116.55,116.55,0,0,1,15.51-4.9l-1-2.6c-5.05,2.74-11.22,4.83-17.06,7s-11.19,4.52-15.29,6.32c-.62.08.1-.42,3.67-2,1.79-.8,4.3-1.88,7.73-3.27s7.92-2.91,13.28-5L379.17,49c-2.57.9-4.95,1.85-7.12,2.76-4.37,1.83-8.14,3.57-11.88,5.34-7.48,3.53-14.84,7.15-26.44,12.15,5.17-2.39,8-3.61,10-4.7-12,5.72-41.51,19.4-34.72,15.88L314.12,78c-8.42,3.93-19,8.93-30.06,14.58S261.42,104.55,251,111l1.34,2.82a156.69,156.69,0,0,0,16.55-7.54c5-2.55,9.6-4.74,13.6-6.66,8-3.82,13.47-6.39,14.69-7.17.39-.05-4.12,2.93-6.12,4,0,0,15-7.58,30.44-14.4,7.7-3.43,15.49-6.66,21.36-9l9.79-3.92c-2.69,1.32,1.5.52,2.67.73s-.7,1.34-15.34,6.82l36.91-12.68C371,65.71,362,67.72,370,65l19.36-5.63L397.49,57c3.54-1,8.22-2.4,15.05-4.17-3.73,1-4.2.9-2.46.12A87.09,87.09,0,0,1,421,49.32l-.53-1.42a14.92,14.92,0,0,1-2.73,1.15l-.75.2a7.72,7.72,0,0,0-.84.24l-1.59.55c1.05-.45.68-.62.66-.91s.09-.32.49-.57a2.91,2.91,0,0,1,.38-.21,1.51,1.51,0,0,1,.34-.13l.28-.09,1.34-.48a13.43,13.43,0,0,1-1.3.43l-.39.11a4.55,4.55,0,0,0-.52.17l-.91.34-2.18.81L401.08,53.9c-8.43,3.32-16.78,6.86-16.78,6.86,8.38-3.41,1.14-1.51-6.53,1.21,1.8-.59-5.52,2.25-14.27,6s-18.89,8.57-23.2,10.8c0,0,3.48-1.66,7-3.26s7-3.15,7-3.15A266.07,266.07,0,0,0,322,89.49c-3.77,2.34-7.24,4.68-11.15,7.32l-3,2-1.62,1.07a4.37,4.37,0,0,1-.78.47c-.3.12-.63.27-.94.43a11.61,11.61,0,0,0-3.56,2.65,10.67,10.67,0,0,0-2.34,4.25l-.13.45.45-.07a77.23,77.23,0,0,0,14-3.87c-2.25,1-5.06,2.21-4.81,2.49s3.73-.21,13.32-4.21l25.91-13c12.31-6.17,27.56-13.89,44.18-20.74L398,66.49l12.75-5.2c6.38-2.58,12.8-5.07,12.8-5.07-7.89,3.39-22.86,9.89-38.76,17.09s-32.46,15.61-44.38,21.17c14.11-5.92,4.07-1.37,25-10.67,7.51-3-11.2,5.48-17.37,8.24l24.4-10.68c6.1-2.63,12.23-5.18,16.84-7L397,71.28c-1.22.13,8.16-3.82,17.64-7.63s19.07-7.44,18-7.35l-8.44,3.22c-5.05,1.95-11.77,4.61-18.46,7.34s-13.39,5.49-18.37,7.59L379.14,78c-1.2.16,6.24-3.59,18.55-8.86S427,56.94,444.88,50.78c4.56-1.49,3-.6.35.65s-6.33,2.88-5.91,2.85c1.16-.47,4-1.55,7.59-2.9a77.15,77.15,0,0,1,12.15-3.68l-1-3.38-10.74,4.3c-3,1.2-5.35,2-6.14,2.28l2.32-.94c1.41-.55,3.26-1.31,5.08-2.09l7.32-3.1c-9.68,3.79-17.7,6.93-26.15,10.37L400.58,67l-15.22,6.45a94,94,0,0,0-10.05,4.72c6.59-2.78,10.79-3.84,12.28-3.7s.27,1.51-3.89,3.79c-1,.47-6.83,3.08-14.15,6.63-.92.46-1.88.92-2.85,1.34s-1.93.9-2.91,1.38c-2,1-3.92,2-5.85,3.15l-1.44.85-.37.23c-.14.09-.31.16-.44.23l-.74.35a26.61,26.61,0,0,0-7.53,5.62l-.19-.92a6.72,6.72,0,0,0,4,.63,7.59,7.59,0,0,0,1.81-.53c.28-.13.55-.26.81-.41s.54-.4.87-.44c2.37-.61,4.19-1.12,5.5-1.49,3.45-1,3.92-1,2.88-.46A65.31,65.31,0,0,1,356.78,97c-.63.24-1.44.49-1.85.69l-.34.25-.46.3a9.81,9.81,0,0,1-.95.52,9,9,0,0,1-3.41.87c-.85,0-1.27,0-1,.13a6,6,0,0,0,3.09.12,15.75,15.75,0,0,0,1.79-.73c.24-.1.47-.25.73-.38l.37-.24.19-.11.11-.09a1.28,1.28,0,0,1,.48-.24l.85-.28c2.36-.78,5-1.73,6.6-2.31,4.38-1.45,3.52-1,3.94-1.05a13.74,13.74,0,0,0,2.36-.77c.82-.3,1.92-.72,3.38-1.34l2.46-1,3.09-1.23c2.86-1.79,37.61-15,8.54-4,18-7.41,19.21-7.7,40.46-16.07-3.47,1.12,1.16-1.13,9-4.43S455,58,464.22,54.77c-1,.53,3.19-.66,5.24-1.22,5-1.65,9.74-3.13,14.24-4.51L487,48l1.63-.51a7.41,7.41,0,0,0,1.54-.7,10.88,10.88,0,0,1,6.28-1.07l0-.29c-11,4.84-20.94,8.73-31.26,12.88S444.13,66.81,431.8,72.8c-1.58.67-6.41,3-10,4.7s-5.92,2.83-2.59.91c-4.68,2.62-9,5.09-18.82,11-2.47,1.3-3.93,2.2-4.67,2.64s-.78.43-.33.1,1.38-1,2.6-1.72c.62-.38,1.31-.79,2-1.2s1.46-.85,2.2-1.31c6.05-3.67,12.85-7.42,5.24-3.58A25.66,25.66,0,0,1,405,86l-2.48,1.56c-.92.59-1.93,1.23-3.1,1.89a72.43,72.43,0,0,0-7.52,5.14c-.65.51-1.31,1-2,1.58L389,97l-.43.38a1.05,1.05,0,0,1-.39.27,5.59,5.59,0,0,0-2.35,1.84,5.14,5.14,0,0,0-.86,3l0,1.14,1.08-.21a75.73,75.73,0,0,0,16.59-5.69c-1,.3-3.07,1.12-5.93,2.15a66.93,66.93,0,0,1-10.74,3l-.53.09v-.53a4.73,4.73,0,0,1,.59-2.41,4.64,4.64,0,0,1,1.87-1.75c.4-.23.7-.25.95-.54l.89-.77c.61-.52,1.24-1,1.89-1.55a70.13,70.13,0,0,1,8.16-5.6c1.43-.79,2.75-1.67,4.11-2.48L407.86,85c2.56-1.51,5-2.88,7.07-4.05.17.26-2.85,2.17-8.23,5.6l-4.46,2.88c-1.64,1-3.45,2.09-5.28,3.38a70.25,70.25,0,0,0-5.67,4.36l-1.45,1.27c-.27.21-.52.57-.9.67a4.47,4.47,0,0,0-.83.46,3.15,3.15,0,0,0-1.41,2.89l-.94-.78a69.27,69.27,0,0,0,13.35-4.4c4.68-2,9.55-4.44,14.78-6.77,28.64-11.75,12.66-4.5,17.6-6.62,13.5-5.35,23.09-9.26,30.58-12.39l18.15-7.29c10.33-4.2,19.52-7.82,42.24-16A65,65,0,0,1,530.52,46c1.05-.17.74.06,0,.41-1.53.69-4.8,2-2.71,1.54-6,2-11.16,4-15.91,5.82s-9.07,3.3-13.14,4.77C490.6,61.42,483.39,64,475.4,67l19.78-7.09c-7.44,3-23.16,8.92-31.78,12,4.34-1.54,13.76-4.92,26-9.43L509.45,55c7.2-2.69,14.74-5.78,22.71-8l-.11-.28c-22.56,9.92-46.56,19.8-64.12,27.42-7.2,3.39-19.53,9.47-13.56,6.88l6.41-3,6.43-3c6-2.47,0,.38-5.45,3s-10.31,5-2.16,1.35c-5.25,2.53-10.65,5.23-16.27,8.16-2.83,1.52-5.84,2.86-8.7,4.42s-5.7,3.37-7.59,5.89l-1.38-2.31c8.59-1.3,17.45-4.67,27.2-8.16l4.93-1.14c-.29,0-4.44,1.42-9.38,3.18s-10.67,3.74-14.24,4.77c2.64-.78,6.39-1.94,10.69-3.43L459,85.85c9.81-3.43,19.72-7,25.33-9.44l-17.77,6,29.37-11.32c5.24-2.05,10.69-4,16.2-5.94s11.1-3.93,16.72-5.84c-10.4,3-5.14,1.87-21.31,6.77,7.06-2-7.32,2.92-20.5,7.82s-25.38,9.26-14.2,5.67c-8,2.48-14.77,4.87-22.16,7.49-3.69,1.31-7.46,2.7-11.58,4a74.73,74.73,0,0,1-13.59,3l2.74,4.6.6-.67c.24-.23.47-.47.73-.7a5.69,5.69,0,0,0-.8.62c-.28.26-.48.45-.36.26a9.18,9.18,0,0,1,1.94-2,39.17,39.17,0,0,1,8.42-4.83l3.91-2.07,1.21-.59-1,.47c.75-.41.84-.46-.38.18-2.23,1-4.17,1.87-5.72,2.59s-2.7,1.28-3.37,1.6c1-.64,2.3-1.39,3.9-2.22s3.5-1.72,5.55-2.8c4-2.09,8.65-4.41,13.37-6.67,9.44-4.51,19.07-8.9,24-11.07,10.9-4.56-4.44,2.16,1.57-.18L496.29,64c1.64-.21,29.12-11.65,3.67-.47l11.5-4.92,7.91-3.37,3.61-1.5c3.2-1.27,6.74-2.66,10.38-4.45l-2-5.13a193.38,193.38,0,0,0-18.59,6.34l-15.93,6.06c-11.11,4-27.81,10.88-18.28,7l-5.74,2.18L467,68l-3.32,1.26-3.4,1.39L442,78.05l-.38,0c-9.15,3.66-18.41,7.36-27.83,11.24-4.72,2.06-9.29,4.31-14,6.31a67.3,67.3,0,0,1-14.32,4.66l2.59,2.17a2.25,2.25,0,0,1,.16-.91,1.66,1.66,0,0,1,.52-.63,2.92,2.92,0,0,1,.47-.29l.57-.25a1.74,1.74,0,0,0,.61-.43l.83-.71.71-.6a64.36,64.36,0,0,1,6-4.42c1.05-.69,2.13-1.34,3.22-2s2.29-1.33,3.41-2c2.23-1.32,4.48-2.62,6.77-3.89q6.87-3.8,14-7.34c4.8-2.37,9.65-4.69,14.61-6.86,5.86-2.77,11.91-5.42,19-8.41s15.32-6.24,25.45-10.39l4.09-1.3,9-4,9-3.93-9.77-1.36a14,14,0,0,0-8.26,1.51l-.58.31-.59.18-1.71.53-3.45,1c-4.62,1.4-9.29,2.86-13.58,4.26-8.59,2.78-15.74,5.31-18.51,6.48-4.36,1.27-11.34,3.64-19.74,6.76s-18.21,7-28.28,11.14L372,87.27a143,143,0,0,1-13.48,5.08c-1.07.34-2.12.67-3.15,1l-1.9.55a1.78,1.78,0,0,0-.61.32l-.46.29-.46.25a3.87,3.87,0,0,1-3.26.18c-.15,0-.32.08-.5.12l1,4.58.13-.45a24.5,24.5,0,0,1,5.28-4.3c.49-.29,1-.57,1.49-.83.28-.16.41-.19,1-.51l.86-.54c1-.65,2.09-1.29,3.16-1.9,2.14-1.24,4.33-2.39,6.59-3.47,1.2-.54,2.35-1.18,3.53-1.77l3.49-1.76c9.38-4.71,19.43-9.46,30.9-14.56l-1.59.2c6.89-3.16,15.31-6.61,24.76-10.2,4.73-1.8,9.71-3.64,14.87-5.54l3.91-1.43,4-1.54,8.1-3.14-1.21-4a92.33,92.33,0,0,0-14.75,4.34c-4.75,1.7-9.65,3.36-14.47,5.15,1.07-.48,3.66-1.45,6.72-2.54l9.48-3.28L438,50q-3.7,1.23-7.43,2.55c-5,1.74-9.93,3.58-14.9,5.48C405.73,61.86,395.82,65.9,386,70c-19.58,8.25-38.19,17.32-55.43,24.21C322.1,98,316,100.73,310,102.68c.79-.28,1.5-.55,2.11-.78-.88.31-2.18.78-3.52,1.22a64.31,64.31,0,0,1-10.05,2.25l2.71,3.14a9.59,9.59,0,0,1,.67-1.54,9.69,9.69,0,0,0-.7,1.53l-2.68-3.1a55.52,55.52,0,0,0,8.15-1.69,61.53,61.53,0,0,1-8.12,1.89l2.46,2.84a8.33,8.33,0,0,1,4.91-5.4l.25-.11.32-.13a3.44,3.44,0,0,0,.85-.46l1.1-.69,2.21-1.4,4.48-2.84,2-1,2.05-1,2.09-1.25c4.51-2.52,6.32-3.56,6.34-3.72a20.51,20.51,0,0,0-4.22,1.81c4.57-2.72,8.84-5.11,12.14-7,3.92-1.61,10.08-4.79,16.7-7.95a184.27,184.27,0,0,1,19.14-8.15c2.71-1.33,11.92-5.21,22.14-9.11l7.75-2.92c2.59-1,5.16-1.84,7.59-2.72l6.85-2.45,1.46-.54.76-.2.79-.25a17.18,17.18,0,0,0,2.75-1.23l-1-2.61a45.67,45.67,0,0,0-5.2,1.69c-.38,0-3.44.75,2.13-.75-5.78,1.46-11.49,3.12-17,4.82s-10.87,3.42-15.9,5.15l-5,1-12.18,4.42-12.14,4.54c-7.5,2.38-12.78,4.13-14.39,4.54s.48-.55,7.77-3.37c-17.68,6.62-24.78,9.55-31.22,12.18s-12.21,5-26.73,11.88l1.26-1c-5.24,2.34-12,5.56-18.15,8.59s-11.76,6-15,7.21c-2,.83-4.43,1.84-7.49,2.9l1.19,2.5c6.4-3.73,15.12-8.7,25.58-14.14s22.63-11.42,35.7-17.57,27-12.65,41-18.79c7-3.06,14.07-6,21.08-8.78s14.2-4.78,20.85-8.27l-1.26-3.42c-8.77,1.9-16.64,5-24.11,7.45,6.23-1.54-1.06.81-10.12,3.92s-19.9,7-20.95,7.91c-3.68,1.11-12.3,4.3-2.43.22L317,70.3c-6.21,2.51-11.74,4.87-16.93,7.17-10.38,4.61-19.42,9-29.65,14.49-3.57,1.46,6.27-3.56,3.13-2.18l-6,3.13c-1.24.64-2.54,1.3-3.66,1.91s-2.13,1.09-2.92,1.45c-1.54.68-.48.1,1.52-1l1.65-.92c.6-.34,1.27-.71,1.93-1l3.87-2c-1.8.9-3.55,1.77-5.18,2.62s-3.05,1.64-4.46,2.37-2.73,1.37-4,2l-1.82.86-2.24,1c-.19.21-.37.43-.56.65l-.13.15,0,0a.46.46,0,0,1-.07.07c0,.06-.09,0,0,.1a4.07,4.07,0,0,1,.4.84c.15.44,0,.54.11.33a1.06,1.06,0,0,1,.11-.21,1.62,1.62,0,0,1,.2-.28,3,3,0,0,1,.29-.33l.18-.18h0l-.34,3.75c5-4.11,8-6.38,9.87-8a19.7,19.7,0,0,0,3.11-3c14.83-9,22.1-13.74,32.64-20.51,2.68-1.41,6.25-3.28,6.84-3.47s-1.84,1.17-11,6.63c2.58-1.52,7.8-4.59,14.32-8.13s14.37-7.43,22.07-10.92c15.37-7,29.95-12.55,30.39-13.19A77.19,77.19,0,0,0,368,41.24L367,38.64c-4.62,1.45-9.54,3.41-11.26,4.12-12.53,4.9-19.37,7.51-26.1,10.25s-13.41,5.45-25.53,10.74l6.78-2.81c-9.29,4.83-20.13,8.83-39.4,18l.52-.33c-10.17,4.65-16.62,7.78-21.11,10s-7,3.52-9.19,4.68-4.09,2.18-7.33,3.84c-1.62.83-3.57,1.82-6.09,3s-5.6,2.6-9.5,4.11l1.59,1.81a10.61,10.61,0,0,1,2.53-3,11.63,11.63,0,0,1,3.24-1.81,6.89,6.89,0,0,1,.7-.24,3,3,0,0,0,.91-.46l-.49.23a3.76,3.76,0,0,1-.55.12l-.48.08c-.61.09-1.21.25-1.21.25a4.75,4.75,0,0,1,1-.6,7.53,7.53,0,0,1,.87-.37c.16-.09.33-.22.49-.33l.46-.31c1.27-.85,2.94-1.91,4.91-3.13,4-2.45,9.16-5.57,15-9.06,11.67-7,25.9-15.38,38-22.36l-4.45,2.37-4.43,2.4c6.5-4,16-8.91,25.56-13.6l14.08-6.82,6.4-3.13,2.9-1.44,2.66-1.17c1.57-.68.36-.06-1.76.93-.59.27-.89.42-1.56.79l-1.83,1-3.51,1.91,5-2.57,1.1-.56.92-.4,2-.89c2.52-1.13,4.41-2.11,5.84-2.9a18.64,18.64,0,0,0,4.17-2.85c.32-.35,0-.22.06-.44a5,5,0,0,1,.63-.74c.21-.24.47-.46.82-.9l.57-.73a13.57,13.57,0,0,0,.63-1.22l1.73-3.76-4.05,1.11a88.56,88.56,0,0,0-10,3.39c-2.66.88-1.07,0-1.18-.14s-.55,0-2.19.64-4.39,1.76-9.05,3.66c-2.36.91-6.89,2.86-12.7,5.55s-12.89,6.13-20.43,9.85l-11.56,5.69L260.43,65.9c-7.68,3.8-15,7.37-21.29,10.25,5.56-2.43,11.08-4.85-1.32,1.45-4.11,2-8.86,4.33-14,6.77l-16.29,7.75-.3.32-.27.25a2.1,2.1,0,0,1-.3.24,2.27,2.27,0,0,1-.55.29,1.39,1.39,0,0,1-1-.07l.53,3.32c11.37-9,23.2-17.06,31.23-22.79a25.18,25.18,0,0,1,3.32-1.91c6.75-4.5,18-11.41,28.74-17.56s21-11.64,25.23-14.07c1.9-.72,4.91-2.1,8.71-3.9a104.34,104.34,0,0,0,13.44-7.15l-1.25-3.22a59.26,59.26,0,0,0-11.91,3.48l-5.92,2.34q-3,1.15-6,2.3c-8,3.11-16,6.46-23,9.48C254.19,49.52,243.7,54.1,243.6,53.55l-7.15,3.21-15.67,7.15L198,74.31l1.11-.67q-2.52,1.13-4.88,2.12l-4.9,2-.5.52a.92.92,0,0,1-.16.14l-.09.08a1.08,1.08,0,0,1-.21.12,1.2,1.2,0,0,1,0,.24c0,.06,0,0,0,0,.09-.27.07-.18,0-.25l-.09,3.27C197.45,76,204.2,72.16,209.58,69l13.55-7.88c6.57-3.41,1.88-.73,1.37-.37,16-8.44,26.4-14.12,35.13-18.88L272,35.05l6.15-3.47a49.27,49.27,0,0,0,6.55-4.36l-1.32-2.73a65.24,65.24,0,0,0-9.59,3.42c-3.39,1.47-6.95,3.26-10.95,5.12l-3.93,1.23c-4.15,2-16.29,7.48-31.84,15.14-7.8,3.81-16.39,8.28-25.35,12.87-4.48,2.29-9.06,4.61-13.7,6.86l-3.48,1.67-1.25.58-.85.38c-1.15.5-2.32,1-3.53,1.39l-1.14.38-.3.08-.14,0-.07,0s0-.05,0-.08a1,1,0,0,1,.2-.52,8.41,8.41,0,0,1,1.6-1.61,41.68,41.68,0,0,1,3.84-2.73l-2,1.38,1-.68.52-.35.26-.17.14-.08.07,0,0,0h0l-1-1.43c.48.39-1.92-2.07.94.65l0,0a2,2,0,0,1-.4-.53l-.67-.92-.08-.12h0L184,69.7c7.26-5,15.29-9.93,23.5-14.86S224.06,45,232.34,40.29,248.8,31,256.43,26.85c3.9-2,7.69-4,11.29-6,1.8-1,3.55-2,5.25-3.05.85-.52,1.69-1.05,2.53-1.64.42-.3.84-.6,1.28-1a6.68,6.68,0,0,0,.71-.65,4,4,0,0,0,.45-.53,3.55,3.55,0,0,0,.56-1.19l1-4.44-4.22,1.7c-11.95,4.81-21.13,9-26,11.73,0,0-7.77,3.52-15.46,7.2s-15.33,7.48-15.33,7.48c40-18.66-5.64,3.45,10.91-4L205.68,43.73c-5.78,2.69-7.25,3.21,2.27-1.57l3-1.4c3.29-2.17-9,3.85-22,10.28l-9.68,4.77-8.55,4.12-3.41,1.62-.74.34-.47.22a1.71,1.71,0,0,0-.42.28,4.7,4.7,0,0,1-.94.57c-1.12.49-1.78.35-1.67.29a5.12,5.12,0,0,1-.68,0l.84,2.94c15.39-10.83,31.89-19.86,48.18-29.05,8.14-4.6,16.32-9,24.44-13.5L248,17c4-2.25,8.22-4.23,12.21-6.86l5.13-3.39-6.13.09A23.07,23.07,0,0,0,250.54,9c-2.63,1.11-5.09,2.41-7.52,3.5-5,2.17-10.07,4.43-15,6.75q-14.91,7-29.34,14.53l-28.6,15.18-14.19,7.54c-1.18.6-2.38,1.31-3.51,1.94s-2.29,1.26-3.46,1.86-2.33,1.19-3.51,1.76l-1.77.83-2.08.95-.3.27-.24.21-.22.16a2.07,2.07,0,0,1-.41.19,1.4,1.4,0,0,1-.81,0l.8,3.7c1.42-1.13,2.76-2.26,4.16-3.33-1.5,1-2.94,2-4.42,3l-.65-3a2.06,2.06,0,0,0,1.08.16,2.33,2.33,0,0,0,.57-.18,2.92,2.92,0,0,0,.77-.52,4.41,4.41,0,0,1-.73.59,2.36,2.36,0,0,1-.57.25,2.13,2.13,0,0,1-1.2,0l.53,2.44q4.68-3.83,9.57-7.4t9.95-6.9c3.14-2,5.31-3.18,4.57-2.56-.37.3-1.47,1.07-3.52,2.46s-5,3.4-9.11,6.32c4.39-2.93,11.32-7.68,17.37-11.57S179.78,41,180,40.79c8.57-4.89,12.1-6.75,12.66-7s-1.82,1.25-4.94,3.13c-6.25,3.75-15.34,9.35-10.14,6.27l7.08-4.16L191.78,35l-3.26,1.76c5.72-3.43,8.8-5.36,13.11-7.88s9.84-5.66,20.64-11.14a102.47,102.47,0,0,1,9.48-4.36,16.15,16.15,0,0,0,3.19-1.28s.11,0,.39-.14l1.35-.59c1.29-.58,3.42-1.51,6.75-3.14,2.07-1,4.14-2.07,6.16-3.26l4.13-2.46L249.1,1a8.23,8.23,0,0,0-4.79,0,9.56,9.56,0,0,0-2.13.94l-.39.25a.7.7,0,0,1-.17.09l-.65.21L234.1,4.75c-4.63,1.55-9.18,3.23-13.69,5,0,0,3.39-1.2,6.81-2.3s6.88-2.13,6.88-2.13c-7.52,2.68-15.33,5.82-19.35,7.54s-4.29,1.9,3.48-.94c-3.41,1.21-8.53,3.24-14.77,5.89s-13.68,5.88-21.56,9.75-16.3,8.26-24.72,12.81c-2.11,1.15-4.2,2.26-6.33,3.45l-6.22,3.56a66.52,66.52,0,0,1-12.4,5.79l1.47,2.74a168.83,168.83,0,0,1,14.37-10.34c4.68-3.1,9-5.95,12.9-8.39,7.77-4.89,13.67-8.35,16.27-9.83C184.34,23,191.46,18.7,199,14.6c3.75-2,7.59-4,11.58-6a100.46,100.46,0,0,1,12.38-5.45L221.7,1A9,9,0,0,1,220,2a9.64,9.64,0,0,1-.93.4c-.34.13-.57.18-1.12.35l-4.37,2-8.88,4c6.18-2.66,10.12-3.76-11.2,5.84,3.62-2.38-6.19,1.92-19.1,7.68s-28.77,13.42-37.36,17.43c3.15-1.5,2.5-1.07-.31.47S129,44.38,123.6,47.51l-15.92,9.38-3.35,2-1.41,1c-.4.28-.8.54-1.17.76a28,28,0,0,1-3.11,1.58L100,64.78c.38-.34.39-.4-.07-.09l-1.28-2.32a14.2,14.2,0,0,0,4.15-1.77,18.24,18.24,0,0,1-4.08,2l1.08,2c9-6.69-1.35,1.59,9.34-6.14C120.45,49.78,132.89,41.2,146,32.44c6.55-4.37,13.3-8.73,20.34-12.83,3.54-2.05,7.1-4,10.82-5.92s7.25-4,11-4.54l-1.28-3.63a108.73,108.73,0,0,1-14.41,6.33c-2.51,1-5.08,2-7.6,3l-7.5,3.22c-10,4.31-20.17,8.77-30.13,13.79-.71.56,8-3.52-2.9,2.26,0,0-6.87,3.26-13.61,6.78s-13.4,7.16-13.4,7.16c-4.88,2.9-7,4.48-10.15,6.53-1.58,1-3.44,2.19-6,3.72s-5.92,3.45-10.39,6.16c2.57-1.47,6.39-3.63,0,.53q-4.78,3-9.35,6.5l1.5,2.56c4.31-1.87,7.59-4.9,11-7.39L84.43,59.3c7.09-4.92,14.14-10,21.31-14.86L127.27,29.7c7.11-5.07,14.63-9.37,22-14.32l-1.65-2.89c-20.51,9.88-41,20-61,31.35q-15,8.46-29.56,17.55c-4.88,3-9.66,6.15-14.48,9.23l-7.22,4.64-.45.29a4.06,4.06,0,0,0-.59.42,8.57,8.57,0,0,1-.77.61,14.39,14.39,0,0,1-1.62,1A13.83,13.83,0,0,1,28.37,79L30,81.48a44.86,44.86,0,0,1,7.79-7.79l4.45-3.58,4.42-3.62c5.92-4.76,12-9.34,18.1-13.82L74,46l9.19-6.75c6.12-4.49,12.19-8.82,18.63-12.76l-6,3.74c-.87.53-.73.38.12-.22s2.39-1.69,4.36-3,4.35-3.07,6.66-4l-1.56-3.54-.06,0,.06,0L107,23.06c-1.49.58-2.27,1.07-2.58,1.18s-.16,0,.13-.27c.59-.52,1.82-1.27,1.15-1.08.36-.16.71-.31,1.06-.44l-1-2.34c-14,6.82-27.51,14.57-40.8,22.61-3.54,2.57-14.35,9.46-24.74,16.12L25.76,68a93.91,93.91,0,0,0-8,5.48s3.16-2.13,6.35-4.17l6.39-4.07c-8.34,5.64-2.13,2.29,5.86-2.25s17.79-10.28,16.81-9.08c6.39-4.41,14.41-9.46,23.54-14.79S96.09,28.16,107,22.73l-1.33-3c-3,1.15-5.17,2.93-7.51,4.37s-4.74,3.14-7.07,4.81c-4.64,3.34-9.17,6.9-13.64,10.5-6.64,4.75,5.37-4.43,1.75-2-3.62,3-7.65,6.17-13,10.12S54.4,56.29,46.14,62.81l1.79-1.57q-3,2.41-5.82,4.75c-1.86,1.56-3.67,3-5.45,4.46a50.62,50.62,0,0,0-9.23,9.14l-2.52,3.47,4.18-1a16.86,16.86,0,0,0,4-1.46,17.21,17.21,0,0,0,1.81-1.07c.29-.2.57-.4.84-.61l.41-.32.32-.27,6.1-3.92,11.9-7.61C62.3,62,70,57.35,78.08,52.68c16.2-9.37,34.15-18.84,58.75-30.69l-4.6,1.73c9.16-4.45,13.19-6.27,16.93-8l-1.92-3.36c-1.41.88-2.75,1.71-4.33,2.71-5.13,3.55-1.33,1.32,4.48-2.49l1.66,2.9c-10.14,4.79-26.12,12.79-18.12,8.3,3.77-1.63,10.16-4.62,18.09-8.35l-1.6-2.8c-3.22,2.12-6.78,4.34-10.54,6.68-1.87,1.17-3.79,2.38-5.73,3.64s-3.84,2.6-5.79,3.92L102,42.83l-20,13.84c-2.8,1.91-5.26,3.58-7.3,4.93l-2.73,1.79-2,1.34a74.62,74.62,0,0,1-6.46,4.79c-.74.48-.37.34.18.08A8.43,8.43,0,0,1,65,69a4.06,4.06,0,0,1-.76.57,17.45,17.45,0,0,1-2.67,1.47l1.8,3.07c.64-.5,1.86-1.44,3.45-2.58,0,0,1.2-.77,2.43-1.52s2.45-1.47,2.45-1.47l2.19-1.65,2.22-1.63c6.08-3.72,10.82-6.3,14-8.07a40.24,40.24,0,0,1,5.27-2.64c-3,1.74-8.5,5.1-11.69,7,8.12-4.55,19.32-11.36,29.38-17s19-10.14,21.87-11.44c0,0-4.73,2.2-9.39,4.55s-9.28,4.82-9.28,4.82c10.88-6.07,22.59-11.69,34.85-17.08l9.25-4c3.1-1.33,6.25-2.73,9.34-4,6.25-2.54,12.88-4.77,19.15-8.32l-1.42-4a26.12,26.12,0,0,0-7,2.32c-2.16,1-4.16,2.17-6.13,3.21-4.06,2.13-8.07,4.4-12,6.74-7.84,4.7-15.38,9.74-22.74,14.74-14.75,10-28.91,20-41.61,30.09l1.75,3.19A22.09,22.09,0,0,0,104.47,63a22.46,22.46,0,0,1-4.32,2A21.71,21.71,0,0,0,104,63c.58-.37,1.13-.75,1.65-1.15a3,3,0,0,1,.61-.43L107,61l5.66-3.35,9.13-5.35c5.28-3.12,9.27-5.24,13.41-7.4s8.42-4.34,14.38-7.29,13.58-6.71,24.59-11.7l-1.57.77c8.71-4.2,20.42-9.66,32.48-15.11-11,5.28,21.18-9,6.68-2.14l6.5-3L219,6a1.5,1.5,0,0,1,.44-.17,13.44,13.44,0,0,0,1.65-.63,12.29,12.29,0,0,0,2.72-1.72L221.86,0a78.89,78.89,0,0,0-8.81,3.78l-5.44,2.75c-2.85,1.47-4.35,2.3-5.78,3.12l-5.31,3.11c-2.52,1.49-6.21,3.68-12.2,7.36l-6.48,3.37-10.85,7c-3.86,2.49-9.2,5.81-19.24,12.54,16.39-11.17-13.2,8,5.13-4.55-8,5.08-15.28,9.64-21.45,14.73l1.83,3.4a60.5,60.5,0,0,0,11.39-5.15c3.4-1.88,6.5-3.79,9.48-5.44,6.06-3.37,11.52-6.39,16.61-9.11a245.92,245.92,0,0,1,27.65-13.05c5.21-2.59,5.3-2.81,2.68-1.77s-7.92,3.34-13.43,6c-11,5.24-22.9,11.71-17.2,8.56-4.89,2.4-.76-.05,6.43-3.88,3.59-1.91,8-4.15,12.37-6.27s8.83-4.11,12.48-5.69c6.18-2.71,11.69-4.87,18.79-7.43,3.55-1.28,7.5-2.65,12.15-4.15l7.58-2.36,2.09-.65L243,6a2,2,0,0,0,.74-.33,5.83,5.83,0,0,1,.52-.32,3,3,0,0,1,.4-.21A4.35,4.35,0,0,1,248,4.86l-.42-3.38c-4.36,2.58-9.76,4.8-16,7.66l7.61-3.53c-3.45,1.51-7,3-10.41,4.73s-6.87,3.43-10.38,5.27c-7,3.67-14.37,7.66-22.65,12.07-8.84,5.67-21.13,12-23.31,14.32,0,0,8-4.85,16.13-9.49,4.05-2.33,8.11-4.66,11.17-6.38l5.12-2.84c-4.64,2.58-9.15,5.22-13.78,8s-9.41,5.62-14.52,8.75S166,46.56,160,50.47s-12.38,8.34-19.29,13.73c1-.92,3.54-3,6.58-5.39s6.6-5,9.56-7a189,189,0,0,0-18.72,13.82l-2,1.61,2.47.68a4.86,4.86,0,0,0,2.7,0,4.66,4.66,0,0,0,1.24-.56,5.14,5.14,0,0,0,.54-.37,3.53,3.53,0,0,0,.3-.25l2.62-1.15a8,8,0,0,1-.91.58l-.79.42-.47.24c-.09,0-.2.1-.29.16s-.11.12-.18.18-.29.24-.45.36a5.66,5.66,0,0,1-1.2.65,5.24,5.24,0,0,1-3.22.17l-3.22-.86,2.56-2.16c2.55-2.17,6-4.93,10-7.88s8.63-6.11,13.43-9.21c9.61-6.21,20-12.2,27.61-16.82-4.85,2.56-14.11,8-20.87,12.29s-11,7.16-6.47,3.66c-6.6,4.9-15,10.47-23.88,17.74l-3,2.45,3.76,1.05a5.65,5.65,0,0,0,3.08,0A6.25,6.25,0,0,0,143,68l.6-.42.16-.13.09-.08,1.53-.69,1.83-.85c1.22-.59,2.46-1.2,3.69-1.84s2.47-1.31,3.71-2l1.82-1,1.87-1q7.53-4.07,15.53-8.63l-1.38,1.28c3.81-2.12,11.67-6.57,18.76-10.34l-12.53,7.38c4.86-2.74,9.67-5.35,14.45-7.88s9.5-5.05,14.28-7.38c9.53-4.7,19-9.19,28.66-13.73-10.15,4.64-15.71,7.42-18.73,8.83s-3.44,1.56-3.17,1.31c.56-.48,4-2.47-4.55,1.63,16.69-8.69,25.56-12.56,32-15.24l2.34-.95c.78-.32,1.53-.63,2.24-.94,1.43-.62,2.76-1.22,4.11-1.78s2.74-1.09,4.22-1.54a15.55,15.55,0,0,1,4.68-.76l-1.43-4.7c-1.55,1-3.33,2-5.44,3.07s-4.56,2.34-7.27,3.83c-5.45,3-12.21,6.68-20.85,11.49,7.32-4.12,27.74-15,16.34-8.46C230.22,22,216.43,29.38,210,32.73,174.34,53,215.76,30,200.69,38.9c-6.23,3.19-10.59,5.75-15.3,8.7s-9.8,6.28-17.31,11.32l-.37-.33c-2.52,1.64-4.74,3.15-6.68,4.5l-5.11,3.54,6.23.42a8,8,0,0,0,4.07-.79,8.81,8.81,0,0,0,1.53-.94.79.79,0,0,1,.21-.13l.58-.29,4.09-2c2.38-1.19,4.1-2.07,5.4-2.75,2.59-1.35,3.45-1.92,4.46-2.55,2-1.25,4.57-2.74,22.29-11.35l-15.63,8.52,19.57-9.92-3.81,2.51c10.58-5.52,17.57-9,24.59-12.29s14-6.45,24.76-11c-2.56.93-1.95.42,1.67-1.34s10.27-4.76,19.87-8.6l.92-.34-1-1.52a1.37,1.37,0,0,1-.46-.14,1.18,1.18,0,0,1-.18-.13s-.05,0-.1-.08l-.16-.09-.14-.09h0v0l-.23.21c-.19.15-.37.3-.57.43-.37.26-.69.47-.95.63a6.55,6.55,0,0,1-.91.5c-.23.09.13-.19.07-.2s-.5.29-2.47,1.46-5.49,3.19-11.74,6.52l7.58-4.51,4.5-2.71c.79-.49,1.62-1,2.43-1.54.4-.27.82-.56,1.17-.83a4.05,4.05,0,0,0,.45-.37c.06,0,.1-.15.12,0a9.17,9.17,0,0,0,1,.66,1.2,1.2,0,0,0,.67.29L277,14.44l-5.79,2.17c-1.15.63-5.92,2.75-7.1,3.42l13.06-5.17-1.4-2.64a1.19,1.19,0,0,1-.5-.17,1.06,1.06,0,0,1-.21-.16l-.36-.22a4.89,4.89,0,0,1-.68-.52l-.16-.15-.07-.07h0s0,0,0,0l-.22.2c-.2.18-.49.39-.78.6-.59.42-1.24.85-1.91,1.26-1.33.84-2.73,1.66-4.13,2.46-2.79,1.6-5.61,3.13-8.28,4.58l-3.92,2.09c-1.24.66-2.54,1.39-3.65,2l-6,3.39,5.55-3.09c.91-.5,1.71-1,2.56-1.39l2-1-1.61.89c-1.08.59-2.49,1.43-4.22,2.43l-12.63,7.44c-9.16,5.43-18.24,11-18.24,11-5.86,3.27-1.37.41,3.1-2.38-7.41,4.42-12.42,7.7-23.23,14.33,2.62-2,1.68-2,17-11.42-5.71,3.48-11.37,7-17.05,10.54S186.9,62,181.37,65.9l2.94,4.29.07-.06.13-.1.15-.12.07-.07,0,0,.05,0a3.55,3.55,0,0,0,.26-.34,2.52,2.52,0,0,0,.34-.79,2.62,2.62,0,0,0-.15-1.68,2.57,2.57,0,0,0-1.16-1.24,2.47,2.47,0,0,0-.85-.28,3.82,3.82,0,0,0-.43,0h-.15l-.08,0-.33.1-.7.23c-.87.48-2.38,1.44-4.17,2.68a41.58,41.58,0,0,0-5.06,4A15,15,0,0,0,170,75.39a13.17,13.17,0,0,0-1,1.84,7.72,7.72,0,0,0-.48,1.55,4.19,4.19,0,0,0-.09.93v.43l0,0,.08.18a.78.78,0,0,1,.1.39s-.12-.1-.28-.36a13,13,0,0,1,.63,1.66c2.05-.6,4.05-1.16,6.26-1.86s4.68-1.65,7.22-2.74c1.25-.53,2.62-1.15,3.68-1.65l2.14-1,4.33-2.16c5.83-2.94,11.9-6.2,18.12-9.55,12.41-6.72,25.62-13.52,38.52-19.5,1.36-.73,4.12-2.14,9.84-4.82l12.76-5.68a72.16,72.16,0,0,1,12.5-4.44L282,23.87c-3.22,2.5-7.24,4.43-11.32,6.68l-12.32,6.7c-8.4,4.57-17.19,9.49-26.76,14.86l-16.93,8.32c-11.4,6.35-5.68,3.46-1.87,1.63,1.91-.91,3.35-1.56,1.94-.66s-5.71,3.27-15.1,8.76c-7.5,4.43-11.47,7-13.57,8.22l-2.7,1.6,2.61,2a4.39,4.39,0,0,0,1.59.75,4.07,4.07,0,0,0,1.54,0,4.91,4.91,0,0,0,1.59-.55c.58-.31.64-.31.63-.22s-.14.27,0,.26.72-.42.72-.38l.17,0,.1,0,.06,0,.15-.05,1.61-.6c1.77-.78,3.69-1.65,5.74-2.62L203.06,77c1.1-.55,2.15-1.07,3.3-1.61l15.11-7.17c10.9-5.14,23.28-10.87,36.33-16.1C249.29,55.86,242.6,58.71,234.69,62.35Zm63-9.52c-5.58,2.69-16.62,8.31-20.84,10C283,59.3,288.06,57.15,297.71,52.83Zm-42.27,49.94c-.43.21-.68.32-1,.49a2.12,2.12,0,0,1-.2.24l-.12.13-.19.19a3.93,3.93,0,0,1-1.05.71,2.49,2.49,0,0,1-1.69.16,2.91,2.91,0,0,1-1.37-.92l-.76-.86.91-.73a131.85,131.85,0,0,1,12.12-8.47c-3.68,2.48-7.71,5.24-12,8.59l-.79.61.66.76a2.9,2.9,0,0,0,1.07.81,2.35,2.35,0,0,0,1.57,0,4.51,4.51,0,0,0,1.83-1.31C254.7,103.07,255,103,255.44,102.77ZM523.49,47.14l-.62.24c-6.63,2.28-8.69,3.11-8,2.85S518.89,48.7,523.49,47.14ZM514.11,57c-2.64,1.2-2.43,1.18-1.28.76.9-.45,2.83-1.31,5.39-2.42S524,53,527.39,51.49C525.44,52.23,521.94,53.48,514.11,57ZM237.77,10.58l-2.57,1.09-2.55,1.11c5.65-2.69,7.8-3.61,8-3.7S239.34,9.8,237.77,10.58Z"/><path class="cls-1" d="M291.74,74.17A14.14,14.14,0,0,1,294.17,73C296.24,71.73,296.23,71.61,291.74,74.17Z"/><path class="cls-1" d="M250.13,43.17l-.88.41a6.94,6.94,0,0,0-.85.5Z"/><path class="cls-1" d="M362.87,96.32c-2.85.93-5.1,1.57-6.9,2.05l-.5.12a.85.85,0,0,0-.32.15l-.53.29c-.19.11-.4.19-.59.29a9.32,9.32,0,0,1-2.19.67c-.21.06.63.14,2.57-.76.23-.11.51-.28.72-.39a1,1,0,0,1,.41-.19l1.87-.52C358.89,97.6,360.7,97.05,362.87,96.32Z"/><path class="cls-1" d="M477.24,76.9,460,83.34c8.37-3.08,11.4-4.08,15.66-5.55C475.19,77.83,471.83,78.88,477.24,76.9Z"/><path class="cls-1" d="M508.5,72.9c-2.44,1.14-5.22,2.33-7.62,3.48l.77-.1C512.1,71.55,519.42,68.27,508.5,72.9Z"/><path class="cls-1" d="M493.82,72.55a73.75,73.75,0,0,0,8.25-2.69l16.28-5.78-2.16.76c1.71-.9-.67-.17-5.09,1.37S500.21,70.08,493.82,72.55Z"/><path class="cls-1" d="M521.18,63.08l11.27-3.95C533.8,58.41,527.86,60.68,521.18,63.08Z"/><path class="cls-1" d="M480.68,71.59c-5.66,2.32-3.33,2-6.56,3.22C468,77.92,511.36,58.17,480.68,71.59Z"/><path class="cls-1" d="M504.11,70.27l-4.53,1.07-6.67,2.86,5.59-2c1.4-.5,2.8-1,3.85-1.34Z"/><path class="cls-1" d="M442.16,87.18c-2.88,1.44-5.84,2.67-8.64,4.18a22.86,22.86,0,0,0-7.46,5.76l-.23-.38,1.4-.21c-.32,0,2.25-.49,5.35-1.3-2.23.55-4.53,1-6.77,1.34l.39.66a19.71,19.71,0,0,1,5.51-4.67,60.88,60.88,0,0,1,5.45-2.88A51.24,51.24,0,0,0,442.16,87.18Z"/><path class="cls-1" d="M432.58,95.23a132.41,132.41,0,0,0,15.73-5.16C445,91.32,437.72,94,432.58,95.23Z"/><polygon class="cls-1" points="477.64 80.04 471.88 82.03 458.18 87 477.64 80.04"/><path class="cls-1" d="M416.77,90.18s-1.31.51-3.25,1.38-4.49,2-7,3.22-5.12,2.33-7.07,3.14-3.26,1.3-3.26,1.3c-2.09,1,3.75-1,11.32-4.58,2.43-1.17,5.54-2.64,7.68-3.59S418.4,89.62,416.77,90.18Z"/><path class="cls-1" d="M480.66,66.55c-5.74,2-6.17,2.06-9.44,3.1l-.43.82Z"/><path class="cls-1" d="M419.61,90.67c-.49.27-2.67,1.13-5.12,2.26s-5.26,2.48-7.22,3.42-3,1.46-2,1,4.2-1.92,10.68-4.74C418,91.62,438.88,83.13,419.61,90.67Z"/><path class="cls-1" d="M362.35,87s-1.27.68-2.52,1.39-2.47,1.46-2.47,1.46l1.23.45,1.85-1.67C361.38,87.8,362.35,87,362.35,87Z"/><path class="cls-1" d="M314.9,91.92c-4.9,3-7.92,4.86-9.87,6.1l-.43.27-.53.23c-.46.22-.85.42-1.19.61a10.25,10.25,0,0,0-1.42,1,17.27,17.27,0,0,0-1.67,1.61,13.58,13.58,0,0,0-3.14,5.43l-1.1,3.53,3.65-.57a71.16,71.16,0,0,0,7.92-1.7c3.29-1.16-2.56.79-7.95,1.51l-3.35.45,1-3.17a12.86,12.86,0,0,1,1.65-3.41,11.05,11.05,0,0,1,1.9-2.13,5.93,5.93,0,0,1,.91-.7s-.25.22-.89.83a13.1,13.1,0,0,1,2.77-2c.48-.26,1-.49,1.43-.69l.27-.11a.61.61,0,0,0,.14-.07l.48-.31L309.58,96l5.81-3.72C318.13,90.53,318.3,90.28,314.9,91.92Z"/><path class="cls-1" d="M300.4,101.77a12.14,12.14,0,0,0-3.29,5.5l-.83,2.92,2.85-.58c.83-.18,1.8-.32,2.77-.56-1.56.34-2.87.54-2.77.55l-2-2.33a12.56,12.56,0,0,1,1.86-3.83A12.42,12.42,0,0,1,300.4,101.77Z"/><polygon class="cls-1" points="37.59 59.43 22.96 68.4 32.53 62.8 37.59 59.43"/><path class="cls-1" d="M10.32,78.19s-.92.48-1.82,1-1.82,1-1.82,1-2,1.77-3.79,3.68c-.48.48-.88.89-1.39,1.45a6.06,6.06,0,0,0-1.26,2A4.54,4.54,0,0,0,0,89.27a4.38,4.38,0,0,0,.08.63,4.84,4.84,0,0,1,.22-2.46A5.91,5.91,0,0,1,1.79,85.3c.53-.52,1-.93,1.51-1.42s1-.95,1.57-1.4A64,64,0,0,1,10.32,78.19Z"/><path class="cls-1" d="M336.24,32.23a.69.69,0,0,1-.18.31l-.28.36.32-.25.18-.13.1-.11.22-.21h0l.06,0,.12.06.25.11a4.27,4.27,0,0,0,.54.18l2.81,3.94a63.5,63.5,0,0,0-11,3.56,73.77,73.77,0,0,1,11-3.34l-2.86-4.16c-.59-.12-1.42-.63-1.15-.52l-.06.05Z"/><polygon class="cls-1" points="271.89 47.26 268.37 49.2 275.23 46.09 271.89 47.26"/><path class="cls-1" d="M192.76,72.36c-2.41,1.44-4.93,3-7.5,4.68l-4.64,3,4.47,3.21a6,6,0,0,0,2.27,1,5.61,5.61,0,0,0,2.78-.17,6.51,6.51,0,0,0,1.89-1,3.37,3.37,0,0,0,.34-.27l.18-.16h0l2.39-1L198,80.3c2-.88,4-1.78,5.9-2.65-2.28,1.07-4.44,2-6.47,2.89l-2.94,1.2c-.87.35-2.16.85-2,.78h0l-.24.2-.36.28a6.35,6.35,0,0,1-2,1,5.43,5.43,0,0,1-2.66.06,5.84,5.84,0,0,1-2.05-1l-4.31-3.14,4.47-2.73C191.21,73.63,194.14,72.06,192.76,72.36Z"/></g></g></svg>